<svg width="220" height="271" viewBox="0 0 220 271" fill="none" xmlns="http://www.w3.org/2000/svg">
<g clip-path="url(#clip0)">
<path d="M217.928 209.026L120.832 268.448L121.091 156.594L218.187 97.1714L217.928 209.026Z" fill="white"/>
<path d="M120.833 270.303C120.348 270.292 119.887 270.092 119.549 269.745C119.21 269.398 119.02 268.933 119.021 268.448L119.279 156.594C119.282 156.283 119.362 155.978 119.513 155.707C119.664 155.435 119.88 155.206 120.143 155.04L217.238 95.6177C217.513 95.4484 217.829 95.3558 218.152 95.3495C218.475 95.3432 218.794 95.4234 219.076 95.5819C219.358 95.7404 219.592 95.9713 219.754 96.2507C219.917 96.5302 220.002 96.848 220 97.1712L219.741 209.025C219.752 209.338 219.677 209.648 219.525 209.922C219.373 210.195 219.149 210.423 218.878 210.579L121.782 270.001C121.511 270.21 121.175 270.317 120.833 270.303ZM122.947 157.629L122.689 265.168L216.073 207.99L216.332 100.451L122.947 157.629Z" fill="#E50012"/>
<path d="M218.187 97.1714L121.092 156.594L24.2979 96.7399L121.394 37.3174L218.187 97.1714Z" fill="white"/>
<path d="M121.091 158.45C120.751 158.45 120.419 158.344 120.142 158.148L23.3485 98.2935C23.0834 98.1304 22.8647 97.9018 22.7135 97.6297C22.5623 97.3577 22.4838 97.0512 22.4854 96.7399C22.4884 96.4236 22.5685 96.1128 22.7189 95.8346C22.8694 95.5563 23.0855 95.319 23.3485 95.1433L120.444 35.7207C120.731 35.5498 121.059 35.4595 121.393 35.4595C121.727 35.4595 122.055 35.5498 122.343 35.7207L219.136 95.6179C219.401 95.781 219.62 96.0096 219.771 96.2817C219.922 96.5538 220.001 96.8602 219.999 97.1715C220.004 97.4893 219.927 97.803 219.776 98.0825C219.625 98.3621 219.405 98.5982 219.136 98.7682L122.084 158.191C121.781 158.363 121.439 158.452 121.091 158.45ZM27.7933 96.7399L121.091 154.436L214.691 97.1715L121.393 39.4751L27.7933 96.7399Z" fill="#E50012"/>
<path d="M121.034 31.6637C125.91 18.8902 133.98 4.00225 156.722 4.00225C177.651 4.00225 195.948 17.8114 195.991 46.8106C195.991 77.0181 152.191 103.946 122.026 135.319C121.882 135.463 121.71 135.578 121.522 135.657C121.333 135.735 121.13 135.776 120.926 135.776C120.721 135.776 120.519 135.735 120.33 135.657C120.141 135.578 119.97 135.463 119.825 135.319C89.6178 106.06 47.0683 80.8156 47.0252 43.3583C46.838 38.2235 47.6949 33.1041 49.5438 28.3101C51.3928 23.5161 54.1954 19.1471 57.7819 15.4678C61.3685 11.7884 65.6645 8.87513 70.4097 6.90436C75.155 4.93359 80.2508 3.94629 85.3887 4.00225C107.656 4.00225 116.071 18.545 121.034 30.5417V31.6637Z" fill="#E50012"/>
<path d="M121.225 27.1955C118.83 21.8831 115.608 16.231 110.723 11.6761C104.931 6.27568 96.8946 2.50403 85.3968 2.50225C80.0588 2.44522 74.7646 3.47151 69.8344 5.51908L70.4082 6.90063L69.8344 5.51908C64.9018 7.56769 60.4361 10.596 56.7078 14.4208C52.9796 18.2454 50.0663 22.787 48.1443 27.7703L48.1443 27.7703C46.2255 32.7454 45.3346 38.0577 45.5252 43.3864C45.5575 62.7096 56.5554 78.743 71.0445 93.4652C78.3042 100.842 86.5019 107.949 94.7358 115.012C95.3678 115.555 96.0001 116.097 96.6321 116.638C104.249 123.167 111.841 129.674 118.776 136.391C119.054 136.666 119.384 136.888 119.751 137.041L119.758 137.044C120.124 137.195 120.52 137.276 120.926 137.276C121.33 137.276 121.727 137.195 122.094 137.044L122.103 137.04C122.468 136.887 122.803 136.663 123.087 136.38L123.097 136.369L123.107 136.359C130.603 128.563 138.956 121.032 147.304 113.624C148.37 112.678 149.436 111.735 150.5 110.792C157.754 104.367 164.922 98.0199 171.37 91.6989C186.075 77.2852 197.491 62.6032 197.491 46.8106V46.8084C197.469 31.9825 192.772 20.8696 185.24 13.4623C177.72 6.06584 167.513 2.50225 156.722 2.50225C144.98 2.50225 136.896 6.36342 131.132 11.9675C126.564 16.4103 123.518 21.8867 121.225 27.1955Z" stroke="white" stroke-width="3"/>
<path d="M24.0391 208.594L120.832 268.448L121.091 156.594L24.298 96.7393L24.0391 208.594Z" fill="white"/>
<path d="M120.833 270.304C120.492 270.31 120.159 270.204 119.884 270.002L23.0908 210.148C22.8223 209.978 22.6019 209.742 22.4508 209.462C22.2996 209.183 22.2229 208.869 22.2278 208.551L22.4867 96.74C22.483 96.4066 22.5692 96.0784 22.7363 95.7898C22.9034 95.5012 23.1451 95.263 23.4361 95.1002C23.7167 94.933 24.0372 94.8447 24.3639 94.8447C24.6905 94.8447 25.0111 94.933 25.2917 95.1002L122.085 155.041C122.342 155.212 122.554 155.443 122.704 155.713C122.855 155.983 122.938 156.285 122.948 156.594L122.689 268.448C122.678 268.937 122.479 269.403 122.133 269.748C121.788 270.094 121.322 270.293 120.833 270.304ZM25.8958 207.558L119.021 265.169L119.28 157.63L26.1547 100.02L25.8958 207.558Z" fill="#E50012"/>
<path d="M1.81543 141.403L98.6522 201.301L121.092 156.594L24.2985 96.7393L1.81543 141.403Z" fill="white"/>
<path d="M98.6521 203.114C98.3043 203.116 97.962 203.027 97.6595 202.855L0.866014 142.958C0.471304 142.723 0.183128 142.345 0.0623468 141.902C-0.0584349 141.459 -0.00236684 140.987 0.21871 140.584L22.6586 95.9204C22.7736 95.688 22.9371 95.483 23.1381 95.3192C23.3391 95.1554 23.5729 95.0367 23.8237 94.971C24.0693 94.8987 24.3277 94.8805 24.581 94.9177C24.8344 94.955 25.0766 95.0468 25.291 95.1868L122.084 155.041C122.464 155.289 122.739 155.668 122.858 156.105C122.977 156.542 122.932 157.008 122.732 157.414L100.292 202.121C100.043 202.578 99.6246 202.919 99.1268 203.071L98.6521 203.114ZM4.3183 140.714L97.9616 198.669L118.805 157.285L25.032 99.3295L4.3183 140.714Z" fill="#E50012"/>
</g>
<defs>
<clipPath id="clip0">
<rect width="220" height="271" fill="white"/>
</clipPath>
</defs>
</svg>
