<svg width="220" height="267" viewBox="0 0 220 267" fill="none" xmlns="http://www.w3.org/2000/svg">
<path d="M217.928 205.026L120.832 264.448L121.091 152.594L218.187 93.1714L217.928 205.026Z" fill="white"/>
<path d="M120.833 266.303C120.348 266.292 119.887 266.092 119.549 265.745C119.21 265.398 119.02 264.933 119.021 264.448L119.279 152.594C119.282 152.283 119.362 151.978 119.513 151.707C119.664 151.435 119.88 151.206 120.143 151.04L217.238 91.6177C217.513 91.4484 217.829 91.3558 218.152 91.3495C218.475 91.3432 218.794 91.4234 219.076 91.5819C219.358 91.7404 219.592 91.9713 219.754 92.2507C219.917 92.5302 220.002 92.848 220 93.1712L219.741 205.025C219.752 205.338 219.677 205.648 219.525 205.922C219.373 206.195 219.149 206.423 218.878 206.579L121.782 266.001C121.511 266.21 121.175 266.317 120.833 266.303V266.303ZM122.947 153.629L122.689 261.168L216.073 203.99L216.332 96.4509L122.947 153.629Z" fill="#E50012"/>
<path d="M218.187 93.1714L121.092 152.594L24.2981 92.7399L121.394 33.3174L218.187 93.1714Z" fill="white"/>
<path d="M121.091 154.45C120.751 154.45 120.419 154.344 120.142 154.148L23.3482 94.2936C23.0831 94.1305 22.8644 93.9019 22.7132 93.6298C22.562 93.3578 22.4835 93.0513 22.4851 92.74C22.4881 92.4237 22.5682 92.1129 22.7186 91.8347C22.8691 91.5564 23.0852 91.3191 23.3482 91.1434L120.444 31.7208C120.731 31.5499 121.059 31.4596 121.393 31.4596C121.727 31.4596 122.055 31.5499 122.343 31.7208L219.136 91.618C219.401 91.7811 219.62 92.0097 219.771 92.2818C219.922 92.5539 220.001 92.8603 219.999 93.1716C220.004 93.4894 219.927 93.8031 219.776 94.0826C219.625 94.3622 219.405 94.5983 219.136 94.7683L122.084 154.191C121.781 154.363 121.439 154.452 121.091 154.45ZM27.793 92.74L121.091 150.436L214.691 93.1716L121.393 35.4752L27.793 92.74Z" fill="#E50012"/>
<path d="M120.833 27.6637C125.709 14.8902 133.779 0.00225238 156.521 0.00225238C177.45 0.00225238 195.747 13.8114 195.79 42.8106C195.79 73.0181 151.99 99.946 121.825 131.319C121.681 131.463 121.509 131.578 121.321 131.657C121.132 131.735 120.929 131.776 120.725 131.776C120.52 131.776 120.318 131.735 120.129 131.657C119.94 131.578 119.769 131.463 119.624 131.319C89.4169 102.06 46.8674 76.8156 46.8243 39.3583C46.6371 34.2235 47.494 29.1041 49.3429 24.3101C51.1919 19.5161 53.9945 15.1471 57.581 11.4678C61.1676 7.78838 65.4636 4.87513 70.2088 2.90436C74.9541 0.933585 80.0499 -0.053707 85.1878 0.00225238C107.455 0.00225238 115.87 14.545 120.833 26.5417V27.6637Z" fill="#E50012"/>
<path d="M24.0388 204.594L120.832 264.448L121.091 152.594L24.2977 92.7395L24.0388 204.594Z" fill="white"/>
<path d="M120.833 266.304C120.492 266.31 120.159 266.204 119.884 266.002L23.0903 206.148C22.8218 205.978 22.6014 205.742 22.4503 205.462C22.2991 205.183 22.2224 204.869 22.2273 204.551L22.4862 92.74C22.4825 92.4066 22.5687 92.0784 22.7358 91.7898C22.9029 91.5012 23.1446 91.263 23.4356 91.1002C23.7162 90.933 24.0367 90.8447 24.3634 90.8447C24.69 90.8447 25.0106 90.933 25.2912 91.1002L122.085 151.041C122.342 151.212 122.554 151.443 122.704 151.713C122.855 151.983 122.938 152.285 122.948 152.594L122.689 264.448C122.678 264.937 122.479 265.403 122.133 265.748C121.788 266.094 121.322 266.293 120.833 266.304V266.304ZM25.8953 203.558L119.021 261.169L119.28 153.63L26.1542 96.0197L25.8953 203.558Z" fill="#E50012"/>
<path d="M1.81567 137.403L98.6524 197.301L121.092 152.594L24.2987 92.7395L1.81567 137.403Z" fill="white"/>
<path d="M98.6521 199.114C98.3043 199.116 97.962 199.027 97.6595 198.855L0.866014 138.958C0.471304 138.723 0.183128 138.345 0.0623468 137.902C-0.0584349 137.459 -0.00236682 136.987 0.21871 136.584L22.6586 91.9203C22.7736 91.6879 22.9371 91.4829 23.1381 91.3191C23.3391 91.1553 23.5729 91.0366 23.8237 90.9709C24.0693 90.8986 24.3277 90.8804 24.581 90.9176C24.8344 90.9549 25.0766 91.0467 25.291 91.1867L122.084 151.041C122.464 151.289 122.739 151.668 122.858 152.105C122.977 152.542 122.932 153.008 122.732 153.414L100.292 198.121C100.043 198.578 99.6246 198.919 99.1268 199.071L98.6521 199.114ZM4.3183 136.714L97.9616 194.669L118.805 153.285L25.032 95.3294L4.3183 136.714Z" fill="#E50012"/>
</svg>
