<svg width="52" height="48" viewBox="0 0 52 48" fill="none" xmlns="http://www.w3.org/2000/svg">
<g clip-path="url(#clip0)">
<path d="M11.3023 17.7209C10.3255 17.7209 9.52319 18.5233 9.52319 19.5C9.52319 20.4768 10.3255 21.2791 11.3023 21.2791C12.279 21.2791 13.0813 20.4768 13.0813 19.5C13.0813 18.5233 12.279 17.7209 11.3023 17.7209Z" fill="white"/>
<path d="M28.8837 21.3489C29.9433 21.3489 30.8023 20.4899 30.8023 19.4303C30.8023 18.3707 29.9433 17.5117 28.8837 17.5117C27.8241 17.5117 26.9651 18.3707 26.9651 19.4303C26.9651 20.4899 27.8241 21.3489 28.8837 21.3489Z" fill="white"/>
<path d="M44.8256 0H6.90698C3.10465 0 0 3.10465 0 6.90698V29.407C0 33.2442 3.10465 36.314 6.90698 36.314H20.3023L24.8721 47.0233C24.8721 47.0233 25.186 47.9651 25.9535 47.9651C26.7209 47.9651 27.0349 47.0233 27.0349 47.0233L31.6046 36.314H44.8605C48.6977 36.314 51.7674 33.2093 51.7674 29.407V6.90698C51.7326 3.10465 48.6279 0 44.8256 0ZM16.2558 19.8837C16.2209 24 12 24.1046 12 24.1046C10.3256 24.1046 9.4186 23.0233 9.4186 23.0233V23.7558H6.31395V10.9884C6.48837 11.0233 9.4186 10.9884 9.4186 10.9884V15.8721C10.1512 14.6163 12.2442 14.6512 12.2442 14.6512C16.814 15.0698 16.2558 19.8837 16.2558 19.8837ZM21.6977 15.0349V23.7907H18.6628V15.1395C18.6628 13.9535 17.1977 13.6395 17.1977 13.6395V10.5698C22.0465 10.7791 21.6977 15.0349 21.6977 15.0349ZM28.8837 24.1046C26.093 24.1046 23.7907 22.0116 23.7907 19.4302C23.7907 16.8488 26.0581 14.7558 28.8837 14.7558C31.6744 14.7558 33.9767 16.8488 33.9767 19.4302C33.9767 22.0116 31.7093 24.1046 28.8837 24.1046ZM45.4884 24.1046C45.4884 24.1046 45.5233 28.5349 41.0233 28.5349H39.6628V25.6744H40.5C40.5 25.6744 42.3837 25.8488 42.3837 22.9186C42.3837 22.9186 42 24.1046 39.3488 24.1046C39.3488 24.1046 35.5814 23.8256 35.5814 20.1628V18.7674C35.5814 18.7674 35.6512 14.9651 39.8023 14.6512C39.8023 14.6512 41.4419 14.4767 42.4535 15.8372V14.8953H45.5233V24.1046H45.4884Z" fill="white"/>
<path d="M40.6745 21.3138C41.7148 21.3138 42.5582 20.4705 42.5582 19.4301C42.5582 18.3898 41.7148 17.5464 40.6745 17.5464C39.6341 17.5464 38.7908 18.3898 38.7908 19.4301C38.7908 20.4705 39.6341 21.3138 40.6745 21.3138Z" fill="white"/>
</g>
<defs>
<clipPath id="clip0">
<rect width="51.7326" height="48" fill="white"/>
</clipPath>
</defs>
</svg>
