<svg width="14" height="13" viewBox="0 0 14 13" fill="none" xmlns="http://www.w3.org/2000/svg">
<path d="M7.73031 12.5205C8.73699 12.6323 9.78095 12.7069 10.7131 12.8933C10.7876 12.8933 10.8622 12.8933 10.8995 12.8933C11.1232 12.8933 11.3469 12.8188 11.496 12.7069C11.7197 12.5578 11.8689 12.2968 11.9434 11.9985C12.0926 11.2155 12.279 10.4326 12.4654 9.6496C13.1365 6.89055 13.8077 3.98237 12.2044 1.74531C10.8622 -0.118904 8.25229 -0.566316 6.38808 0.775921C5.26955 1.59618 4.85942 2.56557 4.74757 3.38583C3.81546 3.1994 2.69693 3.42311 1.76482 4.09423C0.0870218 5.32461 -0.807803 7.67353 0.981846 10.1716C2.32408 11.9612 4.93399 12.2222 7.73031 12.5205ZM3.03248 5.80931C3.40533 5.54832 3.74089 5.39918 4.07645 5.39918C4.56114 5.39918 5.00856 5.66017 5.41868 5.92116C5.79153 6.14487 6.23894 6.10758 6.61178 5.84659C6.98463 5.5856 7.13376 5.10091 7.02191 4.69078C6.7982 3.75867 6.7982 3.05027 7.65574 2.41643C8.58785 1.74531 9.81824 1.96902 10.4894 2.93841C11.5333 4.3925 11.0113 6.70413 10.4148 9.09033C10.3029 9.57503 10.1911 10.097 10.0792 10.5817C9.37082 10.4699 8.62514 10.4326 7.91673 10.358C5.71696 10.1343 3.44261 9.91059 2.69693 8.90391C1.46654 7.22611 2.5105 6.18215 3.03248 5.80931Z" fill="#E33B31"/>
</svg>
