<svg width="26" height="25" viewBox="0 0 26 25" fill="none" xmlns="http://www.w3.org/2000/svg">
<path d="M4.92099 18.6422C6.03952 20.3945 7.23262 22.1842 8.16473 23.9738C8.31387 24.2348 8.53757 24.4212 8.79856 24.4958C8.91042 24.5331 8.98498 24.5331 9.09684 24.5331C9.28326 24.5331 9.46968 24.4958 9.61882 24.4212C11.0356 23.6383 12.5643 22.9299 14.0929 22.2215C19.1263 19.8726 24.3088 17.4491 25.6884 12.4903C26.8069 8.42626 24.6444 4.51141 20.655 3.39288C19.9466 3.20645 19.2382 3.0946 18.5671 3.0946C16.7028 3.0946 15.3233 3.87757 14.2421 4.80968C13.7201 3.13188 12.527 1.15581 9.50697 0.298274C8.79856 0.111853 8.05288 0 7.34447 0C3.9516 0 1.30441 2.23706 0.223164 6.00278C-0.820797 9.80578 1.97553 14.0935 4.92099 18.6422ZM2.2738 6.56204C3.05677 3.72843 4.92099 2.08792 7.34447 2.08792C7.86646 2.08792 8.38843 2.16249 8.9477 2.31163C11.6322 3.05732 12.3033 4.80968 12.527 7.23316C12.5643 7.68058 12.8626 8.05342 13.31 8.16527C13.7574 8.27713 14.2048 8.0907 14.4658 7.75514L14.5404 7.64329C15.4352 6.45019 16.6283 5.21981 18.5671 5.21981C19.0518 5.21981 19.5365 5.29438 20.0957 5.44351C22.9666 6.26377 24.458 8.98553 23.6377 11.931C22.5192 15.9577 18.0078 18.0829 13.1981 20.32C11.9677 20.8792 10.7373 21.4758 9.54425 22.1096C8.68671 20.581 7.68003 19.0523 6.71064 17.5609C3.98888 13.3478 1.45355 9.47022 2.2738 6.56204Z" fill="#E33B31"/>
</svg>
