<svg width="2551" height="295" viewBox="0 0 2551 295" fill="none" xmlns="http://www.w3.org/2000/svg">
<path d="M9 146.374H2550.5" stroke="#E50012" stroke-miterlimit="10" stroke-dasharray="2.83 2.83"/>
<path d="M125.65 146.203L2512 146.203" stroke="#E50012" stroke-width="2.83" stroke-miterlimit="10"/>
<path d="M134.721 155.41C140.09 155.41 144.442 151.057 144.442 145.689C144.442 140.32 140.09 135.968 134.721 135.968C129.352 135.968 125 140.32 125 145.689C125 151.057 129.352 155.41 134.721 155.41Z" fill="white" stroke="#E50012" stroke-miterlimit="10"/>
<path d="M134.575 150.263C137.101 150.263 139.149 148.215 139.149 145.689C139.149 143.162 137.101 141.114 134.575 141.114C132.048 141.114 130 143.162 130 145.689C130 148.215 132.048 150.263 134.575 150.263Z" fill="#E50012"/>
<path d="M135 133.109V86.2197" stroke="#E50012" stroke-miterlimit="10" stroke-dasharray="2.83 2.83"/>
<path d="M102.636 64.056C102.036 64.056 101.316 64.152 100.644 64.344L105.564 59.472C107.556 57.48 109.236 55.656 109.236 53.04C109.236 49.92 106.908 48.096 103.908 48.096C100.908 48.096 98.5802 49.848 98.1242 53.088L100.284 53.448C100.284 51.432 101.772 49.992 103.788 49.992C105.612 49.992 106.956 50.976 107.028 53.088C107.028 55.152 105.684 56.664 103.836 58.632L97.7642 64.464V66H109.572V64.056H102.636ZM124.445 57.24C124.445 50.976 121.613 48.12 117.989 48.12C114.341 48.12 111.533 50.976 111.533 57.24C111.533 63.48 114.341 66.336 117.989 66.336C121.613 66.336 124.445 63.48 124.445 57.24ZM122.237 57.24C122.237 62.712 120.221 64.56 117.989 64.56C115.757 64.56 113.765 62.712 113.765 57.24C113.765 51.744 115.757 49.92 117.989 49.92C120.221 49.92 122.237 51.744 122.237 57.24ZM134.254 64.224V48.312H132.502L127.774 52.392L128.95 53.808L132.142 50.952C132.118 51.12 132.118 51.336 132.118 51.552V64.224H128.206V66H137.71V64.224H134.254ZM153.039 57.24C153.039 50.976 150.207 48.12 146.583 48.12C142.935 48.12 140.127 50.976 140.127 57.24C140.127 63.48 142.935 66.336 146.583 66.336C150.207 66.336 153.039 63.48 153.039 57.24ZM150.831 57.24C150.831 62.712 148.815 64.56 146.583 64.56C144.351 64.56 142.359 62.712 142.359 57.24C142.359 51.744 144.351 49.92 146.583 49.92C148.815 49.92 150.831 51.744 150.831 57.24ZM154.688 66.336H156.872V64.08H154.688V66.336ZM162.499 66H165.259L170.083 59.352C171.427 57.504 172.195 55.896 172.195 53.808C172.195 50.376 169.915 47.976 166.459 47.976C162.955 47.976 160.483 50.496 160.483 53.64C160.483 56.976 162.787 58.8 165.547 58.8C166.867 58.8 167.995 58.416 168.931 57.672C168.763 57.888 168.475 58.344 167.971 59.016L162.499 66ZM162.715 53.472C162.715 51.336 164.203 49.872 166.435 49.872C168.499 49.872 170.059 51.24 170.059 53.544C170.059 55.392 168.667 57.072 166.267 57.072C164.059 57.072 162.715 55.8 162.715 53.472Z" fill="#E50012"/>
<path d="M17.7651 7.425V15.55H11.3401V17.25H17.7651V29.9H19.8151V7.425H17.7651ZM4.51514 11.25H12.6651V9.55H2.46514V24.35H4.19014C8.46514 24.35 11.1151 24.2 14.3901 23.6L14.1401 21.9C11.1401 22.5 8.49014 22.625 4.51514 22.625V11.25ZM45.2882 16.525H41.5882V7.45H39.5382V29.85H41.5882V18.225H45.2882V16.525ZM31.8632 9.375H29.8382V13.4C29.8382 17.475 27.2882 21.75 24.0632 23.425L25.2882 25.075C27.8132 23.675 29.8882 20.975 30.8632 17.65C31.8632 20.75 33.8882 23.35 36.2882 24.625L37.5632 23C34.4382 21.4 31.8632 17.325 31.8632 13.4V9.375ZM64.7362 13.05V7.45H62.6862V20.95H64.7362V14.75H68.0612V13.05H64.7362ZM60.5362 17.275C57.1362 17.875 54.2612 18 50.3362 18V14.9H58.3612V8.825H48.2612V10.5H56.3362V13.325H48.3112V19.675H50.0862C54.2362 19.675 57.2112 19.55 60.7362 18.95L60.5362 17.275ZM57.5862 21.65C53.0112 21.65 50.2112 23.15 50.2112 25.75C50.2112 28.35 53.0112 29.825 57.5862 29.825C62.1112 29.825 64.9612 28.35 64.9612 25.75C64.9612 23.15 62.1112 21.65 57.5862 21.65ZM57.5862 28.25C54.1612 28.25 52.2112 27.35 52.2112 25.75C52.2112 24.15 54.1612 23.25 57.5862 23.25C61.0112 23.25 62.9362 24.15 62.9362 25.75C62.9362 27.35 61.0112 28.25 57.5862 28.25ZM76.4093 30.9C74.2093 27.275 73.2093 23.25 73.2093 18.875C73.2093 14.5 74.2093 10.475 76.4093 6.85L74.9843 6.2C72.6843 9.925 71.3093 13.975 71.3093 18.875C71.3093 23.8 72.6843 27.85 74.9843 31.575L76.4093 30.9ZM83.7815 28H86.1065V11.625H91.6565V9.675H78.2315V11.625H83.7815V28ZM94.7224 28H96.9974V18.15C98.3724 16.775 99.3224 16.075 100.722 16.075C102.522 16.075 103.297 17.1 103.297 19.7V28H105.572V19.4C105.572 15.875 104.347 14.075 101.422 14.075C99.5474 14.075 98.1974 15.075 96.9224 16.35L96.9974 13.55V8.1H94.7224V28ZM115.383 28.325C117.283 28.325 118.683 27.7 119.883 26.925L119.058 25.425C118.058 26.1 116.983 26.5 115.658 26.5C113.058 26.5 111.333 24.675 111.158 21.75H120.308C120.383 21.425 120.408 20.95 120.408 20.45C120.408 16.575 118.458 14.075 115.008 14.075C111.858 14.075 108.883 16.825 108.883 21.225C108.883 25.725 111.783 28.325 115.383 28.325ZM111.133 20.125C111.408 17.45 113.108 15.9 115.033 15.9C117.158 15.9 118.408 17.3 118.408 20.125H111.133ZM134.642 28.325C138.467 28.325 140.867 26.025 140.867 23.125C140.867 20.4 139.217 19.15 137.092 18.225L134.467 17.1C133.042 16.5 131.442 15.85 131.442 14.05C131.442 12.35 132.767 11.35 134.867 11.35C136.567 11.35 137.917 12 139.042 13.075L140.267 11.6C138.967 10.2 137.067 9.325 134.867 9.325C131.542 9.325 129.092 11.375 129.092 14.2C129.092 16.9 131.142 18.175 132.817 18.9L135.467 20.05C137.192 20.85 138.517 21.425 138.517 23.3C138.517 25.1 137.067 26.3 134.667 26.3C132.767 26.3 130.917 25.425 129.592 24.025L128.217 25.6C129.817 27.3 132.042 28.325 134.642 28.325ZM147.358 28.325C149.058 28.325 150.583 27.625 151.883 26.55H151.958L152.158 28H154.033V19.65C154.033 16.325 152.633 14.075 149.333 14.075C147.133 14.075 145.133 14.875 143.858 15.675L144.758 17.3C145.833 16.575 147.358 15.975 148.958 15.975C151.183 15.975 151.758 17.65 151.758 19.4C146.383 19.475 143.408 20.85 143.408 24.35C143.408 26.825 145.083 28.325 147.358 28.325ZM148.008 26.5C146.608 26.5 145.633 25.8 145.633 24.2C145.633 22.1 146.933 21.225 151.758 20.9V24.925C150.433 26.1 149.333 26.5 148.008 26.5ZM158.37 28H160.645V19.275C161.52 16.95 162.97 16.15 164.07 16.15C164.645 16.15 164.92 16.2 165.395 16.375L165.82 14.375C165.395 14.15 164.97 14.075 164.37 14.075C162.845 14.075 161.495 15.175 160.52 16.9H160.445L160.245 14.425H158.37V28ZM170.479 28.325C172.179 28.325 173.704 27.625 175.004 26.55H175.079L175.279 28H177.154V19.65C177.154 16.325 175.754 14.075 172.454 14.075C170.254 14.075 168.254 14.875 166.979 15.675L167.879 17.3C168.954 16.575 170.479 15.975 172.079 15.975C174.304 15.975 174.879 17.65 174.879 19.4C169.504 19.475 166.529 20.85 166.529 24.35C166.529 26.825 168.204 28.325 170.479 28.325ZM171.129 26.5C169.729 26.5 168.754 25.8 168.754 24.2C168.754 22.1 170.054 21.225 174.879 20.9V24.925C173.554 26.1 172.454 26.5 171.129 26.5ZM181.49 28H183.765V18.15C185.14 16.775 186.09 16.075 187.49 16.075C189.29 16.075 190.065 17.1 190.065 19.7V28H192.34V19.4C192.34 15.875 191.115 14.075 188.19 14.075C186.315 14.075 184.94 15.1 183.64 16.375H183.565L183.365 14.425H181.49V28ZM201.348 34.25C205.548 34.25 208.198 32.075 208.198 29.55C208.198 27.325 206.698 26.325 203.473 26.325H200.823C198.998 26.325 198.448 25.725 198.448 24.85C198.448 24.075 198.823 23.65 199.323 23.225C199.948 23.55 200.623 23.7 201.348 23.7C204.073 23.7 206.298 21.875 206.298 18.975C206.298 17.8 205.873 16.8 205.198 16.175H207.973V14.425H203.248C202.773 14.25 202.123 14.075 201.348 14.075C198.623 14.075 196.248 15.95 196.248 18.925C196.248 20.55 197.123 21.85 198.023 22.575V22.675C197.323 23.175 196.498 24.075 196.498 25.2C196.498 26.275 197.023 27 197.748 27.425V27.525C196.473 28.35 195.723 29.425 195.723 30.6C195.723 32.95 198.023 34.25 201.348 34.25ZM201.348 22.15C199.773 22.15 198.448 20.9 198.448 18.925C198.448 16.925 199.748 15.75 201.348 15.75C202.948 15.75 204.223 16.925 204.223 18.925C204.223 20.9 202.873 22.15 201.348 22.15ZM201.673 32.7C199.173 32.7 197.723 31.8 197.723 30.3C197.723 29.5 198.148 28.7 199.123 28C199.723 28.175 200.373 28.225 200.873 28.225H203.223C205.023 28.225 205.998 28.625 205.998 29.9C205.998 31.325 204.273 32.7 201.673 32.7ZM211.426 31.425C213.751 27.7 215.126 23.65 215.126 18.725C215.126 13.825 213.751 9.775 211.426 6.05L210.026 6.7C212.226 10.325 213.226 14.35 213.226 18.725C213.226 23.1 212.226 27.125 210.026 30.75L211.426 31.425ZM237.439 18.425C234.164 17.425 231.964 14.975 231.964 12.25V11.8H236.914V10.15H231.964V7.325H229.914V10.15H224.939V11.8H229.914V12.25C229.914 15.25 227.664 17.975 224.339 18.975L225.364 20.6C227.989 19.7 229.989 17.875 230.964 15.475C231.964 17.6 233.939 19.225 236.464 20.025L237.439 18.425ZM241.714 13.225V7.425H239.664V21.175H241.714V14.925H245.039V13.225H241.714ZM234.589 21.725C229.964 21.725 227.189 23.175 227.189 25.775C227.189 28.35 229.964 29.8 234.589 29.8C239.164 29.8 241.964 28.375 241.964 25.775C241.964 23.175 239.164 21.725 234.589 21.725ZM234.589 28.225C231.164 28.225 229.239 27.375 229.239 25.775C229.239 24.175 231.164 23.325 234.589 23.325C237.914 23.325 239.914 24.175 239.914 25.775C239.914 27.375 237.914 28.225 234.589 28.225ZM263.712 7.45V12.775H259.137C258.737 10.2 256.437 8.475 253.437 8.475C250.112 8.475 247.662 10.575 247.662 13.65C247.662 16.75 250.112 18.85 253.437 18.85C256.537 18.85 258.762 17.125 259.162 14.45H263.712V19.475H265.787V7.45H263.712ZM253.437 17.15C251.212 17.15 249.612 15.7 249.612 13.65C249.612 11.575 251.212 10.175 253.437 10.175C255.662 10.175 257.262 11.575 257.262 13.65C257.262 15.7 255.662 17.15 253.437 17.15ZM263.737 23.4H253.462V20.575H251.437V29.55H265.787V20.575H263.737V23.4ZM263.737 27.9H253.462V25H263.737V27.9Z" fill="#282828"/>
<path d="M368.721 155.981C374.09 155.981 378.442 151.629 378.442 146.26C378.442 140.891 374.09 136.539 368.721 136.539C363.352 136.539 359 140.891 359 146.26C359 151.629 363.352 155.981 368.721 155.981Z" fill="white" stroke="#E50012" stroke-miterlimit="10"/>
<path d="M368.575 150.835C371.101 150.835 373.149 148.787 373.149 146.26C373.149 143.734 371.101 141.686 368.575 141.686C366.048 141.686 364 143.734 364 146.26C364 148.787 366.048 150.835 368.575 150.835Z" fill="#E50012"/>
<path d="M369 158.84V205.729" stroke="#E50012" stroke-miterlimit="10" stroke-dasharray="2.83 2.83"/>
<path d="M329.488 242.056C328.888 242.056 328.168 242.152 327.496 242.344L332.416 237.472C334.408 235.48 336.088 233.656 336.088 231.04C336.088 227.92 333.76 226.096 330.76 226.096C327.76 226.096 325.432 227.848 324.976 231.088L327.136 231.448C327.136 229.432 328.624 227.992 330.64 227.992C332.464 227.992 333.808 228.976 333.88 231.088C333.88 233.152 332.536 234.664 330.688 236.632L324.616 242.464V244H336.424V242.056H329.488ZM351.297 235.24C351.297 228.976 348.465 226.12 344.841 226.12C341.193 226.12 338.385 228.976 338.385 235.24C338.385 241.48 341.193 244.336 344.841 244.336C348.465 244.336 351.297 241.48 351.297 235.24ZM349.089 235.24C349.089 240.712 347.073 242.56 344.841 242.56C342.609 242.56 340.617 240.712 340.617 235.24C340.617 229.744 342.609 227.92 344.841 227.92C347.073 227.92 349.089 229.744 349.089 235.24ZM361.106 242.224V226.312H359.354L354.626 230.392L355.802 231.808L358.993 228.952C358.97 229.12 358.97 229.336 358.97 229.552V242.224H355.058V244H364.562V242.224H361.106ZM379.89 235.24C379.89 228.976 377.058 226.12 373.434 226.12C369.786 226.12 366.978 228.976 366.978 235.24C366.978 241.48 369.786 244.336 373.434 244.336C377.058 244.336 379.89 241.48 379.89 235.24ZM377.682 235.24C377.682 240.712 375.666 242.56 373.434 242.56C371.202 242.56 369.21 240.712 369.21 235.24C369.21 229.744 371.202 227.92 373.434 227.92C375.666 227.92 377.682 229.744 377.682 235.24ZM381.539 244.336H383.723V242.08H381.539V244.336ZM395.231 242.224V226.312H393.479L388.751 230.392L389.927 231.808L393.118 228.952C393.095 229.12 393.095 229.336 393.095 229.552V242.224H389.183V244H398.687V242.224H395.231ZM406.503 242.056C405.903 242.056 405.183 242.152 404.511 242.344L409.431 237.472C411.423 235.48 413.103 233.656 413.103 231.04C413.103 227.92 410.775 226.096 407.775 226.096C404.775 226.096 402.447 227.848 401.991 231.088L404.151 231.448C404.151 229.432 405.639 227.992 407.655 227.992C409.479 227.992 410.823 228.976 410.895 231.088C410.895 233.152 409.551 234.664 407.703 236.632L401.631 242.464V244H413.439V242.056H406.503Z" fill="#E50012"/>
<path d="M291.142 262.45H289.092V279H291.142V262.45ZM286.542 274.275C283.242 273.275 280.867 270.55 280.867 267.65V267.075H285.942V265.425H280.892V262.55H278.842V265.425H273.742V267.075H278.842V267.65C278.842 270.75 276.542 273.625 273.217 274.7L274.217 276.3C276.917 275.4 278.917 273.475 279.892 270.975C280.917 273.275 282.967 275.05 285.567 275.875L286.542 274.275ZM278.767 282.675V277.475H276.717V284.35H291.817V282.675H278.767ZM309.065 264.625H303.665V262.35H301.615V264.625H296.19V266.15H309.065V264.625ZM313.115 270.25V262.425H311.065V279.975H313.115V271.95H316.415V270.25H313.115ZM309.74 274.95C307.815 275.275 305.765 275.45 303.665 275.55V273.95C306.265 273.675 307.865 272.45 307.865 270.525C307.865 268.4 305.765 267.1 302.64 267.1C299.49 267.1 297.39 268.4 297.39 270.525C297.39 272.45 299.015 273.675 301.615 273.95V275.65C299.415 275.725 297.44 275.75 295.64 275.75L295.865 277.4C299.79 277.4 305.14 277.3 309.89 276.425L309.74 274.95ZM299.34 270.525C299.34 269.325 300.615 268.55 302.64 268.55C304.64 268.55 305.915 269.325 305.915 270.525C305.915 271.8 304.64 272.525 302.64 272.525C300.615 272.525 299.34 271.8 299.34 270.525ZM300.99 278.825H298.94V284.35H313.915V282.675H300.99V278.825ZM335.138 268.225V271.225H329.263V272.9H335.138V275.85H337.213V262.45H335.138V266.55H330.063C330.238 265.775 330.313 264.95 330.313 264.125H320.188V265.775H328.088C327.688 269.7 324.438 272.625 319.038 274.225L319.863 275.85C324.788 274.425 328.013 271.9 329.538 268.225H335.138ZM329.888 276.1C325.363 276.1 322.463 277.725 322.463 280.425C322.463 283.125 325.363 284.75 329.888 284.75C334.413 284.75 337.313 283.125 337.313 280.425C337.313 277.725 334.413 276.1 329.888 276.1ZM329.888 283.15C326.588 283.15 324.488 282.125 324.488 280.425C324.488 278.725 326.563 277.725 329.888 277.725C333.213 277.725 335.288 278.725 335.288 280.425C335.288 282.125 333.188 283.15 329.888 283.15ZM365.002 263.475H349.927V271.35H365.002V263.475ZM362.977 269.7H351.927V265.125H362.977V269.7ZM347.277 273.9V275.55H356.602V280.075H358.652V275.55H367.652V273.9H347.277ZM351.927 277.95H349.877V284.35H365.377V282.675H351.927V277.95ZM390.625 273.525H387.3C387.925 270.3 387.925 267.925 387.925 265.825V263.875H372.875V265.525H385.925V265.825C385.925 267.925 385.925 270.3 385.225 273.525H370.35V275.2H379.4V284.875H381.475V275.2H390.625V273.525ZM409.123 267.525H395.798V273.475H411.698V271.825H397.848V269.075H411.198V263.3H395.723V264.95H409.123V267.525ZM413.648 275.8H393.298V277.45H398.598V284.875H400.648V277.45H406.298V284.875H408.348V277.45H413.648V275.8ZM423.587 271.375C427.387 271.1 430.662 269.925 432.062 267.85C433.462 269.925 436.737 271.1 440.487 271.375L441.112 269.825C436.937 269.55 433.537 268.15 433.212 265.95H440.112V264.4H433.087V262.275H431.037V264.4H423.987V265.95H430.912C430.587 268.15 427.112 269.55 422.987 269.825L423.587 271.375ZM442.162 273.95V272.375H421.937V273.95H431.012V276.025H424.337V277.55H437.562V279.45H424.412V284.6H440.262V283.05H426.412V280.925H439.587V276.025H433.087V273.95H442.162ZM461.21 262.425V284.9H463.26V262.425H461.21ZM452.86 264.375H450.835V268.4C450.835 272.7 448.085 276.925 444.81 278.525L446.06 280.2C448.685 278.8 450.835 276.1 451.86 272.675C452.935 275.9 455.035 278.5 457.635 279.775L458.86 278.125C455.56 276.65 452.86 272.5 452.86 268.4V264.375Z" fill="#282828"/>
<path d="M837.721 155.981C843.09 155.981 847.442 151.629 847.442 146.26C847.442 140.891 843.09 136.539 837.721 136.539C832.352 136.539 828 140.891 828 146.26C828 151.629 832.352 155.981 837.721 155.981Z" fill="white" stroke="#E50012" stroke-miterlimit="10"/>
<path d="M837.575 150.835C840.101 150.835 842.149 148.787 842.149 146.26C842.149 143.734 840.101 141.686 837.575 141.686C835.048 141.686 833 143.734 833 146.26C833 148.787 835.048 150.835 837.575 150.835Z" fill="#E50012"/>
<path d="M838 158.84V205.729" stroke="#E50012" stroke-miterlimit="10" stroke-dasharray="2.83 2.83"/>
<path d="M798.488 242.056C797.888 242.056 797.168 242.152 796.496 242.344L801.416 237.472C803.408 235.48 805.088 233.656 805.088 231.04C805.088 227.92 802.76 226.096 799.76 226.096C796.76 226.096 794.432 227.848 793.976 231.088L796.136 231.448C796.136 229.432 797.624 227.992 799.64 227.992C801.464 227.992 802.808 228.976 802.88 231.088C802.88 233.152 801.536 234.664 799.688 236.632L793.616 242.464V244H805.424V242.056H798.488ZM820.297 235.24C820.297 228.976 817.465 226.12 813.841 226.12C810.193 226.12 807.385 228.976 807.385 235.24C807.385 241.48 810.193 244.336 813.841 244.336C817.465 244.336 820.297 241.48 820.297 235.24ZM818.089 235.24C818.089 240.712 816.073 242.56 813.841 242.56C811.609 242.56 809.617 240.712 809.617 235.24C809.617 229.744 811.609 227.92 813.841 227.92C816.073 227.92 818.089 229.744 818.089 235.24ZM830.106 242.224V226.312H828.354L823.626 230.392L824.802 231.808L827.993 228.952C827.97 229.12 827.97 229.336 827.97 229.552V242.224H824.058V244H833.562V242.224H830.106ZM841.378 242.056C840.778 242.056 840.058 242.152 839.386 242.344L844.306 237.472C846.298 235.48 847.978 233.656 847.978 231.04C847.978 227.92 845.65 226.096 842.65 226.096C839.65 226.096 837.322 227.848 836.866 231.088L839.026 231.448C839.026 229.432 840.514 227.992 842.53 227.992C844.354 227.992 845.698 228.976 845.77 231.088C845.77 233.152 844.426 234.664 842.578 236.632L836.506 242.464V244H848.314V242.056H841.378ZM850.539 244.336H852.723V242.08H850.539V244.336ZM868.719 235.24C868.719 228.976 865.887 226.12 862.263 226.12C858.615 226.12 855.807 228.976 855.807 235.24C855.807 241.48 858.615 244.336 862.263 244.336C865.887 244.336 868.719 241.48 868.719 235.24ZM866.511 235.24C866.511 240.712 864.495 242.56 862.263 242.56C860.031 242.56 858.039 240.712 858.039 235.24C858.039 229.744 860.031 227.92 862.263 227.92C864.495 227.92 866.511 229.744 866.511 235.24ZM880.615 237.592V226.216H878.551L869.887 237.688V239.32H878.671V244H880.615V239.32H883.279V237.592H880.615ZM872.287 237.592L878.767 228.76C878.695 229.264 878.671 229.84 878.671 230.248V237.592H872.287Z" fill="#E50012"/>
<path d="M732.743 273.325C736.243 272.725 739.493 270.875 740.893 268.2C742.218 270.875 745.568 272.725 749.043 273.325L749.843 271.7C745.893 271.1 742.018 268.55 742.018 265.6V265.475H749.043V263.825H732.668V265.475H739.743V265.6C739.743 268.55 735.868 271.1 731.968 271.7L732.743 273.325ZM751.018 275.2H730.768V276.875H739.818V284.85H741.868V276.875H751.043L751.018 275.2ZM770.091 262.45V275.925H772.141V262.45H770.091ZM767.266 272.975C763.941 271.85 761.641 268.9 761.641 265.675V263.475H759.591V265.675C759.591 268.975 757.316 272.175 753.941 273.375L754.991 275C757.616 274 759.666 271.975 760.641 269.275C761.641 271.775 763.641 273.675 766.241 274.6L767.266 272.975ZM757.141 278.725H770.091V284.875H772.141V277.075H757.141V278.725ZM790.964 265.175H785.189V262.45H783.139V265.175H777.339V266.825H790.964V265.175ZM792.964 262.45V284.85H795.014V262.45H792.964ZM785.189 276.35C787.889 276.025 789.539 274.475 789.539 272.25C789.539 269.725 787.364 268.1 784.164 268.1C780.939 268.1 778.764 269.725 778.764 272.25C778.764 274.55 780.439 276.05 783.139 276.375V278.775C780.914 278.85 778.764 278.875 776.864 278.875L777.164 280.6C781.314 280.6 786.689 280.5 791.689 279.7L791.539 278.175C789.439 278.45 787.314 278.6 785.189 278.7V276.35ZM780.714 272.25C780.714 270.65 782.064 269.675 784.164 269.675C786.189 269.675 787.589 270.65 787.589 272.25C787.589 273.85 786.189 274.8 784.164 274.8C782.064 274.8 780.714 273.85 780.714 272.25ZM820.687 271.525H816.987V262.45H814.937V284.85H816.987V273.225H820.687V271.525ZM807.262 264.375H805.237V268.4C805.237 272.475 802.687 276.75 799.462 278.425L800.687 280.075C803.212 278.675 805.287 275.975 806.262 272.65C807.262 275.75 809.287 278.35 811.687 279.625L812.962 278C809.837 276.4 807.262 272.325 807.262 268.4V264.375ZM844.751 262.425V270.55H838.326V272.25H844.751V284.9H846.801V262.425H844.751ZM831.501 266.25H839.651V264.55H829.451V279.35H831.176C835.451 279.35 838.101 279.2 841.376 278.6L841.126 276.9C838.126 277.5 835.476 277.625 831.501 277.625V266.25ZM872.274 271.525H868.574V262.45H866.524V284.85H868.574V273.225H872.274V271.525ZM858.849 264.375H856.824V268.4C856.824 272.475 854.274 276.75 851.049 278.425L852.274 280.075C854.799 278.675 856.874 275.975 857.849 272.65C858.849 275.75 860.874 278.35 863.274 279.625L864.549 278C861.424 276.4 858.849 272.325 858.849 268.4V264.375ZM891.722 268.05V262.45H889.672V275.95H891.722V269.75H895.047V268.05H891.722ZM887.522 272.275C884.122 272.875 881.247 273 877.322 273V269.9H885.347V263.825H875.247V265.5H883.322V268.325H875.297V274.675H877.072C881.222 274.675 884.197 274.55 887.722 273.95L887.522 272.275ZM884.572 276.65C879.997 276.65 877.197 278.15 877.197 280.75C877.197 283.35 879.997 284.825 884.572 284.825C889.097 284.825 891.947 283.35 891.947 280.75C891.947 278.15 889.097 276.65 884.572 276.65ZM884.572 283.25C881.147 283.25 879.197 282.35 879.197 280.75C879.197 279.15 881.147 278.25 884.572 278.25C887.997 278.25 889.922 279.15 889.922 280.75C889.922 282.35 887.997 283.25 884.572 283.25ZM919.311 274.025H921.386V262.45H919.311V266.5H914.436V268.175H919.311V274.025ZM916.011 271.95C912.786 270.875 910.511 268.175 910.511 265.225V263.15H908.486V265.225C908.486 268.45 906.261 271.325 902.886 272.45L903.961 274.075C906.586 273.1 908.586 271.15 909.561 268.625C910.536 270.925 912.461 272.675 914.961 273.55L916.011 271.95ZM909.011 282.925V280.525H921.386V275.15H906.936V276.775H919.361V278.975H906.986V284.55H922.236V282.925H909.011ZM942.259 262.45V274.75H944.309V262.45H942.259ZM939.534 271.9C935.984 272.5 933.084 272.6 929.084 272.6V269.575H937.209V263.525H927.009V265.175H935.184V268H927.084V274.275H928.884C933.009 274.275 936.109 274.15 939.759 273.55L939.534 271.9ZM942.284 278.525H931.809V275.875H929.784V284.55H944.309V275.875H942.284V278.525ZM942.284 282.875H931.809V280.125H942.284V282.875Z" fill="#282828"/>
<path d="M1306.72 155.981C1312.09 155.981 1316.44 151.629 1316.44 146.26C1316.44 140.891 1312.09 136.539 1306.72 136.539C1301.35 136.539 1297 140.891 1297 146.26C1297 151.629 1301.35 155.981 1306.72 155.981Z" fill="white" stroke="#E50012" stroke-miterlimit="10"/>
<path d="M1306.57 150.835C1309.1 150.835 1311.15 148.787 1311.15 146.26C1311.15 143.734 1309.1 141.686 1306.57 141.686C1304.05 141.686 1302 143.734 1302 146.26C1302 148.787 1304.05 150.835 1306.57 150.835Z" fill="#E50012"/>
<path d="M1307 158.84V205.729" stroke="#E50012" stroke-miterlimit="10" stroke-dasharray="2.83 2.83"/>
<path d="M1267.49 242.056C1266.89 242.056 1266.17 242.152 1265.5 242.344L1270.42 237.472C1272.41 235.48 1274.09 233.656 1274.09 231.04C1274.09 227.92 1271.76 226.096 1268.76 226.096C1265.76 226.096 1263.43 227.848 1262.98 231.088L1265.14 231.448C1265.14 229.432 1266.62 227.992 1268.64 227.992C1270.46 227.992 1271.81 228.976 1271.88 231.088C1271.88 233.152 1270.54 234.664 1268.69 236.632L1262.62 242.464V244H1274.42V242.056H1267.49ZM1289.3 235.24C1289.3 228.976 1286.46 226.12 1282.84 226.12C1279.19 226.12 1276.38 228.976 1276.38 235.24C1276.38 241.48 1279.19 244.336 1282.84 244.336C1286.46 244.336 1289.3 241.48 1289.3 235.24ZM1287.09 235.24C1287.09 240.712 1285.07 242.56 1282.84 242.56C1280.61 242.56 1278.62 240.712 1278.62 235.24C1278.62 229.744 1280.61 227.92 1282.84 227.92C1285.07 227.92 1287.09 229.744 1287.09 235.24ZM1299.11 242.224V226.312H1297.35L1292.63 230.392L1293.8 231.808L1296.99 228.952C1296.97 229.12 1296.97 229.336 1296.97 229.552V242.224H1293.06V244H1302.56V242.224H1299.11ZM1310.38 242.056C1309.78 242.056 1309.06 242.152 1308.39 242.344L1313.31 237.472C1315.3 235.48 1316.98 233.656 1316.98 231.04C1316.98 227.92 1314.65 226.096 1311.65 226.096C1308.65 226.096 1306.32 227.848 1305.87 231.088L1308.03 231.448C1308.03 229.432 1309.51 227.992 1311.53 227.992C1313.35 227.992 1314.7 228.976 1314.77 231.088C1314.77 233.152 1313.43 234.664 1311.58 236.632L1305.51 242.464V244H1317.31V242.056H1310.38ZM1319.54 244.336H1321.72V242.08H1319.54V244.336ZM1333.23 242.224V226.312H1331.48L1326.75 230.392L1327.93 231.808L1331.12 228.952C1331.09 229.12 1331.09 229.336 1331.09 229.552V242.224H1327.18V244H1336.69V242.224H1333.23ZM1352.02 235.24C1352.02 228.976 1349.18 226.12 1345.56 226.12C1341.91 226.12 1339.1 228.976 1339.1 235.24C1339.1 241.48 1341.91 244.336 1345.56 244.336C1349.18 244.336 1352.02 241.48 1352.02 235.24ZM1349.81 235.24C1349.81 240.712 1347.79 242.56 1345.56 242.56C1343.33 242.56 1341.34 240.712 1341.34 235.24C1341.34 229.744 1343.33 227.92 1345.56 227.92C1347.79 227.92 1349.81 229.744 1349.81 235.24Z" fill="#E50012"/>
<path d="M1146.8 273.525H1143.48C1144.1 270.3 1144.1 267.925 1144.1 265.825V263.875H1129.05V265.525H1142.1V265.825C1142.1 267.925 1142.1 270.3 1141.4 273.525H1126.53V275.2H1135.58V284.875H1137.65V275.2H1146.8V273.525ZM1166.62 271.575C1167.22 268.775 1167.22 266.8 1167.22 265.075V263.45H1152.07V265.125H1165.2C1165.2 266.825 1165.2 268.8 1164.57 271.575H1149.47V273.25H1169.85V271.575H1166.62ZM1165.17 278.225H1154.15V275.275H1152.12V284.55H1167.2V275.275H1165.17V278.225ZM1165.17 282.9H1154.15V279.825H1165.17V282.9ZM1188.85 262.425V284.85H1190.9V262.425H1188.85ZM1174.17 264.75V266.425H1182.4C1182.3 267.825 1182.1 269.075 1181.67 270.35L1173.02 270.925L1173.37 272.725L1181.02 272C1179.62 275.025 1177.15 277.575 1172.95 279.575L1174.05 281.2C1182.12 277.2 1184.42 271.275 1184.42 264.75H1174.17ZM1213.49 274.525H1200.17V270.975H1212.77V269.35H1200.17V266.025H1213.27V264.375H1198.09V276.175H1213.49V274.525ZM1195.47 280.275V281.95H1215.82V280.275H1195.47ZM1224.57 285.9C1222.37 282.275 1221.37 278.25 1221.37 273.875C1221.37 269.5 1222.37 265.475 1224.57 261.85L1223.14 261.2C1220.84 264.925 1219.47 268.975 1219.47 273.875C1219.47 278.8 1220.84 282.85 1223.14 286.575L1224.57 285.9ZM1228.12 283H1230.44V274.775H1237.44V272.825H1230.44V266.625H1238.69V264.675H1228.12V283ZM1243.56 283V269.425H1241.28V283H1243.56ZM1243.58 264.275H1241.31V266.625H1243.58V264.275ZM1247.74 283H1250.01V274.275C1250.89 271.95 1252.34 271.15 1253.44 271.15C1254.01 271.15 1254.29 271.2 1254.76 271.375L1255.19 269.375C1254.76 269.15 1254.34 269.075 1253.74 269.075C1252.21 269.075 1250.86 270.175 1249.89 271.9H1249.81L1249.61 269.425H1247.74V283ZM1260.98 283.325C1264.18 283.325 1265.93 281.5 1265.93 279.3C1265.93 276.75 1263.76 275.9 1261.78 275.175C1260.26 274.575 1258.78 274.125 1258.78 272.825C1258.78 271.75 1259.56 270.875 1261.26 270.875C1262.48 270.875 1263.41 271.375 1264.38 272.075L1265.48 270.6C1264.41 269.775 1262.96 269.075 1261.26 269.075C1258.31 269.075 1256.58 270.8 1256.58 272.925C1256.58 275.2 1258.73 276.175 1260.63 276.85C1262.13 277.45 1263.73 278.05 1263.73 279.425C1263.73 280.6 1262.86 281.55 1261.06 281.55C1259.43 281.55 1258.21 280.925 1257.03 279.95L1255.91 281.45C1257.21 282.525 1259.06 283.325 1260.98 283.325ZM1272.84 283.325C1273.66 283.325 1274.56 283.1 1275.34 282.825L1274.89 281.125C1274.41 281.3 1273.81 281.475 1273.34 281.475C1271.74 281.475 1271.24 280.55 1271.24 278.85V271.275H1274.91V269.425H1271.24V265.625H1269.34L1269.06 269.425L1266.94 269.55V271.275H1268.96V278.8C1268.96 281.525 1269.94 283.325 1272.84 283.325ZM1293.93 283H1296.38L1290.15 264.675H1287.58L1281.35 283H1283.7L1285.48 277.4H1292.18L1293.93 283ZM1286.05 275.55L1286.95 272.75C1287.63 270.65 1288.2 268.75 1288.78 266.55H1288.88C1289.48 268.675 1290.05 270.65 1290.73 272.75L1291.6 275.55H1286.05ZM1300.61 283V269.425H1298.34V283H1300.61ZM1300.64 264.275H1298.36V266.625H1300.64V264.275ZM1309.42 283.325C1311.05 283.325 1312.47 282.475 1313.55 281.4H1313.6L1313.82 283H1315.67V263.1H1313.4V268.325L1313.52 270.675C1312.32 269.675 1311.3 269.075 1309.7 269.075C1306.6 269.075 1303.82 271.825 1303.82 276.225C1303.82 280.75 1306.02 283.325 1309.42 283.325ZM1309.92 281.425C1307.52 281.425 1306.17 279.525 1306.17 276.2C1306.17 273.1 1307.9 271 1310.1 271C1311.22 271 1312.22 271.4 1313.4 272.425V279.55C1312.27 280.825 1311.2 281.425 1309.92 281.425ZM1326.09 283H1328.41V277.2L1331.56 273.45L1337.04 283H1339.64L1333.01 271.65L1338.74 264.675H1336.14L1328.49 273.875H1328.41V264.675H1326.09V283ZM1343.9 283V269.425H1341.63V283H1343.9ZM1343.93 264.275H1341.65V266.625H1343.93V264.275ZM1352.36 283.325C1353.18 283.325 1354.08 283.1 1354.86 282.825L1354.41 281.125C1353.93 281.3 1353.33 281.475 1352.86 281.475C1351.26 281.475 1350.76 280.55 1350.76 278.85V271.275H1354.43V269.425H1350.76V265.625H1348.86L1348.58 269.425L1346.46 269.55V271.275H1348.48V278.8C1348.48 281.525 1349.46 283.325 1352.36 283.325ZM1357.68 286.425C1360.01 282.7 1361.38 278.65 1361.38 273.725C1361.38 268.825 1360.01 264.775 1357.68 261.05L1356.28 261.7C1358.48 265.325 1359.48 269.35 1359.48 273.725C1359.48 278.1 1358.48 282.125 1356.28 285.75L1357.68 286.425ZM1386.87 262.425V284.9H1388.92V262.425H1386.87ZM1378.52 264.375H1376.49V268.4C1376.49 272.7 1373.74 276.925 1370.47 278.525L1371.72 280.2C1374.34 278.8 1376.49 276.1 1377.52 272.675C1378.59 275.9 1380.69 278.5 1383.29 279.775L1384.52 278.125C1381.22 276.65 1378.52 272.5 1378.52 268.4V264.375ZM1409.92 262.4V284.875H1411.97V262.4H1409.92ZM1396.92 272.525H1405.19V264.5H1394.79V266.175H1403.12V270.85H1394.87V279.45H1396.72C1400.59 279.45 1403.94 279.3 1408.02 278.625L1407.82 276.95C1403.92 277.55 1400.59 277.75 1396.92 277.75V272.525ZM1418.41 276.275C1421.76 275.6 1425.34 273.35 1426.74 270.25C1428.14 273.3 1431.74 275.55 1435.14 276.225L1435.96 274.575C1432.09 273.9 1427.79 270.825 1427.79 267.3V266.325H1435.21V264.65H1418.24V266.325H1425.66V267.3C1425.66 270.8 1421.41 273.975 1417.54 274.65L1418.41 276.275ZM1416.56 280.175V281.875H1436.91V280.175H1416.56ZM1446.83 271.375C1450.63 271.1 1453.9 269.925 1455.3 267.85C1456.7 269.925 1459.98 271.1 1463.73 271.375L1464.35 269.825C1460.18 269.55 1456.78 268.15 1456.45 265.95H1463.35V264.4H1456.33V262.275H1454.28V264.4H1447.23V265.95H1454.15C1453.83 268.15 1450.35 269.55 1446.23 269.825L1446.83 271.375ZM1465.4 273.95V272.375H1445.18V273.95H1454.25V276.025H1447.58V277.55H1460.8V279.45H1447.65V284.6H1463.5V283.05H1449.65V280.925H1462.83V276.025H1456.33V273.95H1465.4ZM1484.45 262.425V284.9H1486.5V262.425H1484.45ZM1476.1 264.375H1474.08V268.4C1474.08 272.7 1471.33 276.925 1468.05 278.525L1469.3 280.2C1471.93 278.8 1474.08 276.1 1475.1 272.675C1476.18 275.9 1478.28 278.5 1480.88 279.775L1482.1 278.125C1478.8 276.65 1476.1 272.5 1476.1 268.4V264.375Z" fill="#282828"/>
<path d="M1775.72 155.981C1781.09 155.981 1785.44 151.629 1785.44 146.26C1785.44 140.891 1781.09 136.539 1775.72 136.539C1770.35 136.539 1766 140.891 1766 146.26C1766 151.629 1770.35 155.981 1775.72 155.981Z" fill="white" stroke="#E50012" stroke-miterlimit="10"/>
<path d="M1775.57 150.835C1778.1 150.835 1780.15 148.787 1780.15 146.26C1780.15 143.734 1778.1 141.686 1775.57 141.686C1773.05 141.686 1771 143.734 1771 146.26C1771 148.787 1773.05 150.835 1775.57 150.835Z" fill="#E50012"/>
<path d="M1776 158.84V205.729" stroke="#E50012" stroke-miterlimit="10" stroke-dasharray="2.83 2.83"/>
<path d="M1736.49 242.056C1735.89 242.056 1735.17 242.152 1734.5 242.344L1739.42 237.472C1741.41 235.48 1743.09 233.656 1743.09 231.04C1743.09 227.92 1740.76 226.096 1737.76 226.096C1734.76 226.096 1732.43 227.848 1731.98 231.088L1734.14 231.448C1734.14 229.432 1735.62 227.992 1737.64 227.992C1739.46 227.992 1740.81 228.976 1740.88 231.088C1740.88 233.152 1739.54 234.664 1737.69 236.632L1731.62 242.464V244H1743.42V242.056H1736.49ZM1758.3 235.24C1758.3 228.976 1755.46 226.12 1751.84 226.12C1748.19 226.12 1745.38 228.976 1745.38 235.24C1745.38 241.48 1748.19 244.336 1751.84 244.336C1755.46 244.336 1758.3 241.48 1758.3 235.24ZM1756.09 235.24C1756.09 240.712 1754.07 242.56 1751.84 242.56C1749.61 242.56 1747.62 240.712 1747.62 235.24C1747.62 229.744 1749.61 227.92 1751.84 227.92C1754.07 227.92 1756.09 229.744 1756.09 235.24ZM1768.11 242.224V226.312H1766.35L1761.63 230.392L1762.8 231.808L1765.99 228.952C1765.97 229.12 1765.97 229.336 1765.97 229.552V242.224H1762.06V244H1771.56V242.224H1768.11ZM1774.89 226.408V228.28H1784.08L1783.27 229.624L1776.09 244H1778.51L1786.46 227.824V226.408H1774.89ZM1788.54 244.336H1790.72V242.08H1788.54V244.336ZM1806.72 235.24C1806.72 228.976 1803.89 226.12 1800.26 226.12C1796.61 226.12 1793.81 228.976 1793.81 235.24C1793.81 241.48 1796.61 244.336 1800.26 244.336C1803.89 244.336 1806.72 241.48 1806.72 235.24ZM1804.51 235.24C1804.51 240.712 1802.49 242.56 1800.26 242.56C1798.03 242.56 1796.04 240.712 1796.04 235.24C1796.04 229.744 1798.03 227.92 1800.26 227.92C1802.49 227.92 1804.51 229.744 1804.51 235.24ZM1811.25 231.496C1811.25 229.528 1812.71 228.04 1814.73 228.04C1816.58 228.04 1817.87 229.024 1817.87 231.04C1817.87 232.864 1816.77 234.136 1813.67 234.208V235.792C1817.44 235.792 1818.23 237.184 1818.23 239.08C1818.23 240.64 1817.01 242.416 1814.49 242.416C1812.66 242.416 1811.58 241.48 1810.84 239.944C1810.65 239.488 1810.53 239.128 1810.48 238.864L1808.51 239.68C1809.35 242.272 1810.72 244.312 1814.51 244.312C1817.8 244.312 1820.46 242.248 1820.46 239.032C1820.46 236.824 1819.26 235.36 1816.96 234.784C1818.88 234.136 1820.06 232.984 1820.06 230.68C1820.06 227.992 1817.9 226.12 1814.85 226.12C1811.85 226.12 1809.52 227.944 1809.06 231.136L1811.25 231.496Z" fill="#E50012"/>
<path d="M1649.57 266.9C1649.57 269.575 1649.6 272.775 1648.72 277.05L1650.77 277.275C1651.65 272.75 1651.62 269.7 1651.62 266.9V264.675H1635.9V266.35H1649.57V266.9ZM1643.7 280.025V272H1641.65V280.025H1633.77V281.7H1654.05V280.025H1643.7ZM1672.02 273.525V270.35C1673.74 269.65 1674.74 268.5 1674.74 267C1674.74 264.4 1671.74 262.825 1666.87 262.825C1662.02 262.825 1658.99 264.4 1658.99 267C1658.99 268.525 1659.92 269.65 1661.74 270.375V273.525H1656.72V275.175H1677.02V273.525H1672.02ZM1661.09 267C1661.09 265.375 1663.24 264.425 1666.87 264.425C1670.49 264.425 1672.64 265.375 1672.64 267C1672.64 268.6 1670.49 269.575 1666.87 269.575C1663.24 269.575 1661.09 268.6 1661.09 267ZM1663.77 270.9C1664.69 271.075 1665.74 271.15 1666.87 271.15C1668.07 271.15 1669.12 271.075 1669.99 270.9V273.525H1663.77V270.9ZM1666.87 276.85C1662.07 276.85 1659.19 278.275 1659.19 280.85C1659.19 283.425 1662.07 284.825 1666.87 284.825C1671.69 284.825 1674.54 283.425 1674.54 280.85C1674.54 278.275 1671.69 276.85 1666.87 276.85ZM1666.87 283.25C1663.34 283.25 1661.27 282.375 1661.27 280.85C1661.27 279.325 1663.34 278.45 1666.87 278.45C1670.39 278.45 1672.47 279.325 1672.47 280.85C1672.47 282.375 1670.39 283.25 1666.87 283.25ZM1690.92 280.275V274.275H1697.77V272.625H1684.27V264.35H1682.22V274.275H1688.87V280.275H1679.72V281.95H1700.09V280.275H1690.92ZM1713.92 273.5V270.9H1720.67V269.25H1707.34V265.1H1720.52V263.45H1705.29V270.9H1711.87V273.5H1702.74V275.15H1723.04V273.5H1713.92ZM1712.89 276.75C1708.09 276.75 1705.19 278.2 1705.19 280.8C1705.19 283.4 1708.09 284.85 1712.89 284.85C1717.64 284.85 1720.54 283.4 1720.54 280.8C1720.54 278.2 1717.64 276.75 1712.89 276.75ZM1712.89 283.25C1709.27 283.25 1707.27 282.4 1707.27 280.8C1707.27 279.2 1709.27 278.35 1712.89 278.35C1716.42 278.35 1718.47 279.2 1718.47 280.8C1718.47 282.4 1716.42 283.25 1712.89 283.25ZM1743.49 263.325H1741.44V266.4H1730.31V263.325H1728.29V273.025H1743.49V263.325ZM1741.44 271.35H1730.31V268.05H1741.44V271.35ZM1746.06 275.725H1725.71V277.375H1734.81V284.875H1736.86V277.375H1746.06V275.725ZM1775.28 271.525H1771.58V262.45H1769.53V284.85H1771.58V273.225H1775.28V271.525ZM1761.85 264.375H1759.83V268.4C1759.83 272.475 1757.28 276.75 1754.05 278.425L1755.28 280.075C1757.8 278.675 1759.88 275.975 1760.85 272.65C1761.85 275.75 1763.88 278.35 1766.28 279.625L1767.55 278C1764.43 276.4 1761.85 272.325 1761.85 268.4V264.375ZM1791.55 265.175H1785.78V262.45H1783.73V265.175H1777.93V266.825H1791.55V265.175ZM1793.55 262.45V284.85H1795.6V262.45H1793.55ZM1785.78 276.35C1788.48 276.025 1790.12 274.475 1790.12 272.25C1790.12 269.725 1787.95 268.1 1784.75 268.1C1781.53 268.1 1779.35 269.725 1779.35 272.25C1779.35 274.55 1781.03 276.05 1783.73 276.375V278.775C1781.5 278.85 1779.35 278.875 1777.45 278.875L1777.75 280.6C1781.9 280.6 1787.28 280.5 1792.28 279.7L1792.13 278.175C1790.03 278.45 1787.9 278.6 1785.78 278.7V276.35ZM1781.3 272.25C1781.3 270.65 1782.65 269.675 1784.75 269.675C1786.78 269.675 1788.18 270.65 1788.18 272.25C1788.18 273.85 1786.78 274.8 1784.75 274.8C1782.65 274.8 1781.3 273.85 1781.3 272.25ZM1816.72 262.425V268.275H1812.35V269.95H1816.72V275.85H1818.77V262.425H1816.72ZM1813.55 273.375C1810.3 272.25 1808.1 269.4 1808.1 266.525V265.625H1813.02V263.95H1801.05V265.625H1806.05V266.525C1806.05 269.725 1803.72 272.675 1800.4 273.875L1801.47 275.5C1804.1 274.525 1806.12 272.5 1807.1 269.9C1808.1 272.225 1810.02 274.075 1812.52 274.975L1813.55 273.375ZM1803.8 278.725H1816.72V284.875H1818.77V277.075H1803.8V278.725ZM1839.67 262.425V284.85H1841.72V262.425H1839.67ZM1824.65 264.85V266.5H1833.07C1832.65 271.825 1829.65 276.125 1823.62 279L1824.72 280.675C1832.2 277 1835.15 271.325 1835.15 264.85H1824.65ZM1862.72 262.45V267.775H1858.14C1857.74 265.2 1855.44 263.475 1852.44 263.475C1849.12 263.475 1846.67 265.575 1846.67 268.65C1846.67 271.75 1849.12 273.85 1852.44 273.85C1855.54 273.85 1857.77 272.125 1858.17 269.45H1862.72V274.475H1864.79V262.45H1862.72ZM1852.44 272.15C1850.22 272.15 1848.62 270.7 1848.62 268.65C1848.62 266.575 1850.22 265.175 1852.44 265.175C1854.67 265.175 1856.27 266.575 1856.27 268.65C1856.27 270.7 1854.67 272.15 1852.44 272.15ZM1862.74 278.4H1852.47V275.575H1850.44V284.55H1864.79V275.575H1862.74V278.4ZM1862.74 282.9H1852.47V280H1862.74V282.9ZM1893.31 262.45H1891.26V278.825H1893.31V262.45ZM1887.13 269.5C1887.13 266.275 1884.58 264 1881.26 264C1877.93 264 1875.43 266.275 1875.43 269.5C1875.43 272.75 1877.93 275.05 1881.26 275.05C1884.58 275.05 1887.13 272.75 1887.13 269.5ZM1877.43 269.5C1877.43 267.325 1879.06 265.775 1881.26 265.775C1883.48 265.775 1885.13 267.325 1885.13 269.5C1885.13 271.725 1883.48 273.275 1881.26 273.275C1879.06 273.275 1877.43 271.725 1877.43 269.5ZM1880.93 282.675V277.15H1878.88V284.35H1893.98V282.675H1880.93ZM1899.78 271.725C1903.43 271.25 1906.81 269.65 1908.06 267.2C1909.26 269.675 1912.66 271.25 1916.33 271.725L1917.06 270.1C1913.13 269.7 1909.46 267.7 1909.38 265.225H1916.36V263.575H1899.78V265.225H1906.73C1906.61 267.7 1903.08 269.7 1899.06 270.1L1899.78 271.725ZM1897.91 273.1V274.75H1918.18V273.1H1897.91ZM1908.03 276.7C1903.23 276.7 1900.36 278.15 1900.36 280.75C1900.36 283.375 1903.23 284.825 1908.03 284.825C1912.81 284.825 1915.71 283.375 1915.71 280.75C1915.71 278.15 1912.81 276.7 1908.03 276.7ZM1908.03 283.2C1904.51 283.2 1902.43 282.35 1902.43 280.75C1902.43 279.15 1904.51 278.3 1908.03 278.3C1911.56 278.3 1913.63 279.15 1913.63 280.75C1913.63 282.35 1911.56 283.2 1908.03 283.2Z" fill="#282828"/>
<path d="M2244.72 155.981C2250.09 155.981 2254.44 151.629 2254.44 146.26C2254.44 140.891 2250.09 136.539 2244.72 136.539C2239.35 136.539 2235 140.891 2235 146.26C2235 151.629 2239.35 155.981 2244.72 155.981Z" fill="white" stroke="#E50012" stroke-miterlimit="10"/>
<path d="M2244.57 150.835C2247.1 150.835 2249.15 148.787 2249.15 146.26C2249.15 143.734 2247.1 141.686 2244.57 141.686C2242.05 141.686 2240 143.734 2240 146.26C2240 148.787 2242.05 150.835 2244.57 150.835Z" fill="#E50012"/>
<path d="M2245 158.84V205.729" stroke="#E50012" stroke-miterlimit="10" stroke-dasharray="2.83 2.83"/>
<path d="M2205.49 242.056C2204.89 242.056 2204.17 242.152 2203.5 242.344L2208.42 237.472C2210.41 235.48 2212.09 233.656 2212.09 231.04C2212.09 227.92 2209.76 226.096 2206.76 226.096C2203.76 226.096 2201.43 227.848 2200.98 231.088L2203.14 231.448C2203.14 229.432 2204.62 227.992 2206.64 227.992C2208.46 227.992 2209.81 228.976 2209.88 231.088C2209.88 233.152 2208.54 234.664 2206.69 236.632L2200.62 242.464V244H2212.42V242.056H2205.49ZM2227.3 235.24C2227.3 228.976 2224.46 226.12 2220.84 226.12C2217.19 226.12 2214.38 228.976 2214.38 235.24C2214.38 241.48 2217.19 244.336 2220.84 244.336C2224.46 244.336 2227.3 241.48 2227.3 235.24ZM2225.09 235.24C2225.09 240.712 2223.07 242.56 2220.84 242.56C2218.61 242.56 2216.62 240.712 2216.62 235.24C2216.62 229.744 2218.61 227.92 2220.84 227.92C2223.07 227.92 2225.09 229.744 2225.09 235.24ZM2234.08 242.056C2233.48 242.056 2232.76 242.152 2232.09 242.344L2237.01 237.472C2239 235.48 2240.68 233.656 2240.68 231.04C2240.68 227.92 2238.35 226.096 2235.35 226.096C2232.35 226.096 2230.03 227.848 2229.57 231.088L2231.73 231.448C2231.73 229.432 2233.22 227.992 2235.23 227.992C2237.06 227.992 2238.4 228.976 2238.47 231.088C2238.47 233.152 2237.13 234.664 2235.28 236.632L2229.21 242.464V244H2241.02V242.056H2234.08ZM2255.89 235.24C2255.89 228.976 2253.06 226.12 2249.43 226.12C2245.79 226.12 2242.98 228.976 2242.98 235.24C2242.98 241.48 2245.79 244.336 2249.43 244.336C2253.06 244.336 2255.89 241.48 2255.89 235.24ZM2253.68 235.24C2253.68 240.712 2251.67 242.56 2249.43 242.56C2247.2 242.56 2245.21 240.712 2245.21 235.24C2245.21 229.744 2247.2 227.92 2249.43 227.92C2251.67 227.92 2253.68 229.744 2253.68 235.24ZM2257.54 244.336H2259.72V242.08H2257.54V244.336ZM2271.23 242.224V226.312H2269.48L2264.75 230.392L2265.93 231.808L2269.12 228.952C2269.09 229.12 2269.09 229.336 2269.09 229.552V242.224H2265.18V244H2274.69V242.224H2271.23ZM2282.5 242.056C2281.9 242.056 2281.18 242.152 2280.51 242.344L2285.43 237.472C2287.42 235.48 2289.1 233.656 2289.1 231.04C2289.1 227.92 2286.78 226.096 2283.78 226.096C2280.78 226.096 2278.45 227.848 2277.99 231.088L2280.15 231.448C2280.15 229.432 2281.64 227.992 2283.66 227.992C2285.48 227.992 2286.82 228.976 2286.9 231.088C2286.9 233.152 2285.55 234.664 2283.7 236.632L2277.63 242.464V244H2289.44V242.056H2282.5Z" fill="#E50012"/>
<path d="M2165.17 262.425V270.55H2158.74V272.25H2165.17V284.9H2167.22V262.425H2165.17ZM2151.92 266.25H2160.07V264.55H2149.87V279.35H2151.59C2155.87 279.35 2158.52 279.2 2161.79 278.6L2161.54 276.9C2158.54 277.5 2155.89 277.625 2151.92 277.625V266.25ZM2192.69 271.525H2188.99V262.45H2186.94V284.85H2188.99V273.225H2192.69V271.525ZM2179.27 264.375H2177.24V268.4C2177.24 272.475 2174.69 276.75 2171.47 278.425L2172.69 280.075C2175.22 278.675 2177.29 275.975 2178.27 272.65C2179.27 275.75 2181.29 278.35 2183.69 279.625L2184.97 278C2181.84 276.4 2179.27 272.325 2179.27 268.4V264.375ZM2212.14 268.05V262.45H2210.09V275.95H2212.14V269.75H2215.46V268.05H2212.14ZM2207.94 272.275C2204.54 272.875 2201.66 273 2197.74 273V269.9H2205.76V263.825H2195.66V265.5H2203.74V268.325H2195.71V274.675H2197.49C2201.64 274.675 2204.61 274.55 2208.14 273.95L2207.94 272.275ZM2204.99 276.65C2200.41 276.65 2197.61 278.15 2197.61 280.75C2197.61 283.35 2200.41 284.825 2204.99 284.825C2209.51 284.825 2212.36 283.35 2212.36 280.75C2212.36 278.15 2209.51 276.65 2204.99 276.65ZM2204.99 283.25C2201.56 283.25 2199.61 282.35 2199.61 280.75C2199.61 279.15 2201.56 278.25 2204.99 278.25C2208.41 278.25 2210.34 279.15 2210.34 280.75C2210.34 282.35 2208.41 283.25 2204.99 283.25ZM2244.28 271.525H2240.58V262.45H2238.53V284.85H2240.58V273.225H2244.28V271.525ZM2230.85 264.375H2228.83V268.4C2228.83 272.475 2226.28 276.75 2223.05 278.425L2224.28 280.075C2226.8 278.675 2228.88 275.975 2229.85 272.65C2230.85 275.75 2232.88 278.35 2235.28 279.625L2236.55 278C2233.43 276.4 2230.85 272.325 2230.85 268.4V264.375ZM2262.73 262.45V267.775H2258.15C2257.75 265.2 2255.45 263.475 2252.45 263.475C2249.13 263.475 2246.68 265.575 2246.68 268.65C2246.68 271.75 2249.13 273.85 2252.45 273.85C2255.55 273.85 2257.78 272.125 2258.18 269.45H2262.73V274.475H2264.8V262.45H2262.73ZM2252.45 272.15C2250.23 272.15 2248.63 270.7 2248.63 268.65C2248.63 266.575 2250.23 265.175 2252.45 265.175C2254.68 265.175 2256.28 266.575 2256.28 268.65C2256.28 270.7 2254.68 272.15 2252.45 272.15ZM2262.75 278.4H2252.48V275.575H2250.45V284.55H2264.8V275.575H2262.75V278.4ZM2262.75 282.9H2252.48V280H2262.75V282.9ZM2286.72 268.1V262.45H2284.67V275.975H2286.72V269.825H2290.05V268.1H2286.72ZM2282.32 273.275C2279 272.2 2276.9 269.55 2276.9 266.625V265.75H2281.85V264.1H2269.82V265.75H2274.85V266.625C2274.85 269.9 2272.62 272.725 2269.22 273.925L2270.27 275.55C2272.97 274.575 2274.95 272.65 2275.92 270.05C2276.9 272.275 2278.75 274.05 2281.35 274.875L2282.32 273.275ZM2279.6 276.55C2275 276.55 2272.2 278.075 2272.2 280.675C2272.2 283.3 2275 284.825 2279.6 284.825C2284.12 284.825 2286.97 283.3 2286.97 280.675C2286.97 278.075 2284.12 276.55 2279.6 276.55ZM2279.6 283.2C2276.17 283.2 2274.25 282.275 2274.25 280.675C2274.25 279.075 2276.17 278.175 2279.6 278.175C2282.92 278.175 2284.92 279.075 2284.92 280.675C2284.92 282.275 2282.92 283.2 2279.6 283.2ZM2314.21 262.425V284.9H2316.26V262.425H2314.21ZM2304.44 264.15C2301.11 264.15 2298.74 267.2 2298.74 271.975C2298.74 276.75 2301.11 279.8 2304.44 279.8C2307.76 279.8 2310.14 276.75 2310.14 271.975C2310.14 267.2 2307.76 264.15 2304.44 264.15ZM2304.44 266C2306.61 266 2308.16 268.35 2308.16 271.975C2308.16 275.625 2306.61 277.975 2304.44 277.975C2302.24 277.975 2300.69 275.625 2300.69 271.975C2300.69 268.35 2302.24 266 2304.44 266ZM2332.81 268.625V270.3H2337.31V278.875H2339.38V262.45H2337.31V268.625H2332.81ZM2334.13 273.9C2330.88 272.775 2328.68 269.925 2328.68 267.025V265.925H2333.61V264.25H2321.63V265.925H2326.63V267.05C2326.63 270.225 2324.31 273.2 2320.98 274.4L2322.06 276C2324.68 275.025 2326.73 273.025 2327.71 270.425C2328.68 272.725 2330.61 274.6 2333.11 275.5L2334.13 273.9ZM2327.11 282.675V277.425H2325.03V284.35H2340.01V282.675H2327.11Z" fill="#282828"/>
<path d="M603.721 155.41C609.09 155.41 613.442 151.057 613.442 145.689C613.442 140.32 609.09 135.968 603.721 135.968C598.352 135.968 594 140.32 594 145.689C594 151.057 598.352 155.41 603.721 155.41Z" fill="white" stroke="#E50012" stroke-miterlimit="10"/>
<path d="M603.575 150.263C606.101 150.263 608.149 148.215 608.149 145.689C608.149 143.162 606.101 141.114 603.575 141.114C601.048 141.114 599 143.162 599 145.689C599 148.215 601.048 150.263 603.575 150.263Z" fill="#E50012"/>
<path d="M604 133.109V86.2197" stroke="#E50012" stroke-miterlimit="10" stroke-dasharray="2.83 2.83"/>
<path d="M564.488 64.056C563.888 64.056 563.168 64.152 562.496 64.344L567.416 59.472C569.408 57.48 571.088 55.656 571.088 53.04C571.088 49.92 568.76 48.096 565.76 48.096C562.76 48.096 560.432 49.848 559.976 53.088L562.136 53.448C562.136 51.432 563.624 49.992 565.64 49.992C567.464 49.992 568.808 50.976 568.88 53.088C568.88 55.152 567.536 56.664 565.688 58.632L559.616 64.464V66H571.424V64.056H564.488ZM586.297 57.24C586.297 50.976 583.465 48.12 579.841 48.12C576.193 48.12 573.385 50.976 573.385 57.24C573.385 63.48 576.193 66.336 579.841 66.336C583.465 66.336 586.297 63.48 586.297 57.24ZM584.089 57.24C584.089 62.712 582.073 64.56 579.841 64.56C577.609 64.56 575.617 62.712 575.617 57.24C575.617 51.744 577.609 49.92 579.841 49.92C582.073 49.92 584.089 51.744 584.089 57.24ZM596.106 64.224V48.312H594.354L589.626 52.392L590.802 53.808L593.993 50.952C593.97 51.12 593.97 51.336 593.97 51.552V64.224H590.058V66H599.562V64.224H596.106ZM610.402 64.224V48.312H608.65L603.922 52.392L605.098 53.808L608.29 50.952C608.266 51.12 608.266 51.336 608.266 51.552V64.224H604.354V66H613.858V64.224H610.402ZM616.539 66.336H618.723V64.08H616.539V66.336ZM634.719 57.24C634.719 50.976 631.887 48.12 628.263 48.12C624.615 48.12 621.807 50.976 621.807 57.24C621.807 63.48 624.615 66.336 628.263 66.336C631.887 66.336 634.719 63.48 634.719 57.24ZM632.511 57.24C632.511 62.712 630.495 64.56 628.263 64.56C626.031 64.56 624.039 62.712 624.039 57.24C624.039 51.744 626.031 49.92 628.263 49.92C630.495 49.92 632.511 51.744 632.511 57.24ZM641.503 64.056C640.903 64.056 640.183 64.152 639.511 64.344L644.431 59.472C646.423 57.48 648.103 55.656 648.103 53.04C648.103 49.92 645.775 48.096 642.775 48.096C639.775 48.096 637.447 49.848 636.991 53.088L639.151 53.448C639.151 51.432 640.639 49.992 642.655 49.992C644.479 49.992 645.823 50.976 645.895 53.088C645.895 55.152 644.551 56.664 642.703 58.632L636.631 64.464V66H648.439V64.056H641.503Z" fill="#E50012"/>
<path d="M500.169 7.425V15.025H494.969V16.7H500.169V29.875H502.219V7.425H500.169ZM491.594 9.35H489.544V13.375C489.544 17.5 486.994 21.875 483.744 23.475L484.994 25.1C487.519 23.775 489.569 20.925 490.569 17.6C491.594 20.725 493.694 23.425 496.194 24.7L497.394 23.075C494.144 21.55 491.594 17.425 491.594 13.375V9.35ZM516.867 15.45C521.892 15.45 524.742 14.1 524.742 11.575C524.742 9.05 521.892 7.675 516.867 7.675C511.942 7.675 508.992 9.05 508.992 11.575C508.992 14.1 511.942 15.45 516.867 15.45ZM516.867 9.225C520.592 9.225 522.642 10.075 522.642 11.575C522.642 13.075 520.592 13.925 516.867 13.925C513.142 13.925 511.092 13.075 511.092 11.575C511.092 10.075 513.142 9.225 516.867 9.225ZM526.992 18.575V16.925H506.742V18.575H515.842V20.675H509.192V22.225H522.392V24.225H509.242V29.6H525.092V28H511.242V25.725H524.417V20.675H517.892V18.575H526.992ZM542.34 9.9H537.19V7.225H535.14V9.9H529.79V11.55H542.34V9.9ZM546.14 17.175H542.34V18.85H546.14V21.9H548.215V7.425H546.14V12.825H542.365V14.475H546.14V17.175ZM541.215 16.85C541.215 14.35 539.115 12.7 536.14 12.7C533.14 12.7 531.065 14.35 531.065 16.85C531.065 19.375 533.14 21.025 536.14 21.025C539.115 21.025 541.215 19.375 541.215 16.85ZM532.99 16.85C532.99 15.25 534.24 14.275 536.14 14.275C538.04 14.275 539.29 15.25 539.29 16.85C539.29 18.45 538.04 19.45 536.14 19.45C534.24 19.45 532.99 18.45 532.99 16.85ZM540.865 22.175C536.14 22.175 533.39 23.5 533.39 26C533.39 28.425 536.14 29.825 540.865 29.825C545.49 29.825 548.315 28.425 548.315 26C548.315 23.525 545.49 22.175 540.865 22.175ZM540.865 28.25C537.54 28.25 535.515 27.425 535.515 26C535.515 24.5 537.54 23.75 540.865 23.75C544.19 23.75 546.19 24.5 546.19 26C546.19 27.425 544.19 28.25 540.865 28.25ZM579.279 16.525H575.579V7.45H573.529V29.85H575.579V18.225H579.279V16.525ZM565.854 9.375H563.829V13.4C563.829 17.475 561.279 21.75 558.054 23.425L559.279 25.075C561.804 23.675 563.879 20.975 564.854 17.65C565.854 20.75 567.879 23.35 570.279 24.625L571.554 23C568.429 21.4 565.854 17.325 565.854 13.4V9.375ZM595.552 10.175H589.777V7.45H587.727V10.175H581.927V11.825H595.552V10.175ZM597.552 7.45V29.85H599.602V7.45H597.552ZM589.777 21.35C592.477 21.025 594.127 19.475 594.127 17.25C594.127 14.725 591.952 13.1 588.752 13.1C585.527 13.1 583.352 14.725 583.352 17.25C583.352 19.55 585.027 21.05 587.727 21.375V23.775C585.502 23.85 583.352 23.875 581.452 23.875L581.752 25.6C585.902 25.6 591.277 25.5 596.277 24.7L596.127 23.175C594.027 23.45 591.902 23.6 589.777 23.7V21.35ZM585.302 17.25C585.302 15.65 586.652 14.675 588.752 14.675C590.777 14.675 592.177 15.65 592.177 17.25C592.177 18.85 590.777 19.8 588.752 19.8C586.652 19.8 585.302 18.85 585.302 17.25ZM620.725 7.425V13.275H616.35V14.95H620.725V20.85H622.775V7.425H620.725ZM617.55 18.375C614.3 17.25 612.1 14.4 612.1 11.525V10.625H617.025V8.95H605.05V10.625H610.05V11.525C610.05 14.725 607.725 17.675 604.4 18.875L605.475 20.5C608.1 19.525 610.125 17.5 611.1 14.9C612.1 17.225 614.025 19.075 616.525 19.975L617.55 18.375ZM607.8 23.725H620.725V29.875H622.775V22.075H607.8V23.725ZM643.673 7.425V29.85H645.723V7.425H643.673ZM628.648 9.85V11.5H637.073C636.648 16.825 633.648 21.125 627.623 24L628.723 25.675C636.198 22 639.148 16.325 639.148 9.85H628.648ZM666.721 7.45V12.775H662.146C661.746 10.2 659.446 8.475 656.446 8.475C653.121 8.475 650.671 10.575 650.671 13.65C650.671 16.75 653.121 18.85 656.446 18.85C659.546 18.85 661.771 17.125 662.171 14.45H666.721V19.475H668.796V7.45H666.721ZM656.446 17.15C654.221 17.15 652.621 15.7 652.621 13.65C652.621 11.575 654.221 10.175 656.446 10.175C658.671 10.175 660.271 11.575 660.271 13.65C660.271 15.7 658.671 17.15 656.446 17.15ZM666.746 23.4H656.471V20.575H654.446V29.55H668.796V20.575H666.746V23.4ZM666.746 27.9H656.471V25H666.746V27.9ZM697.31 7.45H695.26V23.825H697.31V7.45ZM691.135 14.5C691.135 11.275 688.585 9 685.26 9C681.935 9 679.435 11.275 679.435 14.5C679.435 17.75 681.935 20.05 685.26 20.05C688.585 20.05 691.135 17.75 691.135 14.5ZM681.435 14.5C681.435 12.325 683.06 10.775 685.26 10.775C687.485 10.775 689.135 12.325 689.135 14.5C689.135 16.725 687.485 18.275 685.26 18.275C683.06 18.275 681.435 16.725 681.435 14.5ZM684.935 27.675V22.15H682.885V29.35H697.985V27.675H684.935ZM703.783 16.725C707.433 16.25 710.808 14.65 712.058 12.2C713.258 14.675 716.658 16.25 720.333 16.725L721.058 15.1C717.133 14.7 713.458 12.7 713.383 10.225H720.358V8.575H703.783V10.225H710.733C710.608 12.7 707.083 14.7 703.058 15.1L703.783 16.725ZM701.908 18.1V19.75H722.183V18.1H701.908ZM712.033 21.7C707.233 21.7 704.358 23.15 704.358 25.75C704.358 28.375 707.233 29.825 712.033 29.825C716.808 29.825 719.708 28.375 719.708 25.75C719.708 23.15 716.808 21.7 712.033 21.7ZM712.033 28.2C708.508 28.2 706.433 27.35 706.433 25.75C706.433 24.15 708.508 23.3 712.033 23.3C715.558 23.3 717.633 24.15 717.633 25.75C717.633 27.35 715.558 28.2 712.033 28.2Z" fill="#282828"/>
<path d="M1072.72 155.41C1078.09 155.41 1082.44 151.057 1082.44 145.689C1082.44 140.32 1078.09 135.968 1072.72 135.968C1067.35 135.968 1063 140.32 1063 145.689C1063 151.057 1067.35 155.41 1072.72 155.41Z" fill="white" stroke="#E50012" stroke-miterlimit="10"/>
<path d="M1072.57 150.263C1075.1 150.263 1077.15 148.215 1077.15 145.689C1077.15 143.162 1075.1 141.114 1072.57 141.114C1070.05 141.114 1068 143.162 1068 145.689C1068 148.215 1070.05 150.263 1072.57 150.263Z" fill="#E50012"/>
<path d="M1073 133.109V86.2197" stroke="#E50012" stroke-miterlimit="10" stroke-dasharray="2.83 2.83"/>
<path d="M1033.49 64.056C1032.89 64.056 1032.17 64.152 1031.5 64.344L1036.42 59.472C1038.41 57.48 1040.09 55.656 1040.09 53.04C1040.09 49.92 1037.76 48.096 1034.76 48.096C1031.76 48.096 1029.43 49.848 1028.98 53.088L1031.14 53.448C1031.14 51.432 1032.62 49.992 1034.64 49.992C1036.46 49.992 1037.81 50.976 1037.88 53.088C1037.88 55.152 1036.54 56.664 1034.69 58.632L1028.62 64.464V66H1040.42V64.056H1033.49ZM1055.3 57.24C1055.3 50.976 1052.46 48.12 1048.84 48.12C1045.19 48.12 1042.38 50.976 1042.38 57.24C1042.38 63.48 1045.19 66.336 1048.84 66.336C1052.46 66.336 1055.3 63.48 1055.3 57.24ZM1053.09 57.24C1053.09 62.712 1051.07 64.56 1048.84 64.56C1046.61 64.56 1044.62 62.712 1044.62 57.24C1044.62 51.744 1046.61 49.92 1048.84 49.92C1051.07 49.92 1053.09 51.744 1053.09 57.24ZM1065.11 64.224V48.312H1063.35L1058.63 52.392L1059.8 53.808L1062.99 50.952C1062.97 51.12 1062.97 51.336 1062.97 51.552V64.224H1059.06V66H1068.56V64.224H1065.11ZM1076.38 64.056C1075.78 64.056 1075.06 64.152 1074.39 64.344L1079.31 59.472C1081.3 57.48 1082.98 55.656 1082.98 53.04C1082.98 49.92 1080.65 48.096 1077.65 48.096C1074.65 48.096 1072.32 49.848 1071.87 53.088L1074.03 53.448C1074.03 51.432 1075.51 49.992 1077.53 49.992C1079.35 49.992 1080.7 50.976 1080.77 53.088C1080.77 55.152 1079.43 56.664 1077.58 58.632L1071.51 64.464V66H1083.31V64.056H1076.38ZM1085.54 66.336H1087.72V64.08H1085.54V66.336ZM1103.72 57.24C1103.72 50.976 1100.89 48.12 1097.26 48.12C1093.61 48.12 1090.81 50.976 1090.81 57.24C1090.81 63.48 1093.61 66.336 1097.26 66.336C1100.89 66.336 1103.72 63.48 1103.72 57.24ZM1101.51 57.24C1101.51 62.712 1099.49 64.56 1097.26 64.56C1095.03 64.56 1093.04 62.712 1093.04 57.24C1093.04 51.744 1095.03 49.92 1097.26 49.92C1099.49 49.92 1101.51 51.744 1101.51 57.24ZM1115.45 48.312H1112.69L1107.79 54.912C1106.26 56.928 1105.61 58.704 1105.61 60.264C1105.61 63.912 1107.94 66.312 1111.51 66.312C1115.11 66.312 1117.61 63.768 1117.61 60.504C1117.61 57.12 1115.21 55.2 1112.33 55.2C1111.15 55.2 1110.17 55.536 1109.3 56.112C1109.47 55.92 1109.74 55.536 1110.14 54.96L1115.45 48.312ZM1111.46 64.464C1109.06 64.464 1107.74 62.928 1107.74 60.624C1107.74 58.632 1109.26 56.904 1111.61 56.904C1113.79 56.904 1115.4 58.344 1115.4 60.672C1115.4 62.856 1113.79 64.464 1111.46 64.464Z" fill="#E50012"/>
<path d="M927.698 16.475H923.998V7.45H921.948V29.85H923.998V18.2H927.698V16.475ZM914.298 11.425H919.273V9.725H907.148V11.425H912.273V14.275C912.273 18.075 909.573 22.325 906.373 23.925L907.573 25.55C910.073 24.3 912.298 21.375 913.298 18.125C914.298 21.125 916.423 23.725 918.923 25L920.098 23.35C916.848 21.825 914.298 17.85 914.298 14.275V11.425ZM943.971 10.175H938.196V7.45H936.146V10.175H930.346V11.825H943.971V10.175ZM945.971 7.45V29.85H948.021V7.45H945.971ZM938.196 21.35C940.896 21.025 942.546 19.475 942.546 17.25C942.546 14.725 940.371 13.1 937.171 13.1C933.946 13.1 931.771 14.725 931.771 17.25C931.771 19.55 933.446 21.05 936.146 21.375V23.775C933.921 23.85 931.771 23.875 929.871 23.875L930.171 25.6C934.321 25.6 939.696 25.5 944.696 24.7L944.546 23.175C942.446 23.45 940.321 23.6 938.196 23.7V21.35ZM933.721 17.25C933.721 15.65 935.071 14.675 937.171 14.675C939.196 14.675 940.596 15.65 940.596 17.25C940.596 18.85 939.196 19.8 937.171 19.8C935.071 19.8 933.721 18.85 933.721 17.25ZM973.694 16.525H969.994V7.45H967.944V29.85H969.994V18.225H973.694V16.525ZM960.269 9.375H958.244V13.4C958.244 17.475 955.694 21.75 952.469 23.425L953.694 25.075C956.219 23.675 958.294 20.975 959.269 17.65C960.269 20.75 962.294 23.35 964.694 24.625L965.969 23C962.844 21.4 960.269 17.325 960.269 13.4V9.375ZM988.342 9.9H983.192V7.225H981.142V9.9H975.792V11.55H988.342V9.9ZM992.142 17.175H988.342V18.85H992.142V21.9H994.217V7.425H992.142V12.825H988.367V14.475H992.142V17.175ZM987.217 16.85C987.217 14.35 985.117 12.7 982.142 12.7C979.142 12.7 977.067 14.35 977.067 16.85C977.067 19.375 979.142 21.025 982.142 21.025C985.117 21.025 987.217 19.375 987.217 16.85ZM978.992 16.85C978.992 15.25 980.242 14.275 982.142 14.275C984.042 14.275 985.292 15.25 985.292 16.85C985.292 18.45 984.042 19.45 982.142 19.45C980.242 19.45 978.992 18.45 978.992 16.85ZM986.867 22.175C982.142 22.175 979.392 23.5 979.392 26C979.392 28.425 982.142 29.825 986.867 29.825C991.492 29.825 994.317 28.425 994.317 26C994.317 23.525 991.492 22.175 986.867 22.175ZM986.867 28.25C983.542 28.25 981.517 27.425 981.517 26C981.517 24.5 983.542 23.75 986.867 23.75C990.192 23.75 992.192 24.5 992.192 26C992.192 27.425 990.192 28.25 986.867 28.25ZM1021.73 13.1V7.45H1019.68V20.975H1021.73V14.825H1025.06V13.1H1021.73ZM1017.33 18.275C1014.01 17.2 1011.91 14.55 1011.91 11.625V10.75H1016.86V9.1H1004.83V10.75H1009.86V11.625C1009.86 14.9 1007.63 17.725 1004.23 18.925L1005.28 20.55C1007.98 19.575 1009.96 17.65 1010.93 15.05C1011.91 17.275 1013.76 19.05 1016.36 19.875L1017.33 18.275ZM1014.61 21.55C1010.01 21.55 1007.21 23.075 1007.21 25.675C1007.21 28.3 1010.01 29.825 1014.61 29.825C1019.13 29.825 1021.98 28.3 1021.98 25.675C1021.98 23.075 1019.13 21.55 1014.61 21.55ZM1014.61 28.2C1011.18 28.2 1009.26 27.275 1009.26 25.675C1009.26 24.075 1011.18 23.175 1014.61 23.175C1017.93 23.175 1019.93 24.075 1019.93 25.675C1019.93 27.275 1017.93 28.2 1014.61 28.2ZM1044.43 7.425V16.3H1041.4V7.925H1039.48V28.75H1041.4V17.975H1044.43V29.85H1046.38V7.425H1044.43ZM1032.38 9.3C1029.48 9.3 1027.6 12.325 1027.6 17.1C1027.6 21.9 1029.48 24.925 1032.38 24.925C1035.3 24.925 1037.18 21.9 1037.18 17.1C1037.18 12.325 1035.3 9.3 1032.38 9.3ZM1032.38 23.025C1030.58 23.025 1029.48 20.825 1029.48 17.1C1029.48 13.475 1030.58 11.2 1032.38 11.2C1034.18 11.2 1035.28 13.475 1035.28 17.1C1035.28 20.825 1034.18 23.025 1032.38 23.025ZM1068.73 7.45H1066.68V23.825H1068.73V7.45ZM1062.55 14.5C1062.55 11.275 1060 9 1056.68 9C1053.35 9 1050.85 11.275 1050.85 14.5C1050.85 17.75 1053.35 20.05 1056.68 20.05C1060 20.05 1062.55 17.75 1062.55 14.5ZM1052.85 14.5C1052.85 12.325 1054.48 10.775 1056.68 10.775C1058.9 10.775 1060.55 12.325 1060.55 14.5C1060.55 16.725 1058.9 18.275 1056.68 18.275C1054.48 18.275 1052.85 16.725 1052.85 14.5ZM1056.35 27.675V22.15H1054.3V29.35H1069.4V27.675H1056.35ZM1087.93 25.45V20.125H1091.73V18.475H1088.28V11.15H1091.75V9.5H1075.12V11.15H1078.6V18.475H1075.18V20.125H1078.95V25.45H1073.3V27.125H1093.65V25.45H1087.93ZM1080.65 11.15H1086.23V18.475H1080.65V11.15ZM1081 20.125H1085.88V25.45H1081V20.125ZM1098.32 17.35C1101.92 16.825 1105.27 14.975 1106.47 12.4C1107.67 14.975 1110.97 16.825 1114.62 17.35L1115.37 15.7C1111.42 15.175 1107.8 12.975 1107.8 10.225V10.2H1114.77V8.55H1098.17V10.2H1105.15V10.225C1105.15 12.95 1101.55 15.175 1097.55 15.7L1098.32 17.35ZM1096.27 18.975V20.625H1105.6V25.175H1107.65V20.625H1116.62V18.975H1096.27ZM1100.92 23H1098.87V29.35H1114.37V27.675H1100.92V23ZM1140.27 16.525H1136.57V7.45H1134.52V29.85H1136.57V18.225H1140.27V16.525ZM1126.85 9.375H1124.82V13.4C1124.82 17.475 1122.27 21.75 1119.05 23.425L1120.27 25.075C1122.8 23.675 1124.87 20.975 1125.85 17.65C1126.85 20.75 1128.87 23.35 1131.27 24.625L1132.55 23C1129.42 21.4 1126.85 17.325 1126.85 13.4V9.375ZM1158.72 7.45V12.775H1154.14C1153.74 10.2 1151.44 8.475 1148.44 8.475C1145.12 8.475 1142.67 10.575 1142.67 13.65C1142.67 16.75 1145.12 18.85 1148.44 18.85C1151.54 18.85 1153.77 17.125 1154.17 14.45H1158.72V19.475H1160.79V7.45H1158.72ZM1148.44 17.15C1146.22 17.15 1144.62 15.7 1144.62 13.65C1144.62 11.575 1146.22 10.175 1148.44 10.175C1150.67 10.175 1152.27 11.575 1152.27 13.65C1152.27 15.7 1150.67 17.15 1148.44 17.15ZM1158.74 23.4H1148.47V20.575H1146.44V29.55H1160.79V20.575H1158.74V23.4ZM1158.74 27.9H1148.47V25H1158.74V27.9ZM1182.72 13.1V7.45H1180.67V20.975H1182.72V14.825H1186.04V13.1H1182.72ZM1178.32 18.275C1174.99 17.2 1172.89 14.55 1172.89 11.625V10.75H1177.84V9.1H1165.82V10.75H1170.84V11.625C1170.84 14.9 1168.62 17.725 1165.22 18.925L1166.27 20.55C1168.97 19.575 1170.94 17.65 1171.92 15.05C1172.89 17.275 1174.74 19.05 1177.34 19.875L1178.32 18.275ZM1175.59 21.55C1170.99 21.55 1168.19 23.075 1168.19 25.675C1168.19 28.3 1170.99 29.825 1175.59 29.825C1180.12 29.825 1182.97 28.3 1182.97 25.675C1182.97 23.075 1180.12 21.55 1175.59 21.55ZM1175.59 28.2C1172.17 28.2 1170.24 27.275 1170.24 25.675C1170.24 24.075 1172.17 23.175 1175.59 23.175C1178.92 23.175 1180.92 24.075 1180.92 25.675C1180.92 27.275 1178.92 28.2 1175.59 28.2ZM1212.31 7.45H1210.26V23.825H1212.31V7.45ZM1206.13 14.5C1206.13 11.275 1203.58 9 1200.26 9C1196.93 9 1194.43 11.275 1194.43 14.5C1194.43 17.75 1196.93 20.05 1200.26 20.05C1203.58 20.05 1206.13 17.75 1206.13 14.5ZM1196.43 14.5C1196.43 12.325 1198.06 10.775 1200.26 10.775C1202.48 10.775 1204.13 12.325 1204.13 14.5C1204.13 16.725 1202.48 18.275 1200.26 18.275C1198.06 18.275 1196.43 16.725 1196.43 14.5ZM1199.93 27.675V22.15H1197.88V29.35H1212.98V27.675H1199.93ZM1218.78 16.725C1222.43 16.25 1225.8 14.65 1227.05 12.2C1228.25 14.675 1231.65 16.25 1235.33 16.725L1236.05 15.1C1232.13 14.7 1228.45 12.7 1228.38 10.225H1235.35V8.575H1218.78V10.225H1225.73C1225.6 12.7 1222.08 14.7 1218.05 15.1L1218.78 16.725ZM1216.9 18.1V19.75H1237.18V18.1H1216.9ZM1227.03 21.7C1222.23 21.7 1219.35 23.15 1219.35 25.75C1219.35 28.375 1222.23 29.825 1227.03 29.825C1231.8 29.825 1234.7 28.375 1234.7 25.75C1234.7 23.15 1231.8 21.7 1227.03 21.7ZM1227.03 28.2C1223.5 28.2 1221.43 27.35 1221.43 25.75C1221.43 24.15 1223.5 23.3 1227.03 23.3C1230.55 23.3 1232.63 24.15 1232.63 25.75C1232.63 27.35 1230.55 28.2 1227.03 28.2Z" fill="#282828"/>
<path d="M1541.72 155.41C1547.09 155.41 1551.44 151.057 1551.44 145.689C1551.44 140.32 1547.09 135.968 1541.72 135.968C1536.35 135.968 1532 140.32 1532 145.689C1532 151.057 1536.35 155.41 1541.72 155.41Z" fill="white" stroke="#E50012" stroke-miterlimit="10"/>
<path d="M1541.57 150.263C1544.1 150.263 1546.15 148.215 1546.15 145.689C1546.15 143.162 1544.1 141.114 1541.57 141.114C1539.05 141.114 1537 143.162 1537 145.689C1537 148.215 1539.05 150.263 1541.57 150.263Z" fill="#E50012"/>
<path d="M1542 133.109V86.2197" stroke="#E50012" stroke-miterlimit="10" stroke-dasharray="2.83 2.83"/>
<path d="M1502.49 64.056C1501.89 64.056 1501.17 64.152 1500.5 64.344L1505.42 59.472C1507.41 57.48 1509.09 55.656 1509.09 53.04C1509.09 49.92 1506.76 48.096 1503.76 48.096C1500.76 48.096 1498.43 49.848 1497.98 53.088L1500.14 53.448C1500.14 51.432 1501.62 49.992 1503.64 49.992C1505.46 49.992 1506.81 50.976 1506.88 53.088C1506.88 55.152 1505.54 56.664 1503.69 58.632L1497.62 64.464V66H1509.42V64.056H1502.49ZM1524.3 57.24C1524.3 50.976 1521.46 48.12 1517.84 48.12C1514.19 48.12 1511.38 50.976 1511.38 57.24C1511.38 63.48 1514.19 66.336 1517.84 66.336C1521.46 66.336 1524.3 63.48 1524.3 57.24ZM1522.09 57.24C1522.09 62.712 1520.07 64.56 1517.84 64.56C1515.61 64.56 1513.62 62.712 1513.62 57.24C1513.62 51.744 1515.61 49.92 1517.84 49.92C1520.07 49.92 1522.09 51.744 1522.09 57.24ZM1534.11 64.224V48.312H1532.35L1527.63 52.392L1528.8 53.808L1531.99 50.952C1531.97 51.12 1531.97 51.336 1531.97 51.552V64.224H1528.06V66H1537.56V64.224H1534.11ZM1544.61 50.352H1551.5V48.336H1543.07L1541.63 56.664L1543.05 57.072C1544.08 56.712 1544.99 56.496 1545.93 56.496C1548.45 56.496 1549.94 57.84 1549.94 60.144C1549.94 62.736 1548.19 64.248 1545.76 64.248C1544.32 64.248 1542.93 63.6 1541.87 62.712L1540.7 64.32C1541.78 65.352 1543.55 66.216 1545.67 66.216C1549.24 66.216 1552.05 63.768 1552.05 60.024C1552.05 56.952 1550.06 54.648 1546.34 54.648C1545.47 54.648 1544.63 54.744 1543.82 54.96L1544.61 50.352ZM1554.54 66.336H1556.72V64.08H1554.54V66.336ZM1572.72 57.24C1572.72 50.976 1569.89 48.12 1566.26 48.12C1562.61 48.12 1559.81 50.976 1559.81 57.24C1559.81 63.48 1562.61 66.336 1566.26 66.336C1569.89 66.336 1572.72 63.48 1572.72 57.24ZM1570.51 57.24C1570.51 62.712 1568.49 64.56 1566.26 64.56C1564.03 64.56 1562.04 62.712 1562.04 57.24C1562.04 51.744 1564.03 49.92 1566.26 49.92C1568.49 49.92 1570.51 51.744 1570.51 57.24ZM1579.5 64.056C1578.9 64.056 1578.18 64.152 1577.51 64.344L1582.43 59.472C1584.42 57.48 1586.1 55.656 1586.1 53.04C1586.1 49.92 1583.78 48.096 1580.78 48.096C1577.78 48.096 1575.45 49.848 1574.99 53.088L1577.15 53.448C1577.15 51.432 1578.64 49.992 1580.66 49.992C1582.48 49.992 1583.82 50.976 1583.9 53.088C1583.9 55.152 1582.55 56.664 1580.7 58.632L1574.63 64.464V66H1586.44V64.056H1579.5Z" fill="#E50012"/>
<path d="M1431.04 18.525H1427.72C1428.34 15.3 1428.34 12.925 1428.34 10.825V8.875H1413.29V10.525H1426.34V10.825C1426.34 12.925 1426.34 15.3 1425.64 18.525H1410.77V20.2H1419.82V29.875H1421.89V20.2H1431.04V18.525ZM1453.07 18.7C1449.14 17.975 1444.89 14.525 1444.89 10.725V9H1442.74V10.725C1442.74 14.575 1438.49 17.9 1434.59 18.7L1435.52 20.4C1438.87 19.6 1442.42 17.2 1443.82 13.925C1445.22 17.225 1448.74 19.6 1452.14 20.4L1453.07 18.7ZM1433.74 25.15V26.85H1454.07V25.15H1433.74ZM1467.92 25.375V20.75H1474.77V19.075H1461.42V15.7H1474.04V14.075H1461.42V10.925H1474.54V9.25H1459.34V20.75H1465.87V25.375H1456.72V27.075H1477.09V25.375H1467.92ZM1496.14 7.45V16.425H1490.96V18.1H1496.14V29.85H1498.19V7.45H1496.14ZM1480.96 9.75V11.425H1489.01C1488.91 12.825 1488.71 14.1 1488.29 15.375L1479.81 15.925L1480.19 17.7L1487.66 17C1486.26 20 1483.84 22.55 1479.74 24.55L1480.89 26.175C1488.79 22.175 1491.04 16.275 1491.04 9.75H1480.96ZM1519.09 7.45V29.85H1521.14V7.45H1519.09ZM1513.49 11.5H1515.99V9.85H1503.29V11.5H1505.79V22.55C1505.26 22.575 1504.74 22.575 1504.24 22.575H1502.74L1502.96 24.3C1507.04 24.3 1512.46 24.25 1517.26 23.45L1517.14 21.95C1515.96 22.125 1514.76 22.2 1513.49 22.275V11.5ZM1507.76 11.5H1511.51V22.4C1510.24 22.475 1508.99 22.5 1507.76 22.525V11.5ZM1536.6 19.125H1533.18V20.8H1549.7V19.125H1546.28V11.325H1549.75V9.675H1533.13V11.325H1536.6V19.125ZM1544.23 19.125H1538.65V11.325H1544.23V19.125ZM1531.33 25.275V26.975H1551.65V25.275H1531.33ZM1565.5 25.4V21.175H1572.67V19.525H1558.87V15.9H1572.15V9.075H1556.8V10.75H1570.15V14.25H1556.85V21.175H1563.42V25.4H1554.3V27.075H1574.67V25.4H1565.5ZM1594.27 7.45V21.15H1596.25V7.45H1594.27ZM1586.57 13.2V14.875H1589.95V20.975H1591.9V7.925H1589.95V13.2H1586.57ZM1588.32 18.5C1585.52 17.3 1583.95 14.65 1583.95 12.175V10.925H1587.8V9.25H1577.85V10.925H1581.97V12.2C1581.97 14.875 1580.3 17.75 1577.42 19.025L1578.5 20.6C1580.7 19.625 1582.22 17.8 1583 15.6C1583.77 17.6 1585.2 19.175 1587.3 20.075L1588.32 18.5ZM1581.17 23.8H1594.2V29.875H1596.25V22.15H1581.17V23.8ZM1618.32 19.525H1605V15.975H1617.6V14.35H1605V11.025H1618.1V9.375H1602.92V21.175H1618.32V19.525ZM1600.3 25.275V26.95H1620.65V25.275H1600.3ZM1645.31 23.875H1647.38V7.45H1645.31V13.275H1641.13V15.025H1645.31V23.875ZM1641.53 18.525C1638.53 19.05 1636.06 19.15 1631.86 19.15V15.55H1639.73V9H1629.78V10.65H1637.68V13.975H1629.83V20.825H1631.53C1635.93 20.825 1638.58 20.725 1641.73 20.2L1641.53 18.525ZM1634.96 27.675V22.65H1632.91V29.35H1648.06V27.675H1634.96ZM1665.76 18.425C1662.43 17.425 1660.03 14.925 1660.03 12.1V11.825H1665.11V10.175H1660.06V7.425H1658.01V10.175H1652.91V11.825H1658.01V12.1C1658.01 15.175 1655.68 17.875 1652.36 18.95L1653.36 20.575C1656.06 19.675 1658.08 17.825 1659.06 15.325C1660.13 17.525 1662.18 19.225 1664.81 20.025L1665.76 18.425ZM1670.31 7.45H1668.26V21.175H1670.31V7.45ZM1662.86 21.65C1658.16 21.65 1655.33 23.15 1655.33 25.75C1655.33 28.35 1658.16 29.825 1662.86 29.825C1667.56 29.825 1670.38 28.35 1670.38 25.75C1670.38 23.15 1667.56 21.65 1662.86 21.65ZM1662.86 28.225C1659.43 28.225 1657.36 27.35 1657.36 25.75C1657.36 24.15 1659.43 23.25 1662.86 23.25C1666.28 23.25 1668.33 24.15 1668.33 25.75C1668.33 27.35 1666.28 28.225 1662.86 28.225Z" fill="#282828"/>
<path d="M2010.72 155.41C2016.09 155.41 2020.44 151.057 2020.44 145.689C2020.44 140.32 2016.09 135.968 2010.72 135.968C2005.35 135.968 2001 140.32 2001 145.689C2001 151.057 2005.35 155.41 2010.72 155.41Z" fill="white" stroke="#E50012" stroke-miterlimit="10"/>
<path d="M2010.57 150.263C2013.1 150.263 2015.15 148.215 2015.15 145.689C2015.15 143.162 2013.1 141.114 2010.57 141.114C2008.05 141.114 2006 143.162 2006 145.689C2006 148.215 2008.05 150.263 2010.57 150.263Z" fill="#E50012"/>
<path d="M2011 133.109V86.2197" stroke="#E50012" stroke-miterlimit="10" stroke-dasharray="2.83 2.83"/>
<path d="M1971.49 64.056C1970.89 64.056 1970.17 64.152 1969.5 64.344L1974.42 59.472C1976.41 57.48 1978.09 55.656 1978.09 53.04C1978.09 49.92 1975.76 48.096 1972.76 48.096C1969.76 48.096 1967.43 49.848 1966.98 53.088L1969.14 53.448C1969.14 51.432 1970.62 49.992 1972.64 49.992C1974.46 49.992 1975.81 50.976 1975.88 53.088C1975.88 55.152 1974.54 56.664 1972.69 58.632L1966.62 64.464V66H1978.42V64.056H1971.49ZM1993.3 57.24C1993.3 50.976 1990.46 48.12 1986.84 48.12C1983.19 48.12 1980.38 50.976 1980.38 57.24C1980.38 63.48 1983.19 66.336 1986.84 66.336C1990.46 66.336 1993.3 63.48 1993.3 57.24ZM1991.09 57.24C1991.09 62.712 1989.07 64.56 1986.84 64.56C1984.61 64.56 1982.62 62.712 1982.62 57.24C1982.62 51.744 1984.61 49.92 1986.84 49.92C1989.07 49.92 1991.09 51.744 1991.09 57.24ZM2003.11 64.224V48.312H2001.35L1996.63 52.392L1997.8 53.808L2000.99 50.952C2000.97 51.12 2000.97 51.336 2000.97 51.552V64.224H1997.06V66H2006.56V64.224H2003.11ZM2011.52 66H2014.28L2019.11 59.352C2020.45 57.504 2021.22 55.896 2021.22 53.808C2021.22 50.376 2018.94 47.976 2015.48 47.976C2011.98 47.976 2009.51 50.496 2009.51 53.64C2009.51 56.976 2011.81 58.8 2014.57 58.8C2015.89 58.8 2017.02 58.416 2017.95 57.672C2017.79 57.888 2017.5 58.344 2016.99 59.016L2011.52 66ZM2011.74 53.472C2011.74 51.336 2013.23 49.872 2015.46 49.872C2017.52 49.872 2019.08 51.24 2019.08 53.544C2019.08 55.392 2017.69 57.072 2015.29 57.072C2013.08 57.072 2011.74 55.8 2011.74 53.472ZM2023.54 66.336H2025.72V64.08H2023.54V66.336ZM2037.23 64.224V48.312H2035.48L2030.75 52.392L2031.93 53.808L2035.12 50.952C2035.09 51.12 2035.09 51.336 2035.09 51.552V64.224H2031.18V66H2040.69V64.224H2037.23ZM2048.5 64.056C2047.9 64.056 2047.18 64.152 2046.51 64.344L2051.43 59.472C2053.42 57.48 2055.1 55.656 2055.1 53.04C2055.1 49.92 2052.78 48.096 2049.78 48.096C2046.78 48.096 2044.45 49.848 2043.99 53.088L2046.15 53.448C2046.15 51.432 2047.64 49.992 2049.66 49.992C2051.48 49.992 2052.82 50.976 2052.9 53.088C2052.9 55.152 2051.55 56.664 2049.7 58.632L2043.63 64.464V66H2055.44V64.056H2048.5Z" fill="#E50012"/>
<path d="M1887.42 9.625H1882.9V7.375H1880.87V9.625H1876.32V11.2H1887.42V9.625ZM1895.37 7.45H1893.4V19.975H1895.37V7.45ZM1886.87 13.325V14.975H1889.35V19.825H1891.3V7.8H1889.35V13.325H1886.87ZM1886.52 15.825C1886.52 13.55 1884.62 12.1 1881.9 12.1C1879.15 12.1 1877.25 13.55 1877.25 15.825C1877.25 18.05 1879.15 19.525 1881.9 19.525C1884.62 19.525 1886.52 18.05 1886.52 15.825ZM1879.05 15.825C1879.05 14.425 1880.2 13.6 1881.9 13.6C1883.6 13.6 1884.72 14.425 1884.72 15.825C1884.72 17.225 1883.6 18.05 1881.9 18.05C1880.2 18.05 1879.05 17.225 1879.05 15.825ZM1882.65 28.05V25.925H1895.37V20.975H1880.57V22.5H1893.35V24.45H1880.62V29.6H1896.17V28.05H1882.65ZM1910.62 25.4V21.175H1917.8V19.525H1904V15.9H1917.27V9.075H1901.92V10.75H1915.27V14.25H1901.97V21.175H1908.55V25.4H1899.42V27.075H1919.8V25.4H1910.62ZM1940.7 7.425H1938.65V24.475H1940.7V7.425ZM1929.85 16.65C1933.17 16.65 1935.47 15.025 1935.47 12.525C1935.47 10 1933.17 8.375 1929.85 8.375C1926.52 8.375 1924.22 10 1924.22 12.525C1924.22 15.025 1926.52 16.65 1929.85 16.65ZM1929.85 9.925C1932.07 9.925 1933.52 10.925 1933.52 12.525C1933.52 14.125 1932.07 15.1 1929.85 15.1C1927.65 15.1 1926.17 14.125 1926.17 12.525C1926.17 10.925 1927.65 9.925 1929.85 9.925ZM1929.17 23.725H1931.22V19.825C1933.22 19.7 1935.2 19.475 1937.2 19.175L1937.05 17.675C1932.25 18.35 1926.67 18.375 1922.5 18.375L1922.77 20.075C1924.67 20.075 1926.87 20.05 1929.17 19.925V23.725ZM1927.67 27.675V22.95H1925.62V29.35H1941.35V27.675H1927.67ZM1961.87 7.4V15.875H1957.24V17.575H1961.87V29.875H1963.92V7.4H1961.87ZM1948.52 17.425H1955.87V15.775H1948.52V11.15H1956.84V9.45H1946.47V24.475H1948.19C1952.47 24.475 1955.19 24.375 1958.44 23.775L1958.22 22.1C1955.14 22.625 1952.59 22.8 1948.52 22.8V17.425ZM1990.38 7.425V29.85H1992.43V7.425H1990.38ZM1975.36 9.85V11.5H1983.78C1983.36 16.825 1980.36 21.125 1974.33 24L1975.43 25.675C1982.91 22 1985.86 16.325 1985.86 9.85H1975.36ZM2002.31 19.125H1998.88V20.8H2015.41V19.125H2011.98V11.325H2015.46V9.675H1998.83V11.325H2002.31V19.125ZM2009.93 19.125H2004.36V11.325H2009.93V19.125ZM1997.03 25.275V26.975H2017.36V25.275H1997.03ZM2038.03 19.525H2024.7V15.975H2037.3V14.35H2024.7V11.025H2037.8V9.375H2022.63V21.175H2038.03V19.525ZM2020 25.275V26.95H2040.35V25.275H2020ZM2065.72 7.425V29.85H2067.67V7.425H2065.72ZM2061.17 15.475H2057.47V17.175H2061.17V28.75H2063.09V7.925H2061.17V15.475ZM2055.27 9.55H2053.29V13.825C2053.29 17.7 2051.44 21.7 2048.37 23.5L2049.64 25.05C2051.87 23.65 2053.49 21.175 2054.29 18.15C2055.09 20.875 2056.59 23.25 2058.72 24.55L2059.89 22.95C2056.97 21.15 2055.27 17.35 2055.27 13.75V9.55ZM2089.62 19.525H2076.29V15.975H2088.89V14.35H2076.29V11.025H2089.39V9.375H2074.22V21.175H2089.62V19.525ZM2071.59 25.275V26.95H2091.94V25.275H2071.59ZM2101.88 16.375C2105.68 16.1 2108.95 14.925 2110.35 12.85C2111.75 14.925 2115.03 16.1 2118.78 16.375L2119.4 14.825C2115.23 14.55 2111.83 13.15 2111.5 10.95H2118.4V9.4H2111.38V7.275H2109.33V9.4H2102.28V10.95H2109.2C2108.88 13.15 2105.4 14.55 2101.28 14.825L2101.88 16.375ZM2120.45 18.95V17.375H2100.23V18.95H2109.3V21.025H2102.63V22.55H2115.85V24.45H2102.7V29.6H2118.55V28.05H2104.7V25.925H2117.88V21.025H2111.38V18.95H2120.45ZM2139.5 7.425V29.9H2141.55V7.425H2139.5ZM2131.15 9.375H2129.13V13.4C2129.13 17.7 2126.38 21.925 2123.1 23.525L2124.35 25.2C2126.98 23.8 2129.13 21.1 2130.15 17.675C2131.23 20.9 2133.33 23.5 2135.93 24.775L2137.15 23.125C2133.85 21.65 2131.15 17.5 2131.15 13.4V9.375Z" fill="#282828"/>
</svg>
