<svg xmlns="http://www.w3.org/2000/svg" viewBox="0 0 1203.75 673.01"><defs><style>.cls-1,.cls-2{fill:none;}.cls-1,.cls-2,.cls-4{stroke:#e50012;stroke-miterlimit:10;}.cls-1{stroke-dasharray:2.83 2.83;}.cls-2{stroke-width:2.83px;}.cls-3,.cls-5{fill:#e50012;}.cls-4{fill:#fff;}.cls-5{font-size:22px;font-family:SpoqaHanSansNeo-Regular, Spoqa Han Sans Neo;}.cls-6{fill:#000;}.cls-7{letter-spacing:-0.02em;}</style></defs><g id="Layer_2" data-name="Layer 2"><g id="Layer_1-2" data-name="Layer 1"><path class="cls-1" d="M.75,121.87H1096.81a106,106,0,0,1,105.94,106h0a105.94,105.94,0,0,1-105.94,105.94H106.44A105.93,105.93,0,0,0,.5,440V440a106,106,0,0,0,105.94,105.7H1203.75"/><line class="cls-2" x1="102.75" y1="545.72" x2="1107.75" y2="545.72"/><line class="cls-2" x1="102.75" y1="121.72" x2="1107.75" y2="121.72"/><path d="M5,14.59A40.44,40.44,0,0,0,13.45,14l.22,1.5a46.12,46.12,0,0,1-9,.66H3.18v-13h9v1.5H5ZM18.45,1.21V21H16.64V9.86H11V8.36h5.65V1.21Z"/><path d="M29.05,6.47a10.09,10.09,0,0,0,5,8.45L33,16.35a10.6,10.6,0,0,1-4.78-6.14,10.89,10.89,0,0,1-4.91,6.53l-1.07-1.45a10.5,10.5,0,0,0,5.08-8.82V2.93h1.78Zm11.82,4.24H37.61V21h-1.8V1.23h1.8v8h3.26Z"/><path d="M54.46,11.35a51.94,51.94,0,0,1-9.37.64H43.53V6.4h7.06V3.92H43.48V2.44h8.89V7.79H45.31v2.73a48.24,48.24,0,0,0,9-.64Zm3.72,6c0,2.29-2.51,3.59-6.49,3.59s-6.49-1.3-6.49-3.59,2.46-3.61,6.49-3.61S58.18,15.05,58.18,17.34Zm-1.78,0c0-1.41-1.7-2.2-4.71-2.2S47,15.93,47,17.34s1.71,2.2,4.73,2.2S56.4,18.75,56.4,17.34ZM60.91,6.16v1.5H58v5.45h-1.8V1.23H58V6.16Z"/><path d="M67,22.46a20.57,20.57,0,0,1-3.23-11.17A20.58,20.58,0,0,1,67,.13l1.25.58a20,20,0,0,0-2.81,10.58,20,20,0,0,0,2.81,10.58Z"/><path d="M74.74,4.91H69.86V3.19H81.68V4.91H76.79V19.32H74.74Z"/><path d="M84.38,1.8h2V6.6l-.06,2.46a5.53,5.53,0,0,1,4-2c2.57,0,3.65,1.59,3.65,4.69v7.57h-2V12c0-2.29-.69-3.19-2.27-3.19-1.23,0-2.07.62-3.28,1.83v8.67h-2Z"/><path d="M96.83,13.36c0-3.88,2.62-6.3,5.39-6.3,3,0,4.75,2.2,4.75,5.61a6.26,6.26,0,0,1-.08,1.15H98.83c.16,2.57,1.68,4.18,4,4.18a5.13,5.13,0,0,0,3-.95l.72,1.32a7,7,0,0,1-4,1.24C99.38,19.61,96.83,17.32,96.83,13.36Zm8.38-1c0-2.49-1.1-3.72-3-3.72-1.69,0-3.19,1.36-3.43,3.72Z"/><path d="M113.86,17.21l1.21-1.39a6.25,6.25,0,0,0,4.47,2c2.11,0,3.38-1.05,3.38-2.64s-1.16-2.15-2.68-2.86l-2.33-1c-1.48-.64-3.28-1.76-3.28-4.14s2.16-4.29,5.08-4.29a6.39,6.39,0,0,1,4.75,2l-1.07,1.3a5.17,5.17,0,0,0-3.68-1.52c-1.85,0-3,.88-3,2.38s1.41,2.16,2.66,2.68l2.31,1c1.87.82,3.32,1.92,3.32,4.32s-2.11,4.58-5.48,4.58A7.66,7.66,0,0,1,113.86,17.21Z"/><path d="M127.24,16.11c0-3.08,2.61-4.29,7.34-4.36,0-1.54-.5-3-2.46-3a6.83,6.83,0,0,0-3.7,1.17l-.79-1.43a9.42,9.42,0,0,1,4.82-1.41c2.9,0,4.14,2,4.14,4.91v7.35h-1.65L134.76,18h-.07a6.2,6.2,0,0,1-4,1.57A3.29,3.29,0,0,1,127.24,16.11Zm7.34.5V13.07c-4.24.29-5.39,1.06-5.39,2.9a1.86,1.86,0,0,0,2.09,2A4.59,4.59,0,0,0,134.58,16.61Z"/><path d="M140.39,7.37H142l.18,2.18h.06c.86-1.52,2.05-2.49,3.39-2.49a2.55,2.55,0,0,1,1.28.27l-.38,1.76a2.7,2.7,0,0,0-1.16-.2c-1,0-2.25.7-3,2.75v7.68h-2Z"/><path d="M147.58,16.11c0-3.08,2.62-4.29,7.35-4.36,0-1.54-.5-3-2.46-3a6.83,6.83,0,0,0-3.7,1.17L148,8.47a9.42,9.42,0,0,1,4.82-1.41c2.9,0,4.14,2,4.14,4.91v7.35h-1.65L155.11,18H155a6.2,6.2,0,0,1-4,1.57A3.3,3.3,0,0,1,147.58,16.11Zm7.35.5V13.07c-4.24.29-5.39,1.06-5.39,2.9a1.86,1.86,0,0,0,2.09,2A4.59,4.59,0,0,0,154.93,16.61Z"/><path d="M160.74,7.37h1.65l.18,1.72h.06a5.69,5.69,0,0,1,4-2c2.57,0,3.65,1.59,3.65,4.69v7.57h-2V12c0-2.29-.68-3.19-2.27-3.19-1.23,0-2.07.62-3.28,1.83v8.67h-2Z"/><path d="M173.26,21.61A3.36,3.36,0,0,1,175,18.9v-.09a2.15,2.15,0,0,1-1.1-1.95,2.94,2.94,0,0,1,1.34-2.23v-.09a4.18,4.18,0,0,1-1.56-3.21,4.27,4.27,0,0,1,4.49-4.27,4.92,4.92,0,0,1,1.67.31H184V8.91H181.6a3.35,3.35,0,0,1,1,2.47,4.11,4.11,0,0,1-4.36,4.16,3.86,3.86,0,0,1-1.78-.42,1.74,1.74,0,0,0-.77,1.43c0,.77.48,1.29,2.09,1.29h2.33c2.84,0,4.16.88,4.16,2.84,0,2.23-2.33,4.14-6,4.14C175.28,24.82,173.26,23.68,173.26,21.61Zm9-.62c0-1.12-.86-1.47-2.44-1.47h-2.07a5.87,5.87,0,0,1-1.54-.2,2.52,2.52,0,0,0-1.23,2c0,1.32,1.27,2.12,3.47,2.12S182.3,22.25,182.3,21Zm-1.56-9.66a2.55,2.55,0,1,0-5.08,0,2.56,2.56,0,1,0,5.08,0Z"/><path d="M185.84,21.74a19.93,19.93,0,0,0,2.82-10.58A19.94,19.94,0,0,0,185.84.57L187.07,0a20.35,20.35,0,0,1,3.26,11.16,20.36,20.36,0,0,1-3.26,11.17Z"/><path d="M209.12,12.3a7.79,7.79,0,0,1-4.84-4,8,8,0,0,1-4.93,4.52l-.9-1.43a6.46,6.46,0,0,0,4.9-5.92v-.4H199V3.61h4.37V1.12h1.81V3.61h4.36V5.06h-4.36v.4c0,2.4,1.93,4.55,4.82,5.43ZM214,17.36c0,2.29-2.46,3.54-6.49,3.54S201,19.63,201,17.36s2.44-3.56,6.51-3.56S214,15.07,214,17.36Zm-1.8,0c0-1.41-1.76-2.15-4.69-2.15s-4.71.74-4.71,2.15,1.69,2.16,4.71,2.16S212.16,18.77,212.16,17.36Zm4.51-11v1.5h-2.93v5.5h-1.8V1.21h1.8v5.1Z"/><path d="M234.93,1.23V11.82H233.1V7.39h-4c-.36,2.36-2.32,3.88-5,3.88-2.93,0-5.09-1.85-5.09-4.58s2.16-4.56,5.09-4.56c2.64,0,4.66,1.52,5,3.79h4V1.23Zm-7.51,5.46a3.38,3.38,0,0,0-6.73,0,3.38,3.38,0,0,0,6.73,0Zm5.7,6.09h1.81v7.9H222.3v-7.9h1.78v2.49h9Zm0,3.9h-9v2.55h9Z"/><path class="cls-3" d="M96.06,47.54v1.78H85.24V47.91l5.56-5.35c1.7-1.8,2.93-3.19,2.93-5.08a2.71,2.71,0,0,0-3-2.84,3.08,3.08,0,0,0-3.21,3.17l-2-.33a5,5,0,0,1,5.3-4.58c2.75,0,4.88,1.68,4.88,4.54,0,2.4-1.54,4.07-3.36,5.89L87.88,47.8a6.66,6.66,0,0,1,1.82-.26Z"/><path class="cls-3" d="M103.78,49.63c-3.34,0-5.92-2.62-5.92-8.34s2.58-8.36,5.92-8.36,5.92,2.61,5.92,8.36S107.11,49.63,103.78,49.63Zm0-15.05c-2,0-3.87,1.67-3.87,6.71S101.74,48,103.78,48s3.9-1.7,3.9-6.71S105.83,34.58,103.78,34.58Z"/><path class="cls-3" d="M121.87,47.69v1.63h-8.71V47.69h3.58V36.07a4.79,4.79,0,0,1,0-.55l-2.92,2.62-1.08-1.3,4.33-3.74h1.61V47.69Z"/><path class="cls-3" d="M130,49.63c-3.35,0-5.92-2.62-5.92-8.34s2.57-8.36,5.92-8.36,5.92,2.61,5.92,8.36S133.33,49.63,130,49.63Zm0-15.05c-2,0-3.87,1.67-3.87,6.71S128,48,130,48s3.89-1.7,3.89-6.71S132.05,34.58,130,34.58Z"/><path class="cls-3" d="M137.44,47.56h2v2.07h-2Z"/><path class="cls-3" d="M149.61,42.92c.46-.62.73-1,.88-1.24a4.8,4.8,0,0,1-3.1,1A4.45,4.45,0,0,1,142.74,38a5.23,5.23,0,0,1,5.48-5.2,5,5,0,0,1,5.26,5.35,8.24,8.24,0,0,1-1.93,5.08l-4.43,6.1h-2.53Zm-1.56-1.79a3.24,3.24,0,0,0,3.47-3.23,3.37,3.37,0,0,0-6.73-.07A3,3,0,0,0,148.05,41.13Z"/><circle class="cls-4" cx="111.25" cy="121.27" r="8.5"/><circle class="cls-3" cx="111.25" cy="121.27" r="4"/><line class="cls-1" x1="112.25" y1="110.27" x2="112.25" y2="69.27"/><path d="M416.68,6.51a9.83,9.83,0,0,0,5.1,8.54l-1.06,1.43a10.83,10.83,0,0,1-5-6.25,10.94,10.94,0,0,1-4.9,6.6l-1.1-1.43c2.86-1.41,5.1-5.26,5.1-8.89V3h1.81ZM426,1.28V21h-1.81V9.44h-4.57V8h4.57V1.28Z"/><path d="M439.82,11.09v1.85h5.74v4.44H434v2h12.19v1.41h-14V16.06h11.57V14.3H432.16V12.94H438V11.09h-8V9.64h17.82v1.45ZM432,4.93c0-2.22,2.59-3.43,6.93-3.43s6.93,1.21,6.93,3.43-2.51,3.41-6.93,3.41S432,7.15,432,4.93Zm1.84,0c0,1.32,1.81,2.07,5.09,2.07S444,6.25,444,4.93s-1.8-2.07-5.08-2.07S433.83,3.61,433.83,4.93Z"/><path d="M461.34,4.91h-11V3.45H455V1.1h1.8V3.45h4.54Zm-5.46,8.34c-2.64,0-4.47-1.46-4.47-3.68s1.83-3.65,4.47-3.65,4.47,1.45,4.47,3.65S458.5,13.25,455.88,13.25Zm0-1.39c1.67,0,2.77-.88,2.77-2.29s-1.1-2.27-2.77-2.27-2.77.86-2.77,2.27S454.21,11.86,455.88,11.86Zm10.71,5.76c0,2.14-2.48,3.37-6.55,3.37s-6.58-1.23-6.58-3.37,2.42-3.36,6.58-3.36S466.59,15.45,466.59,17.62Zm-1.87,0c0-1.32-1.76-2-4.68-2s-4.71.66-4.71,2,1.78,2,4.71,2S464.72,18.88,464.72,17.62Zm0-10.14h-3.32V6h3.32V1.28h1.83V14h-1.83V11.33h-3.34V9.86h3.34Z"/><path d="M482,6.53a10.05,10.05,0,0,0,5,8.45l-1.12,1.43a10.63,10.63,0,0,1-4.77-6.14,11,11,0,0,1-4.91,6.54l-1.08-1.45a10.5,10.5,0,0,0,5.09-8.83V3H482Zm11.81,4.25H490.6V21h-1.81V1.3h1.81v8h3.25Z"/><path d="M503.09,15.6c1.87-.09,3.74-.22,5.59-.46l.13,1.34a83.71,83.71,0,0,1-12.78.79l-.27-1.52c1.68,0,3.57,0,5.53-.08V13.55c-2.38-.28-3.85-1.6-3.85-3.63,0-2.22,1.91-3.65,4.75-3.65s4.73,1.43,4.73,3.65c0,2-1.45,3.33-3.83,3.61Zm5.08-10.45h-12V3.7h5.11V1.3h1.8V3.7h5.08Zm-6,7c1.78,0,3-.84,3-2.25s-1.23-2.26-3-2.26-3,.85-3,2.26S500.34,12.17,502.19,12.17ZM511.74,1.3V21h-1.81V1.3Z"/><path d="M526.63,12.32a8.16,8.16,0,0,1-4.77-4.47,8.37,8.37,0,0,1-5,4.93L516,11.35a7.15,7.15,0,0,0,5-6.47V4.09h-4.4V2.62h10.54V4.09h-4.33v.79a6.77,6.77,0,0,0,4.79,6ZM519,14.17h13.18V21h-1.8V15.62H519ZM532.13,1.28V13.09h-1.8V7.9h-3.85V6.42h3.85V1.28Z"/><path d="M546.54,3.41c0,5.7-2.59,10.69-9.17,13.93l-1-1.48c5.3-2.53,7.94-6.31,8.32-11H537.3V3.41Zm5.79-2.13V21h-1.81V1.28Z"/><path d="M572.64,1.3V11.88h-1.83V7.46h-4c-.35,2.35-2.31,3.87-5,3.87-2.93,0-5.09-1.85-5.09-4.58s2.16-4.55,5.09-4.55c2.64,0,4.66,1.52,5,3.78h4V1.3Zm-7.51,5.45a3.38,3.38,0,0,0-6.73,0,3.38,3.38,0,0,0,6.73,0Zm5.7,6.1h1.81v7.9H560v-7.9h1.78v2.48h9Zm0,3.89h-9V19.3h9Z"/><path d="M587.13,12.39A4.87,4.87,0,1,1,592.3,7.5,4.86,4.86,0,0,1,587.13,12.39Zm0-1.57a3.24,3.24,0,0,0,3.41-3.32,3.39,3.39,0,0,0-6.78,0A3.23,3.23,0,0,0,587.13,10.82Zm11.2,8.28v1.47H585V14.24h1.8V19.1Zm-.59-3.39h-1.81V1.3h1.81Z"/><path d="M619.63,10.67v1.45H601.78V10.67ZM602.79,8c3.55-.35,6.65-2.11,6.76-4.29h-6.12V2.29H618V3.74h-6.14c.07,2.18,3.3,3.94,6.76,4.29L618,9.46c-3.24-.42-6.23-1.8-7.28-4-1.1,2.15-4.07,3.56-7.29,4Zm14.66,9.37c0,2.31-2.55,3.59-6.76,3.59s-6.75-1.28-6.75-3.59,2.53-3.56,6.75-3.56S617.45,15.12,617.45,17.4Zm-1.83,0c0-1.4-1.82-2.15-4.93-2.15s-4.92.75-4.92,2.15,1.82,2.16,4.92,2.16S615.62,18.81,615.62,17.4Z"/><path class="cls-3" d="M491.41,47.6v1.78H480.58V48l5.57-5.35c1.7-1.81,2.93-3.19,2.93-5.08a2.71,2.71,0,0,0-3-2.84,3.08,3.08,0,0,0-3.21,3.17l-2-.33A5.05,5.05,0,0,1,486.22,33c2.75,0,4.88,1.67,4.88,4.53,0,2.4-1.54,4.07-3.36,5.9l-4.51,4.47a6.69,6.69,0,0,1,1.82-.27Z"/><path class="cls-3" d="M499.13,49.69c-3.34,0-5.92-2.62-5.92-8.34S495.79,33,499.13,33s5.92,2.62,5.92,8.36S502.45,49.69,499.13,49.69Zm0-15c-2,0-3.87,1.67-3.87,6.71s1.83,6.71,3.87,6.71,3.9-1.69,3.9-6.71S501.18,34.64,499.13,34.64Z"/><path class="cls-3" d="M517.22,47.76v1.62H508.5V47.76h3.59V36.14a4.61,4.61,0,0,1,0-.55l-2.93,2.62-1.07-1.3,4.33-3.74h1.61V47.76Z"/><path class="cls-3" d="M530.33,47.76v1.62h-8.72V47.76h3.59V36.14a4.61,4.61,0,0,1,0-.55l-2.92,2.62-1.08-1.3,4.33-3.74h1.61V47.76Z"/><path class="cls-3" d="M532.79,47.62h2v2.07h-2Z"/><path class="cls-3" d="M548.92,47.6v1.78H538.09V48l5.57-5.35c1.69-1.81,2.93-3.19,2.93-5.08a2.72,2.72,0,0,0-3-2.84,3.09,3.09,0,0,0-3.21,3.17l-2-.33a5,5,0,0,1,5.3-4.58c2.76,0,4.89,1.67,4.89,4.53,0,2.4-1.54,4.07-3.37,5.9l-4.51,4.47a6.82,6.82,0,0,1,1.83-.27Z"/><circle class="cls-4" cx="514.85" cy="121.27" r="8.5"/><circle class="cls-3" cx="514.85" cy="121.27" r="4"/><line class="cls-1" x1="515.85" y1="110.27" x2="515.85" y2="69.27"/><path d="M771.69,7.7a9.47,9.47,0,0,0,5.09,8l-1,1.45a10.61,10.61,0,0,1-4.94-6,11.08,11.08,0,0,1-5,6.54l-1-1.43a10.32,10.32,0,0,0,5.18-8.49V5.19h-4.5V3.69h10.64v1.5h-4.36Zm11.76,3.45H780.2V21.4h-1.8V1.69h1.8V9.63h3.25Z"/><path d="M792.66,16c1.86-.09,3.73-.22,5.57-.46l.13,1.34a82,82,0,0,1-12.75.79l-.26-1.52c1.67,0,3.56,0,5.51-.08V13.94c-2.37-.28-3.84-1.6-3.84-3.63,0-2.22,1.91-3.65,4.74-3.65s4.72,1.43,4.72,3.65c0,2-1.45,3.33-3.82,3.61Zm5.07-10.45h-12V4.09h5.09V1.69h1.8v2.4h5.07Zm-6,7c1.78,0,3-.84,3-2.25s-1.22-2.26-3-2.26-3,.86-3,2.26S789.91,12.56,791.76,12.56Zm9.52-10.87V21.4h-1.8V1.69Z"/><path d="M812,6.93a10.09,10.09,0,0,0,5,8.45l-1.12,1.42a10.62,10.62,0,0,1-4.76-6.13,11,11,0,0,1-4.89,6.53l-1.08-1.45a10.51,10.51,0,0,0,5.07-8.82V3.38H812Zm11.78,4.24h-3.25V21.4h-1.8V1.69h1.8v8h3.25Z"/><path d="M836.66,5.3h-11V3.84h4.69V1.49h1.8V3.84h4.52Zm-5.44,8.34c-2.63,0-4.45-1.46-4.45-3.68s1.82-3.65,4.45-3.65,4.45,1.45,4.45,3.65S833.83,13.64,831.22,13.64Zm0-1.39c1.67,0,2.77-.88,2.77-2.29s-1.1-2.26-2.77-2.26-2.76.85-2.76,2.26S829.55,12.25,831.22,12.25ZM841.91,18c0,2.13-2.48,3.36-6.54,3.36s-6.56-1.23-6.56-3.36,2.41-3.37,6.56-3.37S841.91,15.84,841.91,18ZM840,18c0-1.32-1.75-2-4.67-2s-4.7.66-4.7,2,1.78,2,4.7,2S840,19.27,840,18Zm0-10.15h-3.32V6.42H840V1.67h1.82V14.41H840V11.72h-3.34V10.25H840Z"/><path d="M861.25,12.62a7.59,7.59,0,0,1-4.76-4.24,8.09,8.09,0,0,1-5,4.84l-.92-1.43a7,7,0,0,0,4.94-6.43V4.59h-4.41V3.14h10.55V4.59h-4.34v.77c0,2.58,1.84,4.91,4.76,5.86Zm4.94,5.11c0,2.31-2.5,3.65-6.47,3.65s-6.5-1.34-6.5-3.65,2.46-3.63,6.5-3.63S866.19,15.44,866.19,17.73Zm-1.8,0c0-1.41-1.76-2.2-4.67-2.2s-4.7.79-4.7,2.2,1.69,2.22,4.7,2.22S864.39,19.14,864.39,17.73Zm4.5-11.07V8.18H866v5.41h-1.8V1.69H866v5Z"/><path d="M879.52,10.18c0,4.23-1.64,6.89-4.21,6.89s-4.19-2.66-4.19-6.89,1.64-6.86,4.19-6.86S879.52,6,879.52,10.18Zm-1.66,0c0-3.19-1-5.19-2.55-5.19s-2.55,2-2.55,5.19,1,5.22,2.55,5.22S877.86,13.46,877.86,10.18Zm9.74-8.51V21.4h-1.71V11h-2.66v9.49h-1.69V2.11h1.69V9.48h2.66V1.67Z"/><path d="M896.63,12.78a4.87,4.87,0,1,1,5.16-4.89A4.85,4.85,0,0,1,896.63,12.78Zm0-1.56A3.25,3.25,0,0,0,900,7.89a3.38,3.38,0,0,0-6.76,0A3.23,3.23,0,0,0,896.63,11.22Zm11.17,8.27V21H894.55V14.63h1.8v4.86Zm-.59-3.39h-1.8V1.69h1.8Z"/><path d="M929.08,17.53V19H911.22V17.53h5V12.84h-3.32V11.39h3V5h-3V3.49h14.59V5h-3v6.44h3v1.45h-3.34v4.69Zm-11.41-6.14h4.89V5h-4.89Zm.31,6.14h4.27V12.84H918Z"/><path d="M949.24,11.83v1.45h-7.88v4h-1.8v-4h-8.18V11.83ZM932.49,9c3.52-.46,6.67-2.42,6.67-4.82v0H933V2.66h14.57V4.11h-6.12v0c0,2.42,3.18,4.36,6.65,4.82l-.66,1.45c-3.2-.46-6.1-2.09-7.15-4.36-1.06,2.27-4,3.9-7.16,4.36Zm3,10.54h11.8V21h-13.6V15.38h1.8Z"/><path d="M958.2,6.93a10.08,10.08,0,0,0,5,8.45l-1.12,1.42a10.59,10.59,0,0,1-4.76-6.13,10.94,10.94,0,0,1-4.9,6.53l-1.07-1.45a10.51,10.51,0,0,0,5.07-8.82V3.38h1.77ZM970,11.17h-3.25V21.4h-1.8V1.69h1.8v8H970Z"/><path d="M988,1.69V12.27h-1.83V7.85h-4c-.35,2.35-2.3,3.87-5,3.87-2.92,0-5.07-1.85-5.07-4.57s2.15-4.56,5.07-4.56c2.63,0,4.65,1.52,5,3.79h4V1.69Zm-7.49,5.46a3.37,3.37,0,0,0-6.71,0,3.37,3.37,0,0,0,6.71,0Zm5.69,6.09H988v7.9H975.4v-7.9h1.78v2.49h9Zm0,3.89h-9v2.56h9Z"/><path d="M1002.52,12.62a7.58,7.58,0,0,1-4.77-4.24,8.08,8.08,0,0,1-5,4.84l-.93-1.43a6.93,6.93,0,0,0,4.94-6.43V4.59H992.4V3.14H1003V4.59h-4.34v.77c0,2.58,1.84,4.91,4.76,5.86Zm4.93,5.11c0,2.31-2.5,3.65-6.47,3.65s-6.49-1.34-6.49-3.65,2.45-3.63,6.49-3.63S1007.45,15.44,1007.45,17.73Zm-1.8,0c0-1.41-1.75-2.2-4.67-2.2s-4.7.79-4.7,2.2S998,20,1001,20,1005.65,19.14,1005.65,17.73Zm4.5-11.07V8.18h-2.92v5.41h-1.8V1.69h1.8v5Z"/><path d="M1022.63,12.78a4.87,4.87,0,1,1,5.15-4.89A4.85,4.85,0,0,1,1022.63,12.78Zm0-1.56a3.25,3.25,0,0,0,3.4-3.33,3.38,3.38,0,0,0-6.76,0A3.23,3.23,0,0,0,1022.63,11.22Zm11.17,8.27V21h-13.26V14.63h1.8v4.86Zm-.6-3.39h-1.79V1.69h1.79Z"/><path d="M1055,11.06v1.45h-17.79V11.06Zm-16.79-2.64c3.54-.35,6.63-2.11,6.74-4.29h-6.1V2.68h14.55V4.13h-6.12c.06,2.18,3.29,3.94,6.73,4.29l-.63,1.43c-3.23-.42-6.21-1.8-7.27-4-1.09,2.16-4.06,3.56-7.26,4Zm14.62,9.37c0,2.32-2.55,3.59-6.74,3.59s-6.73-1.27-6.73-3.59,2.52-3.56,6.73-3.56S1052.86,15.51,1052.86,17.79Zm-1.82,0c0-1.4-1.82-2.15-4.92-2.15s-4.91.75-4.91,2.15S1043,20,1046.12,20,1051,19.2,1051,17.79Z"/><path class="cls-3" d="M884.37,48v1.79H873.58V48.37L879.13,43c1.69-1.8,2.92-3.19,2.92-5.08a2.71,2.71,0,0,0-3-2.84,3.08,3.08,0,0,0-3.2,3.17l-2-.33a5,5,0,0,1,5.28-4.58c2.75,0,4.87,1.67,4.87,4.53,0,2.4-1.53,4.07-3.35,5.9l-4.5,4.47A6.69,6.69,0,0,1,878,48Z"/><path class="cls-3" d="M892.07,50.08c-3.34,0-5.9-2.62-5.9-8.34s2.56-8.36,5.9-8.36S898,36,898,41.74,895.38,50.08,892.07,50.08Zm0-15c-2,0-3.86,1.68-3.86,6.71s1.82,6.72,3.86,6.72,3.88-1.7,3.88-6.72S894.11,35,892.07,35Z"/><path class="cls-3" d="M910.1,48.15v1.63h-8.69V48.15H905V36.53a4.61,4.61,0,0,1,0-.55l-2.92,2.62L901,37.3l4.32-3.74h1.6V48.15Z"/><path class="cls-3" d="M923.59,48v1.79H912.8V48.37L918.35,43c1.69-1.8,2.92-3.19,2.92-5.08a2.71,2.71,0,0,0-3-2.84,3.08,3.08,0,0,0-3.2,3.17l-2-.33a5,5,0,0,1,5.28-4.58c2.75,0,4.87,1.67,4.87,4.53,0,2.4-1.53,4.07-3.35,5.9l-4.5,4.47a6.69,6.69,0,0,1,1.82-.27Z"/><path class="cls-3" d="M925.63,48h2v2.06h-2Z"/><path class="cls-3" d="M935,39.65c-.37.53-.61.88-.77,1.06a4.83,4.83,0,0,1,2.77-.84,4.61,4.61,0,0,1,4.82,4.87,5.29,5.29,0,0,1-5.57,5.32c-3.27,0-5.4-2.2-5.4-5.54a8.31,8.31,0,0,1,2-4.91l4.48-6h2.52Zm4.8,5.24a3.28,3.28,0,0,0-3.46-3.45,3.38,3.38,0,0,0-3.53,3.41,3.19,3.19,0,0,0,3.4,3.52A3.41,3.41,0,0,0,939.84,44.89Z"/><circle class="cls-4" cx="901.45" cy="121.27" r="8.5"/><circle class="cls-3" cx="901.45" cy="121.27" r="4"/><line class="cls-1" x1="902.45" y1="110.27" x2="902.45" y2="69.27"/><path class="cls-3" d="M689.08,207.65v1.78H678.26V208l5.57-5.35c1.69-1.8,2.92-3.19,2.92-5.08a2.71,2.71,0,0,0-3-2.84,3.08,3.08,0,0,0-3.21,3.17l-2-.33a5,5,0,0,1,5.3-4.57c2.75,0,4.89,1.67,4.89,4.53,0,2.4-1.54,4.07-3.37,5.9l-4.51,4.46a7.21,7.21,0,0,1,1.83-.26Z"/><path class="cls-3" d="M696.81,209.74c-3.35,0-5.92-2.62-5.92-8.34s2.57-8.36,5.92-8.36,5.92,2.62,5.92,8.36S700.13,209.74,696.81,209.74Zm0-15.05c-2,0-3.88,1.67-3.88,6.71s1.83,6.71,3.88,6.71,3.89-1.69,3.89-6.71S698.85,194.69,696.81,194.69Z"/><path class="cls-3" d="M714.89,207.8v1.63h-8.71V207.8h3.58V196.18a3.2,3.2,0,0,1,0-.55l-2.93,2.62-1.08-1.3,4.34-3.74h1.6V207.8Z"/><path class="cls-3" d="M728.42,207.65v1.78H717.59V208l5.57-5.35c1.7-1.8,2.93-3.19,2.93-5.08a2.72,2.72,0,0,0-3-2.84,3.08,3.08,0,0,0-3.21,3.17l-2-.33a5,5,0,0,1,5.31-4.57c2.75,0,4.88,1.67,4.88,4.53,0,2.4-1.54,4.07-3.36,5.9l-4.51,4.46a7.07,7.07,0,0,1,1.82-.26Z"/><path class="cls-3" d="M730.46,207.67h2v2.07h-2Z"/><path class="cls-3" d="M747.36,203.55v1.59h-2.44v4.29h-1.78v-4.29h-8.06v-1.5L743,193.12h1.89v10.43Zm-4.22,0v-6.73a9.68,9.68,0,0,1,.09-1.36l-6,8.09Z"/><path d="M635.43,237h-8.08v7h-1.8v-7h-8v-1.48h17.83Zm-16.79-4.56c3.43-.52,6.84-2.77,6.84-5.36V227h-6.23v-1.46h14.42V227h-6.19v.11c0,2.59,3.42,4.84,6.89,5.36l-.7,1.43c-3.06-.52-6-2.15-7.18-4.51-1.23,2.36-4.09,4-7.17,4.51Z"/><path d="M648.8,235a8.2,8.2,0,0,1-4.93-4.69,8.37,8.37,0,0,1-5,5L638,234a7.4,7.4,0,0,0,5-6.78v-1.93h1.8v1.93a7,7,0,0,0,5,6.43Zm-8,2.17H654v6.87h-1.8v-5.41h-11.4ZM654,224.34V236.2h-1.8V224.34Z"/><path d="M665.48,238.65c1.87-.09,3.74-.23,5.59-.47l.13,1.35a83.76,83.76,0,0,1-12.79.79l-.26-1.52c1.67,0,3.57,0,5.52-.09V236.6c-2.37-.29-3.85-1.61-3.85-3.63,0-2.22,1.92-3.65,4.76-3.65s4.73,1.43,4.73,3.65c0,2-1.46,3.32-3.83,3.61Zm5.08-10.46h-12v-1.45h5.1v-2.4h1.81v2.4h5.08Zm-6,7c1.78,0,3-.83,3-2.24s-1.23-2.27-3-2.27-3,.86-3,2.27S662.73,235.21,664.58,235.21Zm9.55-10.87v19.72h-1.81V224.34Z"/><path d="M684.9,229.58a10.09,10.09,0,0,0,5,8.45l-1.12,1.43a10.64,10.64,0,0,1-4.78-6.14,11,11,0,0,1-4.9,6.54L678,238.4a10.46,10.46,0,0,0,5.08-8.82V226h1.78Zm11.82,4.25h-3.26v10.23h-1.8V224.34h1.8v8h3.26Z"/><path d="M706.24,237.7a40.44,40.44,0,0,0,8.47-.64l.22,1.5a46.12,46.12,0,0,1-9,.66h-1.52v-13h9v1.5h-7.18Zm13.47-13.38V244.1h-1.8V233h-5.66v-1.5h5.66v-7.15Z"/><path d="M730.31,229.58a10.09,10.09,0,0,0,5,8.45l-1.12,1.43a10.6,10.6,0,0,1-4.78-6.14,11,11,0,0,1-4.9,6.54l-1.08-1.46a10.46,10.46,0,0,0,5.08-8.82V226h1.78Zm11.82,4.25h-3.26v10.23h-1.8V224.34h1.8v8h3.26Z"/><path d="M755.72,234.46a51.94,51.94,0,0,1-9.37.64h-1.56v-5.59h7.06V227h-7.11v-1.48h8.89v5.35h-7.06v2.73a48.24,48.24,0,0,0,9-.64Zm3.72,6c0,2.29-2.51,3.59-6.49,3.59s-6.49-1.3-6.49-3.59,2.46-3.61,6.49-3.61S759.44,238.16,759.44,240.45Zm-1.78,0c0-1.41-1.7-2.2-4.71-2.2s-4.73.79-4.73,2.2,1.72,2.2,4.73,2.2S757.66,241.86,757.66,240.45Zm4.51-11.18v1.5h-2.93v5.45h-1.8V224.34h1.8v4.93Z"/><path d="M779.7,234.11a7.88,7.88,0,0,1-4.75-4.33,8.28,8.28,0,0,1-4.93,4.79l-.95-1.43a6.83,6.83,0,0,0,4.93-6.35V225h1.79v1.83c0,2.59,2,5,4.84,5.91Zm6.41,8.25v1.43H772.68v-4.9h10.89V237H772.64v-1.43h12.72v4.73H774.47v2.11Zm-2.58-13h-4.29v-1.47h4.29v-3.57h1.83v10.19h-1.83Z"/><path d="M801.53,234.11a55.19,55.19,0,0,1-9.57.64h-1.59v-5.52h7.13v-2.49h-7.19v-1.45h9v5.32h-7.15v2.67a51.13,51.13,0,0,0,9.2-.62Zm2.22,2h1.78v7.63H792.75v-7.63h1.78v2.33h9.22Zm0,3.74h-9.22v2.42h9.22Zm1.78-15.56v10.83h-1.8V224.34Z"/><ellipse class="cls-4" cx="712.4" cy="121.77" rx="8.48" ry="8.5"/><ellipse class="cls-3" cx="712.4" cy="121.77" rx="3.99" ry="4"/><line class="cls-1" x1="712.4" y1="132.77" x2="712.4" y2="173.77"/><path class="cls-3" d="M287.18,207.54v1.78H276.36v-1.41l5.56-5.35c1.7-1.8,2.93-3.19,2.93-5.08a2.71,2.71,0,0,0-3-2.84,3.08,3.08,0,0,0-3.21,3.17l-2-.33a5,5,0,0,1,5.3-4.58c2.75,0,4.88,1.68,4.88,4.54,0,2.39-1.54,4.07-3.36,5.89L279,207.8a6.66,6.66,0,0,1,1.82-.26Z"/><path class="cls-3" d="M294.9,209.63c-3.34,0-5.92-2.62-5.92-8.34s2.58-8.36,5.92-8.36,5.92,2.61,5.92,8.36S298.22,209.63,294.9,209.63Zm0-15c-2,0-3.87,1.67-3.87,6.71s1.83,6.71,3.87,6.71,3.9-1.7,3.9-6.71S297,194.58,294.9,194.58Z"/><path class="cls-3" d="M313,207.69v1.63h-8.72v-1.63h3.59V196.07a4.7,4.7,0,0,1,0-.55L305,198.14l-1.08-1.3,4.33-3.74h1.61v14.59Z"/><path class="cls-3" d="M321.13,209.63c-3.35,0-5.92-2.62-5.92-8.34s2.57-8.36,5.92-8.36,5.91,2.61,5.91,8.36S324.45,209.63,321.13,209.63Zm0-15c-2.05,0-3.88,1.67-3.88,6.71s1.83,6.71,3.88,6.71,3.89-1.7,3.89-6.71S323.17,194.58,321.13,194.58Z"/><path class="cls-3" d="M328.56,207.56h2v2.07h-2Z"/><path class="cls-3" d="M344.27,207.69v1.63h-8.71v-1.63h3.58V196.07a3.14,3.14,0,0,1,0-.55l-2.93,2.62-1.08-1.3,4.34-3.74h1.6v14.59Z"/><path class="cls-3" d="M357.8,207.54v1.78H347v-1.41l5.57-5.35c1.7-1.8,2.93-3.19,2.93-5.08a2.71,2.71,0,0,0-3-2.84,3.09,3.09,0,0,0-3.22,3.17l-2-.33a5.05,5.05,0,0,1,5.31-4.58c2.75,0,4.88,1.68,4.88,4.54,0,2.39-1.54,4.07-3.36,5.89l-4.52,4.47a6.79,6.79,0,0,1,1.83-.26Z"/><path d="M243.62,236.05a8,8,0,0,1-5-4.32,7.94,7.94,0,0,1-5,4.69l-.88-1.41a6.79,6.79,0,0,0,4.95-6.2v-.51h-4.49v-1.45h4.49v-2.53h1.81v2.53H244v1.45h-4.47v.51c0,2.55,2.09,4.95,5,5.83Zm5.5,6v1.48H235.83v-6h1.81V242Zm-.59-3.23h-1.81V224.23h1.81Z"/><path d="M265,236.53a71.12,71.12,0,0,1-12.35.86l-.19-1.45c1.58,0,3.32,0,5.25-.09v-1.5c-2.28-.24-3.71-1.32-3.71-3,0-1.87,1.84-3,4.62-3s4.59,1.15,4.59,3c0,1.69-1.4,2.77-3.69,3v1.41a44.71,44.71,0,0,0,5.34-.53Zm-.73-9H253v-1.34h4.77v-2h1.81v2h4.75ZM257.19,242h11.38v1.48H255.39v-4.87h1.8Zm1.46-8.93c1.76,0,2.88-.64,2.88-1.76s-1.12-1.74-2.88-1.74-2.91.68-2.91,1.74S256.86,233.1,258.65,233.1Zm12.12-2v1.49h-2.9v7.07h-1.81V224.21h1.81v6.89Z"/><path d="M282.32,229.31c-1.34,3.24-4.18,5.46-8.52,6.72l-.72-1.43c4.75-1.41,7.61-4,8-7.44h-7v-1.45H283a10,10,0,0,1-.22,2.13h4.47v-3.61h1.82V236h-1.82v-2.6h-5.17V232h5.17v-2.65Zm6.84,10.74c0,2.38-2.55,3.81-6.53,3.81s-6.54-1.43-6.54-3.81,2.55-3.8,6.54-3.8S289.16,237.68,289.16,240.05Zm-1.78,0c0-1.49-1.83-2.37-4.75-2.37s-4.76.88-4.76,2.37,1.85,2.4,4.76,2.4S287.38,241.55,287.38,240.05Z"/><path d="M315.87,234.31v1.45H308v4h-1.81v-4h-8.2v-1.45ZM302,242h11.84v1.48H300.23v-5.64H302Zm11.51-10H300.27v-6.93h13.27Zm-1.78-5.47H302v4h9.73Z"/><path d="M336.09,235.45H328V244h-1.82v-8.52h-8V234h13.1a29.48,29.48,0,0,0,.61-6.78v-.26H320.47v-1.45h13.24v1.71a32.61,32.61,0,0,1-.55,6.78h2.93Z"/><path d="M356.35,237.43h-4.66V244h-1.81v-6.54h-5V244H343.1v-6.54h-4.66V236h17.91Zm-4-11h-11.8V225h13.62v5.08H342.44v2.42h12.19v1.46h-14V228.7h11.73Z"/><path d="M373.46,234.35v1.83h5.73v4.31h-11.6v1.87h12.19v1.37H365.83v-4.54H377.4v-1.67H365.76v-1.34h5.88v-1.83h-8V233h17.8v1.38Zm-8.88-3.63c3.63-.24,6.68-1.47,7-3.41h-6.09V226h6.2v-1.87h1.8V226h6.19v1.36h-6.08c.29,1.94,3.28,3.17,7,3.41l-.55,1.37c-3.3-.25-6.19-1.28-7.42-3.11-1.23,1.83-4.11,2.86-7.46,3.11Z"/><path d="M390.87,229.47a9.82,9.82,0,0,0,5.28,8.56l-1.08,1.45a10.52,10.52,0,0,1-5.08-6.25,11,11,0,0,1-5.11,6.62l-1.1-1.47a10.39,10.39,0,0,0,5.3-8.91v-3.54h1.79Zm9.15-5.26V244h-1.8V224.21Z"/><circle class="cls-4" cx="317.05" cy="121.77" r="8.5"/><circle class="cls-3" cx="317.05" cy="121.77" r="4"/><line class="cls-1" x1="317.05" y1="132.77" x2="317.05" y2="173.77"/><path d="M417.51,436.52h-8.05V445h-1.83v-8.51h-8V435h13.09a28.9,28.9,0,0,0,.62-6.77V428H401.89v-1.45h13.25v1.72a32.47,32.47,0,0,1-.55,6.77h2.92Z"/><path d="M437.78,440.88v1.49H419.89v-1.49Zm-1.7-4.18a10.78,10.78,0,0,1-7.33-5.7c-1.23,2.88-4.35,5-7.3,5.7l-.82-1.5c3.44-.71,7.18-3.63,7.18-7v-1.52h1.89v1.52c0,3.34,3.74,6.38,7.2,7Z"/><path d="M458,441.07v1.5H440.1v-1.5h8.06V437h-5.74V426.88h13.37v1.48H444.24v2.77h11.11v1.43H444.24v3H456V437h-6v4.07Z"/><path d="M470.31,427.32c0,5.74-2,10.94-8.93,14.46l-1-1.43a13.9,13.9,0,0,0,7-6.65l-6.58.62-.33-1.56,7.46-.49a13.66,13.66,0,0,0,.64-3.47h-7.09v-1.48Zm6.29-2V445h-1.8V434.67h-4.55V433.2h4.55v-7.9Z"/><path d="M490.07,438.34c1.12-.06,2.18-.13,3.21-.28l.11,1.32a80.18,80.18,0,0,1-12.59.75l-.19-1.52h1.32c.44,0,.9,0,1.36,0v-9.73h-2.2v-1.45h11.18v1.45h-2.2Zm-5,.23c1.08,0,2.18-.05,3.3-.11v-9.6H485ZM496.8,425.3V445H495V425.3Z"/><path d="M523.66,441v1.49H505.77V441Zm-13.24-12.28h-3.06v-1.45H522v1.45h-3.06v6.86h3v1.48H507.4v-1.48h3Zm6.71,0h-4.91v6.86h4.91Z"/><path d="M543.93,441.1v1.47H526V441.1h8v-3.72h-5.78v-6.1h11.7V428.2H528.19v-1.47H541.7v6H530v3.19h12.14v1.46h-6.31v3.72Z"/><path d="M555,436.41a6.87,6.87,0,0,1-3.78-3.94,7.35,7.35,0,0,1-4,4.4l-.95-1.39a6.74,6.74,0,0,0,4-6v-1.12h-3.63v-1.48h8.75v1.48h-3.38v1.1a6.2,6.2,0,0,0,3.85,5.56Zm-5.39,1.83h13.27V445h-1.8v-5.34H549.64Zm7.73-7.88v-4.65h1.71V437.2h-1.71v-5.37h-3v-1.47Zm5.54-5.06v12.05h-1.74V425.3Z"/><path d="M584.38,441v1.47H566.47V441Zm-2-3.61H568.78V427h13.36v1.45H570.61v2.93H581.7v1.43H570.61v3.12h11.73Z"/><path d="M603,436.52a50.88,50.88,0,0,1-9,.55h-1.49v-6h6.91v-2.93h-7v-1.45h8.76v5.77h-6.93v3.16a44.84,44.84,0,0,0,8.51-.55Zm5.57,6.58v1.47H595.18v-5.9H597v4.43ZM606.1,432h-3.68v-1.54h3.68V425.3h1.82v14.45H606.1Z"/><path d="M623.26,436.37a8.2,8.2,0,0,1-5.06-4.14,7.89,7.89,0,0,1-5,4.62l-.88-1.43c2.93-.95,5-3.32,5-6v-.24h-4.49V427.7h4.49v-2.42h1.81v2.42h4.44v1.45h-4.47v.24c0,2.49,2.12,4.69,5,5.57Zm4.9,5c0,2.29-2.48,3.59-6.62,3.59s-6.62-1.3-6.62-3.59,2.48-3.61,6.62-3.61S628.16,439.12,628.16,441.4Zm-1.8,0c0-1.4-1.81-2.2-4.82-2.2s-4.84.8-4.84,2.2,1.83,2.18,4.84,2.18S626.36,442.81,626.36,441.4Zm1.74-4h-1.81V425.3h1.81Z"/><path class="cls-3" d="M491.41,471.6v1.78H480.58V472l5.57-5.35c1.7-1.81,2.93-3.19,2.93-5.08a2.71,2.71,0,0,0-3-2.84,3.08,3.08,0,0,0-3.21,3.17l-2-.33a5.05,5.05,0,0,1,5.31-4.58c2.75,0,4.88,1.67,4.88,4.53,0,2.4-1.54,4.07-3.36,5.9l-4.51,4.47a6.69,6.69,0,0,1,1.82-.27Z"/><path class="cls-3" d="M499.13,473.69c-3.34,0-5.92-2.62-5.92-8.34s2.58-8.36,5.92-8.36,5.92,2.62,5.92,8.36S502.45,473.69,499.13,473.69Zm0-15.05c-2,0-3.87,1.67-3.87,6.71s1.83,6.71,3.87,6.71,3.9-1.69,3.9-6.71S501.18,458.64,499.13,458.64Z"/><path class="cls-3" d="M517.22,471.76v1.62H508.5v-1.62h3.59V460.14a4.61,4.61,0,0,1,0-.55l-2.93,2.62-1.07-1.3,4.33-3.74h1.61v14.59Z"/><path class="cls-3" d="M523,463.26a8.81,8.81,0,0,1,2.31-.28c3.41,0,5.23,2.11,5.23,4.93a5.55,5.55,0,0,1-5.85,5.67,6.64,6.64,0,0,1-4.55-1.74l1.07-1.47a5.73,5.73,0,0,0,3.57,1.41,3.57,3.57,0,0,0,3.83-3.77c0-2.11-1.37-3.34-3.68-3.34a8,8,0,0,0-2.64.53l-1.3-.38,1.32-7.63H530V459h-6.32Z"/><path class="cls-3" d="M532.79,471.62h2v2.07h-2Z"/><path class="cls-3" d="M548.92,471.6v1.78H538.09V472l5.57-5.35c1.69-1.81,2.93-3.19,2.93-5.08a2.72,2.72,0,0,0-3-2.84,3.09,3.09,0,0,0-3.21,3.17l-2-.33a5,5,0,0,1,5.3-4.58c2.76,0,4.89,1.67,4.89,4.53,0,2.4-1.54,4.07-3.37,5.9l-4.51,4.47a6.82,6.82,0,0,1,1.83-.27Z"/><circle class="cls-4" cx="514.85" cy="545.27" r="8.5"/><circle class="cls-3" cx="514.85" cy="545.27" r="4"/><line class="cls-1" x1="515.85" y1="534.27" x2="515.85" y2="493.27"/><path d="M802.19,429h-9.77V427.6h4v-2h1.79v2h4Zm-4.86,7.33c-2.42,0-4.1-1.3-4.1-3.26s1.68-3.28,4.1-3.28,4.07,1.28,4.07,3.28S799.73,436.32,797.33,436.32Zm0-1.3c1.49,0,2.48-.73,2.48-2s-1-2-2.48-2-2.51.73-2.51,2S795.83,435,797.33,435Zm12.56,8.8v1.36H796.2v-4.53h11.21v-1.72H796.16v-1.34h13V442H798v1.87Zm-6-13V426h1.72v10.58h-1.72v-4.27h-2.17v-1.45Zm5.31,5.85h-1.74v-11h1.74Z"/><path d="M830.68,441.49V443H812.75v-1.47h8v-3.72H815v-6.1H826.7v-3.08H815v-1.47h13.51v6H816.77v3.19h12.15v1.45h-6.31v3.72Z"/><path d="M838.93,436.67c-2,.11-4,.13-5.63.13l-.25-1.5a97.26,97.26,0,0,0,12.81-.61L846,436c-1.76.26-3.5.46-5.26.57V440h-1.8Zm-4.36-6.51c0-2.23,2-3.66,4.95-3.66s5,1.43,5,3.66-2,3.63-5,3.63S834.57,432.36,834.57,430.16Zm15.08,13.33V445H835.8v-5.63h1.81v4.16Zm-13.36-13.33c0,1.4,1.3,2.26,3.23,2.26s3.24-.86,3.24-2.26-1.28-2.29-3.24-2.29S836.29,428.75,836.29,430.16Zm12.78,10.51h-1.8v-15h1.8Z"/><path d="M856,439.2a46.5,46.5,0,0,0,8.53-.62l.2,1.48a46.88,46.88,0,0,1-9,.61h-1.52V427.45h9.13V429H856V433h6.46v1.45H856Zm13.55-13.56v19.79h-1.8V434.6h-4.07v-1.5h4.07v-7.46Z"/><path d="M888.82,427.8c0,5.7-2.59,10.69-9.17,13.93l-1-1.48c5.31-2.53,8-6.31,8.32-11h-7.42V427.8Zm5.79-2.13V445.4h-1.8V425.67Z"/><path d="M916.55,441.38v1.49H898.66v-1.49ZM903.3,429.1h-3.06v-1.45h14.63v1.45h-3V436h3v1.48H900.29V436h3Zm6.71,0h-4.9V436H910Z"/><path d="M936.79,441.38v1.47H918.88v-1.47Zm-2-3.61H921.19V427.38h13.35v1.45H923v2.93H934.1v1.43H923v3.13h11.73Z"/><path d="M949.92,431.23c0,3.17,1.49,6.52,4.07,8.1l-1,1.41a9.63,9.63,0,0,1-3.9-5.63,10,10,0,0,1-4.09,6.07l-1.12-1.37c2.7-1.58,4.33-5.1,4.33-8.51v-3.76h1.74Zm5.19-5.12h1.7v18.33h-1.7V434.25h-3.26v-1.5h3.26Zm5.72-.44V445.4h-1.71V425.67Z"/><path d="M982.19,441.38v1.47H964.28v-1.47Zm-2-3.61H966.59V427.38H980v1.45H968.42v2.93h11.09v1.43H968.42v3.13h11.73Z"/><path d="M999.31,435.81v1.83H1005V442h-11.6v1.87h12.19v1.36h-14v-4.53h11.58V439H991.61v-1.34h5.87v-1.83h-8v-1.39h17.81v1.39Zm-8.89-3.63c3.63-.24,6.69-1.47,7-3.41h-6.1v-1.36h6.2v-1.87h1.81v1.87h6.18v1.36h-6.07c.28,1.94,3.28,3.17,7,3.41l-.55,1.36c-3.3-.24-6.18-1.27-7.41-3.1-1.24,1.83-4.12,2.86-7.46,3.1Z"/><path d="M1016.71,430.93a9.83,9.83,0,0,0,5.28,8.55l-1.08,1.46a10.62,10.62,0,0,1-5.08-6.25,11,11,0,0,1-5.1,6.62l-1.1-1.47a10.39,10.39,0,0,0,5.3-8.91v-3.55h1.78Zm9.15-5.26v19.78h-1.8V425.67Z"/><path class="cls-3" d="M880.2,472v1.79H869.38v-1.41l5.56-5.35c1.7-1.8,2.93-3.19,2.93-5.08a2.71,2.71,0,0,0-3-2.84,3.08,3.08,0,0,0-3.21,3.17l-2-.33a5,5,0,0,1,5.3-4.58c2.75,0,4.88,1.67,4.88,4.53,0,2.4-1.54,4.07-3.36,5.9L872,472.26a6.69,6.69,0,0,1,1.82-.27Z"/><path class="cls-3" d="M887.92,474.08c-3.34,0-5.92-2.62-5.92-8.34s2.58-8.36,5.92-8.36,5.92,2.62,5.92,8.36S891.24,474.08,887.92,474.08Zm0-15.05c-2,0-3.87,1.68-3.87,6.71s1.83,6.72,3.87,6.72,3.9-1.7,3.9-6.72S890,459,887.92,459Z"/><path class="cls-3" d="M906,472.15v1.63h-8.72v-1.63h3.59V460.53a4.61,4.61,0,0,1,0-.55L898,462.6l-1.08-1.3,4.33-3.74h1.61v14.59Z"/><path class="cls-3" d="M915.58,467.37c.46-.61.72-1,.88-1.23a4.85,4.85,0,0,1-3.11,1,4.44,4.44,0,0,1-4.64-4.73,5.22,5.22,0,0,1,5.48-5.19,5,5,0,0,1,5.26,5.35,8.25,8.25,0,0,1-1.94,5.08l-4.42,6.1h-2.53ZM914,465.59a3.24,3.24,0,0,0,3.48-3.23,3.37,3.37,0,0,0-6.73-.07A3,3,0,0,0,914,465.59Z"/><path class="cls-3" d="M921.58,472h2v2.06h-2Z"/><path class="cls-3" d="M937.29,472.15v1.63h-8.71v-1.63h3.58V460.53a3.09,3.09,0,0,1,0-.55l-2.93,2.62-1.08-1.3,4.34-3.74h1.6v14.59Z"/><path class="cls-3" d="M950.82,472v1.79H940v-1.41l5.57-5.35c1.7-1.8,2.93-3.19,2.93-5.08a2.71,2.71,0,0,0-3-2.84,3.08,3.08,0,0,0-3.21,3.17l-2-.33a5.05,5.05,0,0,1,5.31-4.58c2.75,0,4.88,1.67,4.88,4.53,0,2.4-1.54,4.07-3.36,5.9l-4.51,4.47a6.69,6.69,0,0,1,1.82-.27Z"/><circle class="cls-4" cx="901.45" cy="545.27" r="8.5"/><circle class="cls-3" cx="901.45" cy="545.27" r="4"/><line class="cls-1" x1="902.45" y1="534.27" x2="902.45" y2="493.27"/><path class="cls-3" d="M1077.88,622.53v1.78h-10.83V622.9l5.57-5.35c1.69-1.8,2.92-3.19,2.92-5.08a2.71,2.71,0,0,0-3-2.84,3.09,3.09,0,0,0-3.21,3.17l-2-.33a5,5,0,0,1,5.3-4.58c2.76,0,4.89,1.68,4.89,4.54,0,2.4-1.54,4.07-3.37,5.89l-4.51,4.47a6.79,6.79,0,0,1,1.83-.26Z"/><path class="cls-3" d="M1085.6,624.62c-3.35,0-5.92-2.62-5.92-8.34s2.57-8.36,5.92-8.36,5.92,2.62,5.92,8.36S1088.92,624.62,1085.6,624.62Zm0-15c-2,0-3.87,1.67-3.87,6.71s1.82,6.71,3.87,6.71,3.89-1.7,3.89-6.71S1087.65,609.57,1085.6,609.57Z"/><path class="cls-3" d="M1104.1,622.53v1.78h-10.82V622.9l5.56-5.35c1.7-1.8,2.93-3.19,2.93-5.08a2.72,2.72,0,0,0-3-2.84,3.08,3.08,0,0,0-3.21,3.17l-2-.33a5,5,0,0,1,5.3-4.58c2.75,0,4.88,1.68,4.88,4.54,0,2.4-1.54,4.07-3.36,5.89l-4.51,4.47a6.66,6.66,0,0,1,1.82-.26Z"/><path class="cls-3" d="M1111.82,624.62c-3.34,0-5.92-2.62-5.92-8.34s2.58-8.36,5.92-8.36,5.92,2.62,5.92,8.36S1115.15,624.62,1111.82,624.62Zm0-15c-2,0-3.87,1.67-3.87,6.71s1.83,6.71,3.87,6.71,3.9-1.7,3.9-6.71S1113.87,609.57,1111.82,609.57Z"/><path class="cls-3" d="M1119.26,622.55h2v2.07h-2Z"/><path class="cls-3" d="M1135,622.68v1.63h-8.72v-1.63h3.59V611.06a4.79,4.79,0,0,1,0-.55l-2.92,2.62-1.08-1.3,4.33-3.74h1.61v14.59Z"/><path class="cls-3" d="M1148.5,622.53v1.78h-10.83V622.9l5.57-5.35c1.69-1.8,2.92-3.19,2.92-5.08a2.71,2.71,0,0,0-3-2.84,3.09,3.09,0,0,0-3.21,3.17l-2-.33a5,5,0,0,1,5.3-4.58c2.75,0,4.89,1.68,4.89,4.54,0,2.4-1.54,4.07-3.37,5.89l-4.51,4.47a6.79,6.79,0,0,1,1.83-.26Z"/><path d="M1025.82,652.58a40.44,40.44,0,0,0,8.47-.64l.22,1.5a46.12,46.12,0,0,1-9,.66H1024v-13h9v1.5h-7.18Zm13.47-13.38V659h-1.8V647.85h-5.66v-1.5h5.66V639.2Z"/><path d="M1049.89,644.46a10.09,10.09,0,0,0,5,8.45l-1.12,1.43a10.6,10.6,0,0,1-4.78-6.14,10.91,10.91,0,0,1-4.9,6.53l-1.08-1.45a10.48,10.48,0,0,0,5.08-8.82v-3.54h1.78Zm11.82,4.25h-3.26v10.23h-1.8V639.22h1.8v8h3.26Z"/><path d="M1075.3,649.34a51.94,51.94,0,0,1-9.37.64h-1.56v-5.59h7.06v-2.48h-7.11v-1.48h8.89v5.35h-7.06v2.73a48.24,48.24,0,0,0,9-.64Zm3.72,6c0,2.29-2.51,3.59-6.49,3.59s-6.49-1.3-6.49-3.59,2.46-3.61,6.49-3.61S1079,653,1079,655.33Zm-1.78,0c0-1.41-1.7-2.2-4.71-2.2s-4.73.79-4.73,2.2,1.72,2.2,4.73,2.2S1077.24,656.74,1077.24,655.33Zm4.51-11.18v1.5h-2.93v5.45H1077V639.22h1.8v4.93Z"/><path d="M1095.3,644.46a10.09,10.09,0,0,0,5,8.45l-1.13,1.43a10.63,10.63,0,0,1-4.77-6.14,10.89,10.89,0,0,1-4.91,6.53l-1.08-1.45a10.49,10.49,0,0,0,5.09-8.82v-3.54h1.78Zm11.81,4.25h-3.25v10.23h-1.81V639.22h1.81v8h3.25Z"/><path d="M1125.18,639.22v10.59h-1.83v-4.43h-4c-.36,2.36-2.31,3.88-5,3.88-2.93,0-5.08-1.85-5.08-4.58s2.15-4.56,5.08-4.56c2.64,0,4.66,1.52,5,3.79h4v-4.69Zm-7.51,5.46a3.38,3.38,0,0,0-6.73,0,3.38,3.38,0,0,0,6.73,0Zm5.7,6.09h1.81v7.9h-12.63v-7.9h1.78v2.49h9Zm0,3.9h-9v2.55h9Z"/><path d="M1139.74,650.16a7.6,7.6,0,0,1-4.77-4.25,8.1,8.1,0,0,1-5,4.84l-.92-1.43a6.93,6.93,0,0,0,5-6.42v-.77h-4.42v-1.46h10.58v1.46h-4.36v.77c0,2.57,1.85,4.9,4.78,5.85Zm5,5.1c0,2.31-2.51,3.66-6.49,3.66s-6.51-1.35-6.51-3.66,2.46-3.63,6.51-3.63S1144.69,653,1144.69,655.26Zm-1.8,0c0-1.41-1.76-2.2-4.69-2.2s-4.71.79-4.71,2.2,1.7,2.22,4.71,2.22S1142.89,656.67,1142.89,655.26Zm4.51-11.07v1.52h-2.93v5.42h-1.8V639.22h1.8v5Z"/><path d="M1165.08,647.61c0,4.2-2.09,6.88-5,6.88s-5-2.68-5-6.88,2.09-6.89,5-6.89S1165.08,643.4,1165.08,647.61Zm-8.31,0c0,3.21,1.36,5.28,3.3,5.28s3.28-2.07,3.28-5.28-1.37-5.26-3.28-5.26S1156.77,644.42,1156.77,647.61Zm13.71-8.41V659h-1.81V639.2Z"/><path d="M1185.3,650.71a8.13,8.13,0,0,1-4.75-4.47,8.37,8.37,0,0,1-5,4.91l-.95-1.41a7.18,7.18,0,0,0,5-6.47v-1h-4.4v-1.47h10.54v1.47h-4.33v1a6.77,6.77,0,0,0,4.79,6Zm6.08,6.31v1.48H1178.2v-6.1H1180V657ZM1189,644.66v-5.44h1.83v14.46H1189v-7.55h-4v-1.47Z"/><circle class="cls-4" cx="1107.75" cy="545.77" r="8.5"/><circle class="cls-3" cx="1107.75" cy="545.77" r="4"/><line class="cls-1" x1="1107.75" y1="556.77" x2="1107.75" y2="597.77"/><path class="cls-3" d="M686.62,631.65v1.78H675.8V632l5.56-5.35c1.7-1.8,2.93-3.19,2.93-5.08a2.72,2.72,0,0,0-3-2.84,3.08,3.08,0,0,0-3.21,3.17l-2-.33a5,5,0,0,1,5.3-4.57c2.75,0,4.88,1.67,4.88,4.53,0,2.4-1.54,4.07-3.36,5.9l-4.51,4.46a7.07,7.07,0,0,1,1.82-.26Z"/><path class="cls-3" d="M694.34,633.74c-3.34,0-5.92-2.62-5.92-8.34S691,617,694.34,617s5.92,2.62,5.92,8.36S697.66,633.74,694.34,633.74Zm0-15c-2,0-3.87,1.67-3.87,6.71s1.83,6.71,3.87,6.71,3.9-1.69,3.9-6.71S696.39,618.69,694.34,618.69Z"/><path class="cls-3" d="M712.43,631.8v1.63h-8.72V631.8h3.59V620.18a4.79,4.79,0,0,1,0-.55l-2.92,2.62-1.08-1.3,4.33-3.74h1.61V631.8Z"/><path class="cls-3" d="M726.09,617.3v1.3l-7.28,14.83h-2.23l6.58-13.18.75-1.23h-8.43V617.3Z"/><path class="cls-3" d="M728,631.67h2v2.07h-2Z"/><path class="cls-3" d="M733.7,621.64A5.09,5.09,0,0,1,739,617c2.8,0,4.78,1.71,4.78,4.18a3.62,3.62,0,0,1-2.84,3.76,3.78,3.78,0,0,1,3.21,3.9c0,2.94-2.44,4.84-5.46,4.84-3.47,0-4.73-1.87-5.5-4.25l1.81-.75a4.68,4.68,0,0,0,.33,1,3.48,3.48,0,0,0,3.34,2.27,3.16,3.16,0,0,0,3.43-3.06c0-1.74-.72-3-4.18-3v-1.45c2.84-.06,3.85-1.23,3.85-2.9a2.58,2.58,0,0,0-2.88-2.75A3.09,3.09,0,0,0,735.7,622Z"/><path d="M605.07,663.81v1.48H587.22v-1.48h6.93v-7.06H596v7.06Zm-3.94-12h-12V650.3h13.84v2a42.78,42.78,0,0,1-.74,9.13l-1.81-.2a40.73,40.73,0,0,0,.75-8.93Z"/><path d="M625.29,658.09v1.45H607.42v-1.45h4.42v-2.77c-1.6-.64-2.42-1.63-2.42-3,0-2.29,2.66-3.68,6.93-3.68s6.93,1.39,6.93,3.68c0,1.32-.88,2.33-2.4,2.95v2.79Zm-2.18,6.45c0,2.26-2.51,3.5-6.76,3.5s-6.75-1.24-6.75-3.5,2.53-3.52,6.75-3.52S623.11,662.27,623.11,664.54Zm-6.76-9.93c3.19,0,5.08-.85,5.08-2.26s-1.89-2.27-5.08-2.27-5.08.84-5.08,2.27S613.16,654.61,616.35,654.61Zm4.93,9.93c0-1.34-1.83-2.12-4.93-2.12s-4.93.78-4.93,2.12,1.83,2.11,4.93,2.11S621.28,665.88,621.28,664.54Zm-7.66-6.45h5.48v-2.31a14.64,14.64,0,0,1-2.75.22,15.33,15.33,0,0,1-2.73-.22Z"/><path d="M645.59,664v1.48H627.66V664h8.05v-5.28h-5.85V650h1.8v7.28h11.89v1.45h-6V664Z"/><path d="M665.79,658.07v1.45H647.92v-1.45h8v-2.29h-5.79v-6.56h13.41v1.46H652v3.65H663.7v1.45h-5.94v2.29Zm-2.2,6.42c0,2.29-2.56,3.57-6.74,3.57s-6.77-1.28-6.77-3.57,2.55-3.56,6.77-3.56S663.59,662.21,663.59,664.49Zm-1.83,0c0-1.41-1.8-2.15-4.91-2.15s-5,.74-5,2.15,1.76,2.16,5,2.16S661.76,665.9,661.76,664.49Z"/><path d="M686.05,661.48H678v6.6h-1.8v-6.6h-8V660h17.91Zm-2.27-3.83H670.41v-8.54h1.78v2.71H682v-2.71h1.8Zm-1.8-4.38h-9.79v2.91H682Z"/><path d="M700,653.58a10.09,10.09,0,0,0,5,8.45l-1.12,1.43a10.6,10.6,0,0,1-4.78-6.14,10.94,10.94,0,0,1-4.91,6.54l-1.07-1.46a10.46,10.46,0,0,0,5.08-8.82V650H700Zm11.82,4.25h-3.26v10.23h-1.8V648.34h1.8v8h3.26Z"/><path d="M721,662.65c1.87-.09,3.74-.23,5.58-.47l.14,1.35a83.76,83.76,0,0,1-12.79.79l-.26-1.52c1.67,0,3.56,0,5.52-.09V660.6c-2.38-.29-3.85-1.61-3.85-3.63,0-2.22,1.92-3.65,4.75-3.65s4.73,1.43,4.73,3.65c0,2-1.45,3.32-3.82,3.61Zm5.08-10.46h-12v-1.45h5.1v-2.4H721v2.4h5.08Zm-6,7c1.79,0,3-.83,3-2.24s-1.23-2.27-3-2.27-3,.86-3,2.27S718.26,659.21,720.1,659.21Zm9.55-10.87v19.72h-1.8V648.34Z"/><path d="M744.55,659.37a8.21,8.21,0,0,1-4.78-4.47,8.37,8.37,0,0,1-4.95,4.93l-1-1.43a7.17,7.17,0,0,0,5-6.47v-.79h-4.4v-1.48H745v1.48h-4.34v.79a6.78,6.78,0,0,0,4.8,6Zm-7.68,1.84h13.18v6.87h-1.81v-5.41H736.87Zm13.18-12.89v11.82h-1.81v-5.2h-3.85v-1.47h3.85v-5.15Z"/><path d="M764.46,650.46c0,5.69-2.6,10.69-9.18,13.92l-1-1.47c5.31-2.53,8-6.32,8.32-11h-7.41v-1.45Zm5.78-2.14v19.74h-1.8V648.32Z"/><path d="M790.55,648.34v10.59h-1.83V654.5h-4c-.35,2.36-2.31,3.88-5,3.88-2.93,0-5.08-1.85-5.08-4.58s2.15-4.55,5.08-4.55c2.64,0,4.66,1.51,5,3.78h4v-4.69Zm-7.5,5.46a3.39,3.39,0,0,0-6.74,0,3.38,3.38,0,0,0,6.74,0Zm5.69,6.09h1.81v7.9H777.92v-7.9h1.78v2.49h9Zm0,3.9h-9v2.55h9Z"/><path d="M805.05,659.43a4.87,4.87,0,1,1,5.17-4.88A4.85,4.85,0,0,1,805.05,659.43Zm0-1.56a3.3,3.3,0,1,0,0-6.6,3.3,3.3,0,1,0,0,6.6Zm11.19,8.27v1.48H803v-6.34h1.81v4.86Zm-.59-3.39h-1.8V648.34h1.8Z"/><path d="M837.54,657.72v1.45H819.7v-1.45Zm-16.83-2.64c3.54-.36,6.64-2.12,6.75-4.29h-6.11v-1.46h14.58v1.46H829.8c.06,2.17,3.3,3.93,6.75,4.29l-.64,1.43c-3.23-.42-6.22-1.81-7.28-4-1.1,2.16-4.07,3.57-7.28,4Zm14.65,9.37c0,2.31-2.55,3.59-6.75,3.59s-6.76-1.28-6.76-3.59,2.53-3.57,6.76-3.57S835.36,662.16,835.36,664.45Zm-1.82,0c0-1.41-1.83-2.16-4.93-2.16s-4.93.75-4.93,2.16,1.83,2.16,4.93,2.16S833.54,665.86,833.54,664.45Z"/><ellipse class="cls-4" cx="712.4" cy="545.77" rx="8.48" ry="8.5"/><ellipse class="cls-3" cx="712.4" cy="545.77" rx="3.99" ry="4"/><line class="cls-1" x1="712.4" y1="556.77" x2="712.4" y2="597.77"/><text class="cls-5" transform="translate(275.19 633.32)">2012.10<tspan class="cls-6"><tspan x="-106.02" y="33">구급키트(Fir</tspan><tspan class="cls-7" x="8.36" y="33">s</tspan><tspan x="18.17" y="33">t Aid Kit)제품 출시</tspan></tspan></text><circle class="cls-4" cx="317.05" cy="545.77" r="8.5"/><circle class="cls-3" cx="317.05" cy="545.77" r="4"/><line class="cls-1" x1="317.05" y1="556.77" x2="317.05" y2="597.77"/></g></g></svg>