<svg width="274" height="919" viewBox="0 0 274 919" fill="none" xmlns="http://www.w3.org/2000/svg">
<path d="M44.096 47.704C43.696 47.704 43.216 47.768 42.768 47.896L46.048 44.648C47.376 43.32 48.496 42.104 48.496 40.36C48.496 38.28 46.944 37.064 44.944 37.064C42.944 37.064 41.392 38.232 41.088 40.392L42.528 40.632C42.528 39.288 43.52 38.328 44.864 38.328C46.08 38.328 46.976 38.984 47.024 40.392C47.024 41.768 46.128 42.776 44.896 44.088L40.848 47.976V49H48.72V47.704H44.096ZM58.6353 43.16C58.6353 38.984 56.7473 37.08 54.3313 37.08C51.8993 37.08 50.0273 38.984 50.0273 43.16C50.0273 47.32 51.8993 49.224 54.3313 49.224C56.7473 49.224 58.6353 47.32 58.6353 43.16ZM57.1633 43.16C57.1633 46.808 55.8193 48.04 54.3313 48.04C52.8433 48.04 51.5153 46.808 51.5153 43.16C51.5153 39.496 52.8433 38.28 54.3313 38.28C55.8193 38.28 57.1633 39.496 57.1633 43.16ZM65.1745 47.816V37.208H64.0065L60.8545 39.928L61.6385 40.872L63.7665 38.968C63.7505 39.08 63.7505 39.224 63.7505 39.368V47.816H61.1425V49H67.4785V47.816H65.1745ZM77.6978 43.16C77.6978 38.984 75.8098 37.08 73.3938 37.08C70.9618 37.08 69.0898 38.984 69.0898 43.16C69.0898 47.32 70.9618 49.224 73.3938 49.224C75.8098 49.224 77.6978 47.32 77.6978 43.16ZM76.2258 43.16C76.2258 46.808 74.8818 48.04 73.3938 48.04C71.9058 48.04 70.5778 46.808 70.5778 43.16C70.5778 39.496 71.9058 38.28 73.3938 38.28C74.8818 38.28 76.2258 39.496 76.2258 43.16ZM78.797 49.224H80.253V47.72H78.797V49.224ZM84.0045 49H85.8445L89.0605 44.568C89.9565 43.336 90.4685 42.264 90.4685 40.872C90.4685 38.584 88.9485 36.984 86.6445 36.984C84.3085 36.984 82.6605 38.664 82.6605 40.76C82.6605 42.984 84.1965 44.2 86.0365 44.2C86.9165 44.2 87.6685 43.944 88.2925 43.448C88.1805 43.592 87.9885 43.896 87.6525 44.344L84.0045 49ZM84.1485 40.648C84.1485 39.224 85.1405 38.248 86.6285 38.248C88.0045 38.248 89.0445 39.16 89.0445 40.696C89.0445 41.928 88.1165 43.048 86.5165 43.048C85.0445 43.048 84.1485 42.2 84.1485 40.648Z" fill="#E50012"/>
<path d="M44.096 139.704C43.696 139.704 43.216 139.768 42.768 139.896L46.048 136.648C47.376 135.32 48.496 134.104 48.496 132.36C48.496 130.28 46.944 129.064 44.944 129.064C42.944 129.064 41.392 130.232 41.088 132.392L42.528 132.632C42.528 131.288 43.52 130.328 44.864 130.328C46.08 130.328 46.976 130.984 47.024 132.392C47.024 133.768 46.128 134.776 44.896 136.088L40.848 139.976V141H48.72V139.704H44.096ZM58.6353 135.16C58.6353 130.984 56.7473 129.08 54.3313 129.08C51.8993 129.08 50.0273 130.984 50.0273 135.16C50.0273 139.32 51.8993 141.224 54.3313 141.224C56.7473 141.224 58.6353 139.32 58.6353 135.16ZM57.1633 135.16C57.1633 138.808 55.8193 140.04 54.3313 140.04C52.8433 140.04 51.5153 138.808 51.5153 135.16C51.5153 131.496 52.8433 130.28 54.3313 130.28C55.8193 130.28 57.1633 131.496 57.1633 135.16ZM65.1745 139.816V129.208H64.0065L60.8545 131.928L61.6385 132.872L63.7665 130.968C63.7505 131.08 63.7505 131.224 63.7505 131.368V139.816H61.1425V141H67.4785V139.816H65.1745ZM77.6978 135.16C77.6978 130.984 75.8098 129.08 73.3938 129.08C70.9618 129.08 69.0898 130.984 69.0898 135.16C69.0898 139.32 70.9618 141.224 73.3938 141.224C75.8098 141.224 77.6978 139.32 77.6978 135.16ZM76.2258 135.16C76.2258 138.808 74.8818 140.04 73.3938 140.04C71.9058 140.04 70.5778 138.808 70.5778 135.16C70.5778 131.496 71.9058 130.28 73.3938 130.28C74.8818 130.28 76.2258 131.496 76.2258 135.16ZM78.797 141.224H80.253V139.72H78.797V141.224ZM87.9245 139.816V129.208H86.7565L83.6045 131.928L84.3885 132.872L86.5165 130.968C86.5005 131.08 86.5005 131.224 86.5005 131.368V139.816H83.8925V141H90.2285V139.816H87.9245ZM95.4398 139.704C95.0398 139.704 94.5598 139.768 94.1118 139.896L97.3918 136.648C98.7198 135.32 99.8398 134.104 99.8398 132.36C99.8398 130.28 98.2878 129.064 96.2878 129.064C94.2878 129.064 92.7358 130.232 92.4318 132.392L93.8718 132.632C93.8718 131.288 94.8638 130.328 96.2078 130.328C97.4238 130.328 98.3198 130.984 98.3678 132.392C98.3678 133.768 97.4718 134.776 96.2398 136.088L92.1918 139.976V141H100.064V139.704H95.4398Z" fill="#E50012"/>
<path d="M44.096 231.704C43.696 231.704 43.216 231.768 42.768 231.896L46.048 228.648C47.376 227.32 48.496 226.104 48.496 224.36C48.496 222.28 46.944 221.064 44.944 221.064C42.944 221.064 41.392 222.232 41.088 224.392L42.528 224.632C42.528 223.288 43.52 222.328 44.864 222.328C46.08 222.328 46.976 222.984 47.024 224.392C47.024 225.768 46.128 226.776 44.896 228.088L40.848 231.976V233H48.72V231.704H44.096ZM58.6353 227.16C58.6353 222.984 56.7473 221.08 54.3313 221.08C51.8993 221.08 50.0273 222.984 50.0273 227.16C50.0273 231.32 51.8993 233.224 54.3313 233.224C56.7473 233.224 58.6353 231.32 58.6353 227.16ZM57.1633 227.16C57.1633 230.808 55.8193 232.04 54.3313 232.04C52.8433 232.04 51.5153 230.808 51.5153 227.16C51.5153 223.496 52.8433 222.28 54.3313 222.28C55.8193 222.28 57.1633 223.496 57.1633 227.16ZM65.1745 231.816V221.208H64.0065L60.8545 223.928L61.6385 224.872L63.7665 222.968C63.7505 223.08 63.7505 223.224 63.7505 223.368V231.816H61.1425V233H67.4785V231.816H65.1745ZM74.7058 231.816V221.208H73.5378L70.3858 223.928L71.1698 224.872L73.2977 222.968C73.2818 223.08 73.2818 223.224 73.2818 223.368V231.816H70.6738V233H77.0098V231.816H74.7058ZM78.797 233.224H80.253V231.72H78.797V233.224ZM85.9085 231.704C85.5085 231.704 85.0285 231.768 84.5805 231.896L87.8605 228.648C89.1885 227.32 90.3085 226.104 90.3085 224.36C90.3085 222.28 88.7565 221.064 86.7565 221.064C84.7565 221.064 83.2045 222.232 82.9005 224.392L84.3405 224.632C84.3405 223.288 85.3325 222.328 86.6765 222.328C87.8925 222.328 88.7885 222.984 88.8365 224.392C88.8365 225.768 87.9405 226.776 86.7085 228.088L82.6605 231.976V233H90.5325V231.704H85.9085Z" fill="#E50012"/>
<path d="M44.096 323.704C43.696 323.704 43.216 323.768 42.768 323.896L46.048 320.648C47.376 319.32 48.496 318.104 48.496 316.36C48.496 314.28 46.944 313.064 44.944 313.064C42.944 313.064 41.392 314.232 41.088 316.392L42.528 316.632C42.528 315.288 43.52 314.328 44.864 314.328C46.08 314.328 46.976 314.984 47.024 316.392C47.024 317.768 46.128 318.776 44.896 320.088L40.848 323.976V325H48.72V323.704H44.096ZM58.6353 319.16C58.6353 314.984 56.7473 313.08 54.3313 313.08C51.8993 313.08 50.0273 314.984 50.0273 319.16C50.0273 323.32 51.8993 325.224 54.3313 325.224C56.7473 325.224 58.6353 323.32 58.6353 319.16ZM57.1633 319.16C57.1633 322.808 55.8193 324.04 54.3313 324.04C52.8433 324.04 51.5153 322.808 51.5153 319.16C51.5153 315.496 52.8433 314.28 54.3313 314.28C55.8193 314.28 57.1633 315.496 57.1633 319.16ZM65.1745 323.816V313.208H64.0065L60.8545 315.928L61.6385 316.872L63.7665 314.968C63.7505 315.08 63.7505 315.224 63.7505 315.368V323.816H61.1425V325H67.4785V323.816H65.1745ZM72.6898 323.704C72.2898 323.704 71.8098 323.768 71.3618 323.896L74.6418 320.648C75.9698 319.32 77.0898 318.104 77.0898 316.36C77.0898 314.28 75.5378 313.064 73.5378 313.064C71.5378 313.064 69.9858 314.232 69.6818 316.392L71.1218 316.632C71.1218 315.288 72.1138 314.328 73.4578 314.328C74.6738 314.328 75.5698 314.984 75.6178 316.392C75.6178 317.768 74.7218 318.776 73.4898 320.088L69.4418 323.976V325H77.3138V323.704H72.6898ZM78.797 325.224H80.253V323.72H78.797V325.224ZM89.3165 320.728V313.144H87.9405L82.1645 320.792V321.88H88.0205V325H89.3165V321.88H91.0925V320.728H89.3165ZM83.7645 320.728L88.0845 314.84C88.0365 315.176 88.0205 315.56 88.0205 315.832V320.728H83.7645Z" fill="#E50012"/>
<path d="M44.096 415.704C43.696 415.704 43.216 415.768 42.768 415.896L46.048 412.648C47.376 411.32 48.496 410.104 48.496 408.36C48.496 406.28 46.944 405.064 44.944 405.064C42.944 405.064 41.392 406.232 41.088 408.392L42.528 408.632C42.528 407.288 43.52 406.328 44.864 406.328C46.08 406.328 46.976 406.984 47.024 408.392C47.024 409.768 46.128 410.776 44.896 412.088L40.848 415.976V417H48.72V415.704H44.096ZM58.6353 411.16C58.6353 406.984 56.7473 405.08 54.3313 405.08C51.8993 405.08 50.0273 406.984 50.0273 411.16C50.0273 415.32 51.8993 417.224 54.3313 417.224C56.7473 417.224 58.6353 415.32 58.6353 411.16ZM57.1633 411.16C57.1633 414.808 55.8193 416.04 54.3313 416.04C52.8433 416.04 51.5153 414.808 51.5153 411.16C51.5153 407.496 52.8433 406.28 54.3313 406.28C55.8193 406.28 57.1633 407.496 57.1633 411.16ZM65.1745 415.816V405.208H64.0065L60.8545 407.928L61.6385 408.872L63.7665 406.968C63.7505 407.08 63.7505 407.224 63.7505 407.368V415.816H61.1425V417H67.4785V415.816H65.1745ZM72.6898 415.704C72.2898 415.704 71.8098 415.768 71.3618 415.896L74.6418 412.648C75.9698 411.32 77.0898 410.104 77.0898 408.36C77.0898 406.28 75.5378 405.064 73.5378 405.064C71.5378 405.064 69.9858 406.232 69.6818 408.392L71.1218 408.632C71.1218 407.288 72.1138 406.328 73.4578 406.328C74.6738 406.328 75.5698 406.984 75.6178 408.392C75.6178 409.768 74.7218 410.776 73.4898 412.088L69.4418 415.976V417H77.3138V415.704H72.6898ZM78.797 417.224H80.253V415.72H78.797V417.224ZM89.2045 405.208H87.3645L84.1005 409.608C83.0765 410.952 82.6445 412.136 82.6445 413.176C82.6445 415.608 84.1965 417.208 86.5805 417.208C88.9805 417.208 90.6445 415.512 90.6445 413.336C90.6445 411.08 89.0445 409.8 87.1245 409.8C86.3405 409.8 85.6845 410.024 85.1085 410.408C85.2205 410.28 85.3965 410.024 85.6685 409.64L89.2045 405.208ZM86.5485 415.976C84.9485 415.976 84.0685 414.952 84.0685 413.416C84.0685 412.088 85.0765 410.936 86.6445 410.936C88.1005 410.936 89.1725 411.896 89.1725 413.448C89.1725 414.904 88.1005 415.976 86.5485 415.976Z" fill="#E50012"/>
<path d="M44.096 507.704C43.696 507.704 43.216 507.768 42.768 507.896L46.048 504.648C47.376 503.32 48.496 502.104 48.496 500.36C48.496 498.28 46.944 497.064 44.944 497.064C42.944 497.064 41.392 498.232 41.088 500.392L42.528 500.632C42.528 499.288 43.52 498.328 44.864 498.328C46.08 498.328 46.976 498.984 47.024 500.392C47.024 501.768 46.128 502.776 44.896 504.088L40.848 507.976V509H48.72V507.704H44.096ZM58.6353 503.16C58.6353 498.984 56.7473 497.08 54.3313 497.08C51.8993 497.08 50.0273 498.984 50.0273 503.16C50.0273 507.32 51.8993 509.224 54.3313 509.224C56.7473 509.224 58.6353 507.32 58.6353 503.16ZM57.1633 503.16C57.1633 506.808 55.8193 508.04 54.3313 508.04C52.8433 508.04 51.5153 506.808 51.5153 503.16C51.5153 499.496 52.8433 498.28 54.3313 498.28C55.8193 498.28 57.1633 499.496 57.1633 503.16ZM65.1745 507.816V497.208H64.0065L60.8545 499.928L61.6385 500.872L63.7665 498.968C63.7505 499.08 63.7505 499.224 63.7505 499.368V507.816H61.1425V509H67.4785V507.816H65.1745ZM72.6898 507.704C72.2898 507.704 71.8098 507.768 71.3618 507.896L74.6418 504.648C75.9698 503.32 77.0898 502.104 77.0898 500.36C77.0898 498.28 75.5378 497.064 73.5378 497.064C71.5378 497.064 69.9858 498.232 69.6818 500.392L71.1218 500.632C71.1218 499.288 72.1138 498.328 73.4578 498.328C74.6738 498.328 75.5698 498.984 75.6178 500.392C75.6178 501.768 74.7218 502.776 73.4898 504.088L69.4418 507.976V509H77.3138V507.704H72.6898ZM78.797 509.224H80.253V507.72H78.797V509.224ZM87.9245 507.816V497.208H86.7565L83.6045 499.928L84.3885 500.872L86.5165 498.968C86.5005 499.08 86.5005 499.224 86.5005 499.368V507.816H83.8925V509H90.2285V507.816H87.9245ZM100.448 503.16C100.448 498.984 98.5598 497.08 96.1438 497.08C93.7118 497.08 91.8398 498.984 91.8398 503.16C91.8398 507.32 93.7118 509.224 96.1438 509.224C98.5598 509.224 100.448 507.32 100.448 503.16ZM98.9758 503.16C98.9758 506.808 97.6318 508.04 96.1438 508.04C94.6558 508.04 93.3278 506.808 93.3278 503.16C93.3278 499.496 94.6558 498.28 96.1438 498.28C97.6318 498.28 98.9758 499.496 98.9758 503.16Z" fill="#E50012"/>
<path d="M44.096 599.704C43.696 599.704 43.216 599.768 42.768 599.896L46.048 596.648C47.376 595.32 48.496 594.104 48.496 592.36C48.496 590.28 46.944 589.064 44.944 589.064C42.944 589.064 41.392 590.232 41.088 592.392L42.528 592.632C42.528 591.288 43.52 590.328 44.864 590.328C46.08 590.328 46.976 590.984 47.024 592.392C47.024 593.768 46.128 594.776 44.896 596.088L40.848 599.976V601H48.72V599.704H44.096ZM58.6353 595.16C58.6353 590.984 56.7473 589.08 54.3313 589.08C51.8993 589.08 50.0273 590.984 50.0273 595.16C50.0273 599.32 51.8993 601.224 54.3313 601.224C56.7473 601.224 58.6353 599.32 58.6353 595.16ZM57.1633 595.16C57.1633 598.808 55.8193 600.04 54.3313 600.04C52.8433 600.04 51.5153 598.808 51.5153 595.16C51.5153 591.496 52.8433 590.28 54.3313 590.28C55.8193 590.28 57.1633 591.496 57.1633 595.16ZM65.1745 599.816V589.208H64.0065L60.8545 591.928L61.6385 592.872L63.7665 590.968C63.7505 591.08 63.7505 591.224 63.7505 591.368V599.816H61.1425V601H67.4785V599.816H65.1745ZM72.1778 590.568H76.7698V589.224H71.1538L70.1938 594.776L71.1378 595.048C71.8258 594.808 72.4338 594.664 73.0578 594.664C74.7378 594.664 75.7298 595.56 75.7298 597.096C75.7298 598.824 74.5618 599.832 72.9458 599.832C71.9858 599.832 71.0578 599.4 70.3538 598.808L69.5698 599.88C70.2898 600.568 71.4738 601.144 72.8818 601.144C75.2658 601.144 77.1378 599.512 77.1378 597.016C77.1378 594.968 75.8098 593.432 73.3298 593.432C72.7538 593.432 72.1938 593.496 71.6498 593.64L72.1778 590.568ZM78.797 601.224H80.253V599.72H78.797V601.224ZM85.9085 599.704C85.5085 599.704 85.0285 599.768 84.5805 599.896L87.8605 596.648C89.1885 595.32 90.3085 594.104 90.3085 592.36C90.3085 590.28 88.7565 589.064 86.7565 589.064C84.7565 589.064 83.2045 590.232 82.9005 592.392L84.3405 592.632C84.3405 591.288 85.3325 590.328 86.6765 590.328C87.8925 590.328 88.7885 590.984 88.8365 592.392C88.8365 593.768 87.9405 594.776 86.7085 596.088L82.6605 599.976V601H90.5325V599.704H85.9085Z" fill="#E50012"/>
<path d="M44.096 691.704C43.696 691.704 43.216 691.768 42.768 691.896L46.048 688.648C47.376 687.32 48.496 686.104 48.496 684.36C48.496 682.28 46.944 681.064 44.944 681.064C42.944 681.064 41.392 682.232 41.088 684.392L42.528 684.632C42.528 683.288 43.52 682.328 44.864 682.328C46.08 682.328 46.976 682.984 47.024 684.392C47.024 685.768 46.128 686.776 44.896 688.088L40.848 691.976V693H48.72V691.704H44.096ZM58.6353 687.16C58.6353 682.984 56.7473 681.08 54.3313 681.08C51.8993 681.08 50.0273 682.984 50.0273 687.16C50.0273 691.32 51.8993 693.224 54.3313 693.224C56.7473 693.224 58.6353 691.32 58.6353 687.16ZM57.1633 687.16C57.1633 690.808 55.8193 692.04 54.3313 692.04C52.8433 692.04 51.5153 690.808 51.5153 687.16C51.5153 683.496 52.8433 682.28 54.3313 682.28C55.8193 682.28 57.1633 683.496 57.1633 687.16ZM65.1745 691.816V681.208H64.0065L60.8545 683.928L61.6385 684.872L63.7665 682.968C63.7505 683.08 63.7505 683.224 63.7505 683.368V691.816H61.1425V693H67.4785V691.816H65.1745ZM69.6978 681.272V682.52H75.8258L75.2818 683.416L70.4978 693H72.1138L77.4097 682.216V681.272H69.6978ZM78.797 693.224H80.253V691.72H78.797V693.224ZM84.4045 684.664C84.4045 683.352 85.3805 682.36 86.7245 682.36C87.9565 682.36 88.8205 683.016 88.8205 684.36C88.8205 685.576 88.0845 686.424 86.0205 686.472V687.528C88.5325 687.528 89.0605 688.456 89.0605 689.72C89.0605 690.76 88.2445 691.944 86.5645 691.944C85.3485 691.944 84.6285 691.32 84.1325 690.296C84.0045 689.992 83.9245 689.752 83.8925 689.576L82.5805 690.12C83.1405 691.848 84.0525 693.208 86.5805 693.208C88.7725 693.208 90.5485 691.832 90.5485 689.688C90.5485 688.216 89.7485 687.24 88.2125 686.856C89.4925 686.424 90.2765 685.656 90.2765 684.12C90.2765 682.328 88.8365 681.08 86.8045 681.08C84.8045 681.08 83.2525 682.296 82.9485 684.424L84.4045 684.664Z" fill="#E50012"/>
<path d="M44.096 783.704C43.696 783.704 43.216 783.768 42.768 783.896L46.048 780.648C47.376 779.32 48.496 778.104 48.496 776.36C48.496 774.28 46.944 773.064 44.944 773.064C42.944 773.064 41.392 774.232 41.088 776.392L42.528 776.632C42.528 775.288 43.52 774.328 44.864 774.328C46.08 774.328 46.976 774.984 47.024 776.392C47.024 777.768 46.128 778.776 44.896 780.088L40.848 783.976V785H48.72V783.704H44.096ZM58.6353 779.16C58.6353 774.984 56.7473 773.08 54.3313 773.08C51.8993 773.08 50.0273 774.984 50.0273 779.16C50.0273 783.32 51.8993 785.224 54.3313 785.224C56.7473 785.224 58.6353 783.32 58.6353 779.16ZM57.1633 779.16C57.1633 782.808 55.8193 784.04 54.3313 784.04C52.8433 784.04 51.5153 782.808 51.5153 779.16C51.5153 775.496 52.8433 774.28 54.3313 774.28C55.8193 774.28 57.1633 775.496 57.1633 779.16ZM65.1745 783.816V773.208H64.0065L60.8545 775.928L61.6385 776.872L63.7665 774.968C63.7505 775.08 63.7505 775.224 63.7505 775.368V783.816H61.1425V785H67.4785V783.816H65.1745ZM70.7858 785H72.6258L75.8418 780.568C76.7378 779.336 77.2498 778.264 77.2498 776.872C77.2498 774.584 75.7298 772.984 73.4258 772.984C71.0898 772.984 69.4418 774.664 69.4418 776.76C69.4418 778.984 70.9778 780.2 72.8177 780.2C73.6978 780.2 74.4498 779.944 75.0738 779.448C74.9618 779.592 74.7698 779.896 74.4338 780.344L70.7858 785ZM70.9298 776.648C70.9298 775.224 71.9218 774.248 73.4098 774.248C74.7858 774.248 75.8258 775.16 75.8258 776.696C75.8258 777.928 74.8978 779.048 73.2977 779.048C71.8258 779.048 70.9298 778.2 70.9298 776.648ZM78.797 785.224H80.253V783.72H78.797V785.224ZM87.9245 783.816V773.208H86.7565L83.6045 775.928L84.3885 776.872L86.5165 774.968C86.5005 775.08 86.5005 775.224 86.5005 775.368V783.816H83.8925V785H90.2285V783.816H87.9245ZM95.4398 783.704C95.0398 783.704 94.5598 783.768 94.1118 783.896L97.3918 780.648C98.7198 779.32 99.8398 778.104 99.8398 776.36C99.8398 774.28 98.2878 773.064 96.2878 773.064C94.2878 773.064 92.7358 774.232 92.4318 776.392L93.8718 776.632C93.8718 775.288 94.8638 774.328 96.2078 774.328C97.4238 774.328 98.3198 774.984 98.3678 776.392C98.3678 777.768 97.4718 778.776 96.2398 780.088L92.1918 783.976V785H100.064V783.704H95.4398Z" fill="#E50012"/>
<path d="M44.096 875.704C43.696 875.704 43.216 875.768 42.768 875.896L46.048 872.648C47.376 871.32 48.496 870.104 48.496 868.36C48.496 866.28 46.944 865.064 44.944 865.064C42.944 865.064 41.392 866.232 41.088 868.392L42.528 868.632C42.528 867.288 43.52 866.328 44.864 866.328C46.08 866.328 46.976 866.984 47.024 868.392C47.024 869.768 46.128 870.776 44.896 872.088L40.848 875.976V877H48.72V875.704H44.096ZM58.6353 871.16C58.6353 866.984 56.7473 865.08 54.3313 865.08C51.8993 865.08 50.0273 866.984 50.0273 871.16C50.0273 875.32 51.8993 877.224 54.3313 877.224C56.7473 877.224 58.6353 875.32 58.6353 871.16ZM57.1633 871.16C57.1633 874.808 55.8193 876.04 54.3313 876.04C52.8433 876.04 51.5153 874.808 51.5153 871.16C51.5153 867.496 52.8433 866.28 54.3313 866.28C55.8193 866.28 57.1633 867.496 57.1633 871.16ZM63.1585 875.704C62.7585 875.704 62.2785 875.768 61.8305 875.896L65.1105 872.648C66.4385 871.32 67.5585 870.104 67.5585 868.36C67.5585 866.28 66.0065 865.064 64.0065 865.064C62.0065 865.064 60.4545 866.232 60.1505 868.392L61.5905 868.632C61.5905 867.288 62.5825 866.328 63.9265 866.328C65.1425 866.328 66.0385 866.984 66.0865 868.392C66.0865 869.768 65.1905 870.776 63.9585 872.088L59.9105 875.976V877H67.7825V875.704H63.1585ZM77.6978 871.16C77.6978 866.984 75.8098 865.08 73.3938 865.08C70.9618 865.08 69.0898 866.984 69.0898 871.16C69.0898 875.32 70.9618 877.224 73.3938 877.224C75.8098 877.224 77.6978 875.32 77.6978 871.16ZM76.2258 871.16C76.2258 874.808 74.8818 876.04 73.3938 876.04C71.9058 876.04 70.5778 874.808 70.5778 871.16C70.5778 867.496 71.9058 866.28 73.3938 866.28C74.8818 866.28 76.2258 867.496 76.2258 871.16ZM78.797 877.224H80.253V875.72H78.797V877.224ZM87.9245 875.816V865.208H86.7565L83.6045 867.928L84.3885 868.872L86.5165 866.968C86.5005 867.08 86.5005 867.224 86.5005 867.368V875.816H83.8925V877H90.2285V875.816H87.9245ZM95.4398 875.704C95.0398 875.704 94.5598 875.768 94.1118 875.896L97.3918 872.648C98.7198 871.32 99.8398 870.104 99.8398 868.36C99.8398 866.28 98.2878 865.064 96.2878 865.064C94.2878 865.064 92.7358 866.232 92.4318 868.392L93.8718 868.632C93.8718 867.288 94.8638 866.328 96.2078 866.328C97.4238 866.328 98.3198 866.984 98.3678 868.392C98.3678 869.768 97.4718 870.776 96.2398 872.088L92.1918 875.976V877H100.064V875.704H95.4398Z" fill="#E50012"/>
<path d="M51.36 69.832V75.032H47.248V76.12H51.36V84.216H52.672V69.832H51.36ZM42.88 72.28H48.096V71.192H41.568V80.664H42.672C45.408 80.664 47.104 80.568 49.2 80.184L49.04 79.096C47.12 79.48 45.424 79.56 42.88 79.56V72.28ZM68.9748 75.656H66.6068V69.848H65.2948V84.184H66.6068V76.744H68.9748V75.656ZM60.3828 71.08H59.0868V73.656C59.0868 76.264 57.4548 79 55.3908 80.072L56.1748 81.128C57.7908 80.232 59.1188 78.504 59.7428 76.376C60.3828 78.36 61.6788 80.024 63.2148 80.84L64.0308 79.8C62.0308 78.776 60.3828 76.168 60.3828 73.656V71.08ZM81.4215 73.432V69.848H80.1095V78.488H81.4215V74.52H83.5495V73.432H81.4215ZM78.7335 76.136C76.5575 76.52 74.7175 76.6 72.2055 76.6V74.616H77.3415V70.728H70.8775V71.8H76.0455V73.608H70.9095V77.672H72.0455C74.7015 77.672 76.6055 77.592 78.8615 77.208L78.7335 76.136ZM76.8455 78.936C73.9175 78.936 72.1255 79.896 72.1255 81.56C72.1255 83.224 73.9175 84.168 76.8455 84.168C79.7415 84.168 81.5655 83.224 81.5655 81.56C81.5655 79.896 79.7415 78.936 76.8455 78.936ZM76.8455 83.16C74.6535 83.16 73.4055 82.584 73.4055 81.56C73.4055 80.536 74.6535 79.96 76.8455 79.96C79.0375 79.96 80.2695 80.536 80.2695 81.56C80.2695 82.584 79.0375 83.16 76.8455 83.16ZM88.8923 84.856C87.4843 82.536 86.8443 79.96 86.8443 77.16C86.8443 74.36 87.4843 71.784 88.8923 69.464L87.9803 69.048C86.5082 71.432 85.6283 74.024 85.6283 77.16C85.6283 80.312 86.5082 82.904 87.9803 85.288L88.8923 84.856ZM93.6105 83H95.0985V72.52H98.6505V71.272H90.0585V72.52H93.6105V83ZM100.613 83H102.069V76.696C102.949 75.816 103.557 75.368 104.453 75.368C105.605 75.368 106.101 76.024 106.101 77.688V83H107.557V77.496C107.557 75.24 106.773 74.088 104.901 74.088C103.701 74.088 102.837 74.728 102.021 75.544L102.069 73.752V70.264H100.613V83ZM113.835 83.208C115.051 83.208 115.947 82.808 116.715 82.312L116.187 81.352C115.547 81.784 114.859 82.04 114.011 82.04C112.347 82.04 111.243 80.872 111.131 79H116.987C117.035 78.792 117.051 78.488 117.051 78.168C117.051 75.688 115.803 74.088 113.595 74.088C111.579 74.088 109.675 75.848 109.675 78.664C109.675 81.544 111.531 83.208 113.835 83.208ZM111.115 77.96C111.291 76.248 112.379 75.256 113.611 75.256C114.971 75.256 115.771 76.152 115.771 77.96H111.115ZM126.161 83.208C128.609 83.208 130.145 81.736 130.145 79.88C130.145 78.136 129.089 77.336 127.729 76.744L126.049 76.024C125.137 75.64 124.113 75.224 124.113 74.072C124.113 72.984 124.961 72.344 126.305 72.344C127.393 72.344 128.257 72.76 128.977 73.448L129.761 72.504C128.929 71.608 127.713 71.048 126.305 71.048C124.177 71.048 122.609 72.36 122.609 74.168C122.609 75.896 123.921 76.712 124.993 77.176L126.689 77.912C127.793 78.424 128.641 78.792 128.641 79.992C128.641 81.144 127.713 81.912 126.177 81.912C124.961 81.912 123.777 81.352 122.929 80.456L122.049 81.464C123.073 82.552 124.497 83.208 126.161 83.208ZM134.3 83.208C135.388 83.208 136.364 82.76 137.196 82.072H137.244L137.372 83H138.572V77.656C138.572 75.528 137.676 74.088 135.564 74.088C134.156 74.088 132.876 74.6 132.06 75.112L132.636 76.152C133.324 75.688 134.3 75.304 135.324 75.304C136.748 75.304 137.116 76.376 137.116 77.496C133.676 77.544 131.772 78.424 131.772 80.664C131.772 82.248 132.844 83.208 134.3 83.208ZM134.716 82.04C133.82 82.04 133.196 81.592 133.196 80.568C133.196 79.224 134.028 78.664 137.116 78.456V81.032C136.268 81.784 135.564 82.04 134.716 82.04ZM141.347 83H142.803V77.416C143.363 75.928 144.291 75.416 144.995 75.416C145.363 75.416 145.539 75.448 145.843 75.56L146.115 74.28C145.843 74.136 145.571 74.088 145.187 74.088C144.211 74.088 143.347 74.792 142.723 75.896H142.675L142.547 74.312H141.347V83ZM149.097 83.208C150.185 83.208 151.161 82.76 151.993 82.072H152.041L152.169 83H153.369V77.656C153.369 75.528 152.473 74.088 150.361 74.088C148.953 74.088 147.673 74.6 146.857 75.112L147.433 76.152C148.121 75.688 149.097 75.304 150.121 75.304C151.545 75.304 151.913 76.376 151.913 77.496C148.473 77.544 146.569 78.424 146.569 80.664C146.569 82.248 147.641 83.208 149.097 83.208ZM149.513 82.04C148.617 82.04 147.993 81.592 147.993 80.568C147.993 79.224 148.825 78.664 151.913 78.456V81.032C151.065 81.784 150.361 82.04 149.513 82.04ZM156.144 83H157.6V76.696C158.48 75.816 159.088 75.368 159.984 75.368C161.136 75.368 161.632 76.024 161.632 77.688V83H163.088V77.496C163.088 75.24 162.304 74.088 160.432 74.088C159.232 74.088 158.352 74.744 157.52 75.56H157.472L157.344 74.312H156.144V83ZM168.853 87C171.541 87 173.237 85.608 173.237 83.992C173.237 82.568 172.277 81.928 170.213 81.928H168.517C167.349 81.928 166.997 81.544 166.997 80.984C166.997 80.488 167.237 80.216 167.557 79.944C167.957 80.152 168.389 80.248 168.853 80.248C170.597 80.248 172.021 79.08 172.021 77.224C172.021 76.472 171.749 75.832 171.317 75.432H173.093V74.312H170.069C169.765 74.2 169.349 74.088 168.853 74.088C167.109 74.088 165.589 75.288 165.589 77.192C165.589 78.232 166.149 79.064 166.725 79.528V79.592C166.277 79.912 165.749 80.488 165.749 81.208C165.749 81.896 166.085 82.36 166.549 82.632V82.696C165.733 83.224 165.253 83.912 165.253 84.664C165.253 86.168 166.725 87 168.853 87ZM168.853 79.256C167.845 79.256 166.997 78.456 166.997 77.192C166.997 75.912 167.829 75.16 168.853 75.16C169.877 75.16 170.693 75.912 170.693 77.192C170.693 78.456 169.829 79.256 168.853 79.256ZM169.061 86.008C167.461 86.008 166.533 85.432 166.533 84.472C166.533 83.96 166.805 83.448 167.429 83C167.813 83.112 168.229 83.144 168.549 83.144H170.053C171.205 83.144 171.829 83.4 171.829 84.216C171.829 85.128 170.725 86.008 169.061 86.008ZM175.303 85.192C176.791 82.808 177.671 80.216 177.671 77.064C177.671 73.928 176.791 71.336 175.303 68.952L174.407 69.368C175.815 71.688 176.455 74.264 176.455 77.064C176.455 79.864 175.815 82.44 174.407 84.76L175.303 85.192ZM191.951 76.872C189.855 76.232 188.447 74.664 188.447 72.92V72.632H191.615V71.576H188.447V69.768H187.135V71.576H183.951V72.632H187.135V72.92C187.135 74.84 185.695 76.584 183.567 77.224L184.223 78.264C185.903 77.688 187.183 76.52 187.807 74.984C188.447 76.344 189.711 77.384 191.327 77.896L191.951 76.872ZM194.687 73.544V69.832H193.375V78.632H194.687V74.632H196.815V73.544H194.687ZM190.127 78.984C187.167 78.984 185.391 79.912 185.391 81.576C185.391 83.224 187.167 84.152 190.127 84.152C193.055 84.152 194.847 83.24 194.847 81.576C194.847 79.912 193.055 78.984 190.127 78.984ZM190.127 83.144C187.935 83.144 186.703 82.6 186.703 81.576C186.703 80.552 187.935 80.008 190.127 80.008C192.255 80.008 193.535 80.552 193.535 81.576C193.535 82.6 192.255 83.144 190.127 83.144ZM208.766 69.848V73.256H205.838C205.582 71.608 204.11 70.504 202.19 70.504C200.062 70.504 198.494 71.848 198.494 73.816C198.494 75.8 200.062 77.144 202.19 77.144C204.174 77.144 205.598 76.04 205.854 74.328H208.766V77.544H210.094V69.848H208.766ZM202.19 76.056C200.766 76.056 199.742 75.128 199.742 73.816C199.742 72.488 200.766 71.592 202.19 71.592C203.614 71.592 204.638 72.488 204.638 73.816C204.638 75.128 203.614 76.056 202.19 76.056ZM208.782 80.056H202.206V78.248H200.91V83.992H210.094V78.248H208.782V80.056ZM208.782 82.936H202.206V81.08H208.782V82.936Z" fill="black"/>
<path d="M52.624 161.848H51.312V172.44H52.624V161.848ZM49.68 169.416C47.568 168.776 46.048 167.032 46.048 165.176V164.808H49.296V163.752H46.064V161.912H44.752V163.752H41.488V164.808H44.752V165.176C44.752 167.16 43.28 169 41.152 169.688L41.792 170.712C43.52 170.136 44.8 168.904 45.424 167.304C46.08 168.776 47.392 169.912 49.056 170.44L49.68 169.416ZM44.704 174.792V171.464H43.392V175.864H53.056V174.792H44.704ZM64.0948 163.24H60.6388V161.784H59.3268V163.24H55.8548V164.216H64.0948V163.24ZM66.6868 166.84V161.832H65.3748V173.064H66.6868V167.928H68.7988V166.84H66.6868ZM64.5268 169.848C63.2948 170.056 61.9828 170.168 60.6388 170.232V169.208C62.3028 169.032 63.3268 168.248 63.3268 167.016C63.3268 165.656 61.9828 164.824 59.9828 164.824C57.9668 164.824 56.6228 165.656 56.6228 167.016C56.6228 168.248 57.6628 169.032 59.3268 169.208V170.296C57.9188 170.344 56.6548 170.36 55.5028 170.36L55.6468 171.416C58.1588 171.416 61.5828 171.352 64.6228 170.792L64.5268 169.848ZM57.8708 167.016C57.8708 166.248 58.6868 165.752 59.9828 165.752C61.2628 165.752 62.0788 166.248 62.0788 167.016C62.0788 167.832 61.2628 168.296 59.9828 168.296C58.6868 168.296 57.8708 167.832 57.8708 167.016ZM58.9268 172.328H57.6148V175.864H67.1988V174.792H58.9268V172.328ZM80.7815 165.544V167.464H77.0215V168.536H80.7815V170.424H82.1095V161.848H80.7815V164.472H77.5335C77.6455 163.976 77.6935 163.448 77.6935 162.92H71.2135V163.976H76.2695C76.0135 166.488 73.9335 168.36 70.4775 169.384L71.0055 170.424C74.1575 169.512 76.2215 167.896 77.1975 165.544H80.7815ZM77.4215 170.584C74.5255 170.584 72.6695 171.624 72.6695 173.352C72.6695 175.08 74.5255 176.12 77.4215 176.12C80.3175 176.12 82.1735 175.08 82.1735 173.352C82.1735 171.624 80.3175 170.584 77.4215 170.584ZM77.4215 175.096C75.3095 175.096 73.9655 174.44 73.9655 173.352C73.9655 172.264 75.2935 171.624 77.4215 171.624C79.5495 171.624 80.8775 172.264 80.8775 173.352C80.8775 174.44 79.5335 175.096 77.4215 175.096ZM99.8944 162.504H90.2464V167.544H99.8944V162.504ZM98.5984 166.488H91.5264V163.56H98.5984V166.488ZM88.5504 169.176V170.232H94.5184V173.128H95.8304V170.232H101.59V169.176H88.5504ZM91.5264 171.768H90.2144V175.864H100.134V174.792H91.5264V171.768ZM116.293 168.936H114.165C114.565 166.872 114.565 165.352 114.565 164.008V162.76H104.933V163.816H113.285V164.008C113.285 165.352 113.285 166.872 112.837 168.936H103.317V170.008H109.109V176.2H110.437V170.008H116.293V168.936ZM128.132 165.096H119.604V168.904H129.78V167.848H120.916V166.088H129.46V162.392H119.556V163.448H128.132V165.096ZM131.028 170.392H118.004V171.448H121.396V176.2H122.708V171.448H126.324V176.2H127.636V171.448H131.028V170.392ZM137.389 167.56C139.821 167.384 141.917 166.632 142.813 165.304C143.709 166.632 145.805 167.384 148.205 167.56L148.605 166.568C145.933 166.392 143.757 165.496 143.549 164.088H147.965V163.096H143.469V161.736H142.157V163.096H137.645V164.088H142.077C141.869 165.496 139.645 166.392 137.005 166.568L137.389 167.56ZM149.277 169.208V168.2H136.333V169.208H142.141V170.536H137.869V171.512H146.333V172.728H137.917V176.024H148.061V175.032H139.197V173.672H147.629V170.536H143.469V169.208H149.277ZM161.468 161.832V176.216H162.78V161.832H161.468ZM156.124 163.08H154.828V165.656C154.828 168.408 153.068 171.112 150.972 172.136L151.772 173.208C153.452 172.312 154.828 170.584 155.484 168.392C156.172 170.456 157.516 172.12 159.18 172.936L159.964 171.88C157.852 170.936 156.124 168.28 156.124 165.656V163.08Z" fill="black"/>
<path d="M51.36 253.832V258.696H48.032V259.768H51.36V268.2H52.672V253.832H51.36ZM45.872 255.064H44.56V257.64C44.56 260.28 42.928 263.08 40.848 264.104L41.648 265.144C43.264 264.296 44.576 262.472 45.216 260.344C45.872 262.344 47.216 264.072 48.816 264.888L49.584 263.848C47.504 262.872 45.872 260.232 45.872 257.64V255.064ZM62.0468 258.968C65.2628 258.968 67.0868 258.104 67.0868 256.488C67.0868 254.872 65.2628 253.992 62.0468 253.992C58.8948 253.992 57.0068 254.872 57.0068 256.488C57.0068 258.104 58.8948 258.968 62.0468 258.968ZM62.0468 254.984C64.4308 254.984 65.7428 255.528 65.7428 256.488C65.7428 257.448 64.4308 257.992 62.0468 257.992C59.6628 257.992 58.3508 257.448 58.3508 256.488C58.3508 255.528 59.6628 254.984 62.0468 254.984ZM68.5268 260.968V259.912H55.5668V260.968H61.3908V262.312H57.1348V263.304H65.5828V264.584H57.1668V268.024H67.3108V267H58.4468V265.544H66.8788V262.312H62.7028V260.968H68.5268ZM78.3495 255.416H75.0535V253.704H73.7415V255.416H70.3175V256.472H78.3495V255.416ZM80.7815 260.072H78.3495V261.144H80.7815V263.096H82.1095V253.832H80.7815V257.288H78.3655V258.344H80.7815V260.072ZM77.6295 259.864C77.6295 258.264 76.2855 257.208 74.3815 257.208C72.4615 257.208 71.1335 258.264 71.1335 259.864C71.1335 261.48 72.4615 262.536 74.3815 262.536C76.2855 262.536 77.6295 261.48 77.6295 259.864ZM72.3655 259.864C72.3655 258.84 73.1655 258.216 74.3815 258.216C75.5975 258.216 76.3975 258.84 76.3975 259.864C76.3975 260.888 75.5975 261.528 74.3815 261.528C73.1655 261.528 72.3655 260.888 72.3655 259.864ZM77.4055 263.272C74.3815 263.272 72.6215 264.12 72.6215 265.72C72.6215 267.272 74.3815 268.168 77.4055 268.168C80.3655 268.168 82.1735 267.272 82.1735 265.72C82.1735 264.136 80.3655 263.272 77.4055 263.272ZM77.4055 267.16C75.2775 267.16 73.9815 266.632 73.9815 265.72C73.9815 264.76 75.2775 264.28 77.4055 264.28C79.5335 264.28 80.8135 264.76 80.8135 265.72C80.8135 266.632 79.5335 267.16 77.4055 267.16ZM101.99 259.656H99.6224V253.848H98.3104V268.184H99.6224V260.744H101.99V259.656ZM93.3984 255.08H92.1024V257.656C92.1024 260.264 90.4704 263 88.4064 264.072L89.1904 265.128C90.8064 264.232 92.1344 262.504 92.7584 260.376C93.3984 262.36 94.6944 264.024 96.2304 264.84L97.0464 263.8C95.0464 262.776 93.3984 260.168 93.3984 257.656V255.08ZM112.405 255.592H108.709V253.848H107.397V255.592H103.685V256.648H112.405V255.592ZM113.685 253.848V268.184H114.997V253.848H113.685ZM108.709 262.744C110.437 262.536 111.493 261.544 111.493 260.12C111.493 258.504 110.101 257.464 108.053 257.464C105.989 257.464 104.597 258.504 104.597 260.12C104.597 261.592 105.669 262.552 107.397 262.76V264.296C105.973 264.344 104.597 264.36 103.381 264.36L103.573 265.464C106.229 265.464 109.669 265.4 112.869 264.888L112.773 263.912C111.429 264.088 110.069 264.184 108.709 264.248V262.744ZM105.845 260.12C105.845 259.096 106.709 258.472 108.053 258.472C109.349 258.472 110.245 259.096 110.245 260.12C110.245 261.144 109.349 261.752 108.053 261.752C106.709 261.752 105.845 261.144 105.845 260.12ZM128.516 253.832V257.576H125.716V258.648H128.516V262.424H129.828V253.832H128.516ZM126.484 260.84C124.404 260.12 122.996 258.296 122.996 256.456V255.88H126.148V254.808H118.484V255.88H121.684V256.456C121.684 258.504 120.196 260.392 118.068 261.16L118.756 262.2C120.436 261.576 121.732 260.28 122.356 258.616C122.996 260.104 124.228 261.288 125.828 261.864L126.484 260.84ZM120.244 264.264H128.516V268.2H129.828V263.208H120.244V264.264ZM143.203 253.832V268.184H144.515V253.832H143.203ZM133.587 255.384V256.44H138.979C138.707 259.848 136.787 262.6 132.931 264.44L133.635 265.512C138.419 263.16 140.307 259.528 140.307 255.384H133.587ZM157.953 253.848V257.256H155.025C154.769 255.608 153.297 254.504 151.377 254.504C149.249 254.504 147.681 255.848 147.681 257.816C147.681 259.8 149.249 261.144 151.377 261.144C153.361 261.144 154.785 260.04 155.041 258.328H157.953V261.544H159.281V253.848H157.953ZM151.377 260.056C149.953 260.056 148.929 259.128 148.929 257.816C148.929 256.488 149.953 255.592 151.377 255.592C152.801 255.592 153.825 256.488 153.825 257.816C153.825 259.128 152.801 260.056 151.377 260.056ZM157.969 264.056H151.393V262.248H150.097V267.992H159.281V262.248H157.969V264.056ZM157.969 266.936H151.393V265.08H157.969V266.936ZM177.53 253.848H176.218V264.328H177.53V253.848ZM173.578 258.36C173.578 256.296 171.946 254.84 169.818 254.84C167.69 254.84 166.09 256.296 166.09 258.36C166.09 260.44 167.69 261.912 169.818 261.912C171.946 261.912 173.578 260.44 173.578 258.36ZM167.37 258.36C167.37 256.968 168.41 255.976 169.818 255.976C171.242 255.976 172.298 256.968 172.298 258.36C172.298 259.784 171.242 260.776 169.818 260.776C168.41 260.776 167.37 259.784 167.37 258.36ZM169.61 266.792V263.256H168.298V267.864H177.962V266.792H169.61ZM181.673 259.784C184.009 259.48 186.169 258.456 186.969 256.888C187.737 258.472 189.913 259.48 192.265 259.784L192.729 258.744C190.217 258.488 187.865 257.208 187.817 255.624H192.281V254.568H181.673V255.624H186.121C186.041 257.208 183.785 258.488 181.209 258.744L181.673 259.784ZM180.473 260.664V261.72H193.449V260.664H180.473ZM186.953 262.968C183.881 262.968 182.041 263.896 182.041 265.56C182.041 267.24 183.881 268.168 186.953 268.168C190.009 268.168 191.865 267.24 191.865 265.56C191.865 263.896 190.009 262.968 186.953 262.968ZM186.953 267.128C184.697 267.128 183.369 266.584 183.369 265.56C183.369 264.536 184.697 263.992 186.953 263.992C189.209 263.992 190.537 264.536 190.537 265.56C190.537 266.584 189.209 267.128 186.953 267.128Z" fill="black"/>
<path d="M42.128 352.808C44.368 352.424 46.448 351.24 47.344 349.528C48.192 351.24 50.336 352.424 52.56 352.808L53.072 351.768C50.544 351.384 48.064 349.752 48.064 347.864V347.784H52.56V346.728H42.08V347.784H46.608V347.864C46.608 349.752 44.128 351.384 41.632 351.768L42.128 352.808ZM53.824 354.008H40.864V355.08H46.656V360.184H47.968V355.08H53.84L53.824 354.008ZM66.0308 345.848V354.472H67.3428V345.848H66.0308ZM64.2228 352.584C62.0948 351.864 60.6228 349.976 60.6228 347.912V346.504H59.3108V347.912C59.3108 350.024 57.8548 352.072 55.6948 352.84L56.3668 353.88C58.0468 353.24 59.3588 351.944 59.9828 350.216C60.6228 351.816 61.9028 353.032 63.5668 353.624L64.2228 352.584ZM57.7428 356.264H66.0308V360.2H67.3428V355.208H57.7428V356.264ZM79.3895 347.592H75.6935V345.848H74.3815V347.592H70.6695V348.648H79.3895V347.592ZM80.6695 345.848V360.184H81.9815V345.848H80.6695ZM75.6935 354.744C77.4215 354.536 78.4775 353.544 78.4775 352.12C78.4775 350.504 77.0855 349.464 75.0375 349.464C72.9735 349.464 71.5815 350.504 71.5815 352.12C71.5815 353.592 72.6535 354.552 74.3815 354.76V356.296C72.9575 356.344 71.5815 356.36 70.3655 356.36L70.5575 357.464C73.2135 357.464 76.6535 357.4 79.8535 356.888L79.7575 355.912C78.4135 356.088 77.0535 356.184 75.6935 356.248V354.744ZM72.8295 352.12C72.8295 351.096 73.6935 350.472 75.0375 350.472C76.3335 350.472 77.2295 351.096 77.2295 352.12C77.2295 353.144 76.3335 353.752 75.0375 353.752C73.6935 353.752 72.8295 353.144 72.8295 352.12ZM98.4123 351.656H96.0443V345.848H94.7323V360.184H96.0443V352.744H98.4123V351.656ZM89.8203 347.08H88.5243V349.656C88.5243 352.264 86.8923 355 84.8283 356.072L85.6123 357.128C87.2283 356.232 88.5563 354.504 89.1803 352.376C89.8203 354.36 91.1163 356.024 92.6523 356.84L93.4683 355.8C91.4683 354.776 89.8203 352.168 89.8203 349.656V347.08ZM113.813 345.832V351.032H109.701V352.12H113.813V360.216H115.125V345.832H113.813ZM105.333 348.28H110.549V347.192H104.021V356.664H105.125C107.861 356.664 109.557 356.568 111.653 356.184L111.493 355.096C109.573 355.48 107.877 355.56 105.333 355.56V348.28ZM131.428 351.656H129.06V345.848H127.748V360.184H129.06V352.744H131.428V351.656ZM122.836 347.08H121.54V349.656C121.54 352.264 119.908 355 117.844 356.072L118.628 357.128C120.244 356.232 121.572 354.504 122.196 352.376C122.836 354.36 124.132 356.024 125.668 356.84L126.484 355.8C124.484 354.776 122.836 352.168 122.836 349.656V347.08ZM143.875 349.432V345.848H142.563V354.488H143.875V350.52H146.003V349.432H143.875ZM141.187 352.136C139.011 352.52 137.171 352.6 134.659 352.6V350.616H139.795V346.728H133.331V347.8H138.499V349.608H133.363V353.672H134.499C137.155 353.672 139.059 353.592 141.315 353.208L141.187 352.136ZM139.299 354.936C136.371 354.936 134.579 355.896 134.579 357.56C134.579 359.224 136.371 360.168 139.299 360.168C142.195 360.168 144.019 359.224 144.019 357.56C144.019 355.896 142.195 354.936 139.299 354.936ZM139.299 359.16C137.107 359.16 135.859 358.584 135.859 357.56C135.859 356.536 137.107 355.96 139.299 355.96C141.491 355.96 142.723 356.536 142.723 357.56C142.723 358.584 141.491 359.16 139.299 359.16ZM161.532 353.256H162.86V345.848H161.532V348.44H158.411V349.512H161.532V353.256ZM159.42 351.928C157.356 351.24 155.9 349.512 155.9 347.624V346.296H154.604V347.624C154.604 349.688 153.18 351.528 151.02 352.248L151.708 353.288C153.388 352.664 154.668 351.416 155.292 349.8C155.916 351.272 157.148 352.392 158.748 352.952L159.42 351.928ZM154.94 358.952V357.416H162.86V353.976H153.612V355.016H161.564V356.424H153.644V359.992H163.404V358.952H154.94ZM176.218 345.848V353.72H177.53V345.848H176.218ZM174.474 351.896C172.202 352.28 170.346 352.344 167.786 352.344V350.408H172.986V346.536H166.458V347.592H171.69V349.4H166.506V353.416H167.658C170.298 353.416 172.282 353.336 174.618 352.952L174.474 351.896ZM176.234 356.136H169.53V354.44H168.234V359.992H177.53V354.44H176.234V356.136ZM176.234 358.92H169.53V357.16H176.234V358.92Z" fill="black"/>
<path d="M54.256 443.624H51.888V437.848H50.576V452.184H51.888V444.728H54.256V443.624ZM45.68 440.392H48.864V439.304H41.104V440.392H44.384V442.216C44.384 444.648 42.656 447.368 40.608 448.392L41.376 449.432C42.976 448.632 44.4 446.76 45.04 444.68C45.68 446.6 47.04 448.264 48.64 449.08L49.392 448.024C47.312 447.048 45.68 444.504 45.68 442.216V440.392ZM64.6708 439.592H60.9748V437.848H59.6628V439.592H55.9508V440.648H64.6708V439.592ZM65.9508 437.848V452.184H67.2628V437.848H65.9508ZM60.9748 446.744C62.7028 446.536 63.7587 445.544 63.7587 444.12C63.7587 442.504 62.3668 441.464 60.3188 441.464C58.2548 441.464 56.8628 442.504 56.8628 444.12C56.8628 445.592 57.9348 446.552 59.6628 446.76V448.296C58.2388 448.344 56.8628 448.36 55.6468 448.36L55.8388 449.464C58.4948 449.464 61.9348 449.4 65.1348 448.888L65.0388 447.912C63.6948 448.088 62.3348 448.184 60.9748 448.248V446.744ZM58.1108 444.12C58.1108 443.096 58.9748 442.472 60.3188 442.472C61.6148 442.472 62.5108 443.096 62.5108 444.12C62.5108 445.144 61.6148 445.752 60.3188 445.752C58.9748 445.752 58.1108 445.144 58.1108 444.12ZM83.6935 443.656H81.3255V437.848H80.0135V452.184H81.3255V444.744H83.6935V443.656ZM75.1015 439.08H73.8055V441.656C73.8055 444.264 72.1735 447 70.1095 448.072L70.8935 449.128C72.5095 448.232 73.8375 446.504 74.4615 444.376C75.1015 446.36 76.3975 448.024 77.9335 448.84L78.7495 447.8C76.7495 446.776 75.1015 444.168 75.1015 441.656V439.08ZM93.0683 439.416H89.7723V437.704H88.4603V439.416H85.0363V440.472H93.0683V439.416ZM95.5003 444.072H93.0683V445.144H95.5003V447.096H96.8283V437.832H95.5003V441.288H93.0843V442.344H95.5003V444.072ZM92.3483 443.864C92.3483 442.264 91.0043 441.208 89.1003 441.208C87.1803 441.208 85.8523 442.264 85.8523 443.864C85.8523 445.48 87.1803 446.536 89.1003 446.536C91.0043 446.536 92.3483 445.48 92.3483 443.864ZM87.0843 443.864C87.0843 442.84 87.8843 442.216 89.1003 442.216C90.3163 442.216 91.1163 442.84 91.1163 443.864C91.1163 444.888 90.3163 445.528 89.1003 445.528C87.8843 445.528 87.0843 444.888 87.0843 443.864ZM92.1243 447.272C89.1003 447.272 87.3403 448.12 87.3403 449.72C87.3403 451.272 89.1003 452.168 92.1243 452.168C95.0843 452.168 96.8923 451.272 96.8923 449.72C96.8923 448.136 95.0843 447.272 92.1243 447.272ZM92.1243 451.16C89.9963 451.16 88.7003 450.632 88.7003 449.72C88.7003 448.76 89.9963 448.28 92.1243 448.28C94.2523 448.28 95.5323 448.76 95.5323 449.72C95.5323 450.632 94.2523 451.16 92.1243 451.16ZM114.437 441.464V437.848H113.125V446.504H114.437V442.568H116.565V441.464H114.437ZM111.621 444.776C109.493 444.088 108.149 442.392 108.149 440.52V439.96H111.317V438.904H103.621V439.96H106.837V440.52C106.837 442.616 105.413 444.424 103.237 445.192L103.909 446.232C105.637 445.608 106.901 444.376 107.525 442.712C108.149 444.136 109.333 445.272 110.997 445.8L111.621 444.776ZM109.877 446.872C106.933 446.872 105.141 447.848 105.141 449.512C105.141 451.192 106.933 452.168 109.877 452.168C112.773 452.168 114.597 451.192 114.597 449.512C114.597 447.848 112.773 446.872 109.877 446.872ZM109.877 451.128C107.685 451.128 106.453 450.536 106.453 449.512C106.453 448.488 107.685 447.912 109.877 447.912C112.005 447.912 113.285 448.488 113.285 449.512C113.285 450.536 112.005 451.128 109.877 451.128ZM128.964 437.832V443.512H127.028V438.152H125.796V451.48H127.028V444.584H128.964V452.184H130.212V437.832H128.964ZM121.252 439.032C119.396 439.032 118.196 440.968 118.196 444.024C118.196 447.096 119.396 449.032 121.252 449.032C123.124 449.032 124.324 447.096 124.324 444.024C124.324 440.968 123.124 439.032 121.252 439.032ZM121.252 447.816C120.1 447.816 119.396 446.408 119.396 444.024C119.396 441.704 120.1 440.248 121.252 440.248C122.404 440.248 123.108 441.704 123.108 444.024C123.108 446.408 122.404 447.816 121.252 447.816ZM144.515 437.848H143.203V448.328H144.515V437.848ZM140.563 442.36C140.563 440.296 138.931 438.84 136.803 438.84C134.675 438.84 133.075 440.296 133.075 442.36C133.075 444.44 134.675 445.912 136.803 445.912C138.931 445.912 140.563 444.44 140.563 442.36ZM134.355 442.36C134.355 440.968 135.395 439.976 136.803 439.976C138.227 439.976 139.283 440.968 139.283 442.36C139.283 443.784 138.227 444.776 136.803 444.776C135.395 444.776 134.355 443.784 134.355 442.36ZM136.595 450.792V447.256H135.283V451.864H144.947V450.792H136.595ZM156.801 449.368V445.96H159.233V444.904H157.025V440.216H159.249V439.16H148.609V440.216H150.833V444.904H148.641V445.96H151.057V449.368H147.441V450.44H160.465V449.368H156.801ZM152.145 440.216H155.713V444.904H152.145V440.216ZM152.369 445.96H155.489V449.368H152.369V445.96ZM163.456 444.184C165.76 443.848 167.904 442.664 168.672 441.016C169.44 442.664 171.552 443.848 173.888 444.184L174.368 443.128C171.84 442.792 169.52 441.384 169.52 439.624V439.608H173.984V438.552H163.36V439.608H167.824V439.624C167.824 441.368 165.52 442.792 162.96 443.128L163.456 444.184ZM162.144 445.224V446.28H168.112V449.192H169.424V446.28H175.168V445.224H162.144ZM165.12 447.8H163.808V451.864H173.728V450.792H165.12V447.8ZM190.303 443.656H187.935V437.848H186.623V452.184H187.935V444.744H190.303V443.656ZM181.711 439.08H180.415V441.656C180.415 444.264 178.783 447 176.719 448.072L177.503 449.128C179.119 448.232 180.447 446.504 181.071 444.376C181.711 446.36 183.007 448.024 184.543 448.84L185.359 447.8C183.359 446.776 181.711 444.168 181.711 441.656V439.08ZM202.11 437.848V441.256H199.182C198.926 439.608 197.454 438.504 195.534 438.504C193.406 438.504 191.838 439.848 191.838 441.816C191.838 443.8 193.406 445.144 195.534 445.144C197.518 445.144 198.942 444.04 199.198 442.328H202.11V445.544H203.438V437.848H202.11ZM195.534 444.056C194.11 444.056 193.086 443.128 193.086 441.816C193.086 440.488 194.11 439.592 195.534 439.592C196.958 439.592 197.982 440.488 197.982 441.816C197.982 443.128 196.958 444.056 195.534 444.056ZM202.126 448.056H195.55V446.248H194.254V451.992H203.438V446.248H202.126V448.056ZM202.126 450.936H195.55V449.08H202.126V450.936ZM217.468 441.464V437.848H216.156V446.504H217.468V442.568H219.596V441.464H217.468ZM214.652 444.776C212.524 444.088 211.18 442.392 211.18 440.52V439.96H214.348V438.904H206.652V439.96H209.868V440.52C209.868 442.616 208.444 444.424 206.268 445.192L206.94 446.232C208.668 445.608 209.932 444.376 210.556 442.712C211.18 444.136 212.364 445.272 214.028 445.8L214.652 444.776ZM212.908 446.872C209.964 446.872 208.172 447.848 208.172 449.512C208.172 451.192 209.964 452.168 212.908 452.168C215.804 452.168 217.628 451.192 217.628 449.512C217.628 447.848 215.804 446.872 212.908 446.872ZM212.908 451.128C210.716 451.128 209.484 450.536 209.484 449.512C209.484 448.488 210.716 447.912 212.908 447.912C215.036 447.912 216.316 448.488 216.316 449.512C216.316 450.536 215.036 451.128 212.908 451.128ZM236.405 437.848H235.093V448.328H236.405V437.848ZM232.453 442.36C232.453 440.296 230.821 438.84 228.693 438.84C226.565 438.84 224.965 440.296 224.965 442.36C224.965 444.44 226.565 445.912 228.693 445.912C230.821 445.912 232.453 444.44 232.453 442.36ZM226.245 442.36C226.245 440.968 227.285 439.976 228.693 439.976C230.117 439.976 231.173 440.968 231.173 442.36C231.173 443.784 230.117 444.776 228.693 444.776C227.285 444.776 226.245 443.784 226.245 442.36ZM228.485 450.792V447.256H227.173V451.864H236.837V450.792H228.485ZM240.548 443.784C242.884 443.48 245.044 442.456 245.844 440.888C246.612 442.472 248.788 443.48 251.14 443.784L251.604 442.744C249.092 442.488 246.74 441.208 246.692 439.624H251.156V438.568H240.548V439.624H244.996C244.916 441.208 242.66 442.488 240.084 442.744L240.548 443.784ZM239.348 444.664V445.72H252.324V444.664H239.348ZM245.828 446.968C242.756 446.968 240.916 447.896 240.916 449.56C240.916 451.24 242.756 452.168 245.828 452.168C248.884 452.168 250.74 451.24 250.74 449.56C250.74 447.896 248.884 446.968 245.828 446.968ZM245.828 451.128C243.572 451.128 242.244 450.584 242.244 449.56C242.244 448.536 243.572 447.992 245.828 447.992C248.084 447.992 249.412 448.536 249.412 449.56C249.412 450.584 248.084 451.128 245.828 451.128Z" fill="black"/>
<path d="M53.84 536.936H51.712C52.112 534.872 52.112 533.352 52.112 532.008V530.76H42.48V531.816H50.832V532.008C50.832 533.352 50.832 534.872 50.384 536.936H40.864V538.008H46.656V544.2H47.984V538.008H53.84V536.936ZM66.5268 535.688C66.9108 533.896 66.9108 532.632 66.9108 531.528V530.488H57.2148V531.56H65.6148C65.6148 532.648 65.6148 533.912 65.2148 535.688H55.5508V536.76H68.5908V535.688H66.5268ZM65.5988 539.944H58.5428V538.056H57.2468V543.992H66.8948V538.056H65.5988V539.944ZM65.5988 542.936H58.5428V540.968H65.5988V542.936ZM80.7495 529.832V544.184H82.0615V529.832H80.7495ZM71.3575 531.32V532.392H76.6215C76.5575 533.288 76.4295 534.088 76.1575 534.904L70.6215 535.272L70.8455 536.424L75.7415 535.96C74.8455 537.896 73.2615 539.528 70.5735 540.808L71.2775 541.848C76.4455 539.288 77.9175 535.496 77.9175 531.32H71.3575ZM96.5243 537.576H87.9963V535.304H96.0603V534.264H87.9963V532.136H96.3803V531.08H86.6683V538.632H96.5243V537.576ZM84.9883 541.256V542.328H98.0123V541.256H84.9883ZM103.611 544.856C102.203 542.536 101.563 539.96 101.563 537.16C101.563 534.36 102.203 531.784 103.611 529.464L102.699 529.048C101.227 531.432 100.347 534.024 100.347 537.16C100.347 540.312 101.227 542.904 102.699 545.288L103.611 544.856ZM105.881 543H107.369V537.736H111.849V536.488H107.369V532.52H112.649V531.272H105.881V543ZM115.765 543V534.312H114.309V543H115.765ZM115.781 531.016H114.325V532.52H115.781V531.016ZM118.441 543H119.897V537.416C120.457 535.928 121.385 535.416 122.089 535.416C122.457 535.416 122.633 535.448 122.937 535.56L123.209 534.28C122.937 534.136 122.665 534.088 122.281 534.088C121.305 534.088 120.441 534.792 119.817 535.896H119.769L119.641 534.312H118.441V543ZM126.916 543.208C128.964 543.208 130.084 542.04 130.084 540.632C130.084 539 128.692 538.456 127.428 537.992C126.452 537.608 125.508 537.32 125.508 536.488C125.508 535.8 126.004 535.24 127.092 535.24C127.876 535.24 128.468 535.56 129.092 536.008L129.796 535.064C129.108 534.536 128.18 534.088 127.092 534.088C125.204 534.088 124.1 535.192 124.1 536.552C124.1 538.008 125.476 538.632 126.692 539.064C127.652 539.448 128.676 539.832 128.676 540.712C128.676 541.464 128.116 542.072 126.964 542.072C125.924 542.072 125.14 541.672 124.388 541.048L123.668 542.008C124.5 542.696 125.684 543.208 126.916 543.208ZM134.505 543.208C135.033 543.208 135.609 543.064 136.105 542.888L135.817 541.8C135.513 541.912 135.129 542.024 134.825 542.024C133.801 542.024 133.481 541.432 133.481 540.344V535.496H135.833V534.312H133.481V531.88H132.265L132.089 534.312L130.729 534.392V535.496H132.025V540.312C132.025 542.056 132.649 543.208 134.505 543.208ZM148.002 543H149.57L145.586 531.272H143.938L139.954 543H141.458L142.594 539.416H146.882L148.002 543ZM142.962 538.232L143.538 536.44C143.97 535.096 144.338 533.88 144.706 532.472H144.77C145.154 533.832 145.522 535.096 145.954 536.44L146.514 538.232H142.962ZM152.281 543V534.312H150.825V543H152.281ZM152.297 531.016H150.841V532.52H152.297V531.016ZM157.916 543.208C158.956 543.208 159.868 542.664 160.556 541.976H160.588L160.732 543H161.916V530.264H160.46V533.608L160.54 535.112C159.772 534.472 159.116 534.088 158.092 534.088C156.108 534.088 154.332 535.848 154.332 538.664C154.332 541.56 155.74 543.208 157.916 543.208ZM158.236 541.992C156.7 541.992 155.836 540.776 155.836 538.648C155.836 536.664 156.94 535.32 158.348 535.32C159.068 535.32 159.708 535.576 160.46 536.232V540.792C159.74 541.608 159.052 541.992 158.236 541.992ZM168.584 543H170.072V539.288L172.088 536.888L175.592 543H177.256L173.016 535.736L176.68 531.272H175.016L170.12 537.16H170.072V531.272H168.584V543ZM179.984 543V534.312H178.528V543H179.984ZM180 531.016H178.544V532.52H180V531.016ZM185.396 543.208C185.924 543.208 186.5 543.064 186.996 542.888L186.708 541.8C186.404 541.912 186.02 542.024 185.716 542.024C184.692 542.024 184.372 541.432 184.372 540.344V535.496H186.724V534.312H184.372V531.88H183.156L182.98 534.312L181.62 534.392V535.496H182.916V540.312C182.916 542.056 183.539 543.208 185.396 543.208ZM188.803 545.192C190.291 542.808 191.171 540.216 191.171 537.064C191.171 533.928 190.291 531.336 188.803 528.952L187.907 529.368C189.315 531.688 189.955 534.264 189.955 537.064C189.955 539.864 189.315 542.44 187.907 544.76L188.803 545.192ZM207.483 529.832V544.216H208.795V529.832H207.483ZM202.139 531.08H200.843V533.656C200.843 536.408 199.083 539.112 196.987 540.136L197.787 541.208C199.467 540.312 200.843 538.584 201.499 536.392C202.187 538.456 203.531 540.12 205.195 540.936L205.979 539.88C203.867 538.936 202.139 536.28 202.139 533.656V531.08ZM222.234 529.816V544.2H223.546V529.816H222.234ZM213.914 536.296H219.21V531.16H212.554V532.232H217.882V535.224H212.602V540.728H213.786C216.266 540.728 218.41 540.632 221.018 540.2L220.89 539.128C218.394 539.512 216.266 539.64 213.914 539.64V536.296ZM227.673 538.696C229.817 538.264 232.105 536.824 233.001 534.84C233.897 536.792 236.201 538.232 238.377 538.664L238.905 537.608C236.425 537.176 233.673 535.208 233.673 532.952V532.328H238.425V531.256H227.561V532.328H232.313V532.952C232.313 535.192 229.593 537.224 227.113 537.656L227.673 538.696ZM226.489 541.192V542.28H239.513V541.192H226.489ZM245.858 535.56C248.29 535.384 250.386 534.632 251.282 533.304C252.178 534.632 254.274 535.384 256.674 535.56L257.074 534.568C254.402 534.392 252.226 533.496 252.017 532.088H256.434V531.096H251.938V529.736H250.626V531.096H246.114V532.088H250.546C250.338 533.496 248.114 534.392 245.474 534.568L245.858 535.56ZM257.746 537.208V536.2H244.802V537.208H250.61V538.536H246.338V539.512H254.802V540.728H246.386V544.024H256.53V543.032H247.666V541.672H256.098V538.536H251.938V537.208H257.746ZM269.936 529.832V544.216H271.248V529.832H269.936ZM264.592 531.08H263.296V533.656C263.296 536.408 261.536 539.112 259.44 540.136L260.24 541.208C261.92 540.312 263.296 538.584 263.952 536.392C264.64 538.456 265.984 540.12 267.648 540.936L268.432 539.88C266.32 538.936 264.592 536.28 264.592 533.656V531.08Z" fill="black"/>
<path d="M53.84 628.936H51.712C52.112 626.872 52.112 625.352 52.112 624.008V622.76H42.48V623.816H50.832V624.008C50.832 625.352 50.832 626.872 50.384 628.936H40.864V630.008H46.656V636.2H47.984V630.008H53.84V628.936ZM67.9348 629.048C65.4228 628.584 62.7028 626.376 62.7028 623.944V622.84H61.3268V623.944C61.3268 626.408 58.6068 628.536 56.1108 629.048L56.7028 630.136C58.8468 629.624 61.1188 628.088 62.0148 625.992C62.9108 628.104 65.1668 629.624 67.3428 630.136L67.9348 629.048ZM55.5668 633.176V634.264H68.5748V633.176H55.5668ZM77.4375 633.32V630.36H81.8215V629.288H73.2775V627.128H81.3575V626.088H73.2775V624.072H81.6775V623H71.9495V630.36H76.1255V633.32H70.2695V634.408H83.3095V633.32H77.4375ZM95.5003 621.848V627.592H92.1883V628.664H95.5003V636.184H96.8123V621.848H95.5003ZM85.7883 623.32V624.392H90.9403C90.8763 625.288 90.7483 626.104 90.4763 626.92L85.0523 627.272L85.2923 628.408L90.0763 627.96C89.1803 629.88 87.6283 631.512 85.0043 632.792L85.7403 633.832C90.7963 631.272 92.2362 627.496 92.2362 623.32H85.7883ZM110.187 621.848V636.184H111.499V621.848H110.187ZM106.603 624.44H108.203V623.384H100.075V624.44H101.675V631.512C101.339 631.528 101.003 631.528 100.683 631.528H99.723L99.867 632.632C102.475 632.632 105.947 632.6 109.019 632.088L108.939 631.128C108.187 631.24 107.419 631.288 106.603 631.336V624.44ZM102.939 624.44H105.339V631.416C104.523 631.464 103.723 631.48 102.939 631.496V624.44ZM121.396 629.32H119.204V630.392H129.78V629.32H127.588V624.328H129.812V623.272H119.172V624.328H121.396V629.32ZM126.276 629.32H122.708V624.328H126.276V629.32ZM118.02 633.256V634.344H131.028V633.256H118.02ZM139.891 633.336V630.632H144.483V629.576H135.651V627.256H144.147V622.888H134.323V623.96H142.867V626.2H134.355V630.632H138.563V633.336H132.723V634.408H145.763V633.336H139.891ZM158.305 621.848V630.616H159.569V621.848H158.305ZM153.377 625.528V626.6H155.537V630.504H156.785V622.152H155.537V625.528H153.377ZM154.497 628.92C152.705 628.152 151.697 626.456 151.697 624.872V624.072H154.161V623H147.793V624.072H150.433V624.888C150.433 626.6 149.361 628.44 147.521 629.256L148.209 630.264C149.617 629.64 150.593 628.472 151.089 627.064C151.585 628.344 152.497 629.352 153.841 629.928L154.497 628.92ZM149.921 632.312H158.257V636.2H159.569V631.256H149.921V632.312ZM173.696 629.576H165.168V627.304H173.232V626.264H165.168V624.136H173.552V623.08H163.84V630.632H173.696V629.576ZM162.16 633.256V634.328H175.184V633.256H162.16ZM190.969 632.36H192.297V621.848H190.969V625.576H188.297V626.696H190.969V632.36ZM188.553 628.936C186.633 629.272 185.049 629.336 182.361 629.336V627.032H187.401V622.84H181.033V623.896H186.089V626.024H181.065V630.408H182.153C184.969 630.408 186.665 630.344 188.681 630.008L188.553 628.936ZM184.345 634.792V631.576H183.033V635.864H192.729V634.792H184.345ZM204.056 628.872C201.928 628.232 200.392 626.632 200.392 624.824V624.648H203.64V623.592H200.408V621.832H199.096V623.592H195.832V624.648H199.096V624.824C199.096 626.792 197.608 628.52 195.48 629.208L196.12 630.248C197.848 629.672 199.144 628.488 199.768 626.888C200.456 628.296 201.768 629.384 203.448 629.896L204.056 628.872ZM206.968 621.848H205.656V630.632H206.968V621.848ZM202.2 630.936C199.192 630.936 197.384 631.896 197.384 633.56C197.384 635.224 199.192 636.168 202.2 636.168C205.208 636.168 207.016 635.224 207.016 633.56C207.016 631.896 205.208 630.936 202.2 630.936ZM202.2 635.144C200.008 635.144 198.68 634.584 198.68 633.56C198.68 632.536 200.008 631.96 202.2 631.96C204.392 631.96 205.704 632.536 205.704 633.56C205.704 634.584 204.392 635.144 202.2 635.144Z" fill="black"/>
<path d="M50.976 716.696C50.976 718.408 50.992 720.456 50.432 723.192L51.744 723.336C52.304 720.44 52.288 718.488 52.288 716.696V715.272H42.224V716.344H50.976V716.696ZM47.216 725.096V719.96H45.904V725.096H40.864V726.168H53.84V725.096H47.216ZM65.3428 720.936V718.904C66.4468 718.456 67.0868 717.72 67.0868 716.76C67.0868 715.096 65.1668 714.088 62.0468 714.088C58.9427 714.088 57.0068 715.096 57.0068 716.76C57.0068 717.736 57.5988 718.456 58.7668 718.92V720.936H55.5508V721.992H68.5428V720.936H65.3428ZM58.3508 716.76C58.3508 715.72 59.7268 715.112 62.0468 715.112C64.3668 715.112 65.7428 715.72 65.7428 716.76C65.7428 717.784 64.3668 718.408 62.0468 718.408C59.7268 718.408 58.3508 717.784 58.3508 716.76ZM60.0628 719.256C60.6548 719.368 61.3268 719.416 62.0468 719.416C62.8148 719.416 63.4868 719.368 64.0468 719.256V720.936H60.0628V719.256ZM62.0468 723.064C58.9748 723.064 57.1348 723.976 57.1348 725.624C57.1348 727.272 58.9748 728.168 62.0468 728.168C65.1348 728.168 66.9588 727.272 66.9588 725.624C66.9588 723.976 65.1348 723.064 62.0468 723.064ZM62.0468 727.16C59.7908 727.16 58.4628 726.6 58.4628 725.624C58.4628 724.648 59.7908 724.088 62.0468 724.088C64.3028 724.088 65.6308 724.648 65.6308 725.624C65.6308 726.6 64.3028 727.16 62.0468 727.16ZM77.4375 725.256V721.416H81.8215V720.36H73.1815V715.064H71.8695V721.416H76.1255V725.256H70.2695V726.328H83.3095V725.256H77.4375ZM92.1562 720.92V719.256H96.4763V718.2H87.9483V715.544H96.3803V714.488H86.6363V719.256H90.8443V720.92H85.0043V721.976H97.9963V720.92H92.1562ZM91.5003 723C88.4283 723 86.5723 723.928 86.5723 725.592C86.5723 727.256 88.4283 728.184 91.5003 728.184C94.5403 728.184 96.3963 727.256 96.3963 725.592C96.3963 723.928 94.5403 723 91.5003 723ZM91.5003 727.16C89.1803 727.16 87.9003 726.616 87.9003 725.592C87.9003 724.568 89.1803 724.024 91.5003 724.024C93.7563 724.024 95.0683 724.568 95.0683 725.592C95.0683 726.616 93.7563 727.16 91.5003 727.16ZM111.083 714.408H109.771V716.376H102.651V714.408H101.355V720.616H111.083V714.408ZM109.771 719.544H102.651V717.432H109.771V719.544ZM112.731 722.344H99.707V723.4H105.531V728.2H106.843V723.4H112.731V722.344ZM131.428 719.656H129.06V713.848H127.748V728.184H129.06V720.744H131.428V719.656ZM122.836 715.08H121.54V717.656C121.54 720.264 119.908 723 117.844 724.072L118.628 725.128C120.244 724.232 121.572 722.504 122.196 720.376C122.836 722.36 124.132 724.024 125.668 724.84L126.484 723.8C124.484 722.776 122.836 720.168 122.836 717.656V715.08ZM141.843 715.592H138.147V713.848H136.835V715.592H133.123V716.648H141.843V715.592ZM143.123 713.848V728.184H144.435V713.848H143.123ZM138.147 722.744C139.875 722.536 140.931 721.544 140.931 720.12C140.931 718.504 139.539 717.464 137.491 717.464C135.427 717.464 134.035 718.504 134.035 720.12C134.035 721.592 135.107 722.552 136.835 722.76V724.296C135.411 724.344 134.035 724.36 132.819 724.36L133.011 725.464C135.667 725.464 139.107 725.4 142.307 724.888L142.211 723.912C140.867 724.088 139.507 724.184 138.147 724.248V722.744ZM135.283 720.12C135.283 719.096 136.147 718.472 137.491 718.472C138.787 718.472 139.683 719.096 139.683 720.12C139.683 721.144 138.787 721.752 137.491 721.752C136.147 721.752 135.283 721.144 135.283 720.12ZM157.953 713.832V717.576H155.153V718.648H157.953V722.424H159.265V713.832H157.953ZM155.921 720.84C153.841 720.12 152.433 718.296 152.433 716.456V715.88H155.585V714.808H147.921V715.88H151.121V716.456C151.121 718.504 149.633 720.392 147.505 721.16L148.193 722.2C149.873 721.576 151.169 720.28 151.793 718.616C152.433 720.104 153.665 721.288 155.265 721.864L155.921 720.84ZM149.681 724.264H157.953V728.2H159.265V723.208H149.681V724.264ZM172.64 713.832V728.184H173.952V713.832H172.64ZM163.024 715.384V716.44H168.416C168.144 719.848 166.224 722.6 162.368 724.44L163.072 725.512C167.856 723.16 169.744 719.528 169.744 715.384H163.024ZM187.391 713.848V717.256H184.463C184.207 715.608 182.735 714.504 180.815 714.504C178.687 714.504 177.119 715.848 177.119 717.816C177.119 719.8 178.687 721.144 180.815 721.144C182.799 721.144 184.223 720.04 184.479 718.328H187.391V721.544H188.719V713.848H187.391ZM180.815 720.056C179.391 720.056 178.367 719.128 178.367 717.816C178.367 716.488 179.391 715.592 180.815 715.592C182.239 715.592 183.263 716.488 183.263 717.816C183.263 719.128 182.239 720.056 180.815 720.056ZM187.407 724.056H180.831V722.248H179.535V727.992H188.719V722.248H187.407V724.056ZM187.407 726.936H180.831V725.08H187.407V726.936ZM206.968 713.848H205.656V724.328H206.968V713.848ZM203.016 718.36C203.016 716.296 201.384 714.84 199.256 714.84C197.128 714.84 195.528 716.296 195.528 718.36C195.528 720.44 197.128 721.912 199.256 721.912C201.384 721.912 203.016 720.44 203.016 718.36ZM196.808 718.36C196.808 716.968 197.848 715.976 199.256 715.976C200.68 715.976 201.736 716.968 201.736 718.36C201.736 719.784 200.68 720.776 199.256 720.776C197.848 720.776 196.808 719.784 196.808 718.36ZM199.048 726.792V723.256H197.736V727.864H207.4V726.792H199.048ZM211.111 719.784C213.447 719.48 215.607 718.456 216.407 716.888C217.175 718.472 219.351 719.48 221.703 719.784L222.167 718.744C219.655 718.488 217.303 717.208 217.255 715.624H221.719V714.568H211.111V715.624H215.559C215.479 717.208 213.223 718.488 210.647 718.744L211.111 719.784ZM209.911 720.664V721.72H222.887V720.664H209.911ZM216.391 722.968C213.319 722.968 211.479 723.896 211.479 725.56C211.479 727.24 213.319 728.168 216.391 728.168C219.447 728.168 221.303 727.24 221.303 725.56C221.303 723.896 219.447 722.968 216.391 722.968ZM216.391 727.128C214.135 727.128 212.807 726.584 212.807 725.56C212.807 724.536 214.135 723.992 216.391 723.992C218.647 723.992 219.975 724.536 219.975 725.56C219.975 726.584 218.647 727.128 216.391 727.128Z" fill="black"/>
<path d="M47.872 807.24H44.976V805.8H43.68V807.24H40.768V808.248H47.872V807.24ZM52.96 805.848H51.696V813.864H52.96V805.848ZM47.52 809.608V810.664H49.104V813.768H50.352V806.072H49.104V809.608H47.52ZM47.296 811.208C47.296 809.752 46.08 808.824 44.336 808.824C42.576 808.824 41.36 809.752 41.36 811.208C41.36 812.632 42.576 813.576 44.336 813.576C46.08 813.576 47.296 812.632 47.296 811.208ZM42.512 811.208C42.512 810.312 43.248 809.784 44.336 809.784C45.424 809.784 46.144 810.312 46.144 811.208C46.144 812.104 45.424 812.632 44.336 812.632C43.248 812.632 42.512 812.104 42.512 811.208ZM44.816 819.032V817.672H52.96V814.504H43.488V815.48H51.664V816.728H43.52V820.024H53.472V819.032H44.816ZM62.7188 817.336V814.632H67.3108V813.576H58.4788V811.256H66.9748V806.888H57.1508V807.96H65.6948V810.2H57.1828V814.632H61.3908V817.336H55.5508V818.408H68.5908V817.336H62.7188ZM81.9655 805.832H80.6535V816.744H81.9655V805.832ZM75.0215 811.736C77.1495 811.736 78.6215 810.696 78.6215 809.096C78.6215 807.48 77.1495 806.44 75.0215 806.44C72.8935 806.44 71.4215 807.48 71.4215 809.096C71.4215 810.696 72.8935 811.736 75.0215 811.736ZM75.0215 807.432C76.4455 807.432 77.3735 808.072 77.3735 809.096C77.3735 810.12 76.4455 810.744 75.0215 810.744C73.6135 810.744 72.6695 810.12 72.6695 809.096C72.6695 808.072 73.6135 807.432 75.0215 807.432ZM74.5895 816.264H75.9015V813.768C77.1815 813.688 78.4455 813.544 79.7255 813.352L79.6295 812.392C76.5575 812.824 72.9895 812.84 70.3175 812.84L70.4935 813.928C71.7095 813.928 73.1175 813.912 74.5895 813.832V816.264ZM73.6295 818.792V815.768H72.3175V819.864H82.3815V818.792H73.6295ZM95.5163 805.816V811.24H92.5563V812.328H95.5163V820.2H96.8283V805.816H95.5163ZM86.9723 812.232H91.6763V811.176H86.9723V808.216H92.3003V807.128H85.6603V816.744H86.7643C89.5003 816.744 91.2443 816.68 93.3243 816.296L93.1803 815.224C91.2123 815.56 89.5803 815.672 86.9723 815.672V812.232ZM113.765 805.832V820.184H115.077V805.832H113.765ZM104.149 807.384V808.44H109.541C109.269 811.848 107.349 814.6 103.493 816.44L104.197 817.512C108.981 815.16 110.869 811.528 110.869 807.384H104.149ZM121.396 813.32H119.204V814.392H129.78V813.32H127.588V808.328H129.812V807.272H119.172V808.328H121.396V813.32ZM126.276 813.32H122.708V808.328H126.276V813.32ZM118.02 817.256V818.344H131.028V817.256H118.02ZM144.259 813.576H135.731V811.304H143.795V810.264H135.731V808.136H144.115V807.08H134.403V814.632H144.259V813.576ZM132.723 817.256V818.328H145.747V817.256H132.723ZM161.98 805.832V820.184H163.228V805.832H161.98ZM159.068 810.984H156.7V812.072H159.068V819.48H160.3V806.152H159.068V810.984ZM155.292 807.192H154.028V809.928C154.028 812.408 152.844 814.968 150.876 816.12L151.692 817.112C153.116 816.216 154.156 814.632 154.668 812.696C155.18 814.44 156.14 815.96 157.5 816.792L158.252 815.768C156.38 814.616 155.292 812.184 155.292 809.88V807.192ZM177.274 813.576H168.746V811.304H176.81V810.264H168.746V808.136H177.13V807.08H167.418V814.632H177.274V813.576ZM165.738 817.256V818.328H178.762V817.256H165.738ZM185.123 811.56C187.555 811.384 189.651 810.632 190.547 809.304C191.443 810.632 193.539 811.384 195.939 811.56L196.339 810.568C193.667 810.392 191.491 809.496 191.283 808.088H195.699V807.096H191.203V805.736H189.891V807.096H185.379V808.088H189.811C189.603 809.496 187.379 810.392 184.739 810.568L185.123 811.56ZM197.011 813.208V812.2H184.067V813.208H189.875V814.536H185.603V815.512H194.067V816.728H185.651V820.024H195.795V819.032H186.931V817.672H195.363V814.536H191.203V813.208H197.011ZM209.202 805.832V820.216H210.514V805.832H209.202ZM203.858 807.08H202.562V809.656C202.562 812.408 200.802 815.112 198.706 816.136L199.506 817.208C201.186 816.312 202.562 814.584 203.218 812.392C203.906 814.456 205.25 816.12 206.914 816.936L207.698 815.88C205.586 814.936 203.858 812.28 203.858 809.656V807.08Z" fill="black"/>
<path d="M51.36 897.832V903.032H47.248V904.12H51.36V912.216H52.672V897.832H51.36ZM42.88 900.28H48.096V899.192H41.568V908.664H42.672C45.408 908.664 47.104 908.568 49.2 908.184L49.04 907.096C47.12 907.48 45.424 907.56 42.88 907.56V900.28ZM68.9748 903.656H66.6068V897.848H65.2948V912.184H66.6068V904.744H68.9748V903.656ZM60.3828 899.08H59.0868V901.656C59.0868 904.264 57.4548 907 55.3908 908.072L56.1748 909.128C57.7908 908.232 59.1188 906.504 59.7428 904.376C60.3828 906.36 61.6788 908.024 63.2148 908.84L64.0308 907.8C62.0308 906.776 60.3828 904.168 60.3828 901.656V899.08ZM81.4215 901.432V897.848H80.1095V906.488H81.4215V902.52H83.5495V901.432H81.4215ZM78.7335 904.136C76.5575 904.52 74.7175 904.6 72.2055 904.6V902.616H77.3415V898.728H70.8775V899.8H76.0455V901.608H70.9095V905.672H72.0455C74.7015 905.672 76.6055 905.592 78.8615 905.208L78.7335 904.136ZM76.8455 906.936C73.9175 906.936 72.1255 907.896 72.1255 909.56C72.1255 911.224 73.9175 912.168 76.8455 912.168C79.7415 912.168 81.5655 911.224 81.5655 909.56C81.5655 907.896 79.7415 906.936 76.8455 906.936ZM76.8455 911.16C74.6535 911.16 73.4055 910.584 73.4055 909.56C73.4055 908.536 74.6535 907.96 76.8455 907.96C79.0375 907.96 80.2695 908.536 80.2695 909.56C80.2695 910.584 79.0375 911.16 76.8455 911.16ZM101.99 903.656H99.6224V897.848H98.3104V912.184H99.6224V904.744H101.99V903.656ZM93.3984 899.08H92.1024V901.656C92.1024 904.264 90.4704 907 88.4064 908.072L89.1904 909.128C90.8064 908.232 92.1344 906.504 92.7584 904.376C93.3984 906.36 94.6944 908.024 96.2304 908.84L97.0464 907.8C95.0464 906.776 93.3984 904.168 93.3984 901.656V899.08ZM113.797 897.848V901.256H110.869C110.613 899.608 109.141 898.504 107.221 898.504C105.093 898.504 103.525 899.848 103.525 901.816C103.525 903.8 105.093 905.144 107.221 905.144C109.205 905.144 110.629 904.04 110.885 902.328H113.797V905.544H115.125V897.848H113.797ZM107.221 904.056C105.797 904.056 104.773 903.128 104.773 901.816C104.773 900.488 105.797 899.592 107.221 899.592C108.645 899.592 109.669 900.488 109.669 901.816C109.669 903.128 108.645 904.056 107.221 904.056ZM113.813 908.056H107.237V906.248H105.941V911.992H115.125V906.248H113.813V908.056ZM113.813 910.936H107.237V909.08H113.813V910.936ZM129.156 901.464V897.848H127.844V906.504H129.156V902.568H131.284V901.464H129.156ZM126.34 904.776C124.212 904.088 122.868 902.392 122.868 900.52V899.96H126.036V898.904H118.34V899.96H121.556V900.52C121.556 902.616 120.132 904.424 117.956 905.192L118.628 906.232C120.356 905.608 121.62 904.376 122.244 902.712C122.868 904.136 124.052 905.272 125.716 905.8L126.34 904.776ZM124.596 906.872C121.652 906.872 119.86 907.848 119.86 909.512C119.86 911.192 121.652 912.168 124.596 912.168C127.492 912.168 129.316 911.192 129.316 909.512C129.316 907.848 127.492 906.872 124.596 906.872ZM124.596 911.128C122.404 911.128 121.172 910.536 121.172 909.512C121.172 908.488 122.404 907.912 124.596 907.912C126.724 907.912 128.004 908.488 128.004 909.512C128.004 910.536 126.724 911.128 124.596 911.128ZM146.749 897.832V912.216H148.061V897.832H146.749ZM140.493 898.936C138.365 898.936 136.845 900.888 136.845 903.944C136.845 907 138.365 908.952 140.493 908.952C142.621 908.952 144.141 907 144.141 903.944C144.141 900.888 142.621 898.936 140.493 898.936ZM140.493 900.12C141.885 900.12 142.877 901.624 142.877 903.944C142.877 906.28 141.885 907.784 140.493 907.784C139.085 907.784 138.093 906.28 138.093 903.944C138.093 901.624 139.085 900.12 140.493 900.12ZM158.652 901.8V902.872H161.532V908.36H162.86V897.848H161.532V901.8H158.652ZM159.5 905.176C157.42 904.456 156.012 902.632 156.012 900.776V900.072H159.164V899H151.5V900.072H154.7V900.792C154.7 902.824 153.212 904.728 151.084 905.496L151.772 906.52C153.452 905.896 154.764 904.616 155.388 902.952C156.012 904.424 157.244 905.624 158.844 906.2L159.5 905.176ZM155.004 910.792V907.432H153.676V911.864H163.26V910.792H155.004Z" fill="black"/>
<line x1="8.5" y1="42" x2="8.50004" y2="872" stroke="#E50012"/>
<line x1="8.5" y1="877" x2="8.5" y2="917" stroke="#E50012" stroke-dasharray="1 2"/>
<line x1="8.5" y1="-2.18557e-08" x2="8.5" y2="40" stroke="#E50012" stroke-dasharray="1 2"/>
<circle cx="8" cy="688" r="7.5" fill="#F2F2F2" stroke="#E50012"/>
<circle cx="8" cy="688" r="4" fill="#E50012"/>
<circle cx="8" cy="780" r="7.5" fill="#F2F2F2" stroke="#E50012"/>
<circle cx="8" cy="780" r="4" fill="#E50012"/>
<circle cx="8" cy="872" r="7.5" fill="#F2F2F2" stroke="#E50012"/>
<circle cx="8" cy="872" r="4" fill="#E50012"/>
<circle cx="8" cy="596" r="7.5" fill="#F2F2F2" stroke="#E50012"/>
<circle cx="8" cy="596" r="4" fill="#E50012"/>
<circle cx="8" cy="504" r="7.5" fill="#F2F2F2" stroke="#E50012"/>
<circle cx="8" cy="504" r="4" fill="#E50012"/>
<circle cx="8" cy="412" r="7.5" fill="#F2F2F2" stroke="#E50012"/>
<circle cx="8" cy="412" r="4" fill="#E50012"/>
<circle cx="8" cy="320" r="7.5" fill="#F2F2F2" stroke="#E50012"/>
<circle cx="8" cy="320" r="4" fill="#E50012"/>
<circle cx="8" cy="228" r="7.5" fill="#F2F2F2" stroke="#E50012"/>
<circle cx="8" cy="228" r="4" fill="#E50012"/>
<circle cx="8" cy="136" r="7.5" fill="#F2F2F2" stroke="#E50012"/>
<circle cx="8" cy="136" r="4" fill="#E50012"/>
<circle cx="8" cy="44" r="7.5" fill="#F2F2F2" stroke="#E50012"/>
<circle cx="8" cy="44" r="4" fill="#E50012"/>
</svg>
