<svg width="1063" height="596" viewBox="0 0 1063 596" fill="none" xmlns="http://www.w3.org/2000/svg">
<path d="M13.2184 114.348H969.68C994.204 114.362 1017.72 124.114 1035.05 141.459C1052.39 158.805 1062.13 182.324 1062.13 206.848C1062.13 231.366 1052.39 254.88 1035.05 272.218C1017.71 289.555 994.199 299.295 969.68 299.295H105.447C93.2883 299.294 81.2485 301.691 70.0176 306.35C58.7866 311.01 48.5852 317.839 39.9976 326.446C31.41 335.054 24.605 345.272 19.9723 356.514C15.3397 367.756 12.9704 379.801 13.0003 391.96V391.96C13.0696 416.438 22.8384 439.89 40.1666 457.179C57.4948 474.468 80.9694 484.184 105.447 484.198H1063" stroke="#E50012" stroke-miterlimit="10" stroke-dasharray="2.83 2.83"/>
<path d="M102.227 484.215H979.227" stroke="#E50012" stroke-width="2.83" stroke-miterlimit="10"/>
<path d="M102.227 114.217H979.227" stroke="#E50012" stroke-width="2.83" stroke-miterlimit="10"/>
<path d="M109.645 121.242C113.741 121.242 117.062 117.921 117.062 113.825C117.062 109.728 113.741 106.407 109.645 106.407C105.548 106.407 102.227 109.728 102.227 113.825C102.227 117.921 105.548 121.242 109.645 121.242Z" fill="white" stroke="#E50012" stroke-miterlimit="10"/>
<path d="M109.645 117.315C111.572 117.315 113.135 115.752 113.135 113.825C113.135 111.897 111.572 110.334 109.645 110.334C107.717 110.334 106.154 111.897 106.154 113.825C106.154 115.752 107.717 117.315 109.645 117.315Z" fill="#E50012"/>
<path d="M110.517 104.226V68.4475" stroke="#E50012" stroke-miterlimit="10" stroke-dasharray="2.83 2.83"/>
<path d="M461.841 121.242C465.937 121.242 469.258 117.921 469.258 113.825C469.258 109.728 465.937 106.407 461.841 106.407C457.744 106.407 454.423 109.728 454.423 113.825C454.423 117.921 457.744 121.242 461.841 121.242Z" fill="white" stroke="#E50012" stroke-miterlimit="10"/>
<path d="M461.841 117.315C463.769 117.315 465.331 115.752 465.331 113.825C465.331 111.897 463.769 110.334 461.841 110.334C459.913 110.334 458.35 111.897 458.35 113.825C458.35 115.752 459.913 117.315 461.841 117.315Z" fill="#E50012"/>
<path d="M462.713 104.226V68.4475" stroke="#E50012" stroke-miterlimit="10" stroke-dasharray="2.83 2.83"/>
<path d="M799.202 121.242C803.299 121.242 806.619 117.921 806.619 113.825C806.619 109.728 803.299 106.407 799.202 106.407C795.105 106.407 791.785 109.728 791.785 113.825C791.785 117.921 795.105 121.242 799.202 121.242Z" fill="white" stroke="#E50012" stroke-miterlimit="10"/>
<path d="M799.202 117.315C801.13 117.315 802.693 115.752 802.693 113.825C802.693 111.897 801.13 110.334 799.202 110.334C797.274 110.334 795.711 111.897 795.711 113.825C795.711 115.752 797.274 117.315 799.202 117.315Z" fill="#E50012"/>
<path d="M800.075 104.226V68.4475" stroke="#E50012" stroke-miterlimit="10" stroke-dasharray="2.83 2.83"/>
<path d="M634.23 121.678C638.317 121.678 641.63 118.357 641.63 114.261C641.63 110.164 638.317 106.844 634.23 106.844C630.143 106.844 626.83 110.164 626.83 114.261C626.83 118.357 630.143 121.678 634.23 121.678Z" fill="white" stroke="#E50012" stroke-miterlimit="10"/>
<path d="M634.23 117.751C636.153 117.751 637.712 116.189 637.712 114.261C637.712 112.333 636.153 110.77 634.23 110.77C632.307 110.77 630.748 112.333 630.748 114.261C630.748 116.189 632.307 117.751 634.23 117.751Z" fill="#E50012"/>
<path d="M634.23 123.86V159.638" stroke="#E50012" stroke-miterlimit="10" stroke-dasharray="2.83 2.83"/>
<path d="M289.233 121.678C293.33 121.678 296.651 118.357 296.651 114.261C296.651 110.164 293.33 106.844 289.233 106.844C285.137 106.844 281.816 110.164 281.816 114.261C281.816 118.357 285.137 121.678 289.233 121.678Z" fill="white" stroke="#E50012" stroke-miterlimit="10"/>
<path d="M289.233 117.751C291.161 117.751 292.724 116.189 292.724 114.261C292.724 112.333 291.161 110.77 289.233 110.77C287.306 110.77 285.743 112.333 285.743 114.261C285.743 116.189 287.306 117.751 289.233 117.751Z" fill="#E50012"/>
<path d="M289.233 123.86V159.638" stroke="#E50012" stroke-miterlimit="10" stroke-dasharray="2.83 2.83"/>
<path d="M461.841 491.24C465.937 491.24 469.258 487.919 469.258 483.822C469.258 479.726 465.937 476.405 461.841 476.405C457.744 476.405 454.423 479.726 454.423 483.822C454.423 487.919 457.744 491.24 461.841 491.24Z" fill="white" stroke="#E50012" stroke-miterlimit="10"/>
<path d="M461.841 487.313C463.769 487.313 465.331 485.75 465.331 483.822C465.331 481.895 463.769 480.332 461.841 480.332C459.913 480.332 458.35 481.895 458.35 483.822C458.35 485.75 459.913 487.313 461.841 487.313Z" fill="#E50012"/>
<path d="M462.713 474.223V438.445" stroke="#E50012" stroke-miterlimit="10" stroke-dasharray="2.83 2.83"/>
<path d="M799.202 491.24C803.299 491.24 806.619 487.919 806.619 483.822C806.619 479.726 803.299 476.405 799.202 476.405C795.105 476.405 791.785 479.726 791.785 483.822C791.785 487.919 795.105 491.24 799.202 491.24Z" fill="white" stroke="#E50012" stroke-miterlimit="10"/>
<path d="M799.202 487.313C801.13 487.313 802.693 485.75 802.693 483.822C802.693 481.895 801.13 480.332 799.202 480.332C797.274 480.332 795.711 481.895 795.711 483.822C795.711 485.75 797.274 487.313 799.202 487.313Z" fill="#E50012"/>
<path d="M800.075 474.223V438.445" stroke="#E50012" stroke-miterlimit="10" stroke-dasharray="2.83 2.83"/>
<path d="M979.227 491.676C983.324 491.676 986.644 488.355 986.644 484.259C986.644 480.162 983.324 476.841 979.227 476.841C975.13 476.841 971.81 480.162 971.81 484.259C971.81 488.355 975.13 491.676 979.227 491.676Z" fill="white" stroke="#E50012" stroke-miterlimit="10"/>
<path d="M979.227 487.749C981.155 487.749 982.717 486.187 982.717 484.259C982.717 482.331 981.155 480.768 979.227 480.768C977.299 480.768 975.736 482.331 975.736 484.259C975.736 486.187 977.299 487.749 979.227 487.749Z" fill="#E50012"/>
<path d="M979.227 493.858V529.636" stroke="#E50012" stroke-miterlimit="10" stroke-dasharray="2.83 2.83"/>
<path d="M634.23 491.676C638.317 491.676 641.63 488.355 641.63 484.259C641.63 480.162 638.317 476.841 634.23 476.841C630.143 476.841 626.83 480.162 626.83 484.259C626.83 488.355 630.143 491.676 634.23 491.676Z" fill="white" stroke="#E50012" stroke-miterlimit="10"/>
<path d="M634.23 487.749C636.153 487.749 637.712 486.187 637.712 484.259C637.712 482.331 636.153 480.768 634.23 480.768C632.307 480.768 630.748 482.331 630.748 484.259C630.748 486.187 632.307 487.749 634.23 487.749Z" fill="#E50012"/>
<path d="M634.23 493.858V529.636" stroke="#E50012" stroke-miterlimit="10" stroke-dasharray="2.83 2.83"/>
<path d="M289.233 491.676C293.33 491.676 296.651 488.355 296.651 484.259C296.651 480.162 293.33 476.841 289.233 476.841C285.137 476.841 281.816 480.162 281.816 484.259C281.816 488.355 285.137 491.676 289.233 491.676Z" fill="white" stroke="#E50012" stroke-miterlimit="10"/>
<path d="M289.233 487.749C291.161 487.749 292.724 486.187 292.724 484.259C292.724 482.331 291.161 480.768 289.233 480.768C287.306 480.768 285.743 482.331 285.743 484.259C285.743 486.187 287.306 487.749 289.233 487.749Z" fill="#E50012"/>
<path d="M289.233 493.858V529.636" stroke="#E50012" stroke-miterlimit="10" stroke-dasharray="2.83 2.83"/>
<path d="M83.94 45.04H78.82C78.18 45.04 77.52 45.16 76.9 45.32L80.66 41.52C82.14 40.04 83.68 38.46 83.68 36.22C83.68 33.54 81.64 32.06 79.16 32.06C76.42 32.06 74.58 33.64 74.2 36.28L76.4 36.68C76.28 35.1 77.46 33.94 79.04 33.94C81.88 33.94 81.76 36.74 80.76 38.54C80.24 39.36 79.6 40.04 78.92 40.72L73.94 45.72V47H83.94V45.04Z" fill="#E50012"/>
<path d="M96.2541 39.62C96.2541 36.22 95.0341 32.06 90.8541 32.06C86.7341 32.06 85.4741 36.1 85.4741 39.62C85.4741 43.14 86.7341 47.16 90.8541 47.16C94.9741 47.16 96.2541 43.14 96.2541 39.62ZM93.9741 39.62C93.9741 41.68 93.6141 45.32 90.8541 45.32C88.1141 45.32 87.7341 41.68 87.7341 39.62C87.7341 37.56 88.0941 33.92 90.8541 33.92C93.6141 33.92 93.9741 37.56 93.9741 39.62Z" fill="#E50012"/>
<path d="M102.388 35.06C102.368 35.4 102.368 35.74 102.368 36.06V45.08H99.2881V47H107.348V45.08H104.568V32.18H102.768L98.7681 35.6L99.9881 37.08L102.388 35.06Z" fill="#E50012"/>
<path d="M120.082 39.62C120.082 36.22 118.862 32.06 114.682 32.06C110.562 32.06 109.302 36.1 109.302 39.62C109.302 43.14 110.562 47.16 114.682 47.16C118.802 47.16 120.082 43.14 120.082 39.62ZM117.802 39.62C117.802 41.68 117.442 45.32 114.682 45.32C111.942 45.32 111.562 41.68 111.562 39.62C111.562 37.56 111.922 33.92 114.682 33.92C117.442 33.92 117.802 37.56 117.802 39.62Z" fill="#E50012"/>
<path d="M123.896 44.78H121.536V47.26H123.896V44.78Z" fill="#E50012"/>
<path d="M131.269 47L135.109 41.5C136.109 40.04 136.809 38.7 136.809 36.88C136.809 33.92 134.829 32.06 131.989 32.06C129.209 32.06 127.009 34 127.009 36.78C127.009 39.26 128.689 41.02 131.129 41.02C132.069 41.02 132.949 40.78 133.709 40.24L133.009 41.2L128.469 47H131.269ZM129.209 36.62C129.209 34.98 130.369 33.88 131.949 33.88C133.649 33.88 134.689 35.02 134.689 36.64C134.689 38.24 133.529 39.34 131.889 39.34C130.189 39.34 129.209 38.3 129.209 36.62Z" fill="#E50012"/>
<path d="M260.94 188.04H255.82C255.18 188.04 254.52 188.16 253.9 188.32L257.66 184.52C259.14 183.04 260.68 181.46 260.68 179.22C260.68 176.54 258.64 175.06 256.16 175.06C253.42 175.06 251.58 176.64 251.2 179.28L253.4 179.68C253.28 178.1 254.46 176.94 256.04 176.94C258.88 176.94 258.76 179.74 257.76 181.54C257.24 182.36 256.6 183.04 255.92 183.72L250.94 188.72V190H260.94V188.04Z" fill="#E50012"/>
<path d="M273.254 182.62C273.254 179.22 272.034 175.06 267.854 175.06C263.734 175.06 262.474 179.1 262.474 182.62C262.474 186.14 263.734 190.16 267.854 190.16C271.974 190.16 273.254 186.14 273.254 182.62ZM270.974 182.62C270.974 184.68 270.614 188.32 267.854 188.32C265.114 188.32 264.734 184.68 264.734 182.62C264.734 180.56 265.094 176.92 267.854 176.92C270.614 176.92 270.974 180.56 270.974 182.62Z" fill="#E50012"/>
<path d="M279.388 178.06C279.368 178.4 279.368 178.74 279.368 179.06V188.08H276.288V190H284.348V188.08H281.568V175.18H279.768L275.768 178.6L276.988 180.08L279.388 178.06Z" fill="#E50012"/>
<path d="M297.082 182.62C297.082 179.22 295.862 175.06 291.682 175.06C287.562 175.06 286.302 179.1 286.302 182.62C286.302 186.14 287.562 190.16 291.682 190.16C295.802 190.16 297.082 186.14 297.082 182.62ZM294.802 182.62C294.802 184.68 294.442 188.32 291.682 188.32C288.942 188.32 288.562 184.68 288.562 182.62C288.562 180.56 288.922 176.92 291.682 176.92C294.442 176.92 294.802 180.56 294.802 182.62Z" fill="#E50012"/>
<path d="M300.896 187.78H298.536V190.26H300.896V187.78Z" fill="#E50012"/>
<path d="M308.509 178.06C308.489 178.4 308.489 178.74 308.489 179.06V188.08H305.409V190H313.469V188.08H310.689V175.18H308.889L304.889 178.6L306.109 180.08L308.509 178.06Z" fill="#E50012"/>
<path d="M325.803 188.04H320.683C320.043 188.04 319.383 188.16 318.763 188.32L322.523 184.52C324.003 183.04 325.543 181.46 325.543 179.22C325.543 176.54 323.503 175.06 321.023 175.06C318.283 175.06 316.443 176.64 316.063 179.28L318.263 179.68C318.143 178.1 319.323 176.94 320.903 176.94C323.743 176.94 323.623 179.74 322.623 181.54C322.103 182.36 321.463 183.04 320.783 183.72L315.803 188.72V190H325.803V188.04Z" fill="#E50012"/>
<path d="M611.94 188.04H606.82C606.18 188.04 605.52 188.16 604.9 188.32L608.66 184.52C610.14 183.04 611.68 181.46 611.68 179.22C611.68 176.54 609.64 175.06 607.16 175.06C604.42 175.06 602.58 176.64 602.2 179.28L604.4 179.68C604.28 178.1 605.46 176.94 607.04 176.94C609.88 176.94 609.76 179.74 608.76 181.54C608.24 182.36 607.6 183.04 606.92 183.72L601.94 188.72V190H611.94V188.04Z" fill="#E50012"/>
<path d="M624.254 182.62C624.254 179.22 623.034 175.06 618.854 175.06C614.734 175.06 613.474 179.1 613.474 182.62C613.474 186.14 614.734 190.16 618.854 190.16C622.974 190.16 624.254 186.14 624.254 182.62ZM621.974 182.62C621.974 184.68 621.614 188.32 618.854 188.32C616.114 188.32 615.734 184.68 615.734 182.62C615.734 180.56 616.094 176.92 618.854 176.92C621.614 176.92 621.974 180.56 621.974 182.62Z" fill="#E50012"/>
<path d="M630.388 178.06C630.368 178.4 630.368 178.74 630.368 179.06V188.08H627.288V190H635.348V188.08H632.568V175.18H630.768L626.768 178.6L627.988 180.08L630.388 178.06Z" fill="#E50012"/>
<path d="M647.682 188.04H642.562C641.922 188.04 641.262 188.16 640.642 188.32L644.402 184.52C645.882 183.04 647.422 181.46 647.422 179.22C647.422 176.54 645.382 175.06 642.902 175.06C640.162 175.06 638.322 176.64 637.942 179.28L640.142 179.68C640.022 178.1 641.202 176.94 642.782 176.94C645.622 176.94 645.502 179.74 644.502 181.54C643.982 182.36 643.342 183.04 642.662 183.72L637.682 188.72V190H647.682V188.04Z" fill="#E50012"/>
<path d="M651.896 187.78H649.536V190.26H651.896V187.78Z" fill="#E50012"/>
<path d="M665.509 184.54H663.469V175.2H661.409L654.309 184.66V186.26H661.549V190H663.469V186.26H665.509V184.54ZM656.689 184.54L661.649 177.72C661.589 178.24 661.549 178.7 661.549 179.14V184.54H656.689Z" fill="#E50012"/>
<path d="M439.94 45.04H434.82C434.18 45.04 433.52 45.16 432.9 45.32L436.66 41.52C438.14 40.04 439.68 38.46 439.68 36.22C439.68 33.54 437.64 32.06 435.16 32.06C432.42 32.06 430.58 33.64 430.2 36.28L432.4 36.68C432.28 35.1 433.46 33.94 435.04 33.94C437.88 33.94 437.76 36.74 436.76 38.54C436.24 39.36 435.6 40.04 434.92 40.72L429.94 45.72V47H439.94V45.04Z" fill="#E50012"/>
<path d="M452.254 39.62C452.254 36.22 451.034 32.06 446.854 32.06C442.734 32.06 441.474 36.1 441.474 39.62C441.474 43.14 442.734 47.16 446.854 47.16C450.974 47.16 452.254 43.14 452.254 39.62ZM449.974 39.62C449.974 41.68 449.614 45.32 446.854 45.32C444.114 45.32 443.734 41.68 443.734 39.62C443.734 37.56 444.094 33.92 446.854 33.92C449.614 33.92 449.974 37.56 449.974 39.62Z" fill="#E50012"/>
<path d="M458.388 35.06C458.368 35.4 458.368 35.74 458.368 36.06V45.08H455.288V47H463.348V45.08H460.568V32.18H458.768L454.768 35.6L455.988 37.08L458.388 35.06Z" fill="#E50012"/>
<path d="M470.302 35.06C470.282 35.4 470.282 35.74 470.282 36.06V45.08H467.202V47H475.262V45.08H472.482V32.18H470.682L466.682 35.6L467.902 37.08L470.302 35.06Z" fill="#E50012"/>
<path d="M479.896 44.78H477.536V47.26H479.896V44.78Z" fill="#E50012"/>
<path d="M492.889 45.04H487.769C487.129 45.04 486.469 45.16 485.849 45.32L489.609 41.52C491.089 40.04 492.629 38.46 492.629 36.22C492.629 33.54 490.589 32.06 488.109 32.06C485.369 32.06 483.529 33.64 483.149 36.28L485.349 36.68C485.229 35.1 486.409 33.94 487.989 33.94C490.829 33.94 490.709 36.74 489.709 38.54C489.189 39.36 488.549 40.04 487.869 40.72L482.889 45.72V47H492.889V45.04Z" fill="#E50012"/>
<path d="M776.94 45.04H771.82C771.18 45.04 770.52 45.16 769.9 45.32L773.66 41.52C775.14 40.04 776.68 38.46 776.68 36.22C776.68 33.54 774.64 32.06 772.16 32.06C769.42 32.06 767.58 33.64 767.2 36.28L769.4 36.68C769.28 35.1 770.46 33.94 772.04 33.94C774.88 33.94 774.76 36.74 773.76 38.54C773.24 39.36 772.6 40.04 771.92 40.72L766.94 45.72V47H776.94V45.04Z" fill="#E50012"/>
<path d="M789.254 39.62C789.254 36.22 788.034 32.06 783.854 32.06C779.734 32.06 778.474 36.1 778.474 39.62C778.474 43.14 779.734 47.16 783.854 47.16C787.974 47.16 789.254 43.14 789.254 39.62ZM786.974 39.62C786.974 41.68 786.614 45.32 783.854 45.32C781.114 45.32 780.734 41.68 780.734 39.62C780.734 37.56 781.094 33.92 783.854 33.92C786.614 33.92 786.974 37.56 786.974 39.62Z" fill="#E50012"/>
<path d="M795.388 35.06C795.368 35.4 795.368 35.74 795.368 36.06V45.08H792.288V47H800.348V45.08H797.568V32.18H795.768L791.768 35.6L792.988 37.08L795.388 35.06Z" fill="#E50012"/>
<path d="M812.682 45.04H807.562C806.922 45.04 806.262 45.16 805.642 45.32L809.402 41.52C810.882 40.04 812.422 38.46 812.422 36.22C812.422 33.54 810.382 32.06 807.902 32.06C805.162 32.06 803.322 33.64 802.942 36.28L805.142 36.68C805.022 35.1 806.202 33.94 807.782 33.94C810.622 33.94 810.502 36.74 809.502 38.54C808.982 39.36 808.342 40.04 807.662 40.72L802.682 45.72V47H812.682V45.04Z" fill="#E50012"/>
<path d="M816.896 44.78H814.536V47.26H816.896V44.78Z" fill="#E50012"/>
<path d="M825.709 32.22L821.669 37.62C820.749 38.86 819.909 40.44 819.909 42.02C819.909 45.16 821.849 47.16 824.909 47.16C827.769 47.16 830.069 45.14 830.069 42.26C830.069 39.7 828.369 37.84 825.689 37.84C824.909 37.84 824.129 38.04 823.449 38.42L828.449 32.22H825.709ZM824.869 45.34C823.029 45.34 822.029 44.1 822.029 42.38C822.029 40.74 823.269 39.52 824.949 39.52C826.709 39.52 827.869 40.66 827.869 42.42C827.869 44.16 826.529 45.34 824.869 45.34Z" fill="#E50012"/>
<path d="M260.94 562.04H255.82C255.18 562.04 254.52 562.16 253.9 562.32L257.66 558.52C259.14 557.04 260.68 555.46 260.68 553.22C260.68 550.54 258.64 549.06 256.16 549.06C253.42 549.06 251.58 550.64 251.2 553.28L253.4 553.68C253.28 552.1 254.46 550.94 256.04 550.94C258.88 550.94 258.76 553.74 257.76 555.54C257.24 556.36 256.6 557.04 255.92 557.72L250.94 562.72V564H260.94V562.04Z" fill="#E50012"/>
<path d="M273.254 556.62C273.254 553.22 272.034 549.06 267.854 549.06C263.734 549.06 262.474 553.1 262.474 556.62C262.474 560.14 263.734 564.16 267.854 564.16C271.974 564.16 273.254 560.14 273.254 556.62ZM270.974 556.62C270.974 558.68 270.614 562.32 267.854 562.32C265.114 562.32 264.734 558.68 264.734 556.62C264.734 554.56 265.094 550.92 267.854 550.92C270.614 550.92 270.974 554.56 270.974 556.62Z" fill="#E50012"/>
<path d="M279.388 552.06C279.368 552.4 279.368 552.74 279.368 553.06V562.08H276.288V564H284.348V562.08H281.568V549.18H279.768L275.768 552.6L276.988 554.08L279.388 552.06Z" fill="#E50012"/>
<path d="M296.682 562.04H291.562C290.922 562.04 290.262 562.16 289.642 562.32L293.402 558.52C294.882 557.04 296.422 555.46 296.422 553.22C296.422 550.54 294.382 549.06 291.902 549.06C289.162 549.06 287.322 550.64 286.942 553.28L289.142 553.68C289.022 552.1 290.202 550.94 291.782 550.94C294.622 550.94 294.502 553.74 293.502 555.54C292.982 556.36 292.342 557.04 291.662 557.72L286.682 562.72V564H296.682V562.04Z" fill="#E50012"/>
<path d="M300.896 561.78H298.536V564.26H300.896V561.78Z" fill="#E50012"/>
<path d="M308.509 552.06C308.489 552.4 308.489 552.74 308.489 553.06V562.08H305.409V564H313.469V562.08H310.689V549.18H308.889L304.889 552.6L306.109 554.08L308.509 552.06Z" fill="#E50012"/>
<path d="M326.203 556.62C326.203 553.22 324.983 549.06 320.803 549.06C316.683 549.06 315.423 553.1 315.423 556.62C315.423 560.14 316.683 564.16 320.803 564.16C324.923 564.16 326.203 560.14 326.203 556.62ZM323.923 556.62C323.923 558.68 323.563 562.32 320.803 562.32C318.063 562.32 317.683 558.68 317.683 556.62C317.683 554.56 318.043 550.92 320.803 550.92C323.563 550.92 323.923 554.56 323.923 556.62Z" fill="#E50012"/>
<path d="M612.94 562.04H607.82C607.18 562.04 606.52 562.16 605.9 562.32L609.66 558.52C611.14 557.04 612.68 555.46 612.68 553.22C612.68 550.54 610.64 549.06 608.16 549.06C605.42 549.06 603.58 550.64 603.2 553.28L605.4 553.68C605.28 552.1 606.46 550.94 608.04 550.94C610.88 550.94 610.76 553.74 609.76 555.54C609.24 556.36 608.6 557.04 607.92 557.72L602.94 562.72V564H612.94V562.04Z" fill="#E50012"/>
<path d="M625.254 556.62C625.254 553.22 624.034 549.06 619.854 549.06C615.734 549.06 614.474 553.1 614.474 556.62C614.474 560.14 615.734 564.16 619.854 564.16C623.974 564.16 625.254 560.14 625.254 556.62ZM622.974 556.62C622.974 558.68 622.614 562.32 619.854 562.32C617.114 562.32 616.734 558.68 616.734 556.62C616.734 554.56 617.094 550.92 619.854 550.92C622.614 550.92 622.974 554.56 622.974 556.62Z" fill="#E50012"/>
<path d="M631.388 552.06C631.368 552.4 631.368 552.74 631.368 553.06V562.08H628.288V564H636.348V562.08H633.568V549.18H631.768L627.768 552.6L628.988 554.08L631.388 552.06Z" fill="#E50012"/>
<path d="M648.842 549.22H638.702V551.24H646.602C646.322 551.56 646.082 551.92 645.902 552.3L639.942 564H642.342L648.842 550.78V549.22Z" fill="#E50012"/>
<path d="M652.896 561.78H650.536V564.26H652.896V561.78Z" fill="#E50012"/>
<path d="M655.869 560.28C656.669 562.96 658.249 564.18 660.949 564.18C663.689 564.18 665.949 562.52 665.949 559.7C665.949 557.84 664.949 556.72 663.189 556.22C664.889 555.68 665.629 554.56 665.629 552.86C665.629 550.36 663.489 549.06 661.249 549.06C658.509 549.06 656.689 550.68 656.309 553.3L658.489 553.68C658.369 552.1 659.609 550.94 661.129 550.94C662.589 550.94 663.489 551.82 663.489 553.24C663.489 555.2 661.829 555.64 660.169 555.64V557.24C661.969 557.24 663.749 557.5 663.749 559.76C663.749 561.3 662.429 562.3 660.929 562.3C659.409 562.3 657.989 561 657.809 559.48L655.869 560.28Z" fill="#E50012"/>
<path d="M951.94 562.04H946.82C946.18 562.04 945.52 562.16 944.9 562.32L948.66 558.52C950.14 557.04 951.68 555.46 951.68 553.22C951.68 550.54 949.64 549.06 947.16 549.06C944.42 549.06 942.58 550.64 942.2 553.28L944.4 553.68C944.28 552.1 945.46 550.94 947.04 550.94C949.88 550.94 949.76 553.74 948.76 555.54C948.24 556.36 947.6 557.04 946.92 557.72L941.94 562.72V564H951.94V562.04Z" fill="#E50012"/>
<path d="M964.254 556.62C964.254 553.22 963.034 549.06 958.854 549.06C954.734 549.06 953.474 553.1 953.474 556.62C953.474 560.14 954.734 564.16 958.854 564.16C962.974 564.16 964.254 560.14 964.254 556.62ZM961.974 556.62C961.974 558.68 961.614 562.32 958.854 562.32C956.114 562.32 955.734 558.68 955.734 556.62C955.734 554.56 956.094 550.92 958.854 550.92C961.614 550.92 961.974 554.56 961.974 556.62Z" fill="#E50012"/>
<path d="M975.768 562.04H970.648C970.008 562.04 969.348 562.16 968.728 562.32L972.488 558.52C973.968 557.04 975.508 555.46 975.508 553.22C975.508 550.54 973.468 549.06 970.988 549.06C968.248 549.06 966.408 550.64 966.028 553.28L968.228 553.68C968.108 552.1 969.288 550.94 970.868 550.94C973.708 550.94 973.588 553.74 972.588 555.54C972.068 556.36 971.428 557.04 970.748 557.72L965.768 562.72V564H975.768V562.04Z" fill="#E50012"/>
<path d="M988.082 556.62C988.082 553.22 986.862 549.06 982.682 549.06C978.562 549.06 977.302 553.1 977.302 556.62C977.302 560.14 978.562 564.16 982.682 564.16C986.802 564.16 988.082 560.14 988.082 556.62ZM985.802 556.62C985.802 558.68 985.442 562.32 982.682 562.32C979.942 562.32 979.562 558.68 979.562 556.62C979.562 554.56 979.922 550.92 982.682 550.92C985.442 550.92 985.802 554.56 985.802 556.62Z" fill="#E50012"/>
<path d="M991.896 561.78H989.536V564.26H991.896V561.78Z" fill="#E50012"/>
<path d="M999.509 552.06C999.489 552.4 999.489 552.74 999.489 553.06V562.08H996.409V564H1004.47V562.08H1001.69V549.18H999.889L995.889 552.6L997.109 554.08L999.509 552.06Z" fill="#E50012"/>
<path d="M1016.8 562.04H1011.68C1011.04 562.04 1010.38 562.16 1009.76 562.32L1013.52 558.52C1015 557.04 1016.54 555.46 1016.54 553.22C1016.54 550.54 1014.5 549.06 1012.02 549.06C1009.28 549.06 1007.44 550.64 1007.06 553.28L1009.26 553.68C1009.14 552.1 1010.32 550.94 1011.9 550.94C1014.74 550.94 1014.62 553.74 1013.62 555.54C1013.1 556.36 1012.46 557.04 1011.78 557.72L1006.8 562.72V564H1016.8V562.04Z" fill="#E50012"/>
<path d="M441.94 420.04H436.82C436.18 420.04 435.52 420.16 434.9 420.32L438.66 416.52C440.14 415.04 441.68 413.46 441.68 411.22C441.68 408.54 439.64 407.06 437.16 407.06C434.42 407.06 432.58 408.64 432.2 411.28L434.4 411.68C434.28 410.1 435.46 408.94 437.04 408.94C439.88 408.94 439.76 411.74 438.76 413.54C438.24 414.36 437.6 415.04 436.92 415.72L431.94 420.72V422H441.94V420.04Z" fill="#E50012"/>
<path d="M454.254 414.62C454.254 411.22 453.034 407.06 448.854 407.06C444.734 407.06 443.474 411.1 443.474 414.62C443.474 418.14 444.734 422.16 448.854 422.16C452.974 422.16 454.254 418.14 454.254 414.62ZM451.974 414.62C451.974 416.68 451.614 420.32 448.854 420.32C446.114 420.32 445.734 416.68 445.734 414.62C445.734 412.56 446.094 408.92 448.854 408.92C451.614 408.92 451.974 412.56 451.974 414.62Z" fill="#E50012"/>
<path d="M460.388 410.06C460.368 410.4 460.368 410.74 460.368 411.06V420.08H457.288V422H465.348V420.08H462.568V407.18H460.768L456.768 410.6L457.988 412.08L460.388 410.06Z" fill="#E50012"/>
<path d="M467.882 420.5C468.122 420.72 468.382 420.92 468.702 421.12C469.642 421.82 470.962 422.16 472.102 422.16C475.262 422.16 477.522 420.06 477.522 416.94C477.522 414.02 475.482 412.46 472.782 412.46C472.142 412.46 471.462 412.54 470.822 412.68L471.422 409.24H477.042V407.22H469.882L468.682 414.28L470.042 414.66C470.782 414.44 471.542 414.28 472.322 414.28C474.162 414.28 475.322 415.24 475.322 417.06C475.322 418.88 474.182 420.28 472.242 420.28C471.062 420.28 469.862 419.7 469.022 418.9L467.882 420.5Z" fill="#E50012"/>
<path d="M481.896 419.78H479.536V422.26H481.896V419.78Z" fill="#E50012"/>
<path d="M494.889 420.04H489.769C489.129 420.04 488.469 420.16 487.849 420.32L491.609 416.52C493.089 415.04 494.629 413.46 494.629 411.22C494.629 408.54 492.589 407.06 490.109 407.06C487.369 407.06 485.529 408.64 485.149 411.28L487.349 411.68C487.229 410.1 488.409 408.94 489.989 408.94C492.829 408.94 492.709 411.74 491.709 413.54C491.189 414.36 490.549 415.04 489.869 415.72L484.889 420.72V422H494.889V420.04Z" fill="#E50012"/>
<path d="M771.94 420.04H766.82C766.18 420.04 765.52 420.16 764.9 420.32L768.66 416.52C770.14 415.04 771.68 413.46 771.68 411.22C771.68 408.54 769.64 407.06 767.16 407.06C764.42 407.06 762.58 408.64 762.2 411.28L764.4 411.68C764.28 410.1 765.46 408.94 767.04 408.94C769.88 408.94 769.76 411.74 768.76 413.54C768.24 414.36 767.6 415.04 766.92 415.72L761.94 420.72V422H771.94V420.04Z" fill="#E50012"/>
<path d="M784.254 414.62C784.254 411.22 783.034 407.06 778.854 407.06C774.734 407.06 773.474 411.1 773.474 414.62C773.474 418.14 774.734 422.16 778.854 422.16C782.974 422.16 784.254 418.14 784.254 414.62ZM781.974 414.62C781.974 416.68 781.614 420.32 778.854 420.32C776.114 420.32 775.734 416.68 775.734 414.62C775.734 412.56 776.094 408.92 778.854 408.92C781.614 408.92 781.974 412.56 781.974 414.62Z" fill="#E50012"/>
<path d="M790.388 410.06C790.368 410.4 790.368 410.74 790.368 411.06V420.08H787.288V422H795.348V420.08H792.568V407.18H790.768L786.768 410.6L787.988 412.08L790.388 410.06Z" fill="#E50012"/>
<path d="M802.062 422L805.902 416.5C806.902 415.04 807.602 413.7 807.602 411.88C807.602 408.92 805.622 407.06 802.782 407.06C800.002 407.06 797.802 409 797.802 411.78C797.802 414.26 799.482 416.02 801.922 416.02C802.862 416.02 803.742 415.78 804.502 415.24L803.802 416.2L799.262 422H802.062ZM800.002 411.62C800.002 409.98 801.162 408.88 802.742 408.88C804.442 408.88 805.482 410.02 805.482 411.64C805.482 413.24 804.322 414.34 802.682 414.34C800.982 414.34 800.002 413.3 800.002 411.62Z" fill="#E50012"/>
<path d="M811.896 419.78H809.536V422.26H811.896V419.78Z" fill="#E50012"/>
<path d="M819.509 410.06C819.489 410.4 819.489 410.74 819.489 411.06V420.08H816.409V422H824.469V420.08H821.689V407.18H819.889L815.889 410.6L817.109 412.08L819.509 410.06Z" fill="#E50012"/>
<path d="M836.803 420.04H831.683C831.043 420.04 830.383 420.16 829.763 420.32L833.523 416.52C835.003 415.04 836.543 413.46 836.543 411.22C836.543 408.54 834.503 407.06 832.023 407.06C829.283 407.06 827.443 408.64 827.063 411.28L829.263 411.68C829.143 410.1 830.323 408.94 831.903 408.94C834.743 408.94 834.623 411.74 833.623 413.54C833.103 414.36 832.463 415.04 831.783 415.72L826.803 420.72V422H836.803V420.04Z" fill="#E50012"/>
<path d="M12.978 1.46V7.88H8.13797V9.58H12.978V19.58H15.038V1.46H12.978ZM2.97797 4.82H9.11797V3.14H0.917969V15.16H2.33797C5.71797 15.16 7.89797 15.04 10.398 14.56L10.198 12.9C7.91797 13.32 5.89797 13.44 2.97797 13.44V4.82Z" fill="black"/>
<path d="M35.6364 8.64H32.8164V1.48H30.7564V19.54H32.8164V10.34H35.6364V8.64ZM25.1564 2.98H23.0964V5.94C23.0964 9.28 21.3564 12.7 18.5164 14.08L19.7764 15.74C21.8564 14.68 23.3564 12.58 24.1364 10.08C24.9164 12.5 26.3564 14.38 28.2964 15.4L29.5564 13.76C26.8564 12.44 25.1564 9.16 25.1564 5.94V2.98Z" fill="black"/>
<path d="M51.7348 5.86V1.46H49.6748V12.34H51.7348V7.56H54.2948V5.86H51.7348ZM48.1348 9.2C45.6548 9.68 43.4548 9.78 40.3748 9.78V7.72H46.5148V2.56H38.3148V4.22H44.4748V6.16H38.3548V11.46H39.8148C43.2748 11.46 45.6148 11.36 48.3548 10.88L48.1348 9.2ZM45.8948 12.82C42.1348 12.82 39.8748 14.04 39.8748 16.18C39.8748 18.3 42.1348 19.54 45.8948 19.54C49.6548 19.54 51.9148 18.3 51.9148 16.18C51.9148 14.04 49.6548 12.82 45.8948 12.82ZM45.8948 17.96C43.3148 17.96 41.8948 17.38 41.8948 16.18C41.8948 15.04 43.3148 14.42 45.8948 14.42C48.4748 14.42 49.8948 15.04 49.8948 16.18C49.8948 17.38 48.4748 17.96 45.8948 17.96Z" fill="black"/>
<path d="M60.1333 20.9L61.5733 20.26C59.8133 17.36 59.0533 14.12 59.0533 10.66C59.0533 7.22 59.8133 3.96 61.5733 1.06L60.1333 0.440002C58.2733 3.46 57.1733 6.72 57.1733 10.66C57.1733 14.64 58.2733 17.86 60.1333 20.9Z" fill="black"/>
<path d="M67.8427 18H70.1627V5.22H74.5027V3.28H63.5227V5.22H67.8427V18Z" fill="black"/>
<path d="M77.2697 18H79.5497V10.2C80.5297 9.22 81.2297 8.7 82.2497 8.7C83.5497 8.7 84.1097 9.44 84.1097 11.36V18H86.4097V11.08C86.4097 8.26 85.3697 6.72 83.0297 6.72C81.5097 6.72 80.4297 7.52 79.4697 8.46L79.5497 6.28V2.06H77.2697V18Z" fill="black"/>
<path d="M94.6516 18.26C96.0916 18.26 97.3516 17.8 98.3716 17.1L97.5716 15.64C96.7716 16.18 95.9316 16.46 94.9516 16.46C93.0316 16.46 91.7316 15.2 91.5516 13.1H98.6916C98.7516 12.8 98.7916 12.42 98.7916 11.94C98.7916 8.82 97.2316 6.72 94.3116 6.72C91.7316 6.72 89.2916 8.92 89.2916 12.52C89.2916 16.14 91.6716 18.26 94.6516 18.26ZM91.5316 11.52C91.7516 9.6 92.9916 8.52 94.3516 8.52C95.9516 8.52 96.8116 9.6 96.8116 11.52H91.5316Z" fill="black"/>
<path d="M111.053 18.26C114.253 18.26 116.233 16.32 116.233 13.98C116.233 11.82 114.993 10.74 113.233 10L111.213 9.14C110.033 8.66 108.833 8.18 108.833 6.92C108.833 5.72 109.793 5.02 111.313 5.02C112.613 5.02 113.613 5.52 114.553 6.34L115.773 4.86C114.653 3.72 113.073 3 111.313 3C108.513 3 106.473 4.74 106.473 7.06C106.473 9.18 108.053 10.34 109.473 10.92L111.513 11.8C112.893 12.38 113.873 12.82 113.873 14.16C113.873 15.44 112.873 16.24 111.093 16.24C109.653 16.24 108.233 15.56 107.173 14.5L105.813 16.1C107.173 17.46 109.033 18.26 111.053 18.26Z" fill="black"/>
<path d="M121.821 18.26C123.181 18.26 124.301 17.66 125.321 16.8H125.381L125.581 18H127.461V11.38C127.461 8.4 126.201 6.72 123.461 6.72C121.701 6.72 120.201 7.36 119.061 8.08L119.741 9.76C120.681 9.14 121.861 8.6 123.061 8.6C124.681 8.6 125.161 9.7 125.161 11C122.901 11.16 121.241 11.34 120.121 11.96C118.981 12.66 118.581 13.86 118.581 15.08C118.581 17.02 119.921 18.26 121.821 18.26ZM122.521 16.44C121.541 16.44 120.801 16.04 120.801 14.92C120.801 14.46 120.721 13.94 121.301 13.4C122.001 12.76 123.041 12.76 125.161 12.5V15.22C124.261 16.04 123.481 16.44 122.521 16.44Z" fill="black"/>
<path d="M131.125 18H133.405V11.14C134.105 9.4 135.185 8.78 136.085 8.78C136.545 8.78 136.805 8.82 137.185 8.96L137.605 6.96C137.265 6.8 136.905 6.72 136.365 6.72C135.165 6.72 134.025 7.54 133.245 8.98H133.185L133.005 7H131.125V18Z" fill="black"/>
<path d="M141.742 18.26C143.102 18.26 144.222 17.66 145.242 16.8H145.302L145.502 18H147.382V11.38C147.382 8.4 146.122 6.72 143.382 6.72C141.622 6.72 140.122 7.36 138.982 8.08L139.662 9.76C140.602 9.14 141.782 8.6 142.982 8.6C144.602 8.6 145.082 9.7 145.082 11C142.822 11.16 141.162 11.34 140.042 11.96C138.902 12.66 138.502 13.86 138.502 15.08C138.502 17.02 139.842 18.26 141.742 18.26ZM142.442 16.44C141.462 16.44 140.722 16.04 140.722 14.92C140.722 14.46 140.642 13.94 141.222 13.4C141.922 12.76 142.962 12.76 145.082 12.5V15.22C144.182 16.04 143.402 16.44 142.442 16.44Z" fill="black"/>
<path d="M151.046 18H153.326V10.2C154.306 9.22 155.006 8.7 156.026 8.7C157.326 8.7 157.886 9.44 157.886 11.36V18H160.186V11.08C160.186 8.26 159.146 6.72 156.806 6.72C155.306 6.72 154.186 7.54 153.166 8.52H153.106L152.926 7H151.046V18Z" fill="black"/>
<path d="M167.686 22.94C171.226 22.94 173.446 21.24 173.446 19.1C173.446 17.18 172.146 16.42 169.486 16.42H167.466C166.046 16.42 165.626 16 165.626 15.34C165.626 14.8 165.846 14.5 166.226 14.18C166.786 14.4 167.306 14.52 167.766 14.52C170.066 14.52 171.886 13.14 171.886 10.74C171.886 9.88 171.586 9.18 171.166 8.72H173.266V7H169.366C168.946 6.84 168.386 6.72 167.766 6.72C165.486 6.72 163.506 8.2 163.506 10.68C163.506 11.98 164.206 13.02 164.946 13.6V13.68C164.326 14.14 163.726 14.86 163.726 15.72C163.726 16.62 164.166 17.2 164.726 17.54V17.64C163.706 18.26 163.126 19.1 163.126 20.04C163.126 21.96 165.046 22.94 167.686 22.94ZM167.766 13.04C166.626 13.04 165.686 12.14 165.686 10.68C165.686 9.16 166.566 8.34 167.766 8.34C168.966 8.34 169.846 9.16 169.846 10.68C169.846 12.14 168.906 13.04 167.766 13.04ZM168.026 21.42C166.186 21.42 165.086 20.82 165.086 19.7C165.086 19.14 165.366 18.58 166.026 18.1C166.526 18.2 167.006 18.26 167.506 18.26H169.166C170.526 18.26 171.226 18.52 171.226 19.46C171.226 20.5 169.946 21.42 168.026 21.42Z" fill="black"/>
<path d="M176.743 20.9C178.643 17.86 179.723 14.64 179.723 10.66C179.723 6.72 178.643 3.46 176.743 0.440002L175.303 1.06C177.063 3.96 177.823 7.22 177.823 10.66C177.823 14.12 177.063 17.36 175.303 20.26L176.743 20.9Z" fill="black"/>
<path d="M198.465 10.1C195.745 9.3 194.165 7.42 194.165 5.34V5.16H197.965V3.52H194.185V1.38H192.105V3.52H188.305V5.16H192.105V5.34C192.105 7.56 190.545 9.74 187.765 10.54L188.745 12.16C190.905 11.46 192.385 10.1 193.185 8.32C193.985 9.92 195.445 11.12 197.525 11.7L198.465 10.1ZM201.905 5.96V1.46H199.845V12.46H201.905V7.66H204.465V5.96H201.905ZM196.085 12.86C192.325 12.86 190.065 14.12 190.065 16.2C190.065 18.28 192.325 19.54 196.085 19.54C199.845 19.54 202.105 18.28 202.105 16.2C202.105 14.12 199.845 12.86 196.085 12.86ZM196.085 17.94C193.505 17.94 192.105 17.32 192.105 16.2C192.105 15.08 193.505 14.46 196.085 14.46C198.665 14.46 200.065 15.08 200.065 16.2C200.065 17.32 198.665 17.94 196.085 17.94Z" fill="black"/>
<path d="M219.504 1.48V5.64H216.164C215.784 3.62 213.884 2.28 211.564 2.28C208.864 2.28 206.844 4.02 206.844 6.5C206.844 9 208.864 10.74 211.564 10.74C213.964 10.74 215.784 9.34 216.164 7.32H219.504V11.16H221.564V1.48H219.504ZM211.564 9.04C209.964 9.04 208.824 8.02 208.824 6.5C208.824 4.96 209.964 3.98 211.564 3.98C213.164 3.98 214.284 4.96 214.284 6.5C214.284 8.02 213.104 9.04 211.564 9.04ZM219.524 14.06H211.864V12.02H209.824V19.32H221.564V12.02H219.524V14.06ZM219.524 17.66H211.864V15.66H219.524V17.66Z" fill="black"/>
<path d="M225.034 202.5H222.974V215.78H225.034V202.5ZM221.314 211.8C218.534 211 216.894 208.86 216.894 206.68V206.38H220.774V204.74H216.894V202.56H214.834V204.74H210.914V206.38H214.834V206.68C214.834 209.06 213.234 211.22 210.414 212.12L211.414 213.74C213.574 213.04 215.094 211.6 215.894 209.76C216.714 211.46 218.254 212.78 220.354 213.42L221.314 211.8ZM215.314 218.52V214.56H213.234V220.2H225.554V218.52H215.314Z" fill="black"/>
<path d="M239.572 204.1H235.472V202.4H233.392V204.1H229.252V205.62H239.572V204.1ZM243.092 208.6V202.46H241.032V216.6H243.092V210.3H245.572V208.6H243.092ZM240.072 212.44C238.612 212.66 237.072 212.78 235.472 212.88V211.74C237.472 211.5 238.712 210.5 238.712 209.04C238.712 207.28 237.072 206.26 234.412 206.26C231.752 206.26 230.112 207.28 230.112 209.04C230.112 210.56 231.372 211.5 233.392 211.74V212.98C231.712 213.04 230.152 213.04 228.792 213.04L229.032 214.68C232.172 214.68 236.432 214.56 240.232 213.86L240.072 212.44ZM232.052 209.04C232.052 208.18 232.972 207.66 234.412 207.66C235.852 207.66 236.772 208.18 236.772 209.04C236.772 209.9 235.852 210.38 234.412 210.38C232.972 210.38 232.052 209.9 232.052 209.04ZM233.472 215.7H231.412V220.2H243.712V218.52H233.472V215.7Z" fill="black"/>
<path d="M260.65 207.26V209.34H256.27V211.02H260.65V213.1H262.71V202.48H260.65V205.58H256.93C257.03 205.02 257.09 204.42 257.09 203.78H248.89V205.44H254.89C254.51 208.26 252.29 210.46 247.95 211.66L248.77 213.3C252.79 212.16 255.35 210.14 256.45 207.26H260.65ZM256.79 213.32C253.13 213.32 250.77 214.7 250.77 216.88C250.77 219.1 253.13 220.46 256.79 220.46C260.45 220.46 262.83 219.1 262.83 216.88C262.83 214.7 260.45 213.32 256.79 213.32ZM256.79 218.84C254.29 218.84 252.81 218.16 252.81 216.88C252.81 215.6 254.29 214.94 256.79 214.94C259.29 214.94 260.79 215.6 260.79 216.88C260.79 218.16 259.29 218.84 256.79 218.84Z" fill="black"/>
<path d="M285.662 203.28H273.482V209.8H285.662V203.28ZM283.642 208.16H275.502V204.92H283.642V208.16ZM271.402 211.58V213.24H278.722V216.62H280.782V213.24H287.782V211.58H271.402ZM275.462 214.98H273.402V220.2H285.962V218.52H275.462V214.98Z" fill="black"/>
<path d="M306.56 211.3H304.04C304.5 208.74 304.5 206.86 304.5 205.16V203.58H292.18V205.24H302.48C302.48 206.9 302.5 208.8 301.96 211.3H290.22V213H297.28V220.54H299.36V213H306.56V211.3Z" fill="black"/>
<path d="M321.338 206.48H310.978V211.56H323.838V209.9H313.058V208.02H323.438V203.1H310.938V204.76H321.338V206.48ZM325.378 213.16H308.998V214.82H313.038V220.56H315.098V214.82H319.278V220.56H321.338V214.82H325.398L325.378 213.16Z" fill="black"/>
<path d="M334.05 209.68C337.27 209.46 339.69 208.58 340.83 207.06C341.97 208.58 344.43 209.46 347.65 209.68L348.21 208.14C344.59 207.92 342.45 206.96 342.05 205.52H347.39V203.98H341.87V202.4H339.81V203.98H334.31V205.52H339.63C339.23 206.96 337.11 207.92 333.45 208.14L334.05 209.68ZM349.01 211.88V210.34H332.71V211.88H339.81V213.28H334.61V214.8H344.95V216.06H334.65V220.38H347.49V218.84H336.69V217.48H346.97V213.28H341.87V211.88H349.01Z" fill="black"/>
<path d="M364.268 202.46V220.58H366.348V202.46H364.268ZM358.148 203.98H356.088V206.94C356.088 210.4 354.208 213.9 351.328 215.18L352.548 216.9C354.728 215.84 356.328 213.74 357.148 211.08C357.968 213.58 359.548 215.52 361.628 216.5L362.828 214.86C359.988 213.58 358.148 210.28 358.148 206.94V203.98Z" fill="black"/>
<path d="M546.894 211.32C549.874 210.86 552.294 209.4 553.414 207.4C554.554 209.42 556.974 210.84 559.954 211.32L560.694 209.7C557.274 209.22 554.694 207.3 554.594 205.16H560.054V203.5H546.754V205.16H552.254C552.154 207.3 549.574 209.22 546.154 209.7L546.894 211.32ZM561.594 212.64H545.254V214.3H552.334V220.56H554.394V214.3H561.574L561.594 212.64Z" fill="black"/>
<path d="M576.873 202.46V213.3H578.933V202.46H576.873ZM575.013 210.68C572.213 209.76 570.633 207.5 570.633 205.06V203.3H568.533V205.06C568.533 207.58 566.933 210.04 564.093 211L565.113 212.62C567.273 211.88 568.793 210.36 569.613 208.36C570.413 210.2 571.913 211.58 573.993 212.3L575.013 210.68ZM566.753 215.82H576.873V220.54H578.933V214.16H566.753V215.82Z" fill="black"/>
<path d="M595.631 202.46V220.54H597.711V202.46H595.631ZM594.231 204.58H589.811V202.5H587.751V204.58H583.311V206.24H594.231V204.58ZM589.811 213.78C591.891 213.46 593.191 212.24 593.191 210.48C593.191 208.46 591.411 207.12 588.791 207.12C586.171 207.12 584.371 208.46 584.371 210.48C584.371 212.24 585.671 213.46 587.751 213.78V215.54C586.051 215.6 584.391 215.6 582.951 215.6L583.211 217.3C586.491 217.3 590.771 217.24 594.751 216.56L594.611 215.06C593.071 215.28 591.431 215.38 589.811 215.48V213.78ZM586.331 210.48C586.331 209.36 587.331 208.7 588.791 208.7C590.231 208.7 591.231 209.36 591.231 210.48C591.231 211.6 590.231 212.28 588.791 212.28C587.331 212.28 586.331 211.6 586.331 210.48Z" fill="black"/>
<path d="M618.45 209.64H615.63V202.48H613.57V220.54H615.63V211.34H618.45V209.64ZM607.97 203.98H605.91V206.94C605.91 210.28 604.17 213.7 601.33 215.08L602.59 216.74C604.67 215.68 606.17 213.58 606.95 211.08C607.73 213.5 609.17 215.38 611.11 216.4L612.37 214.76C609.67 213.44 607.97 210.16 607.97 206.94V203.98Z" fill="black"/>
<path d="M638.261 202.46V208.88H633.421V210.58H638.261V220.58H640.321V202.46H638.261ZM628.261 205.82H634.401V204.14H626.201V216.16H627.621C631.001 216.16 633.181 216.04 635.681 215.56L635.481 213.9C633.201 214.32 631.181 214.44 628.261 214.44V205.82Z" fill="black"/>
<path d="M660.919 209.64H658.099V202.48H656.039V220.54H658.099V211.34H660.919V209.64ZM650.439 203.98H648.379V206.94C648.379 210.28 646.639 213.7 643.799 215.08L645.059 216.74C647.139 215.68 648.639 213.58 649.419 211.08C650.199 213.5 651.639 215.38 653.579 216.4L654.839 214.76C652.139 213.44 650.439 210.16 650.439 206.94V203.98Z" fill="black"/>
<path d="M677.018 206.86V202.46H674.958V213.34H677.018V208.56H679.578V206.86H677.018ZM673.418 210.2C670.938 210.68 668.738 210.78 665.658 210.78V208.72H671.798V203.56H663.598V205.22H669.758V207.16H663.638V212.46H665.098C668.558 212.46 670.898 212.36 673.638 211.88L673.418 210.2ZM671.178 213.82C667.418 213.82 665.158 215.04 665.158 217.18C665.158 219.3 667.418 220.54 671.178 220.54C674.938 220.54 677.198 219.3 677.198 217.18C677.198 215.04 674.938 213.82 671.178 213.82ZM671.178 218.96C668.598 218.96 667.178 218.38 667.178 217.18C667.178 216.04 668.598 215.42 671.178 215.42C673.758 215.42 675.178 216.04 675.178 217.18C675.178 218.38 673.758 218.96 671.178 218.96Z" fill="black"/>
<path d="M699.489 211.74H701.549V202.46H699.489V205.48H695.829V207.14H699.489V211.74ZM697.249 209.84C694.549 208.94 692.989 206.86 692.989 204.56V203.04H690.929V204.56C690.929 207.04 689.349 209.32 686.529 210.22L687.589 211.84C689.749 211.1 691.209 209.68 692.009 207.76C692.789 209.44 694.169 210.78 696.169 211.44L697.249 209.84ZM691.869 218.7V217.16H701.549V212.6H689.789V214.2H699.509V215.64H689.829V220.32H702.169V218.7H691.869Z" fill="black"/>
<path d="M718.207 202.48V212.46H720.267V202.48H718.207ZM716.327 209.9C713.707 210.32 711.467 210.44 708.347 210.44V208.44H714.527V203.32H706.267V205H712.507V206.88H706.307V212.12H707.827C711.287 212.12 713.747 212.06 716.567 211.58L716.327 209.9ZM718.227 215.16H710.487V213.3H708.427V220.32H720.267V213.3H718.227V215.16ZM718.227 218.66H710.487V216.78H718.227V218.66Z" fill="black"/>
<path d="M377.275 1.44V7.38H373.415V9.06H377.275V19.56H379.355V1.44H377.275ZM370.895 2.94H368.815V5.92C368.815 9.3 367.055 12.78 364.235 14.16L365.535 15.8C367.615 14.74 369.075 12.66 369.875 10.08C370.655 12.5 372.075 14.48 374.155 15.5L375.375 13.84C372.595 12.56 370.895 9.26 370.895 5.92V2.94Z" fill="black"/>
<path d="M391.314 7.9C395.454 7.9 397.754 6.8 397.754 4.78C397.754 2.76 395.454 1.66 391.314 1.66C387.154 1.66 384.874 2.76 384.874 4.78C384.874 6.8 387.154 7.9 391.314 7.9ZM391.314 3.2C394.134 3.2 395.614 3.74 395.614 4.78C395.614 5.82 394.134 6.36 391.314 6.36C388.494 6.36 387.014 5.82 387.014 4.78C387.014 3.74 388.494 3.2 391.314 3.2ZM399.474 10.52V8.88H383.134V10.52H390.254V11.98H385.074V13.54H395.414V14.84H385.114V19.38H397.954V17.8H387.154V16.3H397.434V11.98H392.334V10.52H399.474Z" fill="black"/>
<path d="M412.012 3.3H408.112V1.32H406.052V3.3H401.992V4.94H412.012V3.3ZM414.852 13.08H416.912V1.48H414.852V5.64H412.132V7.32H414.852V9.22H412.092V10.88H414.852V13.08ZM411.232 9.1C411.232 7.1 409.552 5.74 407.092 5.74C404.612 5.74 402.932 7.1 402.932 9.1C402.932 11.12 404.612 12.48 407.092 12.48C409.552 12.48 411.232 11.12 411.232 9.1ZM404.852 9.1C404.852 7.98 405.732 7.3 407.092 7.3C408.452 7.3 409.312 7.98 409.312 9.1C409.312 10.24 408.452 10.92 407.092 10.92C405.732 10.92 404.852 10.24 404.852 9.1ZM410.932 13.28C407.152 13.28 404.832 14.42 404.832 16.4C404.832 18.38 407.152 19.54 410.932 19.54C414.692 19.54 417.012 18.38 417.012 16.4C417.012 14.42 414.692 13.28 410.932 13.28ZM410.932 17.96C408.432 17.96 406.992 17.42 406.992 16.4C406.992 15.38 408.432 14.86 410.932 14.86C413.432 14.86 414.832 15.38 414.832 16.4C414.832 17.42 413.432 17.96 410.932 17.96Z" fill="black"/>
<path d="M442.423 8.64H439.603V1.48H437.543V19.54H439.603V10.34H442.423V8.64ZM431.943 2.98H429.883V5.94C429.883 9.28 428.143 12.7 425.303 14.08L426.563 15.74C428.643 14.68 430.143 12.58 430.923 10.08C431.703 12.5 433.143 14.38 435.083 15.4L436.343 13.76C433.643 12.44 431.943 9.16 431.943 5.94V2.98Z" fill="black"/>
<path d="M457.202 1.46V19.54H459.282V1.46H457.202ZM455.802 3.58H451.382V1.5H449.322V3.58H444.882V5.24H455.802V3.58ZM451.382 12.78C453.462 12.46 454.762 11.24 454.762 9.48C454.762 7.46 452.982 6.12 450.362 6.12C447.742 6.12 445.942 7.46 445.942 9.48C445.942 11.24 447.242 12.46 449.322 12.78V14.54C447.622 14.6 445.962 14.6 444.522 14.6L444.782 16.3C448.062 16.3 452.342 16.24 456.322 15.56L456.182 14.06C454.642 14.28 453.002 14.38 451.382 14.48V12.78ZM447.902 9.48C447.902 8.36 448.902 7.7 450.362 7.7C451.802 7.7 452.802 8.36 452.802 9.48C452.802 10.6 451.802 11.28 450.362 11.28C448.902 11.28 447.902 10.6 447.902 9.48Z" fill="black"/>
<path d="M476.12 1.46V6H472.96V7.7H476.12V12.26H478.18V1.46H476.12ZM473.96 10.04C471.24 9.08 469.72 6.84 469.72 4.6V4.26H473.48V2.6H463.82V4.26H467.64V4.62C467.64 7.06 466 9.44 463.2 10.4L464.26 12.02C466.42 11.28 467.92 9.72 468.72 7.78C469.5 9.54 470.94 10.94 472.94 11.64L473.96 10.04ZM466 14.82H476.12V19.54H478.18V13.16H466V14.82Z" fill="black"/>
<path d="M494.858 1.48V19.54H496.918V1.48H494.858ZM483.038 3.38V5.06H489.478C489.138 9.22 486.878 12.38 482.138 14.68L483.238 16.32C489.438 13.32 491.598 8.76 491.598 3.38H483.038Z" fill="black"/>
<path d="M513.717 1.48V5.64H510.377C509.997 3.62 508.097 2.28 505.777 2.28C503.077 2.28 501.057 4.02 501.057 6.5C501.057 9 503.077 10.74 505.777 10.74C508.177 10.74 509.997 9.34 510.377 7.32H513.717V11.16H515.777V1.48H513.717ZM505.777 9.04C504.177 9.04 503.037 8.02 503.037 6.5C503.037 4.96 504.177 3.98 505.777 3.98C507.377 3.98 508.497 4.96 508.497 6.5C508.497 8.02 507.317 9.04 505.777 9.04ZM513.737 14.06H506.077V12.02H504.037V19.32H515.777V12.02H513.737V14.06ZM513.737 17.66H506.077V15.66H513.737V17.66Z" fill="black"/>
<path d="M539.368 1.48H537.308V14.6H539.368V1.48ZM534.408 7.2C534.408 4.54 532.348 2.68 529.628 2.68C526.908 2.68 524.828 4.54 524.828 7.2C524.828 9.82 526.908 11.72 529.628 11.72C532.348 11.72 534.408 9.82 534.408 7.2ZM526.848 7.2C526.848 5.52 528.028 4.46 529.628 4.46C531.208 4.46 532.408 5.52 532.408 7.2C532.408 8.84 531.208 9.94 529.628 9.94C528.028 9.94 526.848 8.84 526.848 7.2ZM529.648 17.52V13.28H527.568V19.2H539.888V17.52H529.648Z" fill="black"/>
<path d="M544.826 9.04C548.046 8.7 550.466 7.4 551.446 5.54C552.406 7.4 554.866 8.7 558.066 9.04L558.786 7.44C555.426 7.12 553.086 5.66 552.826 4.02H558.126V2.36H544.786V4.02H550.046C549.786 5.66 547.446 7.12 544.086 7.44L544.826 9.04ZM543.266 9.96V11.62H559.606V9.96H543.266ZM551.406 12.92C547.546 12.92 545.186 14.14 545.186 16.24C545.186 18.34 547.546 19.54 551.406 19.54C555.386 19.54 557.626 18.34 557.626 16.24C557.626 14.14 555.286 12.92 551.406 12.92ZM551.406 17.92C548.746 17.92 547.286 17.36 547.286 16.24C547.286 15.12 548.746 14.54 551.406 14.54C554.066 14.54 555.546 15.12 555.546 16.24C555.546 17.36 554.066 17.92 551.406 17.92Z" fill="black"/>
<path d="M680.058 8.6H677.238V1.48H675.178V19.54H677.238V10.3H680.058V8.6ZM669.578 4.98H673.398V3.28H663.578V4.98H667.518V6.72C667.518 9.7 665.698 13.12 662.918 14.46L664.098 16.1C666.198 15.08 667.778 12.92 668.578 10.4C669.398 12.74 670.938 14.68 672.958 15.64L674.098 14.02C671.358 12.74 669.578 9.5 669.578 6.72V4.98Z" fill="black"/>
<path d="M694.837 1.46V19.54H696.917V1.46H694.837ZM693.437 3.58H689.017V1.5H686.957V3.58H682.517V5.24H693.437V3.58ZM689.017 12.78C691.097 12.46 692.397 11.24 692.397 9.48C692.397 7.46 690.617 6.12 687.997 6.12C685.377 6.12 683.577 7.46 683.577 9.48C683.577 11.24 684.877 12.46 686.957 12.78V14.54C685.257 14.6 683.597 14.6 682.157 14.6L682.417 16.3C685.697 16.3 689.977 16.24 693.957 15.56L693.817 14.06C692.277 14.28 690.637 14.38 689.017 14.48V12.78ZM685.537 9.48C685.537 8.36 686.537 7.7 687.997 7.7C689.437 7.7 690.437 8.36 690.437 9.48C690.437 10.6 689.437 11.28 687.997 11.28C686.537 11.28 685.537 10.6 685.537 9.48Z" fill="black"/>
<path d="M717.655 8.64H714.835V1.48H712.775V19.54H714.835V10.34H717.655V8.64ZM707.175 2.98H705.115V5.94C705.115 9.28 703.375 12.7 700.535 14.08L701.795 15.74C703.875 14.68 705.375 12.58 706.155 10.08C706.935 12.5 708.375 14.38 710.315 15.4L711.575 13.76C708.875 12.44 707.175 9.16 707.175 5.94V2.98Z" fill="black"/>
<path d="M729.714 3.3H725.814V1.32H723.754V3.3H719.694V4.94H729.714V3.3ZM732.554 13.08H734.614V1.48H732.554V5.64H729.834V7.32H732.554V9.22H729.794V10.88H732.554V13.08ZM728.934 9.1C728.934 7.1 727.254 5.74 724.794 5.74C722.314 5.74 720.634 7.1 720.634 9.1C720.634 11.12 722.314 12.48 724.794 12.48C727.254 12.48 728.934 11.12 728.934 9.1ZM722.554 9.1C722.554 7.98 723.434 7.3 724.794 7.3C726.154 7.3 727.014 7.98 727.014 9.1C727.014 10.24 726.154 10.92 724.794 10.92C723.434 10.92 722.554 10.24 722.554 9.1ZM728.634 13.28C724.854 13.28 722.534 14.42 722.534 16.4C722.534 18.38 724.854 19.54 728.634 19.54C732.394 19.54 734.714 18.38 734.714 16.4C734.714 14.42 732.394 13.28 728.634 13.28ZM728.634 17.96C726.134 17.96 724.694 17.42 724.694 16.4C724.694 15.38 726.134 14.86 728.634 14.86C731.134 14.86 732.534 15.38 732.534 16.4C732.534 17.42 731.134 17.96 728.634 17.96Z" fill="black"/>
<path d="M757.425 5.88V1.48H755.365V12.28H757.425V7.58H759.985V5.88H757.425ZM753.925 9.98C751.165 9.08 749.665 7.02 749.665 4.76V4.42H753.445V2.76H743.745V4.42H747.585V4.78C747.585 7.24 746.005 9.58 743.165 10.54L744.205 12.16C746.365 11.42 747.885 9.88 748.685 7.96C749.465 9.64 750.905 10.94 752.925 11.58L753.925 9.98ZM751.605 12.7C747.885 12.7 745.585 13.96 745.585 16.12C745.585 18.28 747.885 19.54 751.605 19.54C755.325 19.54 757.625 18.28 757.625 16.12C757.625 13.96 755.325 12.7 751.605 12.7ZM751.605 17.92C749.025 17.92 747.625 17.32 747.625 16.12C747.625 14.92 749.025 14.32 751.605 14.32C754.185 14.32 755.585 14.92 755.585 16.12C755.585 17.32 754.185 17.92 751.605 17.92Z" fill="black"/>
<path d="M775.583 1.48V8.52H773.523V1.82H771.583V18.68H773.523V10.2H775.583V19.52H777.543V1.48H775.583ZM766.183 2.88C763.863 2.88 762.303 5.3 762.303 9.3C762.303 13.22 763.863 15.7 766.183 15.7C768.503 15.7 770.063 13.22 770.063 9.3C770.063 5.3 768.503 2.88 766.183 2.88ZM766.183 13.76C764.963 13.76 764.203 12.2 764.203 9.3C764.203 6.4 764.963 4.82 766.183 4.82C767.403 4.82 768.163 6.4 768.163 9.3C768.163 12.2 767.403 13.76 766.183 13.76Z" fill="black"/>
<path d="M795.802 1.48H793.742V14.6H795.802V1.48ZM790.842 7.2C790.842 4.54 788.782 2.68 786.062 2.68C783.342 2.68 781.262 4.54 781.262 7.2C781.262 9.82 783.342 11.72 786.062 11.72C788.782 11.72 790.842 9.82 790.842 7.2ZM783.282 7.2C783.282 5.52 784.462 4.46 786.062 4.46C787.642 4.46 788.842 5.52 788.842 7.2C788.842 8.84 787.642 9.94 786.062 9.94C784.462 9.94 783.282 8.84 783.282 7.2ZM786.082 17.52V13.28H784.002V19.2H796.322V17.52H786.082Z" fill="black"/>
<path d="M811.68 15.76V11.88H814.58V10.22H811.98V4.7H814.64V3.04H801.06V4.7H803.72V10.22H801.12V11.88H804.02V15.76H799.72V17.46H816.1V15.76H811.68ZM805.78 4.7H809.94V10.22H805.78V4.7ZM806.08 11.88H809.64V15.76H806.08V11.88Z" fill="black"/>
<path d="M820.158 9.54C823.278 9.14 825.698 7.7 826.658 5.7C827.638 7.7 830.078 9.14 833.218 9.54L833.978 7.9C830.618 7.48 828.218 5.84 828.058 3.98H833.358V2.32H820.018V3.98H825.278C825.118 5.84 822.798 7.48 819.378 7.9L820.158 9.54ZM818.498 10.64V12.3H825.818V15.7H827.878V12.3H834.878V10.64H818.498ZM822.558 14.04H820.498V19.2H833.058V17.52H822.558V14.04Z" fill="black"/>
<path d="M854.117 8.64H851.297V1.48H849.237V19.54H851.297V10.34H854.117V8.64ZM843.637 2.98H841.577V5.94C841.577 9.28 839.837 12.7 836.997 14.08L838.257 15.74C840.337 14.68 841.837 12.58 842.617 10.08C843.397 12.5 844.837 14.38 846.777 15.4L848.037 13.76C845.337 12.44 843.637 9.16 843.637 5.94V2.98Z" fill="black"/>
<path d="M869.015 1.48V5.64H865.675C865.295 3.62 863.395 2.28 861.075 2.28C858.375 2.28 856.355 4.02 856.355 6.5C856.355 9 858.375 10.74 861.075 10.74C863.475 10.74 865.295 9.34 865.675 7.32H869.015V11.16H871.075V1.48H869.015ZM861.075 9.04C859.475 9.04 858.335 8.02 858.335 6.5C858.335 4.96 859.475 3.98 861.075 3.98C862.675 3.98 863.795 4.96 863.795 6.5C863.795 8.02 862.615 9.04 861.075 9.04ZM869.035 14.06H861.375V12.02H859.335V19.32H871.075V12.02H869.035V14.06ZM869.035 17.66H861.375V15.66H869.035V17.66Z" fill="black"/>
<path d="M889.014 5.88V1.48H886.954V12.28H889.014V7.58H891.574V5.88H889.014ZM885.514 9.98C882.754 9.08 881.254 7.02 881.254 4.76V4.42H885.034V2.76H875.334V4.42H879.174V4.78C879.174 7.24 877.594 9.58 874.754 10.54L875.794 12.16C877.954 11.42 879.474 9.88 880.274 7.96C881.054 9.64 882.494 10.94 884.514 11.58L885.514 9.98ZM883.194 12.7C879.474 12.7 877.174 13.96 877.174 16.12C877.174 18.28 879.474 19.54 883.194 19.54C886.914 19.54 889.214 18.28 889.214 16.12C889.214 13.96 886.914 12.7 883.194 12.7ZM883.194 17.92C880.614 17.92 879.214 17.32 879.214 16.12C879.214 14.92 880.614 14.32 883.194 14.32C885.774 14.32 887.174 14.92 887.174 16.12C887.174 17.32 885.774 17.92 883.194 17.92Z" fill="black"/>
<path d="M913.465 1.48H911.405V14.6H913.465V1.48ZM908.505 7.2C908.505 4.54 906.445 2.68 903.725 2.68C901.005 2.68 898.925 4.54 898.925 7.2C898.925 9.82 901.005 11.72 903.725 11.72C906.445 11.72 908.505 9.82 908.505 7.2ZM900.945 7.2C900.945 5.52 902.125 4.46 903.725 4.46C905.305 4.46 906.505 5.52 906.505 7.2C906.505 8.84 905.305 9.94 903.725 9.94C902.125 9.94 900.945 8.84 900.945 7.2ZM903.745 17.52V13.28H901.665V19.2H913.985V17.52H903.745Z" fill="black"/>
<path d="M918.923 9.04C922.143 8.7 924.563 7.4 925.543 5.54C926.503 7.4 928.963 8.7 932.163 9.04L932.883 7.44C929.523 7.12 927.183 5.66 926.923 4.02H932.223V2.36H918.883V4.02H924.143C923.883 5.66 921.543 7.12 918.183 7.44L918.923 9.04ZM917.363 9.96V11.62H933.703V9.96H917.363ZM925.503 12.92C921.643 12.92 919.283 14.14 919.283 16.24C919.283 18.34 921.643 19.54 925.503 19.54C929.483 19.54 931.723 18.34 931.723 16.24C931.723 14.14 929.383 12.92 925.503 12.92ZM925.503 17.92C922.843 17.92 921.383 17.36 921.383 16.24C921.383 15.12 922.843 14.54 925.503 14.54C928.163 14.54 929.643 15.12 929.643 16.24C929.643 17.36 928.163 17.92 925.503 17.92Z" fill="black"/>
<path d="M162.82 585.3H160.3C160.76 582.74 160.76 580.86 160.76 579.16V577.58H148.44V579.24H158.74C158.74 580.9 158.76 582.8 158.22 585.3H146.48V587H153.54V594.54H155.62V587H162.82V585.3Z" fill="black"/>
<path d="M179.158 583.7C179.618 581.54 179.598 580.02 179.598 578.64V577.26H167.338V578.92H177.578C177.578 580.28 177.538 581.7 177.118 583.7H165.278V585.38H181.638V583.7H179.158ZM177.518 588.96H169.358V586.8H167.318V594.32H179.578V586.8H177.518V588.96ZM177.518 592.66H169.358V590.56H177.518V592.66Z" fill="black"/>
<path d="M196.917 576.48V594.54H198.977V576.48H196.917ZM185.357 578.28V579.96H191.697C191.617 581.08 191.457 582.02 191.197 582.78L184.437 583.2L184.717 584.98L190.557 584.44C189.437 586.68 187.517 588.52 184.317 590.12L185.437 591.74C192.057 588.44 193.757 583.66 193.757 578.28H185.357Z" fill="black"/>
<path d="M217.415 586.02H206.995V583.54H216.875V581.92H206.995V579.6H217.275V577.94H204.895V587.68H217.415V586.02ZM202.875 590.64V592.32H219.255V590.64H202.875Z" fill="black"/>
<path d="M225.374 595.9L226.814 595.26C225.054 592.36 224.294 589.12 224.294 585.66C224.294 582.22 225.054 578.96 226.814 576.06L225.374 575.44C223.514 578.46 222.414 581.72 222.414 585.66C222.414 589.64 223.514 592.86 225.374 595.9Z" fill="black"/>
<path d="M230.103 593H232.423V586.66H237.863V584.72H232.423V580.22H238.823V578.28H230.103V593Z" fill="black"/>
<path d="M241.311 577.34V579.82H243.671V577.34H241.311ZM243.611 593V582H241.331V593H243.611Z" fill="black"/>
<path d="M247.167 593H249.447V586.14C250.147 584.4 251.227 583.78 252.127 583.78C252.587 583.78 252.847 583.82 253.227 583.96L253.647 581.96C253.307 581.8 252.947 581.72 252.407 581.72C251.207 581.72 250.067 582.54 249.287 583.98H249.227L249.047 582H247.167V593Z" fill="black"/>
<path d="M258.634 593.26C261.354 593.26 262.814 591.76 262.814 589.92C262.814 587.84 261.114 587.16 259.574 586.58C258.374 586.14 257.234 585.78 257.234 584.84C257.234 584.06 257.794 583.48 258.994 583.48C259.934 583.48 260.674 583.88 261.454 584.44L262.534 583.02C261.634 582.32 260.474 581.72 258.954 581.72C256.534 581.72 255.054 583.1 255.054 584.94C255.054 586.82 256.754 587.56 258.194 588.14C259.394 588.62 260.634 589.02 260.634 590.04C260.634 590.9 260.054 591.52 258.694 591.52C257.494 591.52 256.554 591.04 255.574 590.26L254.494 591.74C255.554 592.62 257.114 593.26 258.634 593.26Z" fill="black"/>
<path d="M268.894 593.26C269.694 593.26 270.434 593.08 271.054 592.86L270.634 591.16C270.314 591.3 269.834 591.42 269.454 591.42C268.314 591.42 267.854 590.78 267.854 589.42V583.84H270.714V582H267.854V578.96H265.914L265.654 582L263.954 582.12V583.84H265.554V589.4C265.554 591.72 266.414 593.26 268.894 593.26Z" fill="black"/>
<path d="M286.636 593H289.096L284.216 578.28H281.536L276.656 593H279.016L280.276 588.8H285.396L286.636 593ZM280.816 586.98L281.416 585C281.896 583.4 282.356 581.78 282.776 580.1H282.856C283.316 581.78 283.756 583.4 284.256 585L284.836 586.98H280.816Z" fill="black"/>
<path d="M290.938 577.34V579.82H293.298V577.34H290.938ZM293.238 593V582H290.958V593H293.238Z" fill="black"/>
<path d="M300.614 593.26C301.894 593.26 302.994 592.62 303.814 591.76H303.874L304.074 593H305.954V577.06H303.654V581.14L303.754 582.96C302.854 582.18 302.074 581.72 300.794 581.72C298.334 581.72 296.074 583.92 296.074 587.52C296.074 591.22 297.794 593.26 300.614 593.26ZM301.154 591.36C299.394 591.36 298.454 589.98 298.454 587.48C298.454 585.1 299.694 583.64 301.234 583.64C302.054 583.64 302.834 583.9 303.654 584.64V590.02C302.874 590.92 302.054 591.36 301.154 591.36Z" fill="black"/>
<path d="M314.864 593H317.184V588.56L319.444 585.8L323.604 593H326.184L320.864 583.96L325.424 578.28H322.844L317.244 585.24H317.184V578.28H314.864V593Z" fill="black"/>
<path d="M328.026 577.34V579.82H330.386V577.34H328.026ZM330.326 593V582H328.046V593H330.326Z" fill="black"/>
<path d="M337.582 593.26C338.382 593.26 339.122 593.08 339.742 592.86L339.322 591.16C339.002 591.3 338.522 591.42 338.142 591.42C337.002 591.42 336.542 590.78 336.542 589.42V583.84H339.402V582H336.542V578.96H334.602L334.342 582L332.642 582.12V583.84H334.242V589.4C334.242 591.72 335.102 593.26 337.582 593.26Z" fill="black"/>
<path d="M342.832 595.9C344.732 592.86 345.812 589.64 345.812 585.66C345.812 581.72 344.732 578.46 342.832 575.44L341.392 576.06C343.152 578.96 343.912 582.22 343.912 585.66C343.912 589.12 343.152 592.36 341.392 595.26L342.832 595.9Z" fill="black"/>
<path d="M367.334 576.46V594.52H369.294V576.46H367.334ZM363.694 582.82H361.034V584.5H363.694V593.66H365.634V576.82H363.694V582.82ZM359.374 580.14H362.354V578.44H354.194V580.14H357.374V581.44C357.374 584.66 356.174 587.92 353.614 589.52L354.854 591.04C356.614 589.92 357.754 588.06 358.394 585.72C359.034 587.82 360.154 589.58 361.854 590.6L363.054 589.1C360.514 587.66 359.374 584.48 359.374 581.44V580.14Z" fill="black"/>
<path d="M376.692 581.98H374.232V583.64H387.412V581.98H384.972V578.66H387.512V577H374.132V578.66H376.692V581.98ZM382.912 581.98H378.752V578.66H382.912V581.98ZM389.012 586.74V585.08H372.672V586.74H379.812V588.58H374.632V594.32H387.032V588.58H381.872V586.74H389.012ZM385.012 592.68H376.672V590.22H385.012V592.68Z" fill="black"/>
<path d="M397.723 583.68C400.943 583.46 403.363 582.58 404.503 581.06C405.643 582.58 408.103 583.46 411.323 583.68L411.883 582.14C408.263 581.92 406.123 580.96 405.723 579.52H411.063V577.98H405.543V576.4H403.483V577.98H397.983V579.52H403.303C402.903 580.96 400.783 581.92 397.123 582.14L397.723 583.68ZM412.683 585.88V584.34H396.383V585.88H403.483V587.28H398.283V588.8H408.623V590.06H398.323V594.38H411.163V592.84H400.363V591.48H410.643V587.28H405.543V585.88H412.683Z" fill="black"/>
<path d="M427.942 576.46V594.58H430.022V576.46H427.942ZM421.822 577.98H419.762V580.94C419.762 584.4 417.882 587.9 415.002 589.18L416.222 590.9C418.402 589.84 420.002 587.74 420.822 585.08C421.642 587.58 423.222 589.52 425.302 590.5L426.502 588.86C423.662 587.58 421.822 584.28 421.822 580.94V577.98Z" fill="black"/>
<path d="M545.555 590.66V586.16H550.915V584.48H540.355V577.94H538.275V586.16H543.475V590.66H536.355V592.36H552.715V590.66H545.555Z" fill="black"/>
<path d="M564.354 585.2V583.4H569.614V581.74H559.234V578.92H569.494V577.28H557.194V583.4H562.294V585.2H555.174V586.88H571.494V585.2H564.354ZM563.274 587.98C559.414 587.98 557.054 589.18 557.054 591.26C557.054 593.36 559.414 594.56 563.274 594.56C567.254 594.56 569.494 593.36 569.494 591.26C569.494 589.18 567.154 587.98 563.274 587.98ZM563.274 592.96C560.614 592.96 559.154 592.38 559.154 591.26C559.154 590.14 560.614 589.56 563.274 589.56C565.934 589.56 567.414 590.14 567.414 591.26C567.414 592.38 565.934 592.96 563.274 592.96Z" fill="black"/>
<path d="M588.292 577.18H586.232V579.46H577.972V577.18H575.912V585.08H588.292V577.18ZM586.232 583.42H577.972V581.12H586.232V583.42ZM590.312 587.04H573.932V588.7H581.032V594.56H583.092V588.7H590.312V587.04Z" fill="black"/>
<path d="M614.423 583.64H611.603V576.48H609.543V594.54H611.603V585.34H614.423V583.64ZM603.943 577.98H601.883V580.94C601.883 584.28 600.143 587.7 597.303 589.08L598.563 590.74C600.643 589.68 602.143 587.58 602.923 585.08C603.703 587.5 605.143 589.38 607.083 590.4L608.343 588.76C605.643 587.44 603.943 584.16 603.943 580.94V577.98Z" fill="black"/>
<path d="M629.202 576.46V594.54H631.282V576.46H629.202ZM627.802 578.58H623.382V576.5H621.322V578.58H616.882V580.24H627.802V578.58ZM623.382 587.78C625.462 587.46 626.762 586.24 626.762 584.48C626.762 582.46 624.982 581.12 622.362 581.12C619.742 581.12 617.942 582.46 617.942 584.48C617.942 586.24 619.242 587.46 621.322 587.78V589.54C619.622 589.6 617.962 589.6 616.522 589.6L616.782 591.3C620.062 591.3 624.342 591.24 628.322 590.56L628.182 589.06C626.642 589.28 625.002 589.38 623.382 589.48V587.78ZM619.902 584.48C619.902 583.36 620.902 582.7 622.362 582.7C623.802 582.7 624.802 583.36 624.802 584.48C624.802 585.6 623.802 586.28 622.362 586.28C620.902 586.28 619.902 585.6 619.902 584.48Z" fill="black"/>
<path d="M648.12 576.46V581H644.96V582.7H648.12V587.26H650.18V576.46H648.12ZM645.96 585.04C643.24 584.08 641.72 581.84 641.72 579.6V579.26H645.48V577.6H635.82V579.26H639.64V579.62C639.64 582.06 638 584.44 635.2 585.4L636.26 587.02C638.42 586.28 639.92 584.72 640.72 582.78C641.5 584.54 642.94 585.94 644.94 586.64L645.96 585.04ZM638 589.82H648.12V594.54H650.18V588.16H638V589.82Z" fill="black"/>
<path d="M666.858 576.48V594.54H668.918V576.48H666.858ZM655.038 578.38V580.06H661.478C661.138 584.22 658.878 587.38 654.138 589.68L655.238 591.32C661.438 588.32 663.598 583.76 663.598 578.38H655.038Z" fill="black"/>
<path d="M685.717 576.48V580.64H682.377C681.997 578.62 680.097 577.28 677.777 577.28C675.077 577.28 673.057 579.02 673.057 581.5C673.057 584 675.077 585.74 677.777 585.74C680.177 585.74 681.997 584.34 682.377 582.32H685.717V586.16H687.777V576.48H685.717ZM677.777 584.04C676.177 584.04 675.037 583.02 675.037 581.5C675.037 579.96 676.177 578.98 677.777 578.98C679.377 578.98 680.497 579.96 680.497 581.5C680.497 583.02 679.317 584.04 677.777 584.04ZM685.737 589.06H678.077V587.02H676.037V594.32H687.777V587.02H685.737V589.06ZM685.737 592.66H678.077V590.66H685.737V592.66Z" fill="black"/>
<path d="M711.368 576.48H709.308V589.6H711.368V576.48ZM706.408 582.2C706.408 579.54 704.348 577.68 701.628 577.68C698.908 577.68 696.828 579.54 696.828 582.2C696.828 584.82 698.908 586.72 701.628 586.72C704.348 586.72 706.408 584.82 706.408 582.2ZM698.848 582.2C698.848 580.52 700.028 579.46 701.628 579.46C703.208 579.46 704.408 580.52 704.408 582.2C704.408 583.84 703.208 584.94 701.628 584.94C700.028 584.94 698.848 583.84 698.848 582.2ZM701.648 592.52V588.28H699.568V594.2H711.888V592.52H701.648Z" fill="black"/>
<path d="M716.826 584.04C720.046 583.7 722.466 582.4 723.446 580.54C724.406 582.4 726.866 583.7 730.066 584.04L730.786 582.44C727.426 582.12 725.086 580.66 724.826 579.02H730.126V577.36H716.786V579.02H722.046C721.786 580.66 719.446 582.12 716.086 582.44L716.826 584.04ZM715.266 584.96V586.62H731.606V584.96H715.266ZM723.406 587.92C719.546 587.92 717.186 589.14 717.186 591.24C717.186 593.34 719.546 594.54 723.406 594.54C727.386 594.54 729.626 593.34 729.626 591.24C729.626 589.14 727.286 587.92 723.406 587.92ZM723.406 592.92C720.746 592.92 719.286 592.36 719.286 591.24C719.286 590.12 720.746 589.54 723.406 589.54C726.066 589.54 727.546 590.12 727.546 591.24C727.546 592.36 726.066 592.92 723.406 592.92Z" fill="black"/>
<path d="M913.094 576.46V582.88H908.254V584.58H913.094V594.58H915.154V576.46H913.094ZM903.094 579.82H909.234V578.14H901.034V590.16H902.454C905.834 590.16 908.014 590.04 910.514 589.56L910.314 587.9C908.034 588.32 906.014 588.44 903.094 588.44V579.82Z" fill="black"/>
<path d="M935.752 583.64H932.932V576.48H930.872V594.54H932.932V585.34H935.752V583.64ZM925.272 577.98H923.212V580.94C923.212 584.28 921.472 587.7 918.632 589.08L919.892 590.74C921.972 589.68 923.472 587.58 924.252 585.08C925.032 587.5 926.472 589.38 928.412 590.4L929.672 588.76C926.972 587.44 925.272 584.16 925.272 580.94V577.98Z" fill="black"/>
<path d="M951.85 580.86V576.46H949.79V587.34H951.85V582.56H954.41V580.86H951.85ZM948.25 584.2C945.77 584.68 943.57 584.78 940.49 584.78V582.72H946.63V577.56H938.43V579.22H944.59V581.16H938.47V586.46H939.93C943.39 586.46 945.73 586.36 948.47 585.88L948.25 584.2ZM946.01 587.82C942.25 587.82 939.99 589.04 939.99 591.18C939.99 593.3 942.25 594.54 946.01 594.54C949.77 594.54 952.03 593.3 952.03 591.18C952.03 589.04 949.77 587.82 946.01 587.82ZM946.01 592.96C943.43 592.96 942.01 592.38 942.01 591.18C942.01 590.04 943.43 589.42 946.01 589.42C948.59 589.42 950.01 590.04 950.01 591.18C950.01 592.38 948.59 592.96 946.01 592.96Z" fill="black"/>
<path d="M978.222 583.64H975.402V576.48H973.342V594.54H975.402V585.34H978.222V583.64ZM967.742 577.98H965.682V580.94C965.682 584.28 963.942 587.7 961.102 589.08L962.362 590.74C964.442 589.68 965.942 587.58 966.722 585.08C967.502 587.5 968.942 589.38 970.882 590.4L972.142 588.76C969.442 587.44 967.742 584.16 967.742 580.94V577.98Z" fill="black"/>
<path d="M993.12 576.48V580.64H989.78C989.4 578.62 987.5 577.28 985.18 577.28C982.48 577.28 980.46 579.02 980.46 581.5C980.46 584 982.48 585.74 985.18 585.74C987.58 585.74 989.4 584.34 989.78 582.32H993.12V586.16H995.18V576.48H993.12ZM985.18 584.04C983.58 584.04 982.44 583.02 982.44 581.5C982.44 579.96 983.58 578.98 985.18 578.98C986.78 578.98 987.9 579.96 987.9 581.5C987.9 583.02 986.72 584.04 985.18 584.04ZM993.14 589.06H985.48V587.02H983.44V594.32H995.18V587.02H993.14V589.06ZM993.14 592.66H985.48V590.66H993.14V592.66Z" fill="black"/>
<path d="M1013.12 580.88V576.48H1011.06V587.28H1013.12V582.58H1015.68V580.88H1013.12ZM1009.62 584.98C1006.86 584.08 1005.36 582.02 1005.36 579.76V579.42H1009.14V577.76H999.438V579.42H1003.28V579.78C1003.28 582.24 1001.7 584.58 998.858 585.54L999.898 587.16C1002.06 586.42 1003.58 584.88 1004.38 582.96C1005.16 584.64 1006.6 585.94 1008.62 586.58L1009.62 584.98ZM1007.3 587.7C1003.58 587.7 1001.28 588.96 1001.28 591.12C1001.28 593.28 1003.58 594.54 1007.3 594.54C1011.02 594.54 1013.32 593.28 1013.32 591.12C1013.32 588.96 1011.02 587.7 1007.3 587.7ZM1007.3 592.92C1004.72 592.92 1003.32 592.32 1003.32 591.12C1003.32 589.92 1004.72 589.32 1007.3 589.32C1009.88 589.32 1011.28 589.92 1011.28 591.12C1011.28 592.32 1009.88 592.92 1007.3 592.92Z" fill="black"/>
<path d="M1035.47 576.46V594.58H1037.55V576.46H1035.47ZM1027.93 577.8C1025.27 577.8 1023.29 580.28 1023.29 584.16C1023.29 588.08 1025.27 590.54 1027.93 590.54C1030.63 590.54 1032.59 588.08 1032.59 584.16C1032.59 580.28 1030.63 577.8 1027.93 577.8ZM1027.93 579.66C1029.53 579.66 1030.61 581.34 1030.61 584.16C1030.61 587.06 1029.53 588.7 1027.93 588.7C1026.33 588.7 1025.27 587.06 1025.27 584.16C1025.27 581.34 1026.33 579.66 1027.93 579.66Z" fill="black"/>
<path d="M1051.11 581.32V583.02H1054.39V589.7H1056.45V576.5H1054.39V581.32H1051.11ZM1052.23 585.54C1049.51 584.58 1047.99 582.34 1047.99 580.12V579.5H1051.75V577.84H1042.09V579.5H1045.91V580.12C1045.91 582.54 1044.27 584.96 1041.47 585.92L1042.53 587.54C1044.69 586.8 1046.19 585.26 1046.99 583.26C1047.77 585.04 1049.21 586.44 1051.21 587.14L1052.23 585.54ZM1046.81 592.52V588.56H1044.75V594.2H1056.91V592.52H1046.81Z" fill="black"/>
<path d="M372.796 385.3H370.276C370.736 382.74 370.736 380.86 370.736 379.16V377.58H358.416V379.24H368.716C368.716 380.9 368.736 382.8 368.196 385.3H356.456V387H363.516V394.54H365.596V387H372.796V385.3Z" fill="black"/>
<path d="M390.914 385.3C387.354 384.66 384.454 381.88 384.454 379V377.64H382.274V379C382.274 381.82 379.374 384.66 375.814 385.3L376.694 387C379.634 386.42 382.174 384.5 383.354 382.04C384.534 384.5 387.074 386.42 390.014 387L390.914 385.3ZM375.254 390.52V392.22H391.614V390.52H375.254Z" fill="black"/>
<path d="M403.253 390.72V387.32H408.593V385.68H398.173V383.32H408.033V381.7H398.173V379.52H408.433V377.84H396.073V387.32H401.173V390.72H394.053V392.42H410.413V390.72H403.253Z" fill="black"/>
<path d="M425.731 376.48V383.58H421.931V385.28H425.731V394.56H427.811V376.48H425.731ZM413.811 378.28V379.96H419.931C419.871 380.98 419.691 381.9 419.451 382.8L412.871 383.2L413.171 384.96L418.811 384.44C417.751 386.7 415.851 388.5 412.791 390.1L413.911 391.7C420.331 388.38 421.991 383.7 421.991 378.28H413.811Z" fill="black"/>
<path d="M444.49 376.48V394.56H446.55V376.48H444.49ZM440.47 379.96H442.27V378.3H432.09V379.96H433.89V388.5C433.09 388.52 432.31 388.52 431.61 388.52L431.83 390.22C435.13 390.22 439.39 390.16 443.23 389.52L443.11 388C442.25 388.1 441.37 388.2 440.47 388.26V379.96ZM435.89 379.96H438.47V388.38C437.61 388.44 436.75 388.42 435.89 388.48V379.96Z" fill="black"/>
<path d="M459.321 385.74H456.721V387.42H470.201V385.74H467.581V379.84H470.241V378.18H456.661V379.84H459.321V385.74ZM465.541 385.74H461.381V379.84H465.541V385.74ZM455.301 390.62V392.32H471.701V390.62H455.301Z" fill="black"/>
<path d="M483.299 390.72V387.64H488.939V385.98H478.119V383.46H488.539V377.74H476.059V379.4H486.499V381.82H476.099V387.64H481.239V390.72H474.119V392.42H490.479V390.72H483.299Z" fill="black"/>
<path d="M506.238 376.48V387.5H508.198V376.48H506.238ZM500.378 381.04V382.74H502.758V387.38H504.678V376.86H502.758V381.04H500.378ZM501.798 385.24C499.538 384.32 498.418 382.28 498.418 380.32V379.54H501.298V377.88H493.298V379.54H496.398V380.32C496.398 382.42 495.218 384.62 492.838 385.62L493.918 387.2C495.678 386.48 496.798 385.14 497.438 383.54C498.058 384.98 499.158 386.18 500.758 386.82L501.798 385.24ZM495.958 389.9H506.138V394.54H508.198V388.24H495.958V389.9Z" fill="black"/>
<path d="M526.256 386.02H515.836V383.54H525.716V381.92H515.836V379.6H526.116V377.94H513.736V387.68H526.256V386.02ZM511.716 390.64V392.32H528.096V390.64H511.716Z" fill="black"/>
<path d="M548.287 389.76H550.347V376.48H548.287V381.04H545.167V382.78H548.287V389.76ZM545.487 385.22C543.187 385.6 541.267 385.7 538.127 385.7V383.22H544.147V377.7H536.047V379.36H542.087V381.64H536.087V387.38H537.507C541.027 387.38 543.147 387.28 545.667 386.9L545.487 385.22ZM540.607 392.52V388.76H538.547V394.2H550.847V392.52H540.607Z" fill="black"/>
<path d="M569.066 376.48H567.006V387.48H569.066V376.48ZM565.366 385.1C562.566 384.3 560.926 382.34 560.926 380.2V380.18H564.806V378.54H560.926V376.48H558.866V378.54H554.946V380.18H558.866V380.2C558.866 382.46 557.226 384.68 554.426 385.52L555.406 387.1C557.586 386.44 559.126 385.02 559.926 383.18C560.786 384.86 562.326 386.12 564.426 386.7L565.366 385.1ZM563.026 387.82C559.226 387.82 556.906 389.06 556.906 391.18C556.906 393.3 559.226 394.54 563.026 394.54C566.826 394.54 569.146 393.3 569.146 391.18C569.146 389.06 566.826 387.82 563.026 387.82ZM563.026 392.94C560.446 392.94 558.966 392.32 558.966 391.18C558.966 390.04 560.446 389.42 563.026 389.42C565.606 389.42 567.086 390.04 567.086 391.18C567.086 392.32 565.606 392.94 563.026 392.94Z" fill="black"/>
<path d="M698.18 378.08H694.82V376.42H692.78V378.08H689.42V379.66H698.18V378.08ZM704.8 376.48H702.84V386.54H704.8V376.48ZM697.78 381.06V382.7H699.52V386.4H701.46V376.78H699.52V381.06H697.78ZM697.56 383.24C697.56 381.46 696 380.24 693.82 380.24C691.64 380.24 690.06 381.46 690.06 383.24C690.06 385.02 691.64 386.24 693.82 386.24C696 386.24 697.56 385.02 697.56 383.24ZM691.88 383.24C691.88 382.3 692.62 381.7 693.82 381.7C694.96 381.7 695.76 382.3 695.76 383.24C695.76 384.18 694.96 384.78 693.82 384.78C692.62 384.78 691.88 384.18 691.88 383.24ZM694.82 392.84V391.48H704.8V387.26H692.74V388.78H702.78V390.04H692.78V394.38H705.4V392.84H694.82Z" fill="black"/>
<path d="M717.498 390.72V387.64H723.138V385.98H712.318V383.46H722.738V377.74H710.258V379.4H720.698V381.82H710.298V387.64H715.438V390.72H708.318V392.42H724.678V390.72H717.498Z" fill="black"/>
<path d="M741.956 376.48H739.876V390.2H741.956V376.48ZM733.036 383.96C735.756 383.96 737.596 382.62 737.596 380.56C737.596 378.54 735.756 377.2 733.036 377.2C730.316 377.2 728.456 378.54 728.456 380.56C728.456 382.62 730.316 383.96 733.036 383.96ZM733.036 378.74C734.636 378.74 735.656 379.44 735.656 380.56C735.656 381.7 734.636 382.4 733.036 382.4C731.436 382.4 730.417 381.7 730.417 380.56C730.417 379.44 731.436 378.74 733.036 378.74ZM732.276 389.62H734.336V386.58C735.856 386.5 737.376 386.32 738.876 386.04L738.737 384.58C734.897 385.12 730.476 385.12 727.156 385.12L727.417 386.8C728.877 386.8 730.516 386.78 732.276 386.72V389.62ZM731.596 392.52V389H729.536V394.2H742.417V392.52H731.596Z" fill="black"/>
<path d="M758.835 376.44V383.08H755.375V384.78H758.835V394.56H760.915V376.44H758.835ZM748.775 384.76H754.355V383.12H748.775V379.74H755.095V378.04H746.715V390.34H748.135C751.375 390.34 753.695 390.28 756.255 389.8L756.075 388.14C753.715 388.52 751.635 388.66 748.775 388.66V384.76Z" fill="black"/>
<path d="M782.426 376.48V394.54H784.486V376.48H782.426ZM770.606 378.38V380.06H777.046C776.706 384.22 774.446 387.38 769.706 389.68L770.806 391.32C777.006 388.32 779.166 383.76 779.166 378.38H770.606Z" fill="black"/>
<path d="M792.384 385.74H789.784V387.42H803.264V385.74H800.644V379.84H803.304V378.18H789.724V379.84H792.384V385.74ZM798.604 385.74H794.444V379.84H798.604V385.74ZM788.364 390.62V392.32H804.764V390.62H788.364Z" fill="black"/>
<path d="M821.723 386.02H811.303V383.54H821.183V381.92H811.303V379.6H821.583V377.94H809.203V387.68H821.723V386.02ZM807.183 390.64V392.32H823.563V390.64H807.183Z" fill="black"/>
<path d="M844.314 376.48V394.54H846.274V376.48H844.314ZM840.634 382.8H837.974V384.48H840.634V393.7H842.574V376.82H840.634V382.8ZM836.394 378.14H834.394V381.4C834.394 384.48 833.154 387.7 830.594 389.24L831.854 390.8C833.614 389.74 834.774 387.88 835.414 385.62C836.034 387.64 837.074 389.38 838.754 390.4L839.914 388.8C837.494 387.24 836.394 384.24 836.394 381.3V378.14Z" fill="black"/>
<path d="M864.192 386.02H853.772V383.54H863.652V381.92H853.772V379.6H864.052V377.94H851.672V387.68H864.192V386.02ZM849.652 390.64V392.32H866.032V390.64H849.652Z" fill="black"/>
<path d="M874.684 383.68C877.904 383.46 880.324 382.58 881.464 381.06C882.604 382.58 885.064 383.46 888.284 383.68L888.844 382.14C885.224 381.92 883.084 380.96 882.684 379.52H888.024V377.98H882.504V376.4H880.444V377.98H874.944V379.52H880.264C879.864 380.96 877.744 381.92 874.084 382.14L874.684 383.68ZM889.644 385.88V384.34H873.344V385.88H880.444V387.28H875.244V388.8H885.584V390.06H875.284V394.38H888.124V392.84H877.324V391.48H887.604V387.28H882.504V385.88H889.644Z" fill="black"/>
<path d="M904.902 376.46V394.58H906.982V376.46H904.902ZM898.782 377.98H896.722V380.94C896.722 384.4 894.842 387.9 891.962 389.18L893.182 390.9C895.362 389.84 896.962 387.74 897.782 385.08C898.602 387.58 900.182 389.52 902.262 390.5L903.462 388.86C900.622 387.58 898.782 384.28 898.782 380.94V377.98Z" fill="black"/>
</svg>
