<svg width="275" height="917" viewBox="0 0 275 917" fill="none" xmlns="http://www.w3.org/2000/svg">
<path d="M48.752 47.432H44.656C44.144 47.432 43.616 47.528 43.12 47.656L46.128 44.616C47.312 43.432 48.544 42.168 48.544 40.376C48.544 38.232 46.912 37.048 44.928 37.048C42.736 37.048 41.264 38.312 40.96 40.424L42.72 40.744C42.624 39.48 43.568 38.552 44.832 38.552C47.104 38.552 47.008 40.792 46.208 42.232C45.792 42.888 45.28 43.432 44.736 43.976L40.752 47.976V49H48.752V47.432Z" fill="#E50012"/>
<path d="M58.6032 43.096C58.6032 40.376 57.6272 37.048 54.2832 37.048C50.9872 37.048 49.9792 40.28 49.9792 43.096C49.9792 45.912 50.9872 49.128 54.2832 49.128C57.5792 49.128 58.6032 45.912 58.6032 43.096ZM56.7792 43.096C56.7792 44.744 56.4912 47.656 54.2832 47.656C52.0912 47.656 51.7872 44.744 51.7872 43.096C51.7872 41.448 52.0752 38.536 54.2832 38.536C56.4912 38.536 56.7792 41.448 56.7792 43.096Z" fill="#E50012"/>
<path d="M63.5105 39.448C63.4945 39.72 63.4945 39.992 63.4945 40.248V47.464H61.0305V49H67.4785V47.464H65.2545V37.144H63.8145L60.6145 39.88L61.5905 41.064L63.5105 39.448Z" fill="#E50012"/>
<path d="M77.6657 43.096C77.6657 40.376 76.6897 37.048 73.3457 37.048C70.0497 37.048 69.0417 40.28 69.0417 43.096C69.0417 45.912 70.0497 49.128 73.3457 49.128C76.6417 49.128 77.6657 45.912 77.6657 43.096ZM75.8417 43.096C75.8417 44.744 75.5537 47.656 73.3457 47.656C71.1537 47.656 70.8497 44.744 70.8497 43.096C70.8497 41.448 71.1377 38.536 73.3457 38.536C75.5537 38.536 75.8417 41.448 75.8417 43.096Z" fill="#E50012"/>
<path d="M80.717 47.224H78.829V49.208H80.717V47.224Z" fill="#E50012"/>
<path d="M86.6153 49L89.6873 44.6C90.4873 43.432 91.0473 42.36 91.0473 40.904C91.0473 38.536 89.4633 37.048 87.1913 37.048C84.9673 37.048 83.2073 38.6 83.2073 40.824C83.2073 42.808 84.5513 44.216 86.5033 44.216C87.2553 44.216 87.9593 44.024 88.5673 43.592L88.0073 44.36L84.3753 49H86.6153ZM84.9673 40.696C84.9673 39.384 85.8953 38.504 87.1593 38.504C88.5193 38.504 89.3513 39.416 89.3513 40.712C89.3513 41.992 88.4233 42.872 87.1113 42.872C85.7513 42.872 84.9673 42.04 84.9673 40.696Z" fill="#E50012"/>
<path d="M48.752 139.432H44.656C44.144 139.432 43.616 139.528 43.12 139.656L46.128 136.616C47.312 135.432 48.544 134.168 48.544 132.376C48.544 130.232 46.912 129.048 44.928 129.048C42.736 129.048 41.264 130.312 40.96 132.424L42.72 132.744C42.624 131.48 43.568 130.552 44.832 130.552C47.104 130.552 47.008 132.792 46.208 134.232C45.792 134.888 45.28 135.432 44.736 135.976L40.752 139.976V141H48.752V139.432Z" fill="#E50012"/>
<path d="M58.6032 135.096C58.6032 132.376 57.6272 129.048 54.2832 129.048C50.9872 129.048 49.9792 132.28 49.9792 135.096C49.9792 137.912 50.9872 141.128 54.2832 141.128C57.5792 141.128 58.6032 137.912 58.6032 135.096ZM56.7792 135.096C56.7792 136.744 56.4912 139.656 54.2832 139.656C52.0912 139.656 51.7872 136.744 51.7872 135.096C51.7872 133.448 52.0752 130.536 54.2832 130.536C56.4912 130.536 56.7792 133.448 56.7792 135.096Z" fill="#E50012"/>
<path d="M63.5105 131.448C63.4945 131.72 63.4945 131.992 63.4945 132.248V139.464H61.0305V141H67.4785V139.464H65.2545V129.144H63.8145L60.6145 131.88L61.5905 133.064L63.5105 131.448Z" fill="#E50012"/>
<path d="M77.6657 135.096C77.6657 132.376 76.6897 129.048 73.3457 129.048C70.0497 129.048 69.0417 132.28 69.0417 135.096C69.0417 137.912 70.0497 141.128 73.3457 141.128C76.6417 141.128 77.6657 137.912 77.6657 135.096ZM75.8417 135.096C75.8417 136.744 75.5537 139.656 73.3457 139.656C71.1537 139.656 70.8497 136.744 70.8497 135.096C70.8497 133.448 71.1377 130.536 73.3457 130.536C75.5537 130.536 75.8417 133.448 75.8417 135.096Z" fill="#E50012"/>
<path d="M80.717 139.224H78.829V141.208H80.717V139.224Z" fill="#E50012"/>
<path d="M86.8073 131.448C86.7913 131.72 86.7913 131.992 86.7913 132.248V139.464H84.3273V141H90.7753V139.464H88.5513V129.144H87.1113L83.9113 131.88L84.8873 133.064L86.8073 131.448Z" fill="#E50012"/>
<path d="M100.643 139.432H96.5466C96.0346 139.432 95.5066 139.528 95.0106 139.656L98.0186 136.616C99.2026 135.432 100.435 134.168 100.435 132.376C100.435 130.232 98.8026 129.048 96.8186 129.048C94.6266 129.048 93.1546 130.312 92.8506 132.424L94.6106 132.744C94.5146 131.48 95.4586 130.552 96.7226 130.552C98.9946 130.552 98.8986 132.792 98.0986 134.232C97.6826 134.888 97.1706 135.432 96.6266 135.976L92.6426 139.976V141H100.643V139.432Z" fill="#E50012"/>
<path d="M48.752 231.432H44.656C44.144 231.432 43.616 231.528 43.12 231.656L46.128 228.616C47.312 227.432 48.544 226.168 48.544 224.376C48.544 222.232 46.912 221.048 44.928 221.048C42.736 221.048 41.264 222.312 40.96 224.424L42.72 224.744C42.624 223.48 43.568 222.552 44.832 222.552C47.104 222.552 47.008 224.792 46.208 226.232C45.792 226.888 45.28 227.432 44.736 227.976L40.752 231.976V233H48.752V231.432Z" fill="#E50012"/>
<path d="M58.6032 227.096C58.6032 224.376 57.6272 221.048 54.2832 221.048C50.9872 221.048 49.9792 224.28 49.9792 227.096C49.9792 229.912 50.9872 233.128 54.2832 233.128C57.5792 233.128 58.6032 229.912 58.6032 227.096ZM56.7792 227.096C56.7792 228.744 56.4912 231.656 54.2832 231.656C52.0912 231.656 51.7872 228.744 51.7872 227.096C51.7872 225.448 52.0752 222.536 54.2832 222.536C56.4912 222.536 56.7792 225.448 56.7792 227.096Z" fill="#E50012"/>
<path d="M63.5105 223.448C63.4945 223.72 63.4945 223.992 63.4945 224.248V231.464H61.0305V233H67.4785V231.464H65.2545V221.144H63.8145L60.6145 223.88L61.5905 225.064L63.5105 223.448Z" fill="#E50012"/>
<path d="M73.0417 223.448C73.0257 223.72 73.0257 223.992 73.0257 224.248V231.464H70.5617V233H77.0097V231.464H74.7857V221.144H73.3457L70.1457 223.88L71.1217 225.064L73.0417 223.448Z" fill="#E50012"/>
<path d="M80.717 231.224H78.829V233.208H80.717V231.224Z" fill="#E50012"/>
<path d="M91.1113 231.432H87.0153C86.5033 231.432 85.9753 231.528 85.4793 231.656L88.4873 228.616C89.6713 227.432 90.9033 226.168 90.9033 224.376C90.9033 222.232 89.2713 221.048 87.2873 221.048C85.0953 221.048 83.6233 222.312 83.3193 224.424L85.0793 224.744C84.9833 223.48 85.9273 222.552 87.1913 222.552C89.4633 222.552 89.3673 224.792 88.5673 226.232C88.1513 226.888 87.6393 227.432 87.0953 227.976L83.1113 231.976V233H91.1113V231.432Z" fill="#E50012"/>
<path d="M48.752 323.432H44.656C44.144 323.432 43.616 323.528 43.12 323.656L46.128 320.616C47.312 319.432 48.544 318.168 48.544 316.376C48.544 314.232 46.912 313.048 44.928 313.048C42.736 313.048 41.264 314.312 40.96 316.424L42.72 316.744C42.624 315.48 43.568 314.552 44.832 314.552C47.104 314.552 47.008 316.792 46.208 318.232C45.792 318.888 45.28 319.432 44.736 319.976L40.752 323.976V325H48.752V323.432Z" fill="#E50012"/>
<path d="M58.6032 319.096C58.6032 316.376 57.6272 313.048 54.2832 313.048C50.9872 313.048 49.9792 316.28 49.9792 319.096C49.9792 321.912 50.9872 325.128 54.2832 325.128C57.5792 325.128 58.6032 321.912 58.6032 319.096ZM56.7792 319.096C56.7792 320.744 56.4912 323.656 54.2832 323.656C52.0912 323.656 51.7872 320.744 51.7872 319.096C51.7872 317.448 52.0752 314.536 54.2832 314.536C56.4912 314.536 56.7792 317.448 56.7792 319.096Z" fill="#E50012"/>
<path d="M63.5105 315.448C63.4945 315.72 63.4945 315.992 63.4945 316.248V323.464H61.0305V325H67.4785V323.464H65.2545V313.144H63.8145L60.6145 315.88L61.5905 317.064L63.5105 315.448Z" fill="#E50012"/>
<path d="M77.3457 323.432H73.2497C72.7377 323.432 72.2097 323.528 71.7137 323.656L74.7217 320.616C75.9057 319.432 77.1377 318.168 77.1377 316.376C77.1377 314.232 75.5057 313.048 73.5217 313.048C71.3297 313.048 69.8577 314.312 69.5537 316.424L71.3137 316.744C71.2177 315.48 72.1617 314.552 73.4257 314.552C75.6977 314.552 75.6017 316.792 74.8017 318.232C74.3857 318.888 73.8737 319.432 73.3297 319.976L69.3457 323.976V325H77.3457V323.432Z" fill="#E50012"/>
<path d="M80.717 323.224H78.829V325.208H80.717V323.224Z" fill="#E50012"/>
<path d="M91.6073 320.632H89.9753V313.16H88.3273L82.6473 320.728V322.008H88.4393V325H89.9753V322.008H91.6073V320.632ZM84.5513 320.632L88.5193 315.176C88.4713 315.592 88.4393 315.96 88.4393 316.312V320.632H84.5513Z" fill="#E50012"/>
<path d="M48.752 415.432H44.656C44.144 415.432 43.616 415.528 43.12 415.656L46.128 412.616C47.312 411.432 48.544 410.168 48.544 408.376C48.544 406.232 46.912 405.048 44.928 405.048C42.736 405.048 41.264 406.312 40.96 408.424L42.72 408.744C42.624 407.48 43.568 406.552 44.832 406.552C47.104 406.552 47.008 408.792 46.208 410.232C45.792 410.888 45.28 411.432 44.736 411.976L40.752 415.976V417H48.752V415.432Z" fill="#E50012"/>
<path d="M58.6032 411.096C58.6032 408.376 57.6272 405.048 54.2832 405.048C50.9872 405.048 49.9792 408.28 49.9792 411.096C49.9792 413.912 50.9872 417.128 54.2832 417.128C57.5792 417.128 58.6032 413.912 58.6032 411.096ZM56.7792 411.096C56.7792 412.744 56.4912 415.656 54.2832 415.656C52.0912 415.656 51.7872 412.744 51.7872 411.096C51.7872 409.448 52.0752 406.536 54.2832 406.536C56.4912 406.536 56.7792 409.448 56.7792 411.096Z" fill="#E50012"/>
<path d="M63.5105 407.448C63.4945 407.72 63.4945 407.992 63.4945 408.248V415.464H61.0305V417H67.4785V415.464H65.2545V405.144H63.8145L60.6145 407.88L61.5905 409.064L63.5105 407.448Z" fill="#E50012"/>
<path d="M77.3457 415.432H73.2497C72.7377 415.432 72.2097 415.528 71.7137 415.656L74.7217 412.616C75.9057 411.432 77.1377 410.168 77.1377 408.376C77.1377 406.232 75.5057 405.048 73.5217 405.048C71.3297 405.048 69.8577 406.312 69.5537 408.424L71.3137 408.744C71.2177 407.48 72.1617 406.552 73.4257 406.552C75.6977 406.552 75.6017 408.792 74.8017 410.232C74.3857 410.888 73.8737 411.432 73.3297 411.976L69.3457 415.976V417H77.3457V415.432Z" fill="#E50012"/>
<path d="M80.717 415.224H78.829V417.208H80.717V415.224Z" fill="#E50012"/>
<path d="M87.7673 405.176L84.5353 409.496C83.7993 410.488 83.1273 411.752 83.1273 413.016C83.1273 415.528 84.6793 417.128 87.1273 417.128C89.4153 417.128 91.2553 415.512 91.2553 413.208C91.2553 411.16 89.8953 409.672 87.7513 409.672C87.1273 409.672 86.5033 409.832 85.9593 410.136L89.9593 405.176H87.7673ZM87.0953 415.672C85.6233 415.672 84.8233 414.68 84.8233 413.304C84.8233 411.992 85.8153 411.016 87.1593 411.016C88.5673 411.016 89.4953 411.928 89.4953 413.336C89.4953 414.728 88.4233 415.672 87.0953 415.672Z" fill="#E50012"/>
<path d="M48.752 507.432H44.656C44.144 507.432 43.616 507.528 43.12 507.656L46.128 504.616C47.312 503.432 48.544 502.168 48.544 500.376C48.544 498.232 46.912 497.048 44.928 497.048C42.736 497.048 41.264 498.312 40.96 500.424L42.72 500.744C42.624 499.48 43.568 498.552 44.832 498.552C47.104 498.552 47.008 500.792 46.208 502.232C45.792 502.888 45.28 503.432 44.736 503.976L40.752 507.976V509H48.752V507.432Z" fill="#E50012"/>
<path d="M58.6032 503.096C58.6032 500.376 57.6272 497.048 54.2832 497.048C50.9872 497.048 49.9792 500.28 49.9792 503.096C49.9792 505.912 50.9872 509.128 54.2832 509.128C57.5792 509.128 58.6032 505.912 58.6032 503.096ZM56.7792 503.096C56.7792 504.744 56.4912 507.656 54.2832 507.656C52.0912 507.656 51.7872 504.744 51.7872 503.096C51.7872 501.448 52.0752 498.536 54.2832 498.536C56.4912 498.536 56.7792 501.448 56.7792 503.096Z" fill="#E50012"/>
<path d="M63.5105 499.448C63.4945 499.72 63.4945 499.992 63.4945 500.248V507.464H61.0305V509H67.4785V507.464H65.2545V497.144H63.8145L60.6145 499.88L61.5905 501.064L63.5105 499.448Z" fill="#E50012"/>
<path d="M77.3457 507.432H73.2497C72.7377 507.432 72.2097 507.528 71.7137 507.656L74.7217 504.616C75.9057 503.432 77.1377 502.168 77.1377 500.376C77.1377 498.232 75.5057 497.048 73.5217 497.048C71.3297 497.048 69.8577 498.312 69.5537 500.424L71.3137 500.744C71.2177 499.48 72.1617 498.552 73.4257 498.552C75.6977 498.552 75.6017 500.792 74.8017 502.232C74.3857 502.888 73.8737 503.432 73.3297 503.976L69.3457 507.976V509H77.3457V507.432Z" fill="#E50012"/>
<path d="M80.717 507.224H78.829V509.208H80.717V507.224Z" fill="#E50012"/>
<path d="M86.8073 499.448C86.7913 499.72 86.7913 499.992 86.7913 500.248V507.464H84.3273V509H90.7753V507.464H88.5513V497.144H87.1113L83.9113 499.88L84.8873 501.064L86.8073 499.448Z" fill="#E50012"/>
<path d="M100.963 503.096C100.963 500.376 99.9866 497.048 96.6426 497.048C93.3466 497.048 92.3386 500.28 92.3386 503.096C92.3386 505.912 93.3466 509.128 96.6426 509.128C99.9386 509.128 100.963 505.912 100.963 503.096ZM99.1386 503.096C99.1386 504.744 98.8506 507.656 96.6426 507.656C94.4506 507.656 94.1466 504.744 94.1466 503.096C94.1466 501.448 94.4346 498.536 96.6426 498.536C98.8506 498.536 99.1386 501.448 99.1386 503.096Z" fill="#E50012"/>
<path d="M48.752 599.432H44.656C44.144 599.432 43.616 599.528 43.12 599.656L46.128 596.616C47.312 595.432 48.544 594.168 48.544 592.376C48.544 590.232 46.912 589.048 44.928 589.048C42.736 589.048 41.264 590.312 40.96 592.424L42.72 592.744C42.624 591.48 43.568 590.552 44.832 590.552C47.104 590.552 47.008 592.792 46.208 594.232C45.792 594.888 45.28 595.432 44.736 595.976L40.752 599.976V601H48.752V599.432Z" fill="#E50012"/>
<path d="M58.6032 595.096C58.6032 592.376 57.6272 589.048 54.2832 589.048C50.9872 589.048 49.9792 592.28 49.9792 595.096C49.9792 597.912 50.9872 601.128 54.2832 601.128C57.5792 601.128 58.6032 597.912 58.6032 595.096ZM56.7792 595.096C56.7792 596.744 56.4912 599.656 54.2832 599.656C52.0912 599.656 51.7872 596.744 51.7872 595.096C51.7872 593.448 52.0752 590.536 54.2832 590.536C56.4912 590.536 56.7792 593.448 56.7792 595.096Z" fill="#E50012"/>
<path d="M63.5105 591.448C63.4945 591.72 63.4945 591.992 63.4945 592.248V599.464H61.0305V601H67.4785V599.464H65.2545V589.144H63.8145L60.6145 591.88L61.5905 593.064L63.5105 591.448Z" fill="#E50012"/>
<path d="M69.5057 599.8C69.6977 599.976 69.9057 600.136 70.1617 600.296C70.9137 600.856 71.9697 601.128 72.8817 601.128C75.4097 601.128 77.2177 599.448 77.2177 596.952C77.2177 594.616 75.5857 593.368 73.4257 593.368C72.9137 593.368 72.3697 593.432 71.8577 593.544L72.3377 590.792H76.8337V589.176H71.1057L70.1457 594.824L71.2337 595.128C71.8257 594.952 72.4337 594.824 73.0577 594.824C74.5297 594.824 75.4577 595.592 75.4577 597.048C75.4577 598.504 74.5457 599.624 72.9937 599.624C72.0497 599.624 71.0897 599.16 70.4177 598.52L69.5057 599.8Z" fill="#E50012"/>
<path d="M80.717 599.224H78.829V601.208H80.717V599.224Z" fill="#E50012"/>
<path d="M91.1113 599.432H87.0153C86.5033 599.432 85.9753 599.528 85.4793 599.656L88.4873 596.616C89.6713 595.432 90.9033 594.168 90.9033 592.376C90.9033 590.232 89.2713 589.048 87.2873 589.048C85.0953 589.048 83.6233 590.312 83.3193 592.424L85.0793 592.744C84.9833 591.48 85.9273 590.552 87.1913 590.552C89.4633 590.552 89.3673 592.792 88.5673 594.232C88.1513 594.888 87.6393 595.432 87.0953 595.976L83.1113 599.976V601H91.1113V599.432Z" fill="#E50012"/>
<path d="M48.752 691.432H44.656C44.144 691.432 43.616 691.528 43.12 691.656L46.128 688.616C47.312 687.432 48.544 686.168 48.544 684.376C48.544 682.232 46.912 681.048 44.928 681.048C42.736 681.048 41.264 682.312 40.96 684.424L42.72 684.744C42.624 683.48 43.568 682.552 44.832 682.552C47.104 682.552 47.008 684.792 46.208 686.232C45.792 686.888 45.28 687.432 44.736 687.976L40.752 691.976V693H48.752V691.432Z" fill="#E50012"/>
<path d="M58.6032 687.096C58.6032 684.376 57.6272 681.048 54.2832 681.048C50.9872 681.048 49.9792 684.28 49.9792 687.096C49.9792 689.912 50.9872 693.128 54.2832 693.128C57.5792 693.128 58.6032 689.912 58.6032 687.096ZM56.7792 687.096C56.7792 688.744 56.4912 691.656 54.2832 691.656C52.0912 691.656 51.7872 688.744 51.7872 687.096C51.7872 685.448 52.0752 682.536 54.2832 682.536C56.4912 682.536 56.7792 685.448 56.7792 687.096Z" fill="#E50012"/>
<path d="M63.5105 683.448C63.4945 683.72 63.4945 683.992 63.4945 684.248V691.464H61.0305V693H67.4785V691.464H65.2545V681.144H63.8145L60.6145 683.88L61.5905 685.064L63.5105 683.448Z" fill="#E50012"/>
<path d="M77.4737 681.176H69.3617V682.792H75.6817C75.4577 683.048 75.2657 683.336 75.1217 683.64L70.3537 693H72.2737L77.4737 682.424V681.176Z" fill="#E50012"/>
<path d="M80.717 691.224H78.829V693.208H80.717V691.224Z" fill="#E50012"/>
<path d="M83.0953 690.024C83.7353 692.168 84.9993 693.144 87.1593 693.144C89.3513 693.144 91.1593 691.816 91.1593 689.56C91.1593 688.072 90.3593 687.176 88.9513 686.776C90.3113 686.344 90.9033 685.448 90.9033 684.088C90.9033 682.088 89.1913 681.048 87.3993 681.048C85.2073 681.048 83.7513 682.344 83.4473 684.44L85.1913 684.744C85.0953 683.48 86.0873 682.552 87.3033 682.552C88.4713 682.552 89.1913 683.256 89.1913 684.392C89.1913 685.96 87.8633 686.312 86.5353 686.312V687.592C87.9753 687.592 89.3993 687.8 89.3993 689.608C89.3993 690.84 88.3433 691.64 87.1433 691.64C85.9273 691.64 84.7913 690.6 84.6473 689.384L83.0953 690.024Z" fill="#E50012"/>
<path d="M48.752 783.432H44.656C44.144 783.432 43.616 783.528 43.12 783.656L46.128 780.616C47.312 779.432 48.544 778.168 48.544 776.376C48.544 774.232 46.912 773.048 44.928 773.048C42.736 773.048 41.264 774.312 40.96 776.424L42.72 776.744C42.624 775.48 43.568 774.552 44.832 774.552C47.104 774.552 47.008 776.792 46.208 778.232C45.792 778.888 45.28 779.432 44.736 779.976L40.752 783.976V785H48.752V783.432Z" fill="#E50012"/>
<path d="M58.6032 779.096C58.6032 776.376 57.6272 773.048 54.2832 773.048C50.9872 773.048 49.9792 776.28 49.9792 779.096C49.9792 781.912 50.9872 785.128 54.2832 785.128C57.5792 785.128 58.6032 781.912 58.6032 779.096ZM56.7792 779.096C56.7792 780.744 56.4912 783.656 54.2832 783.656C52.0912 783.656 51.7872 780.744 51.7872 779.096C51.7872 777.448 52.0752 774.536 54.2832 774.536C56.4912 774.536 56.7792 777.448 56.7792 779.096Z" fill="#E50012"/>
<path d="M63.5105 775.448C63.4945 775.72 63.4945 775.992 63.4945 776.248V783.464H61.0305V785H67.4785V783.464H65.2545V773.144H63.8145L60.6145 775.88L61.5905 777.064L63.5105 775.448Z" fill="#E50012"/>
<path d="M72.8497 785L75.9217 780.6C76.7217 779.432 77.2817 778.36 77.2817 776.904C77.2817 774.536 75.6977 773.048 73.4257 773.048C71.2017 773.048 69.4417 774.6 69.4417 776.824C69.4417 778.808 70.7857 780.216 72.7377 780.216C73.4897 780.216 74.1937 780.024 74.8017 779.592L74.2417 780.36L70.6097 785H72.8497ZM71.2017 776.696C71.2017 775.384 72.1297 774.504 73.3937 774.504C74.7537 774.504 75.5857 775.416 75.5857 776.712C75.5857 777.992 74.6577 778.872 73.3457 778.872C71.9857 778.872 71.2017 778.04 71.2017 776.696Z" fill="#E50012"/>
<path d="M80.717 783.224H78.829V785.208H80.717V783.224Z" fill="#E50012"/>
<path d="M86.8073 775.448C86.7913 775.72 86.7913 775.992 86.7913 776.248V783.464H84.3273V785H90.7753V783.464H88.5513V773.144H87.1113L83.9113 775.88L84.8873 777.064L86.8073 775.448Z" fill="#E50012"/>
<path d="M100.643 783.432H96.5466C96.0346 783.432 95.5066 783.528 95.0106 783.656L98.0186 780.616C99.2026 779.432 100.435 778.168 100.435 776.376C100.435 774.232 98.8026 773.048 96.8186 773.048C94.6266 773.048 93.1546 774.312 92.8506 776.424L94.6106 776.744C94.5146 775.48 95.4586 774.552 96.7226 774.552C98.9946 774.552 98.8986 776.792 98.0986 778.232C97.6826 778.888 97.1706 779.432 96.6266 779.976L92.6426 783.976V785H100.643V783.432Z" fill="#E50012"/>
<path d="M48.752 875.432H44.656C44.144 875.432 43.616 875.528 43.12 875.656L46.128 872.616C47.312 871.432 48.544 870.168 48.544 868.376C48.544 866.232 46.912 865.048 44.928 865.048C42.736 865.048 41.264 866.312 40.96 868.424L42.72 868.744C42.624 867.48 43.568 866.552 44.832 866.552C47.104 866.552 47.008 868.792 46.208 870.232C45.792 870.888 45.28 871.432 44.736 871.976L40.752 875.976V877H48.752V875.432Z" fill="#E50012"/>
<path d="M58.6032 871.096C58.6032 868.376 57.6272 865.048 54.2832 865.048C50.9872 865.048 49.9792 868.28 49.9792 871.096C49.9792 873.912 50.9872 877.128 54.2832 877.128C57.5792 877.128 58.6032 873.912 58.6032 871.096ZM56.7792 871.096C56.7792 872.744 56.4912 875.656 54.2832 875.656C52.0912 875.656 51.7872 872.744 51.7872 871.096C51.7872 869.448 52.0752 866.536 54.2832 866.536C56.4912 866.536 56.7792 869.448 56.7792 871.096Z" fill="#E50012"/>
<path d="M67.8145 875.432H63.7185C63.2065 875.432 62.6785 875.528 62.1825 875.656L65.1905 872.616C66.3745 871.432 67.6065 870.168 67.6065 868.376C67.6065 866.232 65.9745 865.048 63.9905 865.048C61.7985 865.048 60.3265 866.312 60.0225 868.424L61.7825 868.744C61.6865 867.48 62.6305 866.552 63.8945 866.552C66.1665 866.552 66.0705 868.792 65.2705 870.232C64.8545 870.888 64.3425 871.432 63.7985 871.976L59.8145 875.976V877H67.8145V875.432Z" fill="#E50012"/>
<path d="M77.6657 871.096C77.6657 868.376 76.6897 865.048 73.3457 865.048C70.0497 865.048 69.0417 868.28 69.0417 871.096C69.0417 873.912 70.0497 877.128 73.3457 877.128C76.6417 877.128 77.6657 873.912 77.6657 871.096ZM75.8417 871.096C75.8417 872.744 75.5537 875.656 73.3457 875.656C71.1537 875.656 70.8497 872.744 70.8497 871.096C70.8497 869.448 71.1377 866.536 73.3457 866.536C75.5537 866.536 75.8417 869.448 75.8417 871.096Z" fill="#E50012"/>
<path d="M80.717 875.224H78.829V877.208H80.717V875.224Z" fill="#E50012"/>
<path d="M86.8073 867.448C86.7913 867.72 86.7913 867.992 86.7913 868.248V875.464H84.3273V877H90.7753V875.464H88.5513V865.144H87.1113L83.9113 867.88L84.8873 869.064L86.8073 867.448Z" fill="#E50012"/>
<path d="M100.643 875.432H96.5466C96.0346 875.432 95.5066 875.528 95.0106 875.656L98.0186 872.616C99.2026 871.432 100.435 870.168 100.435 868.376C100.435 866.232 98.8026 865.048 96.8186 865.048C94.6266 865.048 93.1546 866.312 92.8506 868.424L94.6106 868.744C94.5146 867.48 95.4586 866.552 96.7226 866.552C98.9946 866.552 98.8986 868.792 98.0986 870.232C97.6826 870.888 97.1706 871.432 96.6266 871.976L92.6426 875.976V877H100.643V875.432Z" fill="#E50012"/>
<path d="M51.1679 69.768V74.904H47.2959V76.264H51.1679V84.264H52.8159V69.768H51.1679ZM43.1679 72.456H48.0799V71.112H41.5199V80.728H42.6559C45.3599 80.728 47.1039 80.632 49.1039 80.248L48.9439 78.92C47.1199 79.256 45.5039 79.352 43.1679 79.352V72.456Z" fill="black"/>
<path d="M68.9747 75.512H66.7187V69.784H65.0707V84.232H66.7187V76.872H68.9747V75.512ZM60.5907 70.984H58.9427V73.352C58.9427 76.024 57.5507 78.76 55.2787 79.864L56.2867 81.192C57.9507 80.344 59.1507 78.664 59.7747 76.664C60.3987 78.6 61.5507 80.104 63.1027 80.92L64.1107 79.608C61.9507 78.552 60.5907 75.928 60.5907 73.352V70.984Z" fill="black"/>
<path d="M81.5334 73.288V69.768H79.8854V78.472H81.5334V74.648H83.5814V73.288H81.5334ZM78.6534 75.96C76.6694 76.344 74.9094 76.424 72.4454 76.424V74.776H77.3574V70.648H70.7974V71.976H75.7254V73.528H70.8294V77.768H71.9974C74.7654 77.768 76.6374 77.688 78.8294 77.304L78.6534 75.96ZM76.8614 78.856C73.8534 78.856 72.0454 79.832 72.0454 81.544C72.0454 83.24 73.8534 84.232 76.8614 84.232C79.8694 84.232 81.6774 83.24 81.6774 81.544C81.6774 79.832 79.8694 78.856 76.8614 78.856ZM76.8614 82.968C74.7974 82.968 73.6614 82.504 73.6614 81.544C73.6614 80.632 74.7974 80.136 76.8614 80.136C78.9254 80.136 80.0614 80.632 80.0614 81.544C80.0614 82.504 78.9254 82.968 76.8614 82.968Z" fill="black"/>
<path d="M87.9322 85.32L89.0842 84.808C87.6762 82.488 87.0682 79.896 87.0682 77.128C87.0682 74.376 87.6762 71.768 89.0842 69.448L87.9322 68.952C86.4442 71.368 85.5642 73.976 85.5642 77.128C85.5642 80.312 86.4442 82.888 87.9322 85.32Z" fill="black"/>
<path d="M93.7797 83H95.6357V72.776H99.1077V71.224H90.3237V72.776H93.7797V83Z" fill="black"/>
<path d="M101.001 83H102.825V76.76C103.609 75.976 104.169 75.56 104.985 75.56C106.025 75.56 106.473 76.152 106.473 77.688V83H108.313V77.464C108.313 75.208 107.481 73.976 105.609 73.976C104.393 73.976 103.529 74.616 102.761 75.368L102.825 73.624V70.248H101.001V83Z" fill="black"/>
<path d="M114.587 83.208C115.739 83.208 116.747 82.84 117.563 82.28L116.923 81.112C116.283 81.544 115.611 81.768 114.827 81.768C113.291 81.768 112.251 80.76 112.107 79.08H117.819C117.867 78.84 117.899 78.536 117.899 78.152C117.899 75.656 116.651 73.976 114.315 73.976C112.251 73.976 110.299 75.736 110.299 78.616C110.299 81.512 112.203 83.208 114.587 83.208ZM112.091 77.816C112.267 76.28 113.259 75.416 114.347 75.416C115.627 75.416 116.315 76.28 116.315 77.816H112.091Z" fill="black"/>
<path d="M127.068 83.208C129.628 83.208 131.212 81.656 131.212 79.784C131.212 78.056 130.22 77.192 128.812 76.6L127.196 75.912C126.252 75.528 125.292 75.144 125.292 74.136C125.292 73.176 126.06 72.616 127.276 72.616C128.316 72.616 129.116 73.016 129.868 73.672L130.844 72.488C129.948 71.576 128.684 71 127.276 71C125.036 71 123.404 72.392 123.404 74.248C123.404 75.944 124.668 76.872 125.804 77.336L127.436 78.04C128.54 78.504 129.324 78.856 129.324 79.928C129.324 80.952 128.524 81.592 127.1 81.592C125.948 81.592 124.812 81.048 123.964 80.2L122.876 81.48C123.964 82.568 125.452 83.208 127.068 83.208Z" fill="black"/>
<path d="M135.362 83.208C136.45 83.208 137.346 82.728 138.162 82.04H138.21L138.37 83H139.874V77.704C139.874 75.32 138.866 73.976 136.674 73.976C135.266 73.976 134.066 74.488 133.154 75.064L133.698 76.408C134.45 75.912 135.394 75.48 136.354 75.48C137.65 75.48 138.034 76.36 138.034 77.4C136.226 77.528 134.898 77.672 134.002 78.168C133.09 78.728 132.77 79.688 132.77 80.664C132.77 82.216 133.842 83.208 135.362 83.208ZM135.922 81.752C135.138 81.752 134.546 81.432 134.546 80.536C134.546 80.168 134.482 79.752 134.946 79.32C135.506 78.808 136.338 78.808 138.034 78.6V80.776C137.314 81.432 136.69 81.752 135.922 81.752Z" fill="black"/>
<path d="M142.485 83H144.309V77.512C144.869 76.12 145.733 75.624 146.453 75.624C146.821 75.624 147.029 75.656 147.333 75.768L147.669 74.168C147.397 74.04 147.109 73.976 146.677 73.976C145.717 73.976 144.805 74.632 144.181 75.784H144.133L143.989 74.2H142.485V83Z" fill="black"/>
<path d="M150.659 83.208C151.747 83.208 152.643 82.728 153.459 82.04H153.507L153.667 83H155.171V77.704C155.171 75.32 154.163 73.976 151.971 73.976C150.563 73.976 149.363 74.488 148.451 75.064L148.995 76.408C149.747 75.912 150.691 75.48 151.651 75.48C152.947 75.48 153.331 76.36 153.331 77.4C151.523 77.528 150.195 77.672 149.299 78.168C148.387 78.728 148.067 79.688 148.067 80.664C148.067 82.216 149.139 83.208 150.659 83.208ZM151.219 81.752C150.435 81.752 149.843 81.432 149.843 80.536C149.843 80.168 149.779 79.752 150.243 79.32C150.803 78.808 151.635 78.808 153.331 78.6V80.776C152.611 81.432 151.987 81.752 151.219 81.752Z" fill="black"/>
<path d="M157.782 83H159.606V76.76C160.39 75.976 160.95 75.56 161.766 75.56C162.806 75.56 163.254 76.152 163.254 77.688V83H165.094V77.464C165.094 75.208 164.262 73.976 162.39 73.976C161.19 73.976 160.294 74.632 159.478 75.416H159.43L159.286 74.2H157.782V83Z" fill="black"/>
<path d="M170.775 86.952C173.607 86.952 175.383 85.592 175.383 83.88C175.383 82.344 174.343 81.736 172.215 81.736H170.599C169.463 81.736 169.127 81.4 169.127 80.872C169.127 80.44 169.303 80.2 169.607 79.944C170.055 80.12 170.471 80.216 170.839 80.216C172.679 80.216 174.135 79.112 174.135 77.192C174.135 76.504 173.895 75.944 173.559 75.576H175.239V74.2H172.119C171.783 74.072 171.335 73.976 170.839 73.976C169.015 73.976 167.431 75.16 167.431 77.144C167.431 78.184 167.991 79.016 168.583 79.48V79.544C168.087 79.912 167.607 80.488 167.607 81.176C167.607 81.896 167.959 82.36 168.407 82.632V82.712C167.591 83.208 167.127 83.88 167.127 84.632C167.127 86.168 168.663 86.952 170.775 86.952ZM170.839 79.032C169.927 79.032 169.175 78.312 169.175 77.144C169.175 75.928 169.879 75.272 170.839 75.272C171.799 75.272 172.503 75.928 172.503 77.144C172.503 78.312 171.751 79.032 170.839 79.032ZM171.047 85.736C169.575 85.736 168.695 85.256 168.695 84.36C168.695 83.912 168.919 83.464 169.447 83.08C169.847 83.16 170.231 83.208 170.631 83.208H171.959C173.047 83.208 173.607 83.416 173.607 84.168C173.607 85 172.583 85.736 171.047 85.736Z" fill="black"/>
<path d="M177.7 85.32C179.22 82.888 180.084 80.312 180.084 77.128C180.084 73.976 179.22 71.368 177.7 68.952L176.548 69.448C177.956 71.768 178.564 74.376 178.564 77.128C178.564 79.896 177.956 82.488 176.548 84.808L177.7 85.32Z" fill="black"/>
<path d="M194.438 76.68C192.262 76.04 190.998 74.536 190.998 72.872V72.728H194.038V71.416H191.014V69.704H189.35V71.416H186.31V72.728H189.35V72.872C189.35 74.648 188.102 76.392 185.878 77.032L186.662 78.328C188.39 77.768 189.574 76.68 190.214 75.256C190.854 76.536 192.022 77.496 193.686 77.96L194.438 76.68ZM197.19 73.368V69.768H195.542V78.568H197.19V74.728H199.238V73.368H197.19ZM192.534 78.888C189.526 78.888 187.718 79.896 187.718 81.56C187.718 83.224 189.526 84.232 192.534 84.232C195.542 84.232 197.35 83.224 197.35 81.56C197.35 79.896 195.542 78.888 192.534 78.888ZM192.534 82.952C190.47 82.952 189.35 82.456 189.35 81.56C189.35 80.664 190.47 80.168 192.534 80.168C194.598 80.168 195.718 80.664 195.718 81.56C195.718 82.456 194.598 82.952 192.534 82.952Z" fill="black"/>
<path d="M210.948 69.784V73.112H208.276C207.972 71.496 206.452 70.424 204.596 70.424C202.436 70.424 200.82 71.816 200.82 73.8C200.82 75.8 202.436 77.192 204.596 77.192C206.516 77.192 207.972 76.072 208.276 74.456H210.948V77.528H212.596V69.784H210.948ZM204.596 75.832C203.316 75.832 202.404 75.016 202.404 73.8C202.404 72.568 203.316 71.784 204.596 71.784C205.876 71.784 206.772 72.568 206.772 73.8C206.772 75.016 205.828 75.832 204.596 75.832ZM210.964 79.848H204.836V78.216H203.204V84.056H212.596V78.216H210.964V79.848ZM210.964 82.728H204.836V81.128H210.964V82.728Z" fill="black"/>
<path d="M52.7199 161.8H51.0719V172.424H52.7199V161.8ZM49.7439 169.24C47.5199 168.6 46.2079 166.888 46.2079 165.144V164.904H49.3119V163.592H46.2079V161.848H44.5599V163.592H41.4239V164.904H44.5599V165.144C44.5599 167.048 43.2799 168.776 41.0239 169.496L41.8239 170.792C43.5519 170.232 44.7679 169.08 45.4079 167.608C46.0639 168.968 47.2959 170.024 48.9759 170.536L49.7439 169.24ZM44.9439 174.616V171.448H43.2799V175.96H53.1359V174.616H44.9439Z" fill="black"/>
<path d="M64.0307 163.08H60.7507V161.72H59.0867V163.08H55.7747V164.296H64.0307V163.08ZM66.8467 166.68V161.768H65.1987V173.08H66.8467V168.04H68.8307V166.68H66.8467ZM64.4307 169.752C63.2627 169.928 62.0307 170.024 60.7507 170.104V169.192C62.3507 169 63.3427 168.2 63.3427 167.032C63.3427 165.624 62.0307 164.808 59.9027 164.808C57.7747 164.808 56.4627 165.624 56.4627 167.032C56.4627 168.248 57.4707 169 59.0867 169.192V170.184C57.7427 170.232 56.4947 170.232 55.4067 170.232L55.5987 171.544C58.1107 171.544 61.5187 171.448 64.5587 170.888L64.4307 169.752ZM58.0147 167.032C58.0147 166.344 58.7507 165.928 59.9027 165.928C61.0547 165.928 61.7907 166.344 61.7907 167.032C61.7907 167.72 61.0547 168.104 59.9027 168.104C58.7507 168.104 58.0147 167.72 58.0147 167.032ZM59.1507 172.36H57.5027V175.96H67.3427V174.616H59.1507V172.36Z" fill="black"/>
<path d="M80.5734 165.608V167.272H77.0694V168.616H80.5734V170.28H82.2214V161.784H80.5734V164.264H77.5974C77.6774 163.816 77.7254 163.336 77.7254 162.824H71.1654V164.152H75.9654C75.6614 166.408 73.8854 168.168 70.4134 169.128L71.0694 170.44C74.2854 169.528 76.3334 167.912 77.2134 165.608H80.5734ZM77.4854 170.456C74.5574 170.456 72.6694 171.56 72.6694 173.304C72.6694 175.08 74.5574 176.168 77.4854 176.168C80.4134 176.168 82.3174 175.08 82.3174 173.304C82.3174 171.56 80.4134 170.456 77.4854 170.456ZM77.4854 174.872C75.4854 174.872 74.3014 174.328 74.3014 173.304C74.3014 172.28 75.4854 171.752 77.4854 171.752C79.4854 171.752 80.6854 172.28 80.6854 173.304C80.6854 174.328 79.4854 174.872 77.4854 174.872Z" fill="black"/>
<path d="M99.9423 162.424H90.1983V167.64H99.9423V162.424ZM98.3263 166.328H91.8143V163.736H98.3263V166.328ZM88.5343 169.064V170.392H94.3903V173.096H96.0383V170.392H101.638V169.064H88.5343ZM91.7823 171.784H90.1343V175.96H100.182V174.616H91.7823V171.784Z" fill="black"/>
<path d="M116.341 168.84H114.325C114.693 166.792 114.693 165.288 114.693 163.928V162.664H104.837V163.992H113.077C113.077 165.32 113.093 166.84 112.661 168.84H103.269V170.2H108.917V176.232H110.581V170.2H116.341V168.84Z" fill="black"/>
<path d="M127.844 164.984H119.556V169.048H129.844V167.72H121.22V166.216H129.524V162.28H119.524V163.608H127.844V164.984ZM131.076 170.328H117.972V171.656H121.204V176.248H122.852V171.656H126.196V176.248H127.844V171.656H131.092L131.076 170.328Z" fill="black"/>
<path d="M137.373 167.544C139.949 167.368 141.885 166.664 142.797 165.448C143.709 166.664 145.677 167.368 148.253 167.544L148.701 166.312C145.805 166.136 144.093 165.368 143.773 164.216H148.045V162.984H143.629V161.72H141.981V162.984H137.581V164.216H141.837C141.517 165.368 139.821 166.136 136.893 166.312L137.373 167.544ZM149.341 169.304V168.072H136.301V169.304H141.981V170.424H137.821V171.64H146.093V172.648H137.853V176.104H148.125V174.872H139.485V173.784H147.709V170.424H143.629V169.304H149.341Z" fill="black"/>
<path d="M161.227 161.768V176.264H162.891V161.768H161.227ZM156.331 162.984H154.683V165.352C154.683 168.12 153.179 170.92 150.875 171.944L151.851 173.32C153.595 172.472 154.875 170.792 155.531 168.664C156.187 170.664 157.451 172.216 159.115 173L160.075 171.688C157.803 170.664 156.331 168.024 156.331 165.352V162.984Z" fill="black"/>
<path d="M51.1519 253.752V258.504H48.0639V259.848H51.1519V268.248H52.8159V253.752H51.1519ZM46.0479 254.952H44.3839V257.336C44.3839 260.04 42.9759 262.824 40.7199 263.928L41.7599 265.24C43.4239 264.392 44.5919 262.728 45.2319 260.664C45.8559 262.6 46.9919 264.184 48.6559 265L49.6319 263.672C47.4079 262.648 46.0479 260.008 46.0479 257.336V254.952Z" fill="black"/>
<path d="M62.0627 258.92C65.3747 258.92 67.2147 258.04 67.2147 256.424C67.2147 254.808 65.3747 253.928 62.0627 253.928C58.7347 253.928 56.9107 254.808 56.9107 256.424C56.9107 258.04 58.7347 258.92 62.0627 258.92ZM62.0627 255.16C64.3187 255.16 65.5027 255.592 65.5027 256.424C65.5027 257.256 64.3187 257.688 62.0627 257.688C59.8067 257.688 58.6227 257.256 58.6227 256.424C58.6227 255.592 59.8067 255.16 62.0627 255.16ZM68.5907 261.016V259.704H55.5187V261.016H61.2147V262.184H57.0707V263.432H65.3427V264.472H57.1027V268.104H67.3747V266.84H58.7347V265.64H66.9587V262.184H62.8787V261.016H68.5907Z" fill="black"/>
<path d="M78.3014 255.24H75.1814V253.656H73.5334V255.24H70.2854V256.552H78.3014V255.24ZM80.5734 263.064H82.2214V253.784H80.5734V257.112H78.3974V258.456H80.5734V259.976H78.3654V261.304H80.5734V263.064ZM77.6774 259.88C77.6774 258.28 76.3334 257.192 74.3654 257.192C72.3814 257.192 71.0374 258.28 71.0374 259.88C71.0374 261.496 72.3814 262.584 74.3654 262.584C76.3334 262.584 77.6774 261.496 77.6774 259.88ZM72.5734 259.88C72.5734 258.984 73.2774 258.44 74.3654 258.44C75.4534 258.44 76.1414 258.984 76.1414 259.88C76.1414 260.792 75.4534 261.336 74.3654 261.336C73.2774 261.336 72.5734 260.792 72.5734 259.88ZM77.4374 263.224C74.4134 263.224 72.5574 264.136 72.5574 265.72C72.5574 267.304 74.4134 268.232 77.4374 268.232C80.4454 268.232 82.3014 267.304 82.3014 265.72C82.3014 264.136 80.4454 263.224 77.4374 263.224ZM77.4374 266.968C75.4374 266.968 74.2854 266.536 74.2854 265.72C74.2854 264.904 75.4374 264.488 77.4374 264.488C79.4374 264.488 80.5574 264.904 80.5574 265.72C80.5574 266.536 79.4374 266.968 77.4374 266.968Z" fill="black"/>
<path d="M101.99 259.512H99.7343V253.784H98.0863V268.232H99.7343V260.872H101.99V259.512ZM93.6063 254.984H91.9583V257.352C91.9583 260.024 90.5663 262.76 88.2943 263.864L89.3023 265.192C90.9663 264.344 92.1663 262.664 92.7903 260.664C93.4143 262.6 94.5663 264.104 96.1183 264.92L97.1263 263.608C94.9663 262.552 93.6063 259.928 93.6063 257.352V254.984Z" fill="black"/>
<path d="M113.493 253.768V268.232H115.157V253.768H113.493ZM112.373 255.464H108.837V253.8H107.189V255.464H103.637V256.792H112.373V255.464ZM108.837 262.824C110.501 262.568 111.541 261.592 111.541 260.184C111.541 258.568 110.117 257.496 108.021 257.496C105.925 257.496 104.485 258.568 104.485 260.184C104.485 261.592 105.525 262.568 107.189 262.824V264.232C105.829 264.28 104.501 264.28 103.349 264.28L103.557 265.64C106.181 265.64 109.605 265.592 112.789 265.048L112.677 263.848C111.445 264.024 110.133 264.104 108.837 264.184V262.824ZM106.053 260.184C106.053 259.288 106.853 258.76 108.021 258.76C109.173 258.76 109.973 259.288 109.973 260.184C109.973 261.08 109.173 261.624 108.021 261.624C106.853 261.624 106.053 261.08 106.053 260.184Z" fill="black"/>
<path d="M128.308 253.768V257.4H125.78V258.76H128.308V262.408H129.956V253.768H128.308ZM126.58 260.632C124.404 259.864 123.188 258.072 123.188 256.28V256.008H126.196V254.68H118.468V256.008H121.524V256.296C121.524 258.248 120.212 260.152 117.972 260.92L118.82 262.216C120.548 261.624 121.748 260.376 122.388 258.824C123.012 260.232 124.164 261.352 125.764 261.912L126.58 260.632ZM120.212 264.456H128.308V268.232H129.956V263.128H120.212V264.456Z" fill="black"/>
<path d="M142.979 253.784V268.232H144.627V253.784H142.979ZM133.523 255.304V256.648H138.675C138.403 259.976 136.595 262.504 132.803 264.344L133.683 265.656C138.643 263.256 140.371 259.608 140.371 255.304H133.523Z" fill="black"/>
<path d="M157.745 253.784V257.112H155.073C154.769 255.496 153.249 254.424 151.393 254.424C149.233 254.424 147.617 255.816 147.617 257.8C147.617 259.8 149.233 261.192 151.393 261.192C153.313 261.192 154.769 260.072 155.073 258.456H157.745V261.528H159.393V253.784H157.745ZM151.393 259.832C150.113 259.832 149.201 259.016 149.201 257.8C149.201 256.568 150.113 255.784 151.393 255.784C152.673 255.784 153.569 256.568 153.569 257.8C153.569 259.016 152.625 259.832 151.393 259.832ZM157.761 263.848H151.633V262.216H150.001V268.056H159.393V262.216H157.761V263.848ZM157.761 266.728H151.633V265.128H157.761V266.728Z" fill="black"/>
<path d="M177.626 253.784H175.978V264.28H177.626V253.784ZM173.658 258.36C173.658 256.232 172.01 254.744 169.834 254.744C167.658 254.744 165.994 256.232 165.994 258.36C165.994 260.456 167.658 261.976 169.834 261.976C172.01 261.976 173.658 260.456 173.658 258.36ZM167.61 258.36C167.61 257.016 168.554 256.168 169.834 256.168C171.098 256.168 172.058 257.016 172.058 258.36C172.058 259.672 171.098 260.552 169.834 260.552C168.554 260.552 167.61 259.672 167.61 258.36ZM169.85 266.616V263.224H168.186V267.96H178.042V266.616H169.85Z" fill="black"/>
<path d="M181.673 259.832C184.249 259.56 186.185 258.52 186.969 257.032C187.737 258.52 189.705 259.56 192.265 259.832L192.841 258.552C190.153 258.296 188.281 257.128 188.073 255.816H192.313V254.488H181.641V255.816H185.849C185.641 257.128 183.769 258.296 181.081 258.552L181.673 259.832ZM180.425 260.568V261.896H193.497V260.568H180.425ZM186.937 262.936C183.849 262.936 181.961 263.912 181.961 265.592C181.961 267.272 183.849 268.232 186.937 268.232C190.121 268.232 191.913 267.272 191.913 265.592C191.913 263.912 190.041 262.936 186.937 262.936ZM186.937 266.936C184.809 266.936 183.641 266.488 183.641 265.592C183.641 264.696 184.809 264.232 186.937 264.232C189.065 264.232 190.249 264.696 190.249 265.592C190.249 266.488 189.065 266.936 186.937 266.936Z" fill="black"/>
<path d="M42.1279 352.856C44.5119 352.488 46.4479 351.32 47.3439 349.72C48.2559 351.336 50.1919 352.472 52.5759 352.856L53.1679 351.56C50.4319 351.176 48.3679 349.64 48.2879 347.928H52.6559V346.6H42.0159V347.928H46.4159C46.3359 349.64 44.2719 351.176 41.5359 351.56L42.1279 352.856ZM53.8879 353.912H40.8159V355.24H46.4799V360.248H48.1279V355.24H53.8719L53.8879 353.912Z" fill="black"/>
<path d="M65.7907 345.768V354.44H67.4387V345.768H65.7907ZM64.3027 352.344C62.0627 351.608 60.7987 349.8 60.7987 347.848V346.44H59.1187V347.848C59.1187 349.864 57.8387 351.832 55.5667 352.6L56.3827 353.896C58.1107 353.304 59.3267 352.088 59.9827 350.488C60.6227 351.96 61.8227 353.064 63.4867 353.64L64.3027 352.344ZM57.6947 356.456H65.7907V360.232H67.4387V355.128H57.6947V356.456Z" fill="black"/>
<path d="M80.4774 345.768V360.232H82.1414V345.768H80.4774ZM79.3574 347.464H75.8214V345.8H74.1734V347.464H70.6214V348.792H79.3574V347.464ZM75.8214 354.824C77.4854 354.568 78.5254 353.592 78.5254 352.184C78.5254 350.568 77.1014 349.496 75.0054 349.496C72.9094 349.496 71.4694 350.568 71.4694 352.184C71.4694 353.592 72.5094 354.568 74.1734 354.824V356.232C72.8134 356.28 71.4854 356.28 70.3334 356.28L70.5414 357.64C73.1654 357.64 76.5894 357.592 79.7734 357.048L79.6614 355.848C78.4294 356.024 77.1174 356.104 75.8214 356.184V354.824ZM73.0374 352.184C73.0374 351.288 73.8374 350.76 75.0054 350.76C76.1574 350.76 76.9574 351.288 76.9574 352.184C76.9574 353.08 76.1574 353.624 75.0054 353.624C73.8374 353.624 73.0374 353.08 73.0374 352.184Z" fill="black"/>
<path d="M98.4122 351.512H96.1562V345.784H94.5082V360.232H96.1562V352.872H98.4122V351.512ZM90.0282 346.984H88.3802V349.352C88.3802 352.024 86.9882 354.76 84.7162 355.864L85.7242 357.192C87.3882 356.344 88.5882 354.664 89.2122 352.664C89.8362 354.6 90.9882 356.104 92.5402 356.92L93.5482 355.608C91.3882 354.552 90.0282 351.928 90.0282 349.352V346.984Z" fill="black"/>
<path d="M113.621 345.768V350.904H109.749V352.264H113.621V360.264H115.269V345.768H113.621ZM105.621 348.456H110.533V347.112H103.973V356.728H105.109C107.813 356.728 109.557 356.632 111.557 356.248L111.397 354.92C109.573 355.256 107.957 355.352 105.621 355.352V348.456Z" fill="black"/>
<path d="M131.428 351.512H129.172V345.784H127.524V360.232H129.172V352.872H131.428V351.512ZM123.044 346.984H121.396V349.352C121.396 352.024 120.004 354.76 117.732 355.864L118.74 357.192C120.404 356.344 121.604 354.664 122.228 352.664C122.852 354.6 124.004 356.104 125.556 356.92L126.564 355.608C124.404 354.552 123.044 351.928 123.044 349.352V346.984Z" fill="black"/>
<path d="M143.987 349.288V345.768H142.339V354.472H143.987V350.648H146.035V349.288H143.987ZM141.107 351.96C139.123 352.344 137.363 352.424 134.899 352.424V350.776H139.811V346.648H133.251V347.976H138.179V349.528H133.283V353.768H134.451C137.219 353.768 139.091 353.688 141.283 353.304L141.107 351.96ZM139.315 354.856C136.307 354.856 134.499 355.832 134.499 357.544C134.499 359.24 136.307 360.232 139.315 360.232C142.323 360.232 144.131 359.24 144.131 357.544C144.131 355.832 142.323 354.856 139.315 354.856ZM139.315 358.968C137.251 358.968 136.115 358.504 136.115 357.544C136.115 356.632 137.251 356.136 139.315 356.136C141.379 356.136 142.515 356.632 142.515 357.544C142.515 358.504 141.379 358.968 139.315 358.968Z" fill="black"/>
<path d="M161.323 353.192H162.971V345.768H161.323V348.184H158.395V349.512H161.323V353.192ZM159.531 351.672C157.371 350.952 156.123 349.288 156.123 347.448V346.232H154.475V347.448C154.475 349.432 153.211 351.256 150.955 351.976L151.803 353.272C153.531 352.68 154.699 351.544 155.339 350.008C155.963 351.352 157.067 352.424 158.667 352.952L159.531 351.672ZM155.227 358.76V357.528H162.971V353.88H153.563V355.16H161.339V356.312H153.595V360.056H163.467V358.76H155.227Z" fill="black"/>
<path d="M175.978 345.784V353.768H177.626V345.784H175.978ZM174.474 351.72C172.378 352.056 170.586 352.152 168.09 352.152V350.552H173.034V346.456H166.426V347.8H171.418V349.304H166.458V353.496H167.674C170.442 353.496 172.41 353.448 174.666 353.064L174.474 351.72ZM175.994 355.928H169.802V354.44H168.154V360.056H177.626V354.44H175.994V355.928ZM175.994 358.728H169.802V357.224H175.994V358.728Z" fill="black"/>
<path d="M54.2559 443.48H51.9999V437.784H50.3519V452.232H51.9999V444.84H54.2559V443.48ZM45.8719 440.584H48.9279V439.224H41.0719V440.584H44.2239V441.976C44.2239 444.36 42.7679 447.096 40.5439 448.168L41.4879 449.48C43.1679 448.664 44.4319 446.936 45.0719 444.92C45.7279 446.792 46.9599 448.344 48.5759 449.112L49.4879 447.816C47.2959 446.792 45.8719 444.2 45.8719 441.976V440.584Z" fill="black"/>
<path d="M65.7587 437.768V452.232H67.4227V437.768H65.7587ZM64.6387 439.464H61.1027V437.8H59.4547V439.464H55.9027V440.792H64.6387V439.464ZM61.1027 446.824C62.7667 446.568 63.8067 445.592 63.8067 444.184C63.8067 442.568 62.3827 441.496 60.2867 441.496C58.1907 441.496 56.7507 442.568 56.7507 444.184C56.7507 445.592 57.7907 446.568 59.4547 446.824V448.232C58.0947 448.28 56.7667 448.28 55.6147 448.28L55.8227 449.64C58.4467 449.64 61.8707 449.592 65.0547 449.048L64.9427 447.848C63.7107 448.024 62.3987 448.104 61.1027 448.184V446.824ZM58.3187 444.184C58.3187 443.288 59.1187 442.76 60.2867 442.76C61.4387 442.76 62.2387 443.288 62.2387 444.184C62.2387 445.08 61.4387 445.624 60.2867 445.624C59.1187 445.624 58.3187 445.08 58.3187 444.184Z" fill="black"/>
<path d="M83.6934 443.512H81.4374V437.784H79.7894V452.232H81.4374V444.872H83.6934V443.512ZM75.3094 438.984H73.6614V441.352C73.6614 444.024 72.2694 446.76 69.9974 447.864L71.0054 449.192C72.6694 448.344 73.8694 446.664 74.4934 444.664C75.1174 446.6 76.2694 448.104 77.8214 448.92L78.8294 447.608C76.6694 446.552 75.3094 443.928 75.3094 441.352V438.984Z" fill="black"/>
<path d="M93.0202 439.24H89.9002V437.656H88.2522V439.24H85.0042V440.552H93.0202V439.24ZM95.2922 447.064H96.9402V437.784H95.2922V441.112H93.1162V442.456H95.2922V443.976H93.0842V445.304H95.2922V447.064ZM92.3962 443.88C92.3962 442.28 91.0522 441.192 89.0842 441.192C87.1002 441.192 85.7562 442.28 85.7562 443.88C85.7562 445.496 87.1002 446.584 89.0842 446.584C91.0522 446.584 92.3962 445.496 92.3962 443.88ZM87.2922 443.88C87.2922 442.984 87.9962 442.44 89.0842 442.44C90.1722 442.44 90.8602 442.984 90.8602 443.88C90.8602 444.792 90.1722 445.336 89.0842 445.336C87.9962 445.336 87.2922 444.792 87.2922 443.88ZM92.1562 447.224C89.1322 447.224 87.2762 448.136 87.2762 449.72C87.2762 451.304 89.1322 452.232 92.1562 452.232C95.1642 452.232 97.0202 451.304 97.0202 449.72C97.0202 448.136 95.1642 447.224 92.1562 447.224ZM92.1562 450.968C90.1562 450.968 89.0042 450.536 89.0042 449.72C89.0042 448.904 90.1562 448.488 92.1562 448.488C94.1562 448.488 95.2762 448.904 95.2762 449.72C95.2762 450.536 94.1562 450.968 92.1562 450.968Z" fill="black"/>
<path d="M114.549 441.304V437.784H112.901V446.424H114.549V442.664H116.597V441.304H114.549ZM111.749 444.584C109.541 443.864 108.341 442.216 108.341 440.408V440.136H111.365V438.808H103.605V440.136H106.677V440.424C106.677 442.392 105.413 444.264 103.141 445.032L103.973 446.328C105.701 445.736 106.917 444.504 107.557 442.968C108.181 444.312 109.333 445.352 110.949 445.864L111.749 444.584ZM109.893 446.76C106.917 446.76 105.077 447.768 105.077 449.496C105.077 451.224 106.917 452.232 109.893 452.232C112.869 452.232 114.709 451.224 114.709 449.496C114.709 447.768 112.869 446.76 109.893 446.76ZM109.893 450.936C107.829 450.936 106.709 450.456 106.709 449.496C106.709 448.536 107.829 448.056 109.893 448.056C111.957 448.056 113.077 448.536 113.077 449.496C113.077 450.456 111.957 450.936 109.893 450.936Z" fill="black"/>
<path d="M128.756 437.784V443.416H127.108V438.056H125.556V451.544H127.108V444.76H128.756V452.216H130.324V437.784H128.756ZM121.236 438.904C119.38 438.904 118.132 440.84 118.132 444.04C118.132 447.176 119.38 449.16 121.236 449.16C123.092 449.16 124.34 447.176 124.34 444.04C124.34 440.84 123.092 438.904 121.236 438.904ZM121.236 447.608C120.26 447.608 119.652 446.36 119.652 444.04C119.652 441.72 120.26 440.456 121.236 440.456C122.212 440.456 122.82 441.72 122.82 444.04C122.82 446.36 122.212 447.608 121.236 447.608Z" fill="black"/>
<path d="M144.611 437.784H142.963V448.28H144.611V437.784ZM140.643 442.36C140.643 440.232 138.995 438.744 136.819 438.744C134.643 438.744 132.979 440.232 132.979 442.36C132.979 444.456 134.643 445.976 136.819 445.976C138.995 445.976 140.643 444.456 140.643 442.36ZM134.595 442.36C134.595 441.016 135.539 440.168 136.819 440.168C138.083 440.168 139.043 441.016 139.043 442.36C139.043 443.672 138.083 444.552 136.819 444.552C135.539 444.552 134.595 443.672 134.595 442.36ZM136.835 450.616V447.224H135.171V451.96H145.027V450.616H136.835Z" fill="black"/>
<path d="M156.993 449.208V446.104H159.313V444.776H157.233V440.36H159.361V439.032H148.497V440.36H150.625V444.776H148.545V446.104H150.865V449.208H147.425V450.568H160.529V449.208H156.993ZM152.273 440.36H155.601V444.776H152.273V440.36ZM152.513 446.104H155.361V449.208H152.513V446.104Z" fill="black"/>
<path d="M163.456 444.232C165.952 443.912 167.888 442.76 168.656 441.16C169.44 442.76 171.392 443.912 173.904 444.232L174.512 442.92C171.824 442.584 169.904 441.272 169.776 439.784H174.016V438.456H163.344V439.784H167.552C167.424 441.272 165.568 442.584 162.832 442.92L163.456 444.232ZM162.128 445.112V446.44H167.984V449.16H169.632V446.44H175.232V445.112H162.128ZM165.376 447.832H163.728V451.96H173.776V450.616H165.376V447.832Z" fill="black"/>
<path d="M190.303 443.512H188.047V437.784H186.399V452.232H188.047V444.872H190.303V443.512ZM181.919 438.984H180.271V441.352C180.271 444.024 178.879 446.76 176.607 447.864L177.615 449.192C179.279 448.344 180.479 446.664 181.103 444.664C181.727 446.6 182.879 448.104 184.431 448.92L185.439 447.608C183.279 446.552 181.919 443.928 181.919 441.352V438.984Z" fill="black"/>
<path d="M201.902 437.784V441.112H199.23C198.926 439.496 197.406 438.424 195.55 438.424C193.39 438.424 191.774 439.816 191.774 441.8C191.774 443.8 193.39 445.192 195.55 445.192C197.47 445.192 198.926 444.072 199.23 442.456H201.902V445.528H203.55V437.784H201.902ZM195.55 443.832C194.27 443.832 193.358 443.016 193.358 441.8C193.358 440.568 194.27 439.784 195.55 439.784C196.83 439.784 197.726 440.568 197.726 441.8C197.726 443.016 196.782 443.832 195.55 443.832ZM201.918 447.848H195.79V446.216H194.158V452.056H203.55V446.216H201.918V447.848ZM201.918 450.728H195.79V449.128H201.918V450.728Z" fill="black"/>
<path d="M217.58 441.304V437.784H215.932V446.424H217.58V442.664H219.628V441.304H217.58ZM214.78 444.584C212.572 443.864 211.372 442.216 211.372 440.408V440.136H214.396V438.808H206.636V440.136H209.708V440.424C209.708 442.392 208.444 444.264 206.172 445.032L207.004 446.328C208.732 445.736 209.948 444.504 210.588 442.968C211.212 444.312 212.364 445.352 213.98 445.864L214.78 444.584ZM212.924 446.76C209.948 446.76 208.108 447.768 208.108 449.496C208.108 451.224 209.948 452.232 212.924 452.232C215.9 452.232 217.74 451.224 217.74 449.496C217.74 447.768 215.9 446.76 212.924 446.76ZM212.924 450.936C210.86 450.936 209.74 450.456 209.74 449.496C209.74 448.536 210.86 448.056 212.924 448.056C214.988 448.056 216.108 448.536 216.108 449.496C216.108 450.456 214.988 450.936 212.924 450.936Z" fill="black"/>
<path d="M236.501 437.784H234.853V448.28H236.501V437.784ZM232.533 442.36C232.533 440.232 230.885 438.744 228.709 438.744C226.533 438.744 224.869 440.232 224.869 442.36C224.869 444.456 226.533 445.976 228.709 445.976C230.885 445.976 232.533 444.456 232.533 442.36ZM226.485 442.36C226.485 441.016 227.429 440.168 228.709 440.168C229.973 440.168 230.933 441.016 230.933 442.36C230.933 443.672 229.973 444.552 228.709 444.552C227.429 444.552 226.485 443.672 226.485 442.36ZM228.725 450.616V447.224H227.061V451.96H236.917V450.616H228.725Z" fill="black"/>
<path d="M240.548 443.832C243.124 443.56 245.06 442.52 245.844 441.032C246.612 442.52 248.58 443.56 251.14 443.832L251.716 442.552C249.028 442.296 247.156 441.128 246.948 439.816H251.188V438.488H240.516V439.816H244.724C244.516 441.128 242.644 442.296 239.956 442.552L240.548 443.832ZM239.3 444.568V445.896H252.372V444.568H239.3ZM245.812 446.936C242.724 446.936 240.836 447.912 240.836 449.592C240.836 451.272 242.724 452.232 245.812 452.232C248.996 452.232 250.788 451.272 250.788 449.592C250.788 447.912 248.916 446.936 245.812 446.936ZM245.812 450.936C243.684 450.936 242.516 450.488 242.516 449.592C242.516 448.696 243.684 448.232 245.812 448.232C247.94 448.232 249.124 448.696 249.124 449.592C249.124 450.488 247.94 450.936 245.812 450.936Z" fill="black"/>
<path d="M53.8879 536.84H51.8719C52.2399 534.792 52.2399 533.288 52.2399 531.928V530.664H42.3839V531.992H50.6239C50.6239 533.32 50.6399 534.84 50.2079 536.84H40.8159V538.2H46.4639V544.232H48.1279V538.2H53.8879V536.84Z" fill="black"/>
<path d="M66.6387 535.56C67.0067 533.832 66.9907 532.616 66.9907 531.512V530.408H57.1827V531.736H65.3747C65.3747 532.824 65.3427 533.96 65.0067 535.56H55.5347V536.904H68.6227V535.56H66.6387ZM65.3267 539.768H58.7987V538.04H57.1667V544.056H66.9747V538.04H65.3267V539.768ZM65.3267 542.728H58.7987V541.048H65.3267V542.728Z" fill="black"/>
<path d="M80.5254 529.784V544.232H82.1734V529.784H80.5254ZM71.2774 531.224V532.568H76.3494C76.2854 533.464 76.1574 534.216 75.9494 534.824L70.5414 535.16L70.7654 536.584L75.4374 536.152C74.5414 537.944 73.0054 539.416 70.4454 540.696L71.3414 541.992C76.6374 539.352 77.9974 535.528 77.9974 531.224H71.2774Z" fill="black"/>
<path d="M96.6042 537.416H88.2682V535.432H96.1722V534.136H88.2682V532.28H96.4922V530.952H86.5882V538.744H96.6042V537.416ZM84.9722 541.112V542.456H98.0762V541.112H84.9722Z" fill="black"/>
<path d="M102.651 545.32L103.803 544.808C102.395 542.488 101.787 539.896 101.787 537.128C101.787 534.376 102.395 531.768 103.803 529.448L102.651 528.952C101.163 531.368 100.283 533.976 100.283 537.128C100.283 540.312 101.163 542.888 102.651 545.32Z" fill="black"/>
<path d="M106.114 543H107.97V537.928H112.322V536.376H107.97V532.776H113.09V531.224H106.114V543Z" fill="black"/>
<path d="M114.761 530.472V532.456H116.649V530.472H114.761ZM116.601 543V534.2H114.777V543H116.601Z" fill="black"/>
<path d="M119.126 543H120.95V537.512C121.51 536.12 122.374 535.624 123.094 535.624C123.462 535.624 123.67 535.656 123.974 535.768L124.31 534.168C124.038 534.04 123.75 533.976 123.318 533.976C122.358 533.976 121.446 534.632 120.822 535.784H120.774L120.63 534.2H119.126V543Z" fill="black"/>
<path d="M127.979 543.208C130.155 543.208 131.323 542.008 131.323 540.536C131.323 538.872 129.963 538.328 128.731 537.864C127.771 537.512 126.859 537.224 126.859 536.472C126.859 535.848 127.307 535.384 128.267 535.384C129.019 535.384 129.611 535.704 130.235 536.152L131.099 535.016C130.379 534.456 129.451 533.976 128.235 533.976C126.299 533.976 125.115 535.08 125.115 536.552C125.115 538.056 126.475 538.648 127.627 539.112C128.587 539.496 129.579 539.816 129.579 540.632C129.579 541.32 129.115 541.816 128.027 541.816C127.067 541.816 126.315 541.432 125.531 540.808L124.667 541.992C125.515 542.696 126.763 543.208 127.979 543.208Z" fill="black"/>
<path d="M135.867 543.208C136.507 543.208 137.099 543.064 137.595 542.888L137.259 541.528C137.003 541.64 136.619 541.736 136.315 541.736C135.403 541.736 135.035 541.224 135.035 540.136V535.672H137.323V534.2H135.035V531.768H133.483L133.275 534.2L131.915 534.296V535.672H133.195V540.12C133.195 541.976 133.883 543.208 135.867 543.208Z" fill="black"/>
<path d="M149.421 543H151.389L147.485 531.224H145.341L141.437 543H143.325L144.333 539.64H148.429L149.421 543ZM144.765 538.184L145.245 536.6C145.629 535.32 145.997 534.024 146.333 532.68H146.397C146.765 534.024 147.117 535.32 147.517 536.6L147.981 538.184H144.765Z" fill="black"/>
<path d="M152.542 530.472V532.456H154.43V530.472H152.542ZM154.382 543V534.2H152.558V543H154.382Z" fill="black"/>
<path d="M159.963 543.208C160.987 543.208 161.867 542.696 162.523 542.008H162.571L162.731 543H164.235V530.248H162.395V533.512L162.475 534.968C161.755 534.344 161.131 533.976 160.107 533.976C158.139 533.976 156.331 535.736 156.331 538.616C156.331 541.576 157.707 543.208 159.963 543.208ZM160.395 541.688C158.987 541.688 158.235 540.584 158.235 538.584C158.235 536.68 159.227 535.512 160.459 535.512C161.115 535.512 161.739 535.72 162.395 536.312V540.616C161.771 541.336 161.115 541.688 160.395 541.688Z" fill="black"/>
<path d="M170.723 543H172.579V539.448L174.387 537.24L177.715 543H179.779L175.523 535.768L179.171 531.224H177.107L172.627 536.792H172.579V531.224H170.723V543Z" fill="black"/>
<path d="M180.933 530.472V532.456H182.821V530.472H180.933ZM182.773 543V534.2H180.949V543H182.773Z" fill="black"/>
<path d="M188.258 543.208C188.898 543.208 189.49 543.064 189.986 542.888L189.65 541.528C189.394 541.64 189.01 541.736 188.706 541.736C187.794 541.736 187.426 541.224 187.426 540.136V535.672H189.714V534.2H187.426V531.768H185.874L185.666 534.2L184.306 534.296V535.672H185.586V540.12C185.586 541.976 186.274 543.208 188.258 543.208Z" fill="black"/>
<path d="M192.138 545.32C193.658 542.888 194.522 540.312 194.522 537.128C194.522 533.976 193.658 531.368 192.138 528.952L190.986 529.448C192.394 531.768 193.002 534.376 193.002 537.128C193.002 539.896 192.394 542.488 190.986 544.808L192.138 545.32Z" fill="black"/>
<path d="M210.571 529.768V544.264H212.235V529.768H210.571ZM205.675 530.984H204.027V533.352C204.027 536.12 202.523 538.92 200.219 539.944L201.195 541.32C202.939 540.472 204.219 538.792 204.875 536.664C205.531 538.664 206.795 540.216 208.459 541L209.419 539.688C207.147 538.664 205.675 536.024 205.675 533.352V530.984Z" fill="black"/>
<path d="M225.322 529.752V544.264H226.986V529.752H225.322ZM217.546 536.424H222.586V531.064H215.85V532.408H220.922V535.096H215.882V540.824H217.114C219.658 540.824 221.818 540.744 224.298 540.312L224.122 538.968C221.834 539.336 219.834 539.448 217.546 539.464V536.424Z" fill="black"/>
<path d="M231.017 538.728C233.385 538.264 235.353 536.952 236.313 535.048C237.337 536.968 239.225 538.168 241.673 538.664L242.345 537.352C239.481 536.92 237.177 534.968 237.177 532.792V532.456H241.769V531.112H230.857V532.456H235.449V532.792C235.449 534.968 233.161 536.952 230.345 537.416L231.017 538.728ZM229.785 541.064V542.408H242.873V541.064H229.785Z" fill="black"/>
<path d="M249.17 535.544C251.746 535.368 253.682 534.664 254.594 533.448C255.506 534.664 257.474 535.368 260.05 535.544L260.498 534.312C257.602 534.136 255.89 533.368 255.57 532.216H259.842V530.984H255.426V529.72H253.778V530.984H249.378V532.216H253.634C253.314 533.368 251.618 534.136 248.69 534.312L249.17 535.544ZM261.138 537.304V536.072H248.098V537.304H253.778V538.424H249.618V539.64H257.89V540.648H249.65V544.104H259.922V542.872H251.282V541.784H259.506V538.424H255.426V537.304H261.138Z" fill="black"/>
<path d="M273.024 529.768V544.264H274.688V529.768H273.024ZM268.128 530.984H266.48V533.352C266.48 536.12 264.976 538.92 262.672 539.944L263.648 541.32C265.392 540.472 266.672 538.792 267.328 536.664C267.984 538.664 269.248 540.216 270.912 541L271.872 539.688C269.6 538.664 268.128 536.024 268.128 533.352V530.984Z" fill="black"/>
<path d="M53.8879 628.84H51.8719C52.2399 626.792 52.2399 625.288 52.2399 623.928V622.664H42.3839V623.992H50.6239C50.6239 625.32 50.6399 626.84 50.2079 628.84H40.8159V630.2H46.4639V636.232H48.1279V630.2H53.8879V628.84Z" fill="black"/>
<path d="M68.0627 628.84C65.2147 628.328 62.8947 626.104 62.8947 623.8V622.712H61.1507V623.8C61.1507 626.056 58.8307 628.328 55.9827 628.84L56.6867 630.2C59.0387 629.736 61.0707 628.2 62.0147 626.232C62.9587 628.2 64.9907 629.736 67.3427 630.2L68.0627 628.84ZM55.5347 633.016V634.376H68.6227V633.016H55.5347Z" fill="black"/>
<path d="M77.6134 633.176V630.456H81.8854V629.144H73.5494V627.256H81.4374V625.96H73.5494V624.216H81.7574V622.872H71.8694V630.456H75.9494V633.176H70.2534V634.536H83.3414V633.176H77.6134Z" fill="black"/>
<path d="M95.2762 621.784V627.464H92.2362V628.824H95.2762V636.248H96.9402V621.784H95.2762ZM85.7402 623.224V624.568H90.6362C90.5882 625.384 90.4442 626.12 90.2522 626.84L84.9882 627.16L85.2282 628.568L89.7402 628.152C88.8922 629.96 87.3722 631.4 84.9242 632.68L85.8202 633.96C90.9562 631.304 92.2842 627.56 92.2842 623.224H85.7402Z" fill="black"/>
<path d="M109.963 621.784V636.248H111.611V621.784H109.963ZM106.747 624.568H108.187V623.24H100.043V624.568H101.483V631.4C100.843 631.416 100.219 631.416 99.6589 631.416L99.8349 632.776C102.475 632.776 105.883 632.728 108.955 632.216L108.859 631C108.171 631.08 107.467 631.16 106.747 631.208V624.568ZM103.083 624.568H105.147V631.304C104.459 631.352 103.771 631.336 103.083 631.384V624.568Z" fill="black"/>
<path d="M121.188 629.192H119.108V630.536H129.892V629.192H127.796V624.472H129.924V623.144H119.06V624.472H121.188V629.192ZM126.164 629.192H122.836V624.472H126.164V629.192ZM117.972 633.096V634.456H131.092V633.096H117.972Z" fill="black"/>
<path d="M140.051 633.176V630.712H144.563V629.384H135.907V627.368H144.243V622.792H134.259V624.12H142.611V626.056H134.291V630.712H138.403V633.176H132.707V634.536H145.795V633.176H140.051Z" fill="black"/>
<path d="M158.081 621.784V630.6H159.649V621.784H158.081ZM153.393 625.432V626.792H155.297V630.504H156.833V622.088H155.297V625.432H153.393ZM154.529 628.792C152.721 628.056 151.825 626.424 151.825 624.856V624.232H154.129V622.904H147.729V624.232H150.209V624.856C150.209 626.536 149.265 628.296 147.361 629.096L148.225 630.36C149.633 629.784 150.529 628.712 151.041 627.432C151.537 628.584 152.417 629.544 153.697 630.056L154.529 628.792ZM149.857 632.52H158.001V636.232H159.649V631.192H149.857V632.52Z" fill="black"/>
<path d="M173.776 629.416H165.44V627.432H173.344V626.136H165.44V624.28H173.664V622.952H163.76V630.744H173.776V629.416ZM162.144 633.112V634.456H175.248V633.112H162.144Z" fill="black"/>
<path d="M190.761 632.408H192.409V621.784H190.761V625.432H188.265V626.824H190.761V632.408ZM188.521 628.776C186.681 629.08 185.145 629.16 182.633 629.16V627.176H187.449V622.76H180.969V624.088H185.801V625.912H181.001V630.504H182.137C184.953 630.504 186.649 630.424 188.665 630.12L188.521 628.776ZM184.617 634.616V631.608H182.969V635.96H192.809V634.616H184.617Z" fill="black"/>
<path d="M207.064 621.784H205.416V630.584H207.064V621.784ZM204.104 628.68C201.864 628.04 200.552 626.472 200.552 624.76V624.744H203.656V623.432H200.552V621.784H198.904V623.432H195.768V624.744H198.904V624.76C198.904 626.568 197.592 628.344 195.352 629.016L196.136 630.28C197.88 629.752 199.112 628.616 199.752 627.144C200.44 628.488 201.672 629.496 203.352 629.96L204.104 628.68ZM202.232 630.856C199.192 630.856 197.336 631.848 197.336 633.544C197.336 635.24 199.192 636.232 202.232 636.232C205.272 636.232 207.128 635.24 207.128 633.544C207.128 631.848 205.272 630.856 202.232 630.856ZM202.232 634.952C200.168 634.952 198.984 634.456 198.984 633.544C198.984 632.632 200.168 632.136 202.232 632.136C204.296 632.136 205.48 632.632 205.48 633.544C205.48 634.456 204.296 634.952 202.232 634.952Z" fill="black"/>
<path d="M50.7999 716.552C50.7999 718.264 50.7999 720.328 50.2399 723.16L51.9039 723.336C52.4639 720.344 52.4639 718.328 52.4639 716.552V715.128H42.1759V716.472H50.7999V716.552ZM47.3439 724.984V719.896H45.6799V724.984H40.8159V726.344H53.8719V724.984H47.3439Z" fill="black"/>
<path d="M65.4707 720.808V718.904C66.5747 718.408 67.2147 717.704 67.2147 716.744C67.2147 715.032 65.2147 714.024 62.0627 714.024C58.9107 714.024 56.9107 715.032 56.9107 716.744C56.9107 717.704 57.5347 718.424 58.6227 718.888V720.808H55.5187V722.12H68.5907V720.808H65.4707ZM62.0627 715.304C64.2547 715.304 65.5027 715.784 65.5027 716.744C65.5027 717.704 64.2547 718.2 62.0627 718.2C59.8707 718.2 58.6067 717.704 58.6067 716.744C58.6067 715.784 59.8707 715.304 62.0627 715.304ZM60.2707 719.336C60.7987 719.416 61.4227 719.464 62.0627 719.464C62.7027 719.464 63.2947 719.416 63.8227 719.336V720.808H60.2707V719.336ZM62.0307 723.048C58.8467 723.048 57.0547 723.976 57.0547 725.64C57.0547 727.304 58.9267 728.232 62.0307 728.232C65.2307 728.232 67.0067 727.304 67.0067 725.64C67.0067 723.976 65.2307 723.048 62.0307 723.048ZM62.0307 726.968C59.9027 726.968 58.7347 726.536 58.7347 725.64C58.7347 724.744 59.9027 724.312 62.0307 724.312C64.1587 724.312 65.3427 724.744 65.3427 725.64C65.3427 726.536 64.1587 726.968 62.0307 726.968Z" fill="black"/>
<path d="M77.6134 725.128V721.528H81.9014V720.184H73.4534V714.952H71.7894V721.528H75.9494V725.128H70.2534V726.488H83.3414V725.128H77.6134Z" fill="black"/>
<path d="M92.3322 720.76V719.32H96.5402V717.992H88.2362V715.736H96.4442V714.424H86.6042V719.32H90.6842V720.76H84.9882V722.104H98.0442V720.76H92.3322ZM91.4682 722.984C88.3802 722.984 86.4922 723.944 86.4922 725.608C86.4922 727.288 88.3802 728.248 91.4682 728.248C94.6522 728.248 96.4442 727.288 96.4442 725.608C96.4442 723.944 94.5722 722.984 91.4682 722.984ZM91.4682 726.968C89.3402 726.968 88.1722 726.504 88.1722 725.608C88.1722 724.712 89.3402 724.248 91.4682 724.248C93.5962 724.248 94.7802 724.712 94.7802 725.608C94.7802 726.504 93.5962 726.968 91.4682 726.968Z" fill="black"/>
<path d="M111.163 714.344H109.515V716.168H102.907V714.344H101.259V720.664H111.163V714.344ZM109.515 719.336H102.907V717.496H109.515V719.336ZM112.779 722.232H99.6749V723.56H105.355V728.248H107.003V723.56H112.779V722.232Z" fill="black"/>
<path d="M131.428 719.512H129.172V713.784H127.524V728.232H129.172V720.872H131.428V719.512ZM123.044 714.984H121.396V717.352C121.396 720.024 120.004 722.76 117.732 723.864L118.74 725.192C120.404 724.344 121.604 722.664 122.228 720.664C122.852 722.6 124.004 724.104 125.556 724.92L126.564 723.608C124.404 722.552 123.044 719.928 123.044 717.352V714.984Z" fill="black"/>
<path d="M142.931 713.768V728.232H144.595V713.768H142.931ZM141.811 715.464H138.275V713.8H136.627V715.464H133.075V716.792H141.811V715.464ZM138.275 722.824C139.939 722.568 140.979 721.592 140.979 720.184C140.979 718.568 139.555 717.496 137.459 717.496C135.363 717.496 133.923 718.568 133.923 720.184C133.923 721.592 134.963 722.568 136.627 722.824V724.232C135.267 724.28 133.939 724.28 132.787 724.28L132.995 725.64C135.619 725.64 139.043 725.592 142.227 725.048L142.115 723.848C140.883 724.024 139.571 724.104 138.275 724.184V722.824ZM135.491 720.184C135.491 719.288 136.291 718.76 137.459 718.76C138.611 718.76 139.411 719.288 139.411 720.184C139.411 721.08 138.611 721.624 137.459 721.624C136.291 721.624 135.491 721.08 135.491 720.184Z" fill="black"/>
<path d="M157.745 713.768V717.4H155.217V718.76H157.745V722.408H159.393V713.768H157.745ZM156.017 720.632C153.841 719.864 152.625 718.072 152.625 716.28V716.008H155.633V714.68H147.905V716.008H150.961V716.296C150.961 718.248 149.649 720.152 147.409 720.92L148.257 722.216C149.985 721.624 151.185 720.376 151.825 718.824C152.449 720.232 153.601 721.352 155.201 721.912L156.017 720.632ZM149.649 724.456H157.745V728.232H159.393V723.128H149.649V724.456Z" fill="black"/>
<path d="M172.416 713.784V728.232H174.064V713.784H172.416ZM162.96 715.304V716.648H168.112C167.84 719.976 166.032 722.504 162.24 724.344L163.12 725.656C168.08 723.256 169.808 719.608 169.808 715.304H162.96Z" fill="black"/>
<path d="M187.183 713.784V717.112H184.511C184.207 715.496 182.687 714.424 180.831 714.424C178.671 714.424 177.055 715.816 177.055 717.8C177.055 719.8 178.671 721.192 180.831 721.192C182.751 721.192 184.207 720.072 184.511 718.456H187.183V721.528H188.831V713.784H187.183ZM180.831 719.832C179.551 719.832 178.639 719.016 178.639 717.8C178.639 716.568 179.551 715.784 180.831 715.784C182.111 715.784 183.007 716.568 183.007 717.8C183.007 719.016 182.063 719.832 180.831 719.832ZM187.199 723.848H181.071V722.216H179.439V728.056H188.831V722.216H187.199V723.848ZM187.199 726.728H181.071V725.128H187.199V726.728Z" fill="black"/>
<path d="M207.064 713.784H205.416V724.28H207.064V713.784ZM203.096 718.36C203.096 716.232 201.448 714.744 199.272 714.744C197.096 714.744 195.432 716.232 195.432 718.36C195.432 720.456 197.096 721.976 199.272 721.976C201.448 721.976 203.096 720.456 203.096 718.36ZM197.048 718.36C197.048 717.016 197.992 716.168 199.272 716.168C200.536 716.168 201.496 717.016 201.496 718.36C201.496 719.672 200.536 720.552 199.272 720.552C197.992 720.552 197.048 719.672 197.048 718.36ZM199.288 726.616V723.224H197.624V727.96H207.48V726.616H199.288Z" fill="black"/>
<path d="M211.11 719.832C213.686 719.56 215.622 718.52 216.406 717.032C217.174 718.52 219.142 719.56 221.702 719.832L222.278 718.552C219.59 718.296 217.718 717.128 217.51 715.816H221.75V714.488H211.078V715.816H215.286C215.078 717.128 213.206 718.296 210.518 718.552L211.11 719.832ZM209.862 720.568V721.896H222.934V720.568H209.862ZM216.374 722.936C213.286 722.936 211.398 723.912 211.398 725.592C211.398 727.272 213.286 728.232 216.374 728.232C219.558 728.232 221.35 727.272 221.35 725.592C221.35 723.912 219.478 722.936 216.374 722.936ZM216.374 726.936C214.246 726.936 213.078 726.488 213.078 725.592C213.078 724.696 214.246 724.232 216.374 724.232C218.502 724.232 219.686 724.696 219.686 725.592C219.686 726.488 218.502 726.936 216.374 726.936Z" fill="black"/>
<path d="M47.7439 807.064H45.0559V805.736H43.4239V807.064H40.7359V808.328H47.7439V807.064ZM53.0399 805.784H51.4719V813.832H53.0399V805.784ZM47.4239 809.448V810.76H48.8159V813.72H50.3679V806.024H48.8159V809.448H47.4239ZM47.2479 811.192C47.2479 809.768 45.9999 808.792 44.2559 808.792C42.5119 808.792 41.2479 809.768 41.2479 811.192C41.2479 812.616 42.5119 813.592 44.2559 813.592C45.9999 813.592 47.2479 812.616 47.2479 811.192ZM42.7039 811.192C42.7039 810.44 43.2959 809.96 44.2559 809.96C45.1679 809.96 45.8079 810.44 45.8079 811.192C45.8079 811.944 45.1679 812.424 44.2559 812.424C43.2959 812.424 42.7039 811.944 42.7039 811.192ZM45.0559 818.872V817.784H53.0399V814.408H43.3919V815.624H51.4239V816.632H43.4239V820.104H53.5199V818.872H45.0559Z" fill="black"/>
<path d="M62.8787 817.176V814.712H67.3907V813.384H58.7347V811.368H67.0707V806.792H57.0867V808.12H65.4387V810.056H57.1187V814.712H61.2307V817.176H55.5347V818.536H68.6227V817.176H62.8787Z" fill="black"/>
<path d="M82.1254 805.784H80.4614V816.76H82.1254V805.784ZM74.9894 811.768C77.1654 811.768 78.6374 810.696 78.6374 809.048C78.6374 807.432 77.1654 806.36 74.9894 806.36C72.8134 806.36 71.3254 807.432 71.3254 809.048C71.3254 810.696 72.8134 811.768 74.9894 811.768ZM74.9894 807.592C76.2694 807.592 77.0854 808.152 77.0854 809.048C77.0854 809.96 76.2694 810.52 74.9894 810.52C73.7094 810.52 72.8934 809.96 72.8934 809.048C72.8934 808.152 73.7094 807.592 74.9894 807.592ZM74.3814 816.296H76.0294V813.864C77.2454 813.8 78.4614 813.656 79.6614 813.432L79.5494 812.264C76.4774 812.696 72.9414 812.696 70.2854 812.696L70.4934 814.04C71.6614 814.04 72.9734 814.024 74.3814 813.976V816.296ZM73.8374 818.616V815.8H72.1894V819.96H82.4934V818.616H73.8374Z" fill="black"/>
<path d="M95.3082 805.752V811.064H92.5402V812.424H95.3082V820.248H96.9722V805.752H95.3082ZM87.2602 812.408H91.7242V811.096H87.2602V808.392H92.3162V807.032H85.6122V816.872H86.7482C89.3402 816.872 91.1962 816.824 93.2442 816.44L93.1002 815.112C91.2122 815.416 89.5482 815.528 87.2602 815.528V812.408Z" fill="black"/>
<path d="M113.541 805.784V820.232H115.189V805.784H113.541ZM104.085 807.304V808.648H109.237C108.965 811.976 107.157 814.504 103.365 816.344L104.245 817.656C109.205 815.256 110.933 811.608 110.933 807.304H104.085Z" fill="black"/>
<path d="M121.188 813.192H119.108V814.536H129.892V813.192H127.796V808.472H129.924V807.144H119.06V808.472H121.188V813.192ZM126.164 813.192H122.836V808.472H126.164V813.192ZM117.972 817.096V818.456H131.092V817.096H117.972Z" fill="black"/>
<path d="M144.339 813.416H136.003V811.432H143.907V810.136H136.003V808.28H144.227V806.952H134.323V814.744H144.339V813.416ZM132.707 817.112V818.456H145.811V817.112H132.707Z" fill="black"/>
<path d="M161.771 805.784V820.232H163.339V805.784H161.771ZM158.827 810.84H156.699V812.184H158.827V819.56H160.379V806.056H158.827V810.84ZM155.435 807.112H153.835V809.72C153.835 812.184 152.843 814.76 150.795 815.992L151.803 817.24C153.211 816.392 154.139 814.904 154.651 813.096C155.147 814.712 155.979 816.104 157.323 816.92L158.251 815.64C156.315 814.392 155.435 811.992 155.435 809.64V807.112Z" fill="black"/>
<path d="M177.354 813.416H169.018V811.432H176.922V810.136H169.018V808.28H177.242V806.952H167.338V814.744H177.354V813.416ZM165.722 817.112V818.456H178.826V817.112H165.722Z" fill="black"/>
<path d="M185.107 811.544C187.683 811.368 189.619 810.664 190.531 809.448C191.443 810.664 193.411 811.368 195.987 811.544L196.435 810.312C193.539 810.136 191.827 809.368 191.507 808.216H195.779V806.984H191.363V805.72H189.715V806.984H185.315V808.216H189.571C189.251 809.368 187.555 810.136 184.627 810.312L185.107 811.544ZM197.075 813.304V812.072H184.035V813.304H189.715V814.424H185.555V815.64H193.827V816.648H185.587V820.104H195.859V818.872H187.219V817.784H195.443V814.424H191.363V813.304H197.075Z" fill="black"/>
<path d="M208.962 805.768V820.264H210.626V805.768H208.962ZM204.066 806.984H202.418V809.352C202.418 812.12 200.914 814.92 198.61 815.944L199.586 817.32C201.33 816.472 202.61 814.792 203.266 812.664C203.922 814.664 205.186 816.216 206.85 817L207.81 815.688C205.538 814.664 204.066 812.024 204.066 809.352V806.984Z" fill="black"/>
<path d="M51.1679 897.768V902.904H47.2959V904.264H51.1679V912.264H52.8159V897.768H51.1679ZM43.1679 900.456H48.0799V899.112H41.5199V908.728H42.6559C45.3599 908.728 47.1039 908.632 49.1039 908.248L48.9439 906.92C47.1199 907.256 45.5039 907.352 43.1679 907.352V900.456Z" fill="black"/>
<path d="M68.9747 903.512H66.7187V897.784H65.0707V912.232H66.7187V904.872H68.9747V903.512ZM60.5907 898.984H58.9427V901.352C58.9427 904.024 57.5507 906.76 55.2787 907.864L56.2867 909.192C57.9507 908.344 59.1507 906.664 59.7747 904.664C60.3987 906.6 61.5507 908.104 63.1027 908.92L64.1107 907.608C61.9507 906.552 60.5907 903.928 60.5907 901.352V898.984Z" fill="black"/>
<path d="M81.5334 901.288V897.768H79.8854V906.472H81.5334V902.648H83.5814V901.288H81.5334ZM78.6534 903.96C76.6694 904.344 74.9094 904.424 72.4454 904.424V902.776H77.3574V898.648H70.7974V899.976H75.7254V901.528H70.8294V905.768H71.9974C74.7654 905.768 76.6374 905.688 78.8294 905.304L78.6534 903.96ZM76.8614 906.856C73.8534 906.856 72.0454 907.832 72.0454 909.544C72.0454 911.24 73.8534 912.232 76.8614 912.232C79.8694 912.232 81.6774 911.24 81.6774 909.544C81.6774 907.832 79.8694 906.856 76.8614 906.856ZM76.8614 910.968C74.7974 910.968 73.6614 910.504 73.6614 909.544C73.6614 908.632 74.7974 908.136 76.8614 908.136C78.9254 908.136 80.0614 908.632 80.0614 909.544C80.0614 910.504 78.9254 910.968 76.8614 910.968Z" fill="black"/>
<path d="M101.99 903.512H99.7343V897.784H98.0863V912.232H99.7343V904.872H101.99V903.512ZM93.6063 898.984H91.9583V901.352C91.9583 904.024 90.5663 906.76 88.2943 907.864L89.3023 909.192C90.9663 908.344 92.1663 906.664 92.7903 904.664C93.4143 906.6 94.5663 908.104 96.1183 908.92L97.1263 907.608C94.9663 906.552 93.6063 903.928 93.6063 901.352V898.984Z" fill="black"/>
<path d="M113.589 897.784V901.112H110.917C110.613 899.496 109.093 898.424 107.237 898.424C105.077 898.424 103.461 899.816 103.461 901.8C103.461 903.8 105.077 905.192 107.237 905.192C109.157 905.192 110.613 904.072 110.917 902.456H113.589V905.528H115.237V897.784H113.589ZM107.237 903.832C105.957 903.832 105.045 903.016 105.045 901.8C105.045 900.568 105.957 899.784 107.237 899.784C108.517 899.784 109.413 900.568 109.413 901.8C109.413 903.016 108.469 903.832 107.237 903.832ZM113.605 907.848H107.477V906.216H105.845V912.056H115.237V906.216H113.605V907.848ZM113.605 910.728H107.477V909.128H113.605V910.728Z" fill="black"/>
<path d="M129.268 901.304V897.784H127.62V906.424H129.268V902.664H131.316V901.304H129.268ZM126.468 904.584C124.26 903.864 123.06 902.216 123.06 900.408V900.136H126.084V898.808H118.324V900.136H121.396V900.424C121.396 902.392 120.132 904.264 117.86 905.032L118.692 906.328C120.42 905.736 121.636 904.504 122.276 902.968C122.9 904.312 124.052 905.352 125.668 905.864L126.468 904.584ZM124.612 906.76C121.636 906.76 119.796 907.768 119.796 909.496C119.796 911.224 121.636 912.232 124.612 912.232C127.588 912.232 129.428 911.224 129.428 909.496C129.428 907.768 127.588 906.76 124.612 906.76ZM124.612 910.936C122.548 910.936 121.428 910.456 121.428 909.496C121.428 908.536 122.548 908.056 124.612 908.056C126.676 908.056 127.796 908.536 127.796 909.496C127.796 910.456 126.676 910.936 124.612 910.936Z" fill="black"/>
<path d="M146.509 897.768V912.264H148.173V897.768H146.509ZM140.477 898.84C138.349 898.84 136.765 900.824 136.765 903.928C136.765 907.064 138.349 909.032 140.477 909.032C142.637 909.032 144.205 907.064 144.205 903.928C144.205 900.824 142.637 898.84 140.477 898.84ZM140.477 900.328C141.757 900.328 142.621 901.672 142.621 903.928C142.621 906.248 141.757 907.56 140.477 907.56C139.197 907.56 138.349 906.248 138.349 903.928C138.349 901.672 139.197 900.328 140.477 900.328Z" fill="black"/>
<path d="M158.699 901.656V903.016H161.323V908.36H162.971V897.8H161.323V901.656H158.699ZM159.595 905.032C157.419 904.264 156.203 902.472 156.203 900.696V900.2H159.211V898.872H151.483V900.2H154.539V900.696C154.539 902.632 153.227 904.568 150.987 905.336L151.835 906.632C153.563 906.04 154.763 904.808 155.403 903.208C156.027 904.632 157.179 905.752 158.779 906.312L159.595 905.032ZM155.259 910.616V907.448H153.611V911.96H163.339V910.616H155.259Z" fill="black"/>
<line x1="8.5" y1="42" x2="8.50004" y2="872" stroke="#E50012"/>
<line x1="8.5" y1="877" x2="8.5" y2="917" stroke="#E50012" stroke-dasharray="1 2"/>
<line x1="8.5" y1="-2.18557e-08" x2="8.5" y2="40" stroke="#E50012" stroke-dasharray="1 2"/>
<circle cx="8" cy="688" r="7.5" fill="#F2F2F2" stroke="#E50012"/>
<circle cx="8" cy="688" r="4" fill="#E50012"/>
<circle cx="8" cy="780" r="7.5" fill="#F2F2F2" stroke="#E50012"/>
<circle cx="8" cy="780" r="4" fill="#E50012"/>
<circle cx="8" cy="872" r="7.5" fill="#F2F2F2" stroke="#E50012"/>
<circle cx="8" cy="872" r="4" fill="#E50012"/>
<circle cx="8" cy="596" r="7.5" fill="#F2F2F2" stroke="#E50012"/>
<circle cx="8" cy="596" r="4" fill="#E50012"/>
<circle cx="8" cy="504" r="7.5" fill="#F2F2F2" stroke="#E50012"/>
<circle cx="8" cy="504" r="4" fill="#E50012"/>
<circle cx="8" cy="412" r="7.5" fill="#F2F2F2" stroke="#E50012"/>
<circle cx="8" cy="412" r="4" fill="#E50012"/>
<circle cx="8" cy="320" r="7.5" fill="#F2F2F2" stroke="#E50012"/>
<circle cx="8" cy="320" r="4" fill="#E50012"/>
<circle cx="8" cy="228" r="7.5" fill="#F2F2F2" stroke="#E50012"/>
<circle cx="8" cy="228" r="4" fill="#E50012"/>
<circle cx="8" cy="136" r="7.5" fill="#F2F2F2" stroke="#E50012"/>
<circle cx="8" cy="136" r="4" fill="#E50012"/>
<circle cx="8" cy="44" r="7.5" fill="#F2F2F2" stroke="#E50012"/>
<circle cx="8" cy="44" r="4" fill="#E50012"/>
</svg>
