<svg width="65" height="99" viewBox="0 0 65 99" fill="none" xmlns="http://www.w3.org/2000/svg">
<mask id="path-1-outside-1" maskUnits="userSpaceOnUse" x="0" y="0" width="65" height="99" fill="black">
<rect fill="white" width="65" height="99"/>
<path d="M25.7591 38.0536C26.8777 39.8059 28.0708 41.5956 29.0029 43.3852C29.152 43.6462 29.3757 43.8326 29.6367 43.9072C29.7486 43.9445 29.8231 43.9445 29.935 43.9445C30.1214 43.9445 30.3078 43.9072 30.457 43.8326C31.8738 43.0497 33.4024 42.3412 34.9311 41.6328C39.9645 39.2839 45.147 36.8605 46.5265 31.9016C47.645 27.8376 45.4825 23.9228 41.4931 22.8043C40.7847 22.6178 40.0763 22.506 39.4052 22.506C37.541 22.506 36.1615 23.2889 35.0802 24.2211C34.5582 22.5433 33.3651 20.5672 30.3451 19.7097C29.6367 19.5232 28.891 19.4114 28.1826 19.4114C24.7897 19.4114 22.1425 21.6484 21.0613 25.4142C20.0173 29.2172 22.8137 33.5049 25.7591 38.0536ZM23.1119 25.9734C23.8949 23.1398 25.7591 21.4993 28.1826 21.4993C28.7046 21.4993 29.2266 21.5739 29.7858 21.723C32.4703 22.4687 33.1414 24.2211 33.3651 26.6445C33.4024 27.092 33.7007 27.4648 34.1481 27.5766C34.5955 27.6885 35.0429 27.5021 35.3039 27.1665L35.3785 27.0547C36.2733 25.8616 37.4664 24.6312 39.4052 24.6312C39.8899 24.6312 40.3746 24.7058 40.9339 24.8549C43.8047 25.6751 45.2961 28.3969 44.4759 31.3424C43.3573 35.3691 38.8459 37.4943 34.0363 39.7313C32.8059 40.2906 31.5755 40.8872 30.3824 41.521C29.5248 39.9923 28.5182 38.4637 27.5488 36.9723C24.827 32.7592 22.2917 28.8816 23.1119 25.9734Z"/>
<path d="M17.8922 13.5205C18.8989 13.6323 19.9428 13.7069 20.8749 13.8933C20.9495 13.8933 21.0241 13.8933 21.0613 13.8933C21.2851 13.8933 21.5088 13.8188 21.6579 13.7069C21.8816 13.5578 22.0307 13.2968 22.1053 12.9985C22.2544 12.2155 22.4409 11.4326 22.6273 10.6496C23.2984 7.89055 23.9695 4.98237 22.3663 2.74531C21.0241 0.881096 18.4142 0.433684 16.5499 1.77592C15.4314 2.59618 15.0213 3.56557 14.9094 4.38583C13.9773 4.1994 12.8588 4.42311 11.9267 5.09423C10.2489 6.32461 9.35406 8.67353 11.1437 11.1716C12.4859 12.9612 15.0959 13.2222 17.8922 13.5205ZM13.1943 6.80931C13.5672 6.54832 13.9028 6.39918 14.2383 6.39918C14.723 6.39918 15.1704 6.66017 15.5805 6.92116C15.9534 7.14487 16.4008 7.10758 16.7736 6.84659C17.1465 6.5856 17.2956 6.10091 17.1838 5.69078C16.9601 4.75867 16.9601 4.05027 17.8176 3.41643C18.7497 2.74531 19.9801 2.96902 20.6512 3.93841C21.6952 5.3925 21.1732 7.70413 20.5767 10.0903C20.4648 10.575 20.3529 11.097 20.2411 11.5817C19.5327 11.4699 18.787 11.4326 18.0786 11.358C15.8788 11.1343 13.6045 10.9106 12.8588 9.90391C11.6284 8.22611 12.6724 7.18215 13.1943 6.80931Z"/>
<path d="M63.0062 60.3124C62.6707 59.9768 62.2605 59.7158 61.8504 59.5294C62.5215 58.4109 63.0808 57.3296 63.3045 56.3975C63.7892 54.1605 63.1554 52.8555 62.5215 52.1471C61.7013 51.215 60.4336 50.7676 58.9422 50.8422C59.0168 50.3947 59.0168 49.9473 58.9795 49.5372C58.7931 48.0458 57.861 47.2256 57.339 46.89C56.2578 46.1816 54.4308 46.107 52.1938 47.5611C52.0819 46.5172 51.7091 45.5851 50.8142 45.0258C48.4653 43.4599 45.7809 45.2122 43.4692 47.151C40.3001 49.7982 35.3412 53.8249 28.9283 58.0008C25.7964 60.0514 22.1799 61.5055 19.2344 62.4376C21.1732 57.1432 22.4408 48.195 20.4275 45.3614C19.4954 44.0191 18.1904 43.2734 16.8109 43.2734C15.4314 43.2734 13.9773 44.0564 13.0079 45.3614C12.3741 46.2189 12.0758 47.2629 11.6657 48.6797C11.0318 50.954 10.0252 54.3842 7.00513 59.6413C2.04631 68.2912 1.03963 79.0291 1.00235 79.4765C0.965065 80.0731 1.37519 80.5578 1.97174 80.6324C2.00903 80.6324 2.04631 80.6324 2.04631 80.6324C2.60558 80.6324 3.05299 80.2222 3.09027 79.663C3.09027 79.5511 4.05967 68.9251 8.79478 60.6852C11.9639 55.1671 13.0079 51.5878 13.679 49.2389C14.0146 48.0085 14.2756 47.1137 14.6857 46.5917C15.245 45.8461 16.0279 45.3986 16.7363 45.3986C17.5939 45.3986 18.265 46.0698 18.6378 46.5917C19.9428 48.4187 19.0853 57.7398 16.6618 63.0341C16.5872 63.1833 16.5499 63.3324 16.5499 63.4816V64.0408C16.5499 64.3764 16.6991 64.6747 16.96 64.8984C17.221 65.0848 17.5566 65.1593 17.8922 65.0848C21.1732 64.1527 25.9829 62.5122 30.0469 59.8277C36.5343 55.54 41.5677 51.5133 44.7742 48.8288C47.8315 46.2562 48.95 46.4053 49.5839 46.8527C50.1431 47.2256 50.1431 48.3441 49.8076 49.5372C49.4347 49.8728 49.0992 50.2083 48.689 50.5812C46.3774 52.7809 43.4692 55.5027 39.4798 58.7092C35.8259 61.7292 33.1042 63.4443 31.5009 64.3764C30.979 64.6747 30.8298 65.3085 31.0908 65.8305C31.2772 66.166 31.6501 66.3524 32.0229 66.3524C32.2093 66.3524 32.3958 66.3152 32.5449 66.2033C34.2227 65.2339 37.019 63.4443 40.8966 60.3124C44.7369 57.2178 47.5705 54.5706 49.8448 52.4081C49.9567 52.2962 50.1058 52.1844 50.2177 52.0353C50.7397 51.5133 51.2617 51.0659 51.7463 50.6185C51.8582 50.5066 51.9701 50.432 52.0819 50.3202C54.1325 48.4187 55.6612 48.2695 56.2205 48.6051C56.4442 48.7542 56.8543 49.1271 56.9289 49.7609C57.0034 50.171 56.9289 50.954 56.295 52.1098C55.3256 52.9301 54.2071 54.0486 52.9394 55.3536C51.4854 56.8449 49.8448 58.5227 48.1298 59.9395C45.1097 62.4376 38.9951 66.8744 35.6395 69.3352C35.1548 69.6708 35.043 70.3419 35.4158 70.7893C35.6395 71.0876 35.9378 71.2367 36.2733 71.2367C36.497 71.2367 36.7208 71.1621 36.9072 71.0503C40.3 68.5895 46.4147 64.1154 49.472 61.5801C51.2989 60.0887 52.9767 58.3736 54.4681 56.8449C54.6172 56.6958 54.7291 56.5839 54.8782 56.4348C55.9595 55.3536 57.078 54.235 57.9356 53.5639C58.383 53.2284 58.7931 53.0046 59.0541 52.9674C59.8743 52.8928 60.5827 53.1165 60.9556 53.5266C61.4776 54.1605 61.403 55.1671 61.2539 55.9501C61.0674 56.8449 60.359 58.0753 59.5015 59.343C57.8237 59.7158 57.0034 60.6107 52.7903 65.0848C48.4653 69.708 40.1882 75.8972 40.1136 75.9345C39.6289 76.2701 39.5544 76.9412 39.8899 77.4259C40.2255 77.9106 40.8966 77.9852 41.3813 77.6496C41.7169 77.3886 49.9194 71.3113 54.3563 66.5389C54.6172 66.2779 54.8782 66.0169 55.1019 65.7559C58.8304 61.7665 59.1286 61.5428 60.3217 61.3563C60.4336 61.3563 60.5827 61.3563 60.6946 61.3563C60.9929 61.3936 61.2911 61.5428 61.5521 61.8038C62.0368 62.2885 62.2232 63.0341 62.0741 63.8171C61.8877 64.6747 61.0302 66.7999 57.078 71.4604C56.8543 71.6841 35.1548 95.7698 18.6378 95.7698C18.0413 95.7698 17.5939 96.2545 17.5939 96.8138C17.5939 97.4103 18.0786 97.8577 18.6378 97.8577C36.0496 97.8577 58.4575 73.0636 58.6812 72.8026C61.9623 68.9251 63.7519 66.1287 64.1248 64.2272C64.3857 62.7732 63.9756 61.3191 63.0062 60.3124Z"/>
<path d="M37.8393 80.1104C38.0257 80.4459 38.3986 80.6324 38.7714 80.6324C38.9578 80.6324 39.1443 80.5951 39.2934 80.4832C39.8154 80.1849 39.9645 79.5511 39.7035 79.0291C34.9684 70.6401 28.4436 64.19 28.1827 63.929C27.7725 63.5188 27.1014 63.5188 26.6913 63.929C26.2812 64.3391 26.2812 65.0102 26.6913 65.4203C26.7286 65.5322 33.2533 71.9824 37.8393 80.1104Z"/>
</mask>
<path d="M25.7591 38.0536C26.8777 39.8059 28.0708 41.5956 29.0029 43.3852C29.152 43.6462 29.3757 43.8326 29.6367 43.9072C29.7486 43.9445 29.8231 43.9445 29.935 43.9445C30.1214 43.9445 30.3078 43.9072 30.457 43.8326C31.8738 43.0497 33.4024 42.3412 34.9311 41.6328C39.9645 39.2839 45.147 36.8605 46.5265 31.9016C47.645 27.8376 45.4825 23.9228 41.4931 22.8043C40.7847 22.6178 40.0763 22.506 39.4052 22.506C37.541 22.506 36.1615 23.2889 35.0802 24.2211C34.5582 22.5433 33.3651 20.5672 30.3451 19.7097C29.6367 19.5232 28.891 19.4114 28.1826 19.4114C24.7897 19.4114 22.1425 21.6484 21.0613 25.4142C20.0173 29.2172 22.8137 33.5049 25.7591 38.0536ZM23.1119 25.9734C23.8949 23.1398 25.7591 21.4993 28.1826 21.4993C28.7046 21.4993 29.2266 21.5739 29.7858 21.723C32.4703 22.4687 33.1414 24.2211 33.3651 26.6445C33.4024 27.092 33.7007 27.4648 34.1481 27.5766C34.5955 27.6885 35.0429 27.5021 35.3039 27.1665L35.3785 27.0547C36.2733 25.8616 37.4664 24.6312 39.4052 24.6312C39.8899 24.6312 40.3746 24.7058 40.9339 24.8549C43.8047 25.6751 45.2961 28.3969 44.4759 31.3424C43.3573 35.3691 38.8459 37.4943 34.0363 39.7313C32.8059 40.2906 31.5755 40.8872 30.3824 41.521C29.5248 39.9923 28.5182 38.4637 27.5488 36.9723C24.827 32.7592 22.2917 28.8816 23.1119 25.9734Z" fill="#E33B31"/>
<path d="M17.8922 13.5205C18.8989 13.6323 19.9428 13.7069 20.8749 13.8933C20.9495 13.8933 21.0241 13.8933 21.0613 13.8933C21.2851 13.8933 21.5088 13.8188 21.6579 13.7069C21.8816 13.5578 22.0307 13.2968 22.1053 12.9985C22.2544 12.2155 22.4409 11.4326 22.6273 10.6496C23.2984 7.89055 23.9695 4.98237 22.3663 2.74531C21.0241 0.881096 18.4142 0.433684 16.5499 1.77592C15.4314 2.59618 15.0213 3.56557 14.9094 4.38583C13.9773 4.1994 12.8588 4.42311 11.9267 5.09423C10.2489 6.32461 9.35406 8.67353 11.1437 11.1716C12.4859 12.9612 15.0959 13.2222 17.8922 13.5205ZM13.1943 6.80931C13.5672 6.54832 13.9028 6.39918 14.2383 6.39918C14.723 6.39918 15.1704 6.66017 15.5805 6.92116C15.9534 7.14487 16.4008 7.10758 16.7736 6.84659C17.1465 6.5856 17.2956 6.10091 17.1838 5.69078C16.9601 4.75867 16.9601 4.05027 17.8176 3.41643C18.7497 2.74531 19.9801 2.96902 20.6512 3.93841C21.6952 5.3925 21.1732 7.70413 20.5767 10.0903C20.4648 10.575 20.3529 11.097 20.2411 11.5817C19.5327 11.4699 18.787 11.4326 18.0786 11.358C15.8788 11.1343 13.6045 10.9106 12.8588 9.90391C11.6284 8.22611 12.6724 7.18215 13.1943 6.80931Z" fill="#E33B31"/>
<path d="M63.0062 60.3124C62.6707 59.9768 62.2605 59.7158 61.8504 59.5294C62.5215 58.4109 63.0808 57.3296 63.3045 56.3975C63.7892 54.1605 63.1554 52.8555 62.5215 52.1471C61.7013 51.215 60.4336 50.7676 58.9422 50.8422C59.0168 50.3947 59.0168 49.9473 58.9795 49.5372C58.7931 48.0458 57.861 47.2256 57.339 46.89C56.2578 46.1816 54.4308 46.107 52.1938 47.5611C52.0819 46.5172 51.7091 45.5851 50.8142 45.0258C48.4653 43.4599 45.7809 45.2122 43.4692 47.151C40.3001 49.7982 35.3412 53.8249 28.9283 58.0008C25.7964 60.0514 22.1799 61.5055 19.2344 62.4376C21.1732 57.1432 22.4408 48.195 20.4275 45.3614C19.4954 44.0191 18.1904 43.2734 16.8109 43.2734C15.4314 43.2734 13.9773 44.0564 13.0079 45.3614C12.3741 46.2189 12.0758 47.2629 11.6657 48.6797C11.0318 50.954 10.0252 54.3842 7.00513 59.6413C2.04631 68.2912 1.03963 79.0291 1.00235 79.4765C0.965065 80.0731 1.37519 80.5578 1.97174 80.6324C2.00903 80.6324 2.04631 80.6324 2.04631 80.6324C2.60558 80.6324 3.05299 80.2222 3.09027 79.663C3.09027 79.5511 4.05967 68.9251 8.79478 60.6852C11.9639 55.1671 13.0079 51.5878 13.679 49.2389C14.0146 48.0085 14.2756 47.1137 14.6857 46.5917C15.245 45.8461 16.0279 45.3986 16.7363 45.3986C17.5939 45.3986 18.265 46.0698 18.6378 46.5917C19.9428 48.4187 19.0853 57.7398 16.6618 63.0341C16.5872 63.1833 16.5499 63.3324 16.5499 63.4816V64.0408C16.5499 64.3764 16.6991 64.6747 16.96 64.8984C17.221 65.0848 17.5566 65.1593 17.8922 65.0848C21.1732 64.1527 25.9829 62.5122 30.0469 59.8277C36.5343 55.54 41.5677 51.5133 44.7742 48.8288C47.8315 46.2562 48.95 46.4053 49.5839 46.8527C50.1431 47.2256 50.1431 48.3441 49.8076 49.5372C49.4347 49.8728 49.0992 50.2083 48.689 50.5812C46.3774 52.7809 43.4692 55.5027 39.4798 58.7092C35.8259 61.7292 33.1042 63.4443 31.5009 64.3764C30.979 64.6747 30.8298 65.3085 31.0908 65.8305C31.2772 66.166 31.6501 66.3524 32.0229 66.3524C32.2093 66.3524 32.3958 66.3152 32.5449 66.2033C34.2227 65.2339 37.019 63.4443 40.8966 60.3124C44.7369 57.2178 47.5705 54.5706 49.8448 52.4081C49.9567 52.2962 50.1058 52.1844 50.2177 52.0353C50.7397 51.5133 51.2617 51.0659 51.7463 50.6185C51.8582 50.5066 51.9701 50.432 52.0819 50.3202C54.1325 48.4187 55.6612 48.2695 56.2205 48.6051C56.4442 48.7542 56.8543 49.1271 56.9289 49.7609C57.0034 50.171 56.9289 50.954 56.295 52.1098C55.3256 52.9301 54.2071 54.0486 52.9394 55.3536C51.4854 56.8449 49.8448 58.5227 48.1298 59.9395C45.1097 62.4376 38.9951 66.8744 35.6395 69.3352C35.1548 69.6708 35.043 70.3419 35.4158 70.7893C35.6395 71.0876 35.9378 71.2367 36.2733 71.2367C36.497 71.2367 36.7208 71.1621 36.9072 71.0503C40.3 68.5895 46.4147 64.1154 49.472 61.5801C51.2989 60.0887 52.9767 58.3736 54.4681 56.8449C54.6172 56.6958 54.7291 56.5839 54.8782 56.4348C55.9595 55.3536 57.078 54.235 57.9356 53.5639C58.383 53.2284 58.7931 53.0046 59.0541 52.9674C59.8743 52.8928 60.5827 53.1165 60.9556 53.5266C61.4776 54.1605 61.403 55.1671 61.2539 55.9501C61.0674 56.8449 60.359 58.0753 59.5015 59.343C57.8237 59.7158 57.0034 60.6107 52.7903 65.0848C48.4653 69.708 40.1882 75.8972 40.1136 75.9345C39.6289 76.2701 39.5544 76.9412 39.8899 77.4259C40.2255 77.9106 40.8966 77.9852 41.3813 77.6496C41.7169 77.3886 49.9194 71.3113 54.3563 66.5389C54.6172 66.2779 54.8782 66.0169 55.1019 65.7559C58.8304 61.7665 59.1286 61.5428 60.3217 61.3563C60.4336 61.3563 60.5827 61.3563 60.6946 61.3563C60.9929 61.3936 61.2911 61.5428 61.5521 61.8038C62.0368 62.2885 62.2232 63.0341 62.0741 63.8171C61.8877 64.6747 61.0302 66.7999 57.078 71.4604C56.8543 71.6841 35.1548 95.7698 18.6378 95.7698C18.0413 95.7698 17.5939 96.2545 17.5939 96.8138C17.5939 97.4103 18.0786 97.8577 18.6378 97.8577C36.0496 97.8577 58.4575 73.0636 58.6812 72.8026C61.9623 68.9251 63.7519 66.1287 64.1248 64.2272C64.3857 62.7732 63.9756 61.3191 63.0062 60.3124Z" fill="#E33B31"/>
<path d="M37.8393 80.1104C38.0257 80.4459 38.3986 80.6324 38.7714 80.6324C38.9578 80.6324 39.1443 80.5951 39.2934 80.4832C39.8154 80.1849 39.9645 79.5511 39.7035 79.0291C34.9684 70.6401 28.4436 64.19 28.1827 63.929C27.7725 63.5188 27.1014 63.5188 26.6913 63.929C26.2812 64.3391 26.2812 65.0102 26.6913 65.4203C26.7286 65.5322 33.2533 71.9824 37.8393 80.1104Z" fill="#E33B31"/>
<path d="M25.7591 38.0536C26.8777 39.8059 28.0708 41.5956 29.0029 43.3852C29.152 43.6462 29.3757 43.8326 29.6367 43.9072C29.7486 43.9445 29.8231 43.9445 29.935 43.9445C30.1214 43.9445 30.3078 43.9072 30.457 43.8326C31.8738 43.0497 33.4024 42.3412 34.9311 41.6328C39.9645 39.2839 45.147 36.8605 46.5265 31.9016C47.645 27.8376 45.4825 23.9228 41.4931 22.8043C40.7847 22.6178 40.0763 22.506 39.4052 22.506C37.541 22.506 36.1615 23.2889 35.0802 24.2211C34.5582 22.5433 33.3651 20.5672 30.3451 19.7097C29.6367 19.5232 28.891 19.4114 28.1826 19.4114C24.7897 19.4114 22.1425 21.6484 21.0613 25.4142C20.0173 29.2172 22.8137 33.5049 25.7591 38.0536ZM23.1119 25.9734C23.8949 23.1398 25.7591 21.4993 28.1826 21.4993C28.7046 21.4993 29.2266 21.5739 29.7858 21.723C32.4703 22.4687 33.1414 24.2211 33.3651 26.6445C33.4024 27.092 33.7007 27.4648 34.1481 27.5766C34.5955 27.6885 35.0429 27.5021 35.3039 27.1665L35.3785 27.0547C36.2733 25.8616 37.4664 24.6312 39.4052 24.6312C39.8899 24.6312 40.3746 24.7058 40.9339 24.8549C43.8047 25.6751 45.2961 28.3969 44.4759 31.3424C43.3573 35.3691 38.8459 37.4943 34.0363 39.7313C32.8059 40.2906 31.5755 40.8872 30.3824 41.521C29.5248 39.9923 28.5182 38.4637 27.5488 36.9723C24.827 32.7592 22.2917 28.8816 23.1119 25.9734Z" stroke="#E33B31" mask="url(#path-1-outside-1)"/>
<path d="M17.8922 13.5205C18.8989 13.6323 19.9428 13.7069 20.8749 13.8933C20.9495 13.8933 21.0241 13.8933 21.0613 13.8933C21.2851 13.8933 21.5088 13.8188 21.6579 13.7069C21.8816 13.5578 22.0307 13.2968 22.1053 12.9985C22.2544 12.2155 22.4409 11.4326 22.6273 10.6496C23.2984 7.89055 23.9695 4.98237 22.3663 2.74531C21.0241 0.881096 18.4142 0.433684 16.5499 1.77592C15.4314 2.59618 15.0213 3.56557 14.9094 4.38583C13.9773 4.1994 12.8588 4.42311 11.9267 5.09423C10.2489 6.32461 9.35406 8.67353 11.1437 11.1716C12.4859 12.9612 15.0959 13.2222 17.8922 13.5205ZM13.1943 6.80931C13.5672 6.54832 13.9028 6.39918 14.2383 6.39918C14.723 6.39918 15.1704 6.66017 15.5805 6.92116C15.9534 7.14487 16.4008 7.10758 16.7736 6.84659C17.1465 6.5856 17.2956 6.10091 17.1838 5.69078C16.9601 4.75867 16.9601 4.05027 17.8176 3.41643C18.7497 2.74531 19.9801 2.96902 20.6512 3.93841C21.6952 5.3925 21.1732 7.70413 20.5767 10.0903C20.4648 10.575 20.3529 11.097 20.2411 11.5817C19.5327 11.4699 18.787 11.4326 18.0786 11.358C15.8788 11.1343 13.6045 10.9106 12.8588 9.90391C11.6284 8.22611 12.6724 7.18215 13.1943 6.80931Z" stroke="#E33B31" mask="url(#path-1-outside-1)"/>
<path d="M63.0062 60.3124C62.6707 59.9768 62.2605 59.7158 61.8504 59.5294C62.5215 58.4109 63.0808 57.3296 63.3045 56.3975C63.7892 54.1605 63.1554 52.8555 62.5215 52.1471C61.7013 51.215 60.4336 50.7676 58.9422 50.8422C59.0168 50.3947 59.0168 49.9473 58.9795 49.5372C58.7931 48.0458 57.861 47.2256 57.339 46.89C56.2578 46.1816 54.4308 46.107 52.1938 47.5611C52.0819 46.5172 51.7091 45.5851 50.8142 45.0258C48.4653 43.4599 45.7809 45.2122 43.4692 47.151C40.3001 49.7982 35.3412 53.8249 28.9283 58.0008C25.7964 60.0514 22.1799 61.5055 19.2344 62.4376C21.1732 57.1432 22.4408 48.195 20.4275 45.3614C19.4954 44.0191 18.1904 43.2734 16.8109 43.2734C15.4314 43.2734 13.9773 44.0564 13.0079 45.3614C12.3741 46.2189 12.0758 47.2629 11.6657 48.6797C11.0318 50.954 10.0252 54.3842 7.00513 59.6413C2.04631 68.2912 1.03963 79.0291 1.00235 79.4765C0.965065 80.0731 1.37519 80.5578 1.97174 80.6324C2.00903 80.6324 2.04631 80.6324 2.04631 80.6324C2.60558 80.6324 3.05299 80.2222 3.09027 79.663C3.09027 79.5511 4.05967 68.9251 8.79478 60.6852C11.9639 55.1671 13.0079 51.5878 13.679 49.2389C14.0146 48.0085 14.2756 47.1137 14.6857 46.5917C15.245 45.8461 16.0279 45.3986 16.7363 45.3986C17.5939 45.3986 18.265 46.0698 18.6378 46.5917C19.9428 48.4187 19.0853 57.7398 16.6618 63.0341C16.5872 63.1833 16.5499 63.3324 16.5499 63.4816V64.0408C16.5499 64.3764 16.6991 64.6747 16.96 64.8984C17.221 65.0848 17.5566 65.1593 17.8922 65.0848C21.1732 64.1527 25.9829 62.5122 30.0469 59.8277C36.5343 55.54 41.5677 51.5133 44.7742 48.8288C47.8315 46.2562 48.95 46.4053 49.5839 46.8527C50.1431 47.2256 50.1431 48.3441 49.8076 49.5372C49.4347 49.8728 49.0992 50.2083 48.689 50.5812C46.3774 52.7809 43.4692 55.5027 39.4798 58.7092C35.8259 61.7292 33.1042 63.4443 31.5009 64.3764C30.979 64.6747 30.8298 65.3085 31.0908 65.8305C31.2772 66.166 31.6501 66.3524 32.0229 66.3524C32.2093 66.3524 32.3958 66.3152 32.5449 66.2033C34.2227 65.2339 37.019 63.4443 40.8966 60.3124C44.7369 57.2178 47.5705 54.5706 49.8448 52.4081C49.9567 52.2962 50.1058 52.1844 50.2177 52.0353C50.7397 51.5133 51.2617 51.0659 51.7463 50.6185C51.8582 50.5066 51.9701 50.432 52.0819 50.3202C54.1325 48.4187 55.6612 48.2695 56.2205 48.6051C56.4442 48.7542 56.8543 49.1271 56.9289 49.7609C57.0034 50.171 56.9289 50.954 56.295 52.1098C55.3256 52.9301 54.2071 54.0486 52.9394 55.3536C51.4854 56.8449 49.8448 58.5227 48.1298 59.9395C45.1097 62.4376 38.9951 66.8744 35.6395 69.3352C35.1548 69.6708 35.043 70.3419 35.4158 70.7893C35.6395 71.0876 35.9378 71.2367 36.2733 71.2367C36.497 71.2367 36.7208 71.1621 36.9072 71.0503C40.3 68.5895 46.4147 64.1154 49.472 61.5801C51.2989 60.0887 52.9767 58.3736 54.4681 56.8449C54.6172 56.6958 54.7291 56.5839 54.8782 56.4348C55.9595 55.3536 57.078 54.235 57.9356 53.5639C58.383 53.2284 58.7931 53.0046 59.0541 52.9674C59.8743 52.8928 60.5827 53.1165 60.9556 53.5266C61.4776 54.1605 61.403 55.1671 61.2539 55.9501C61.0674 56.8449 60.359 58.0753 59.5015 59.343C57.8237 59.7158 57.0034 60.6107 52.7903 65.0848C48.4653 69.708 40.1882 75.8972 40.1136 75.9345C39.6289 76.2701 39.5544 76.9412 39.8899 77.4259C40.2255 77.9106 40.8966 77.9852 41.3813 77.6496C41.7169 77.3886 49.9194 71.3113 54.3563 66.5389C54.6172 66.2779 54.8782 66.0169 55.1019 65.7559C58.8304 61.7665 59.1286 61.5428 60.3217 61.3563C60.4336 61.3563 60.5827 61.3563 60.6946 61.3563C60.9929 61.3936 61.2911 61.5428 61.5521 61.8038C62.0368 62.2885 62.2232 63.0341 62.0741 63.8171C61.8877 64.6747 61.0302 66.7999 57.078 71.4604C56.8543 71.6841 35.1548 95.7698 18.6378 95.7698C18.0413 95.7698 17.5939 96.2545 17.5939 96.8138C17.5939 97.4103 18.0786 97.8577 18.6378 97.8577C36.0496 97.8577 58.4575 73.0636 58.6812 72.8026C61.9623 68.9251 63.7519 66.1287 64.1248 64.2272C64.3857 62.7732 63.9756 61.3191 63.0062 60.3124Z" stroke="#E33B31" mask="url(#path-1-outside-1)"/>
<path d="M37.8393 80.1104C38.0257 80.4459 38.3986 80.6324 38.7714 80.6324C38.9578 80.6324 39.1443 80.5951 39.2934 80.4832C39.8154 80.1849 39.9645 79.5511 39.7035 79.0291C34.9684 70.6401 28.4436 64.19 28.1827 63.929C27.7725 63.5188 27.1014 63.5188 26.6913 63.929C26.2812 64.3391 26.2812 65.0102 26.6913 65.4203C26.7286 65.5322 33.2533 71.9824 37.8393 80.1104Z" stroke="#E33B31" mask="url(#path-1-outside-1)"/>
</svg>
