<svg width="48" height="48" viewBox="0 0 48 48" fill="none" xmlns="http://www.w3.org/2000/svg">
<path d="M15.3619 0.0141835C13.7973 0.0803578 11.8972 0.26233 10.9258 0.444309C5.32467 1.52201 1.51728 5.3294 0.44904 10.9306C0.0378139 13.0671 0 14.1069 0 24.0024C0 33.8978 0.0378139 34.9377 0.44904 37.0741C1.51728 42.6753 5.32467 46.4827 10.9258 47.551C13.0623 47.9622 14.1022 48 23.9976 48C33.8931 48 34.9329 47.9622 37.0694 47.551C42.6706 46.4827 46.478 42.6753 47.5462 37.0741C47.9575 34.9377 47.9953 33.8978 47.9953 24.0024C47.9953 14.1069 47.9575 13.0671 47.5462 10.9306C46.478 5.31049 42.6422 1.49364 37.0127 0.444309C34.9613 0.0638073 34.1601 0.0330927 24.9997 0.00473232C20.1241 -0.00472115 15.7826 0.00473002 15.3619 0.0141835ZM34.8762 4.52585C36.8331 4.78346 38.2913 5.21359 39.4281 5.88006C40.1442 6.30073 41.6993 7.85584 42.1199 8.57194C42.8171 9.75599 43.2355 11.2236 43.4836 13.2656C43.6656 14.7734 43.6656 33.2266 43.4836 34.7344C43.2355 36.7764 42.8148 38.2464 42.1199 39.4281C41.6993 40.1442 40.1442 41.6993 39.4281 42.1199C38.244 42.8171 36.7764 43.2354 34.7344 43.4836C33.2266 43.6656 14.7734 43.6656 13.2656 43.4836C11.2236 43.2354 9.75362 42.8148 8.57194 42.1199C7.85583 41.6993 6.30074 40.1442 5.88006 39.4281C5.18287 38.244 4.76455 36.7764 4.5164 34.7344C4.33442 33.2266 4.33442 14.7734 4.5164 13.2656C4.68892 11.7956 4.88981 10.9188 5.24195 9.95451C5.65318 8.85791 6.07149 8.18907 6.86322 7.33117C8.63811 5.42157 10.6612 4.6582 14.4591 4.44077C16.5365 4.32733 33.8931 4.3935 34.8762 4.52585Z" fill="white"/>
<path d="M35.8783 8.42064C35.1622 8.65934 34.3043 9.55506 34.0751 10.2995C33.3779 12.5235 35.4765 14.6221 37.7005 13.9249C38.5016 13.6768 39.3406 12.8283 39.5888 12.0366C39.7991 11.3583 39.7519 10.576 39.4446 9.93793C39.2059 9.42272 38.4709 8.70662 37.9652 8.49628C37.405 8.25758 36.4502 8.22921 35.8783 8.42064Z" fill="white"/>
<path d="M22.8539 11.694C19.9351 11.9894 17.3094 13.2396 15.2675 15.2721C11.9942 18.5454 10.8314 23.3359 12.2234 27.753C13.4264 31.5321 16.4704 34.5761 20.2494 35.779C22.6932 36.5424 25.307 36.5424 27.7484 35.779C31.5274 34.5761 34.5714 31.5321 35.7744 27.753C36.5378 25.3093 36.5378 22.6954 35.7744 20.2541C34.5714 16.4751 31.5274 13.431 27.7484 12.2281C26.2311 11.7507 24.3026 11.5403 22.8539 11.694ZM25.9073 16.234C26.7747 16.4443 28.3203 17.2172 29.0364 17.7985C29.9132 18.5241 30.6293 19.4387 31.154 20.5188C31.7827 21.8257 31.9457 22.5418 31.9457 24.0024C31.9457 25.4629 31.7827 26.179 31.154 27.486C30.3434 29.1758 29.1688 30.3386 27.4813 31.1587C26.1744 31.7873 25.4677 31.9504 23.9977 31.9504C22.5277 31.9504 21.8211 31.7873 20.5141 31.1587C18.8243 30.3386 17.6521 29.1734 16.8415 27.486C16.5838 26.9613 16.3073 26.2263 16.2128 25.8647C15.9836 24.9477 15.9836 23.0594 16.2128 22.1424C16.442 21.216 17.2149 19.6798 17.7963 18.966C19.037 17.4582 20.9821 16.3522 22.8633 16.0851C23.655 15.9764 25.1156 16.0449 25.9073 16.234Z" fill="white"/>
</svg>
