<svg xmlns="http://www.w3.org/2000/svg" viewBox="0 0 298.3 59.69"><g id="Layer_2" data-name="Layer 2"><g id="사이즈"><path d="M12.31,10.33H0V1.92H34.12v8.41H21.81V45.06h-9.5Z"/><path d="M45.39,0V19.47h.12a5.46,5.46,0,0,1,1-1.7,8,8,0,0,1,1.77-1.53,9.71,9.71,0,0,1,2.43-1.09,10.27,10.27,0,0,1,3-.43,12.66,12.66,0,0,1,5.61,1.07,8.14,8.14,0,0,1,3.32,2.95,11.9,11.9,0,0,1,1.61,4.45,34.14,34.14,0,0,1,.43,5.54V45.06H55.63V30.56c0-.85,0-1.74-.09-2.65A8.5,8.5,0,0,0,55,25.38a3.92,3.92,0,0,0-4.11-2.62A5.73,5.73,0,0,0,48,23.4a4.35,4.35,0,0,0-1.67,1.71,7.05,7.05,0,0,0-.77,2.4,21.18,21.18,0,0,0-.18,2.81V45.06H36.25V0Z"/><path d="M97.73,39.94a14.58,14.58,0,0,1-5.55,4.33,16.67,16.67,0,0,1-6.94,1.52,18.67,18.67,0,0,1-6.43-1.09,15.45,15.45,0,0,1-5.24-3.14,14.72,14.72,0,0,1-3.5-4.91,15.36,15.36,0,0,1-1.28-6.39,15.4,15.4,0,0,1,1.28-6.4A14.82,14.82,0,0,1,73.57,19a15.43,15.43,0,0,1,5.24-3.13,18.45,18.45,0,0,1,6.43-1.1A14.5,14.5,0,0,1,91,15.82,12,12,0,0,1,95.38,19a14.55,14.55,0,0,1,2.78,4.91,20,20,0,0,1,1,6.4v2.86H77.93a7.15,7.15,0,0,0,2.37,4.17,6.71,6.71,0,0,0,4.51,1.56,6.89,6.89,0,0,0,3.81-1,10.08,10.08,0,0,0,2.71-2.59ZM90,26.91a5.33,5.33,0,0,0-1.52-4,5.45,5.45,0,0,0-4.08-1.64,6.83,6.83,0,0,0-2.69.49,6.62,6.62,0,0,0-2,1.25,5.57,5.57,0,0,0-1.28,1.76,5.89,5.89,0,0,0-.51,2.11Z"/><path d="M137.14,12.47A6.73,6.73,0,0,0,134,10.3a11.43,11.43,0,0,0-3.75-.7,9.36,9.36,0,0,0-2.13.25,7.78,7.78,0,0,0-2.07.76A4.5,4.5,0,0,0,124.47,12a3.45,3.45,0,0,0-.61,2.07,3.43,3.43,0,0,0,1.46,3A13.78,13.78,0,0,0,129,18.8c1.48.49,3.08,1,4.78,1.46a19.69,19.69,0,0,1,4.79,2.08,11.26,11.26,0,0,1,3.68,3.59,10.89,10.89,0,0,1,1.47,6,13.8,13.8,0,0,1-1.35,6.28,12.72,12.72,0,0,1-3.62,4.45,15.57,15.57,0,0,1-5.3,2.62,23.67,23.67,0,0,1-6.37.85,23.2,23.2,0,0,1-7.8-1.28,19.51,19.51,0,0,1-6.7-4.14l6.76-7.44a10,10,0,0,0,3.69,3,10.53,10.53,0,0,0,4.6,1.06,10.66,10.66,0,0,0,2.35-.27,7.74,7.74,0,0,0,2.13-.82,4.65,4.65,0,0,0,1.52-1.4,3.47,3.47,0,0,0,.58-2,3.66,3.66,0,0,0-1.49-3.08A14,14,0,0,0,129,27.88c-1.5-.53-3.13-1.06-4.87-1.58a21.63,21.63,0,0,1-4.88-2.14,11.81,11.81,0,0,1-3.75-3.53A10.14,10.14,0,0,1,114,14.84a13,13,0,0,1,1.37-6.09A13.34,13.34,0,0,1,119,4.36a15.84,15.84,0,0,1,5.27-2.65,21.52,21.52,0,0,1,6.15-.88,24.24,24.24,0,0,1,7.07,1,16.2,16.2,0,0,1,6.15,3.48Z"/><path d="M166.69,41.35h-.12a8.56,8.56,0,0,1-4,3.41,13.9,13.9,0,0,1-5.33,1,13.61,13.61,0,0,1-4-.58,9.93,9.93,0,0,1-3.38-1.73,8.34,8.34,0,0,1-2.32-2.87,8.68,8.68,0,0,1-.85-4,9.07,9.07,0,0,1,.94-4.32,8.6,8.6,0,0,1,2.56-2.93,12.65,12.65,0,0,1,3.69-1.79,27.26,27.26,0,0,1,4.29-.95,41.9,41.9,0,0,1,4.45-.36c1.48,0,2.86-.07,4.11-.07A4.72,4.72,0,0,0,165,22.37a6.25,6.25,0,0,0-4.11-1.44,9,9,0,0,0-4.12.95,11.24,11.24,0,0,0-3.32,2.59l-4.87-5a16.69,16.69,0,0,1,6-3.56,21.38,21.38,0,0,1,7.07-1.19,18.51,18.51,0,0,1,6.61,1,9.76,9.76,0,0,1,4.14,3,11.24,11.24,0,0,1,2.16,4.78A31.19,31.19,0,0,1,175.1,30V45.06h-8.41Zm-2.25-9.27c-.69,0-1.55,0-2.59.1a13.27,13.27,0,0,0-3,.51A6.68,6.68,0,0,0,156.43,34a3,3,0,0,0-1,2.38,2.62,2.62,0,0,0,1.4,2.44,6,6,0,0,0,2.93.79,9,9,0,0,0,2.59-.37,7.81,7.81,0,0,0,2.22-1,5.11,5.11,0,0,0,1.56-1.71,5,5,0,0,0,.57-2.44v-2Z"/><path d="M179.31,15.45h9.14V20.2h.12A11.21,11.21,0,0,1,192,16.09a8.82,8.82,0,0,1,5.06-1.37c.52,0,1.05,0,1.58.06a7.81,7.81,0,0,1,1.46.24v8.35a15.69,15.69,0,0,0-1.92-.46,12.62,12.62,0,0,0-2-.15,9.85,9.85,0,0,0-4.14.73,5.45,5.45,0,0,0-2.34,2,7.74,7.74,0,0,0-1.07,3.14,31,31,0,0,0-.24,4V45.06h-9.14Z"/><path d="M221.16,41.35H221a8.56,8.56,0,0,1-4,3.41,13.94,13.94,0,0,1-5.33,1,13.61,13.61,0,0,1-4-.58,9.93,9.93,0,0,1-3.38-1.73A8.34,8.34,0,0,1,202,40.61a8.68,8.68,0,0,1-.85-4,9.07,9.07,0,0,1,.94-4.32,8.6,8.6,0,0,1,2.56-2.93,12.65,12.65,0,0,1,3.69-1.79,27.26,27.26,0,0,1,4.29-.95,41.9,41.9,0,0,1,4.45-.36c1.48,0,2.85-.07,4.11-.07a4.72,4.72,0,0,0-1.73-3.86,6.25,6.25,0,0,0-4.12-1.44,8.94,8.94,0,0,0-4.11.95,11.24,11.24,0,0,0-3.32,2.59l-4.87-5a16.69,16.69,0,0,1,6-3.56,21.38,21.38,0,0,1,7.07-1.19,18.51,18.51,0,0,1,6.61,1,9.76,9.76,0,0,1,4.14,3A11.24,11.24,0,0,1,229,23.46a31.19,31.19,0,0,1,.61,6.55V45.06h-8.41Zm-2.25-9.27c-.69,0-1.55,0-2.59.1a13.36,13.36,0,0,0-3,.51A6.71,6.71,0,0,0,210.9,34a3,3,0,0,0-1,2.38,2.62,2.62,0,0,0,1.4,2.44,6,6,0,0,0,2.93.79,9,9,0,0,0,2.59-.37,7.81,7.81,0,0,0,2.22-1,5.11,5.11,0,0,0,1.56-1.71,5,5,0,0,0,.57-2.44v-2Z"/><path d="M233.78,15.45h8.77v4h.12a7.29,7.29,0,0,1,1.22-1.7,9,9,0,0,1,1.89-1.53,10.78,10.78,0,0,1,2.5-1.09,10.2,10.2,0,0,1,3-.43,12.6,12.6,0,0,1,5.61,1.07,8.08,8.08,0,0,1,3.32,2.95,11.9,11.9,0,0,1,1.61,4.45,33,33,0,0,1,.43,5.54V45.06h-9.14V30.56c0-.85,0-1.74-.09-2.65a8.2,8.2,0,0,0-.55-2.53,3.92,3.92,0,0,0-4.11-2.62,5.75,5.75,0,0,0-2.87.64,4.42,4.42,0,0,0-1.67,1.71,6.83,6.83,0,0,0-.76,2.4,21.18,21.18,0,0,0-.18,2.81V45.06h-9.14Z"/><path d="M298.3,42.56q0,8.41-4.24,12.77t-12.88,4.36a34.62,34.62,0,0,1-7.8-.89,17.72,17.72,0,0,1-7.07-3.44l5.06-7.56a18.93,18.93,0,0,0,4.48,2.81,12.59,12.59,0,0,0,5.14,1q4.22,0,6.19-2a7.18,7.18,0,0,0,2-5.21V41.53H289a8.59,8.59,0,0,1-3.93,3,12.6,12.6,0,0,1-4.42.89,15.31,15.31,0,0,1-6-1.13,13.29,13.29,0,0,1-4.6-3.17,14.08,14.08,0,0,1-3-4.84,18.41,18.41,0,0,1-.09-11.88,15.8,15.8,0,0,1,2.68-4.94A13.42,13.42,0,0,1,274,16a12,12,0,0,1,5.66-1.31,13.75,13.75,0,0,1,3.57.43,14,14,0,0,1,2.89,1.09,10.6,10.6,0,0,1,2.2,1.5,9.21,9.21,0,0,1,1.46,1.61h.12v-3.9h8.41Zm-23-12.49a7.14,7.14,0,0,0,2.1,5.09,8.07,8.07,0,0,0,2.32,1.62,6.83,6.83,0,0,0,2.89.6,6.92,6.92,0,0,0,2.86-.6,7.94,7.94,0,0,0,2.35-1.62,7.19,7.19,0,0,0,0-10.17,7.94,7.94,0,0,0-2.35-1.62,6.93,6.93,0,0,0-2.86-.61,6.83,6.83,0,0,0-2.89.61A8.07,8.07,0,0,0,277.37,25a7.14,7.14,0,0,0-2.1,5.08Z"/></g></g></svg>