<svg width="200" height="53" viewBox="0 0 200 53" fill="none" xmlns="http://www.w3.org/2000/svg">
<path d="M32.6706 25.7067C38.3267 23.3599 40.1725 19.0645 40.1725 14.152C40.1725 6.72667 35.9535 0.704102 20.7494 0.704102H0V52.4101H22.8167C38.0287 52.4101 42.2397 46.1608 42.2397 38.4506C42.2397 32.7735 39.9562 27.8848 32.6706 25.7067ZM10.3417 11.0485H21.2557C28.4991 11.0485 30.5058 13.4797 30.5058 16.4778C30.5058 19.4759 28.4991 21.907 21.2557 21.907H10.3417V11.0485ZM23.323 42.071H10.3417V31.2125H23.323C30.5664 31.2125 32.573 33.6437 32.573 36.6418C32.573 39.6399 30.5664 42.071 23.323 42.071Z" fill="white"/>
<path d="M154.058 0.516846H142.166V52.2202H154.058V0.516846Z" fill="white"/>
<path d="M108.849 52.4101L104.593 32.3199L137.277 52.4101V50.8728V36.887L111.193 26.155L137.277 0.516846H119.362L103.647 21.3374L106.263 0.709336H93.3367V52.4101H108.849Z" fill="white"/>
<path d="M187.074 52.41H171.562L174.481 11.8921L158.636 13.1183V0.709229H200V13.1183L183.786 11.8921L187.074 52.41Z" fill="white"/>
<path d="M66.4487 0C49.7284 0 43.7006 13.0762 43.7006 26.3685C43.7006 39.6609 49.7179 52.7371 66.4487 52.7371C83.1795 52.7371 89.1995 39.6609 89.1995 26.3685C89.1995 13.0762 83.1584 0 66.4487 0ZM66.4487 40.8448C56.7688 40.8448 54.0238 33.6647 54.0238 26.3685C54.0238 19.0724 56.7583 11.8922 66.4487 11.8922C76.1391 11.8922 78.8762 19.0724 78.8762 26.3685C78.8762 33.6647 76.118 40.8448 66.4487 40.8448Z" fill="white"/>
</svg>
