<svg width="240" height="60" viewBox="0 0 240 60" fill="none" xmlns="http://www.w3.org/2000/svg">
<path d="M2.05774 59.6743L4.42559 54.5409L0.773476 50.2284L3.64117 48.1962L0.350253 40.7351L3.11214 36.2475L0 32.8033L2.40434 27.8852L0.0182424 25.6414L2.13435 21.7411L0.26269 19.1471L238.588 8.5957L235.961 14.9149L238.905 15.7868L237.264 21.8324L239.343 25.6195L237.625 29.9466L239.632 32.1721L237.939 37.0209L240 40.5089L237.318 45.5912L239.34 49.1667L2.05774 59.6743Z" fill="white"/>
<path d="M41.7277 4.90736L40.2683 4.97303L40.3704 7.20225L39.7903 7.22779L39.5678 1.8244L41.5927 1.7186C42.5814 1.67481 43.2929 2.26222 43.3366 3.23636C43.3544 3.45502 43.3255 3.67496 43.2518 3.88159C43.1781 4.08823 43.0613 4.27682 42.9091 4.43485C42.757 4.59288 42.5729 4.71674 42.3692 4.79821C42.1655 4.87967 41.9468 4.91688 41.7277 4.90736V4.90736ZM41.5562 2.24033L40.1698 2.30235L40.2646 4.45495L41.6511 4.39293C41.8006 4.40327 41.9506 4.38081 42.0906 4.3271C42.2306 4.27339 42.3571 4.18974 42.4614 4.08201C42.5657 3.97427 42.6451 3.84505 42.6942 3.70339C42.7433 3.56173 42.7608 3.41105 42.7456 3.2619C42.7201 2.5541 42.2312 2.21114 41.5562 2.24033Z" fill="#221E1F"/>
<path d="M46.7004 6.93202V6.56717C46.5697 6.71865 46.4061 6.83819 46.222 6.91661C46.038 6.99504 45.8384 7.03026 45.6387 7.01958C45.4491 7.0501 45.2553 7.0395 45.0702 6.98851C44.8851 6.93752 44.7132 6.84733 44.566 6.72406C44.3695 6.52413 44.2572 6.25642 44.2522 5.97612C44.2231 5.3194 44.6609 4.88158 45.4964 4.8378L46.6238 4.78672V4.42187C46.5982 3.8746 46.31 3.61191 45.6277 3.6411C45.4447 3.62536 45.261 3.66109 45.0972 3.74426C44.9335 3.82743 44.7962 3.95471 44.701 4.11175L44.3143 3.78339C44.4595 3.57791 44.6555 3.41348 44.8831 3.30608C45.1107 3.19868 45.3622 3.15196 45.6131 3.17045C46.6165 3.12667 47.1309 3.5353 47.1674 4.35255L47.2805 6.90648L46.7004 6.93202ZM46.6238 5.20629L45.573 5.25008C45.0111 5.27562 44.7448 5.51641 44.7667 5.95058C44.7886 6.38475 45.0586 6.57812 45.6533 6.55258C45.8031 6.56371 45.9537 6.54387 46.0955 6.49428C46.2374 6.44469 46.3675 6.36642 46.4778 6.26435C46.5472 6.17116 46.5975 6.06514 46.6256 5.95242C46.6538 5.8397 46.6594 5.72251 46.642 5.60763L46.6238 5.20629Z" fill="#221E1F"/>
<path d="M50.1921 6.81153C49.2471 6.85531 48.5028 6.24601 48.4481 4.96905C48.3934 3.69208 49.0793 3.02077 50.0206 2.97698C50.255 2.95452 50.4914 2.98814 50.7102 3.07505C50.9291 3.16196 51.1242 3.29967 51.2793 3.47682L50.9144 3.84167C50.8083 3.71429 50.6729 3.61455 50.5197 3.551C50.3666 3.48746 50.2003 3.46201 50.0352 3.47682C49.8664 3.47635 49.7003 3.51859 49.5523 3.59961C49.4043 3.68063 49.2792 3.79779 49.1887 3.94018C49.0097 4.24609 48.939 4.60342 48.9881 4.95446C48.9724 5.30908 49.0737 5.65902 49.2763 5.95049C49.3844 6.07729 49.5199 6.17775 49.6727 6.24421C49.8255 6.31066 49.9914 6.34137 50.1579 6.33398C50.3243 6.32659 50.4869 6.2813 50.6332 6.20157C50.7795 6.12183 50.9056 6.00975 51.002 5.87387L51.3924 6.21318C51.2547 6.40162 51.0739 6.5543 50.865 6.65841C50.6562 6.76252 50.4254 6.81503 50.1921 6.81153Z" fill="#221E1F"/>
<path d="M55.092 6.56741L53.8223 4.69939L53.1291 5.57137L53.1765 6.66592L52.6293 6.68781L52.3775 1.24064L52.9248 1.21875L53.0853 4.83803L54.687 2.81678L55.3729 2.78759L54.1653 4.27252L55.7597 6.51998L55.092 6.56741Z" fill="#221E1F"/>
<path d="M56.6061 1.66362L56.577 1.04702L57.1935 1.02148L57.2227 1.63808L56.6061 1.66362ZM56.8506 6.4723L56.6828 2.72897L57.23 2.70343L57.3979 6.44676L56.8506 6.4723Z" fill="#221E1F"/>
<path d="M61.3234 6.27518L61.2213 3.96934C61.1921 3.30532 60.8199 2.98791 60.2581 3.01344C60.1275 3.01026 59.9979 3.03619 59.8786 3.08936C59.7594 3.14253 59.6534 3.22159 59.5685 3.32082C59.4836 3.42004 59.4219 3.53693 59.3878 3.66299C59.3537 3.78905 59.3482 3.92112 59.3715 4.04961L59.4737 6.35544L58.9264 6.38098L58.7622 2.63765L59.3095 2.61211L59.3277 3.02439C59.4515 2.86978 59.6079 2.74447 59.7858 2.65742C59.9636 2.57037 60.1586 2.52375 60.3566 2.5209C60.5312 2.50373 60.7075 2.52202 60.8749 2.57469C61.0423 2.62735 61.1974 2.7133 61.3307 2.82737C61.4702 2.95884 61.5808 3.11786 61.6556 3.29435C61.7303 3.47085 61.7675 3.66095 61.7649 3.85259L61.8707 6.24964L61.3234 6.27518Z" fill="#221E1F"/>
<path d="M64.6364 7.85165C64.4012 7.8741 64.164 7.846 63.9406 7.76923C63.7172 7.69245 63.5128 7.56879 63.3412 7.40654L63.6841 7.04169C63.8024 7.16088 63.9454 7.25269 64.103 7.31069C64.2605 7.36868 64.4289 7.39143 64.5962 7.37735C65.3259 7.34451 65.6032 6.81913 65.574 6.18065L65.5485 5.5969C65.4354 5.76481 65.2819 5.90159 65.1021 5.99467C64.9223 6.08775 64.722 6.13414 64.5196 6.12957C64.1865 6.15366 63.8569 6.04774 63.6002 5.83405C63.2098 5.4692 63.1004 4.90369 63.0748 4.29439C63.0493 3.6851 63.104 3.10499 63.4616 2.71461C63.7029 2.48243 64.0242 2.35182 64.3591 2.34976C64.5608 2.3246 64.7655 2.35202 64.9535 2.42938C65.1414 2.50673 65.3062 2.63138 65.4317 2.79122L65.4135 2.34976L65.9535 2.32422L66.125 6.1843C66.1498 6.39414 66.1297 6.60686 66.0661 6.80838C66.0026 7.00989 65.8969 7.19561 65.7562 7.35324C65.6155 7.51086 65.4429 7.63681 65.2498 7.72273C65.0568 7.80865 64.8477 7.85259 64.6364 7.85165ZM64.4977 2.82406C63.6805 2.86054 63.5893 3.55375 63.6221 4.2652C63.6549 4.97666 63.8045 5.66257 64.6218 5.62608C65.439 5.5896 65.5157 4.89639 65.4865 4.18494C65.4573 3.47349 65.3077 2.78757 64.4977 2.82406Z" fill="#221E1F"/>
<path d="M73.2503 5.7463L72.7395 5.76819L71.645 2.90414L70.7803 5.85575L70.2695 5.87764L68.9232 2.18904L69.5143 2.1635L70.5067 5.12971L71.3568 2.08324L71.8274 2.06134L72.9694 5.02025L73.6991 1.97743L74.2938 1.94824L73.2503 5.7463Z" fill="#221E1F"/>
<path d="M75.1073 0.846463L75.0817 0.229871L75.6947 0.200684L75.7239 0.817275L75.1073 0.846463ZM75.3517 5.65515L75.1839 1.90817L75.7348 1.88628L75.8881 5.62961L75.3517 5.65515Z" fill="#221E1F"/>
<path d="M78.4785 5.51639C78.3472 5.528 78.215 5.51137 78.0907 5.46763C77.9664 5.42389 77.853 5.35405 77.7579 5.2628C77.6629 5.17156 77.5884 5.06102 77.5397 4.93862C77.4909 4.81622 77.4689 4.6848 77.4751 4.55319L77.373 2.25466L76.9023 2.27655L76.8841 1.85698L77.3474 1.82414L77.2964 0.652981L77.8436 0.627441L77.902 1.82414L78.701 1.78765V2.20723L77.902 2.24007L78.0042 4.52401C78.0042 4.86696 78.1902 5.06398 78.5368 5.04939H78.8287L78.8506 5.52369L78.4785 5.51639Z" fill="#221E1F"/>
<path d="M82.5028 5.33771L82.4042 3.02458C82.3751 2.36786 82.0102 2.05044 81.4447 2.07598C81.3146 2.07245 81.1853 2.09786 81.0662 2.15037C80.9471 2.20288 80.8411 2.28117 80.7559 2.37961C80.6708 2.47804 80.6085 2.59416 80.5737 2.71958C80.5388 2.845 80.5323 2.97659 80.5545 3.10485L80.6566 5.41798L80.1057 5.44352L79.8686 0.0255393L80.4158 0L80.507 2.08328C80.6317 1.92906 80.7889 1.80429 80.9674 1.71788C81.1459 1.63147 81.3413 1.58556 81.5396 1.58344C81.7234 1.56229 81.9096 1.58169 82.085 1.64027C82.2605 1.69884 82.4211 1.79517 82.5553 1.92247C82.6896 2.04977 82.7943 2.20494 82.8621 2.37707C82.9299 2.54921 82.9592 2.73411 82.9479 2.91878L83.0537 5.32312L82.5028 5.33771Z" fill="#221E1F"/>
<path d="M34.2407 16.1229C34.0644 16.3006 33.8547 16.4417 33.6236 16.5381C33.3926 16.6345 33.1448 16.6843 32.8945 16.6847L31.0374 16.7832L30.7966 11.347L32.6537 11.2667C32.9036 11.2445 33.1555 11.2721 33.3947 11.3478C33.634 11.4236 33.8558 11.5461 34.0474 11.7082C34.6348 12.2445 34.6603 13.0764 34.6603 13.8316C34.6603 14.5869 34.7807 15.5318 34.2407 16.1229ZM33.6606 12.1351C33.5124 12.0043 33.3385 11.9058 33.15 11.8462C32.9615 11.7865 32.7626 11.7668 32.5661 11.7885L31.3876 11.8396L31.581 16.2177L32.7631 16.1666C32.9587 16.1698 33.1529 16.1322 33.3332 16.0562C33.5135 15.9802 33.6759 15.8675 33.8102 15.7252C34.1751 15.3202 34.113 14.5139 34.0839 13.8535C34.0547 13.1931 34.051 12.5072 33.6606 12.1351Z" fill="#221E1F"/>
<path d="M35.9703 11.7298L35.9411 11.1132L36.5577 11.084L36.5869 11.7006L35.9703 11.7298ZM36.2148 16.5384L36.0469 12.7915L36.5942 12.7696L36.762 16.5129L36.2148 16.5384Z" fill="#221E1F"/>
<path d="M39.4729 16.4398C39.194 16.4708 38.9118 16.4447 38.6434 16.3632C38.3749 16.2816 38.1258 16.1464 37.9113 15.9655L38.2762 15.6007C38.4367 15.7409 38.6248 15.8458 38.8285 15.9087C39.0321 15.9715 39.2467 15.9909 39.4583 15.9655C40.0749 15.94 40.447 15.7028 40.4251 15.2614C40.4251 14.933 40.2135 14.7615 39.7793 14.7397L39.1591 14.7141C38.4294 14.6849 38.0244 14.3748 37.9952 13.7582C37.9661 13.0759 38.5243 12.6381 39.3233 12.6016C39.8039 12.5576 40.2852 12.6785 40.6878 12.9446L40.3485 13.3095C40.0491 13.1153 39.6934 13.0267 39.3379 13.0577C38.7906 13.0796 38.5097 13.3277 38.5279 13.7108C38.5279 14.0282 38.7322 14.2106 39.2065 14.2289L39.8085 14.2544C40.4689 14.2872 40.9286 14.5171 40.9578 15.2176C40.987 15.9181 40.3777 16.4179 39.4729 16.4398Z" fill="#221E1F"/>
<path d="M44.3398 16.1775V15.8126C44.2086 15.9634 44.0449 16.0825 43.8609 16.1609C43.677 16.2393 43.4777 16.2749 43.2781 16.265C43.0885 16.295 42.8948 16.2842 42.7098 16.2332C42.5248 16.1823 42.3528 16.0923 42.2054 15.9695C42.0067 15.7692 41.893 15.5 41.888 15.2179C41.8588 14.5648 42.2966 14.1234 43.1358 14.0832L44.2595 14.0322V13.6673C44.234 13.12 43.9494 12.8573 43.2635 12.8865C43.077 12.869 42.8894 12.905 42.7227 12.9903C42.556 13.0756 42.4171 13.2067 42.3222 13.3681L41.9318 13.0434C42.0774 12.8374 42.2739 12.6726 42.5022 12.5652C42.7305 12.4577 42.9827 12.4113 43.2343 12.4305C44.2376 12.3867 44.752 12.7953 44.7885 13.6126L44.9016 16.1665L44.3398 16.1775ZM44.2631 14.4517L43.216 14.4955C42.6505 14.521 42.3878 14.7618 42.4061 15.196C42.4243 15.6302 42.7016 15.8236 43.2963 15.798C43.4462 15.8091 43.5967 15.7893 43.7386 15.7397C43.8804 15.6901 44.0106 15.6119 44.1209 15.5098C44.1904 15.4167 44.2404 15.3106 44.268 15.1978C44.2955 15.0849 44.3001 14.9677 44.2814 14.8531L44.2631 14.4517Z" fill="#221E1F"/>
<path d="M48.8894 15.6882C48.6485 15.921 48.3269 16.0517 47.9919 16.053C47.7862 16.0795 47.5772 16.052 47.3853 15.9733C47.1934 15.8947 47.0252 15.7675 46.8973 15.6042L46.9192 16.0566L46.3683 16.0785L46.1311 10.6606L46.6784 10.6387L46.7733 12.7694C46.8844 12.6005 47.0362 12.4622 47.2147 12.3672C47.3932 12.2723 47.5927 12.2236 47.7949 12.2258C48.1306 12.1979 48.464 12.3012 48.7252 12.514C49.1229 12.8788 49.2251 13.4991 49.2506 14.0828C49.2761 14.6666 49.2542 15.2978 48.8894 15.6882ZM47.7292 12.711C46.9156 12.7475 46.8171 13.4407 46.8499 14.1704C46.8827 14.9001 47.0433 15.5933 47.8569 15.5568C48.6705 15.5203 48.7617 14.8271 48.7289 14.0974C48.696 13.3677 48.5245 12.6818 47.7182 12.7183L47.7292 12.711Z" fill="#221E1F"/>
<path d="M51.6112 15.8563C51.4801 15.8717 51.3473 15.858 51.2221 15.816C51.097 15.774 50.9827 15.7049 50.8875 15.6135C50.7923 15.5221 50.7185 15.4108 50.6714 15.2875C50.6243 15.1642 50.6051 15.032 50.6152 14.9004L50.4182 10.4784L50.9654 10.4565L51.1625 14.8529C51.1625 15.2178 51.3084 15.3966 51.6878 15.3783H51.9834L52.0052 15.849L51.6112 15.8563Z" fill="#221E1F"/>
<path d="M53.162 14.0574C53.1985 14.8783 53.6071 15.3307 54.3222 15.3016C54.5077 15.3001 54.6906 15.2571 54.8573 15.1757C55.024 15.0942 55.1703 14.9764 55.2854 14.8309L55.6721 15.141C55.5113 15.3422 55.3069 15.5042 55.0743 15.6148C54.8417 15.7254 54.587 15.7817 54.3295 15.7795C53.3408 15.8233 52.6658 15.2578 52.6074 13.9553C52.5527 12.744 53.1073 12.0106 54.0668 11.9669C55.0264 11.9231 55.6357 12.598 55.6867 13.7108V13.9626L53.162 14.0574ZM54.9862 12.9373C54.9062 12.7681 54.7771 12.6268 54.6157 12.5318C54.4544 12.4368 54.2682 12.3925 54.0814 12.4047C53.896 12.4075 53.7157 12.4661 53.5641 12.5728C53.4125 12.6795 53.2965 12.8294 53.2313 13.003C53.1597 13.2053 53.13 13.4201 53.1437 13.6342L55.1212 13.5466C55.1144 13.3365 55.0674 13.1297 54.9826 12.9373H54.9862Z" fill="#221E1F"/>
<path d="M59.3205 15.5134L59.2986 15.0646C59.1852 15.2364 59.0299 15.3765 58.8473 15.4716C58.6647 15.5667 58.4609 15.6138 58.2551 15.6082C57.9208 15.634 57.5892 15.5309 57.3284 15.32C56.9307 14.9552 56.8286 14.3349 56.803 13.7512C56.7775 13.1674 56.8249 12.5362 57.1861 12.1385C57.4294 11.9071 57.7515 11.7767 58.0873 11.7737C58.2888 11.7492 58.4932 11.7761 58.6814 11.852C58.8696 11.928 59.0355 12.0504 59.1636 12.2079L59.0724 10.099L59.6197 10.0771L59.8605 15.4951L59.3205 15.5134ZM58.2259 12.2516C57.4123 12.2881 57.3138 12.9813 57.3467 13.711C57.3795 14.4407 57.5364 15.1376 58.3536 15.1011C59.1709 15.0646 59.2585 14.3714 59.2256 13.6417C59.1928 12.912 59.0432 12.2188 58.2296 12.2516H58.2259Z" fill="#221E1F"/>
<path d="M67.132 15.1666L66.6139 14.5938C66.2053 15.0283 65.6411 15.2828 65.045 15.3016C63.9943 15.3491 63.3047 14.7471 63.2609 13.8021C63.2281 12.9885 63.7863 12.5507 64.3555 12.1311C64.013 11.8344 63.7868 11.4259 63.717 10.9782C63.7156 10.6703 63.8336 10.3739 64.0462 10.1512C64.2588 9.92853 64.5495 9.79698 64.8571 9.78423C65.1647 9.77147 65.4653 9.87849 65.6956 10.0828C65.926 10.2871 66.0681 10.5727 66.0922 10.8797C66.0916 11.079 66.0399 11.2748 65.9422 11.4485C65.8445 11.6222 65.704 11.7681 65.5339 11.8721C65.5339 11.8721 65.2676 12.0654 65.1436 12.1639L66.6029 13.7693C66.8176 13.3882 66.9046 12.9483 66.851 12.5142L67.3983 12.4923C67.4548 13.0855 67.304 13.6798 66.9714 14.1743L67.8617 15.1374L67.132 15.1666ZM64.7021 12.485C64.2533 12.8243 63.8009 13.149 63.8301 13.7656C63.8331 13.914 63.8672 14.0601 63.9301 14.1945C63.9931 14.3289 64.0835 14.4486 64.1956 14.5459C64.3077 14.6432 64.4389 14.7159 64.5808 14.7594C64.7227 14.8028 64.8722 14.816 65.0195 14.7981C65.4983 14.776 65.9492 14.5663 66.2746 14.2144L64.7021 12.485ZM64.8955 10.2959C64.8123 10.2957 64.7299 10.3127 64.6536 10.3458C64.5773 10.379 64.5087 10.4276 64.4521 10.4887C64.3955 10.5497 64.3522 10.6218 64.3249 10.7004C64.2976 10.779 64.2869 10.8624 64.2935 10.9454C64.2935 11.1935 64.4431 11.3941 64.8225 11.8137L65.1034 11.6021C65.3442 11.416 65.5741 11.2153 65.5595 10.9016C65.5572 10.8171 65.5379 10.7339 65.5029 10.657C65.4678 10.58 65.4177 10.511 65.3554 10.4538C65.2931 10.3966 65.22 10.3525 65.1404 10.3242C65.0607 10.2958 64.9762 10.2837 64.8918 10.2886L64.8955 10.2959Z" fill="#221E1F"/>
<path d="M72.7468 14.9587C72.4046 14.9969 72.0581 14.9599 71.7317 14.8502C71.4052 14.7406 71.1067 14.5609 70.8569 14.3239L71.2218 13.9116C71.4178 14.1051 71.6542 14.253 71.9141 14.3444C72.174 14.4359 72.4509 14.4687 72.7249 14.4406C73.5167 14.4041 73.9873 14.0101 73.9581 13.3789C73.961 13.2534 73.9367 13.1288 73.8869 13.0136C73.8372 12.8984 73.7632 12.7952 73.6699 12.7112C73.4582 12.5576 73.2017 12.4781 72.9402 12.485L72.3054 12.4157C71.9387 12.3914 71.5861 12.265 71.2874 12.0509C71.1432 11.9291 71.0275 11.7771 70.9487 11.6056C70.8698 11.434 70.8298 11.2472 70.8314 11.0585C70.7913 10.1354 71.4261 9.49693 72.5024 9.4495C72.7968 9.4219 73.0937 9.45422 73.3752 9.54452C73.6568 9.63482 73.9171 9.78121 74.1406 9.97488L73.7757 10.3616C73.6006 10.2099 73.3964 10.0955 73.1756 10.0252C72.9548 9.95498 72.722 9.9304 72.4914 9.95299C71.7617 9.98582 71.3677 10.409 71.3969 11.011C71.3936 11.1268 71.4161 11.2419 71.4628 11.3479C71.5095 11.454 71.5792 11.5482 71.6669 11.624C71.8846 11.7707 72.1353 11.861 72.3966 11.8867L72.9949 11.9523C73.3558 11.9591 73.706 12.0762 73.9983 12.288C74.1559 12.415 74.2832 12.5755 74.3709 12.7579C74.4587 12.9403 74.5046 13.14 74.5054 13.3424C74.593 14.2947 73.8742 14.9149 72.7468 14.9587Z" fill="#221E1F"/>
<path d="M76.1471 13.0395C76.1836 13.8604 76.5923 14.3128 77.3074 14.2837C77.4929 14.2822 77.6757 14.2392 77.8424 14.1577C78.0091 14.0763 78.1554 13.9585 78.2705 13.813L78.6573 14.1231C78.4961 14.3239 78.2916 14.4856 78.0591 14.5962C77.8266 14.7067 77.5721 14.7633 77.3147 14.7616C76.3259 14.8054 75.6509 14.2435 75.5926 12.9191C75.5378 11.7078 76.0924 10.9745 77.052 10.9307C78.0115 10.8869 78.6208 11.5655 78.6682 12.6747V12.9264L76.1471 13.0395ZM77.9714 11.9194C77.8899 11.7528 77.7607 11.6143 77.6002 11.5213C77.4397 11.4284 77.2552 11.3854 77.0702 11.3977C76.8848 11.4005 76.7045 11.4591 76.5529 11.5658C76.4013 11.6726 76.2853 11.8225 76.2201 11.9961C76.1468 12.1979 76.117 12.413 76.1325 12.6272L78.11 12.5397C78.104 12.3256 78.0556 12.1148 77.9677 11.9194H77.9714Z" fill="#221E1F"/>
<path d="M82.4553 14.488L82.3531 12.1822C82.324 11.5218 81.9518 11.2044 81.3899 11.2263C81.2593 11.2236 81.1297 11.25 81.0106 11.3036C80.8915 11.3572 80.7858 11.4367 80.7012 11.5363C80.6167 11.6359 80.5554 11.753 80.5218 11.8793C80.4882 12.0055 80.4831 12.1377 80.507 12.2661L80.6092 14.572L80.0582 14.5938L79.9014 10.8505L80.4486 10.8286L80.4669 11.2373C80.5913 11.0834 80.7479 10.9586 80.9256 10.8717C81.1033 10.7847 81.2979 10.7376 81.4957 10.7338C81.6706 10.7181 81.8468 10.7375 82.014 10.7908C82.1813 10.844 82.3363 10.9301 82.4699 11.0439C82.6095 11.1752 82.7203 11.3342 82.795 11.5107C82.8698 11.6873 82.9069 11.8774 82.9041 12.0691L83.0135 14.4662L82.4553 14.488Z" fill="#221E1F"/>
<path d="M84.2542 9.59207L84.225 8.97548L84.8416 8.94629L84.8708 9.56288L84.2542 9.59207ZM84.495 14.4008L84.3308 10.6574L84.8781 10.6319L85.0459 14.3752L84.495 14.4008Z" fill="#221E1F"/>
<path d="M88.9606 13.8203C88.6829 14.1075 88.3058 14.2774 87.9068 14.295C87.5078 14.3127 87.1171 14.1767 86.8153 13.9152C86.6362 13.7184 86.4979 13.4882 86.4084 13.2377C86.3188 12.9872 86.2798 12.7214 86.2935 12.4558C86.2547 12.1907 86.2692 11.9205 86.3362 11.6611C86.4033 11.4017 86.5215 11.1584 86.6839 10.9453C86.9629 10.6605 87.3396 10.4923 87.7378 10.4747C88.1361 10.4571 88.5262 10.5914 88.8292 10.8505C89.0081 11.0473 89.1463 11.2776 89.2358 11.5281C89.3253 11.7785 89.3645 12.0442 89.3509 12.3098C89.3902 12.5749 89.3759 12.8452 89.3089 13.1047C89.2418 13.3641 89.1234 13.6075 88.9606 13.8203V13.8203ZM88.4571 11.1898C88.3627 11.1052 88.2526 11.0401 88.133 10.9981C88.0134 10.9562 87.8867 10.9382 87.7602 10.9453C87.6344 10.9488 87.5105 10.9773 87.3958 11.0293C87.2812 11.0813 87.178 11.1557 87.0925 11.2481C86.8662 11.5884 86.7739 12.0004 86.8335 12.4047C86.8042 12.8181 86.9348 13.2269 87.1983 13.5467C87.2908 13.6319 87.3996 13.6975 87.5181 13.7395C87.6366 13.7815 87.7624 13.7991 87.8879 13.7911C88.0143 13.7875 88.1387 13.7589 88.2539 13.707C88.3691 13.655 88.4729 13.5807 88.5592 13.4883C88.7858 13.1428 88.8731 12.7244 88.8037 12.3171C88.8332 11.9112 88.7095 11.509 88.4571 11.1898V11.1898Z" fill="#221E1F"/>
<path d="M92.7186 11C92.6355 10.9101 92.5324 10.8412 92.4177 10.7987C92.3029 10.7562 92.1798 10.7414 92.0582 10.7555C91.9321 10.7633 91.809 10.7971 91.6967 10.8549C91.5844 10.9127 91.4853 10.9932 91.4058 11.0913C91.3262 11.1894 91.2679 11.303 91.2345 11.4248C91.2011 11.5466 91.1933 11.674 91.2118 11.799L91.3103 14.0975L90.763 14.1231L90.5988 10.3798L91.1461 10.3542L91.168 10.8103C91.2819 10.6427 91.4346 10.5051 91.6131 10.4092C91.7916 10.3133 91.9906 10.2619 92.1932 10.2594C92.3591 10.2433 92.5265 10.2627 92.6844 10.3162C92.8422 10.3696 92.9869 10.456 93.109 10.5695L92.7186 11Z" fill="#221E1F"/>
<path d="M48.4846 22.9123L47.0435 22.9743L47.142 25.2035L46.5655 25.229L46.3356 19.8111L48.3533 19.7235C49.342 19.6797 50.0534 20.2635 50.0972 21.2376C50.1156 21.4569 50.087 21.6776 50.0134 21.8849C49.9397 22.0922 49.8226 22.2815 49.67 22.44C49.5174 22.5985 49.3327 22.7226 49.1283 22.804C48.9238 22.8855 48.7044 22.9224 48.4846 22.9123V22.9123ZM48.3131 20.2416L46.9267 20.3036L47.0216 22.4562L48.408 22.3942C48.5575 22.4045 48.7076 22.3821 48.8475 22.3283C48.9875 22.2746 49.1141 22.191 49.2183 22.0833C49.3226 21.9755 49.402 21.8463 49.4511 21.7046C49.5002 21.563 49.5178 21.4123 49.5025 21.2631C49.477 20.548 48.9881 20.2124 48.3131 20.2416Z" fill="#221E1F"/>
<path d="M53.461 24.9225L53.4427 24.5576C53.3126 24.7098 53.1491 24.8297 52.9649 24.9082C52.7807 24.9867 52.5809 25.0215 52.381 25.01C52.1915 25.0405 51.9976 25.0299 51.8126 24.979C51.6275 24.928 51.4556 24.8378 51.3084 24.7145C51.1119 24.5146 50.9996 24.2469 50.9946 23.9666C50.9654 23.3135 51.4033 22.872 52.2387 22.8282L53.3661 22.7808L53.3479 22.416C53.326 21.8687 53.0378 21.606 52.3555 21.6388C52.1741 21.6262 51.9928 21.6642 51.8317 21.7486C51.6707 21.833 51.5362 21.9605 51.4434 22.1168L51.0566 21.7921C51.1985 21.5854 51.3912 21.4188 51.6161 21.3083C51.841 21.1977 52.0907 21.147 52.3409 21.1609C53.3442 21.1171 53.8587 21.5257 53.8952 22.343L54.0083 24.8969L53.461 24.9225ZM53.3844 23.1967L52.3336 23.2442C51.7717 23.2697 51.5054 23.5105 51.5273 23.941C51.5492 24.3716 51.8192 24.5686 52.4139 24.543C52.5637 24.5542 52.7143 24.5343 52.8562 24.4847C52.998 24.4351 53.1281 24.3569 53.2384 24.2548C53.3075 24.1622 53.3576 24.0568 53.3858 23.9447C53.414 23.8326 53.4197 23.716 53.4026 23.6017L53.3844 23.1967Z" fill="#221E1F"/>
<path d="M57.4525 21.712C57.3692 21.6224 57.2661 21.5536 57.1514 21.5111C57.0367 21.4687 56.9136 21.4538 56.7921 21.4676C56.6656 21.4749 56.5419 21.5084 56.429 21.5659C56.3161 21.6235 56.2164 21.7038 56.1362 21.8019C56.0559 21.9 55.9969 22.0137 55.9629 22.1357C55.9288 22.2578 55.9205 22.3856 55.9383 22.511L56.0405 24.8096L55.4932 24.8351L55.3254 21.0918L55.8763 21.0663V21.5223C55.991 21.3549 56.1444 21.2177 56.3236 21.1224C56.5027 21.0271 56.7023 20.9766 56.9052 20.975C57.0706 20.9569 57.2381 20.9753 57.3957 21.0289C57.5533 21.0824 57.6972 21.1699 57.8173 21.2852L57.4525 21.712Z" fill="#221E1F"/>
<path d="M59.9005 24.638C59.7693 24.6508 59.6369 24.6351 59.5123 24.592C59.3878 24.549 59.274 24.4795 59.1787 24.3884C59.0835 24.2973 59.009 24.1867 58.9604 24.0642C58.9118 23.9417 58.8902 23.8101 58.8972 23.6785L58.795 21.3799H58.3207V20.964L58.795 20.9421L58.7403 19.7892L59.2912 19.7637L59.3423 20.9348L60.1413 20.902L60.1595 21.3179L59.3605 21.3544L59.4627 23.6383C59.4627 23.9813 59.6451 24.1783 59.9954 24.1637H60.2836L60.3055 24.638H59.9005Z" fill="#221E1F"/>
<path d="M63.9247 24.445L63.8225 22.1391C63.7934 21.4787 63.4212 21.1613 62.8593 21.1832C62.7253 21.1795 62.5921 21.2064 62.4699 21.2619C62.3478 21.3174 62.2399 21.3999 62.1545 21.5033C62.069 21.6067 62.0082 21.7282 61.9767 21.8586C61.9453 21.989 61.9439 22.1249 61.9728 22.2559L62.0749 24.5617L61.5277 24.5872L61.3635 20.8403L61.9108 20.8184L61.929 21.227C62.0533 21.073 62.2098 20.9481 62.3875 20.8611C62.5653 20.7741 62.76 20.7271 62.9579 20.7235C63.1327 20.7079 63.3089 20.7272 63.4762 20.7805C63.6434 20.8337 63.7984 20.9198 63.932 21.0336C64.0715 21.1651 64.1821 21.3241 64.2568 21.5006C64.3316 21.6771 64.3688 21.8672 64.3662 22.0589L64.472 24.4559L63.9247 24.445Z" fill="#221E1F"/>
<path d="M66.2234 22.6203C66.2599 23.4449 66.6685 23.8973 67.3836 23.8644C67.569 23.8645 67.752 23.8225 67.9189 23.7416C68.0857 23.6607 68.232 23.5431 68.3468 23.3974L68.7335 23.7076C68.5722 23.9081 68.3677 24.0697 68.1352 24.1802C67.9027 24.2908 67.6483 24.3475 67.3909 24.346C66.4022 24.3898 65.7272 23.8243 65.6688 22.4999C65.6141 21.2923 66.1687 20.5589 67.1282 20.5152C68.0878 20.4714 68.6898 21.1609 68.7372 22.2555V22.5036L66.2234 22.6203ZM68.0476 21.5039C67.9644 21.339 67.8353 21.2017 67.6759 21.1084C67.5165 21.0151 67.3336 20.9697 67.1491 20.9778C66.9646 20.9859 66.7863 21.0471 66.6357 21.154C66.4851 21.2609 66.3685 21.409 66.3 21.5805C66.2267 21.7824 66.1969 21.9975 66.2125 22.2117L68.1899 22.1241C68.1809 21.9166 68.1301 21.7131 68.0403 21.5258L68.0476 21.5039Z" fill="#221E1F"/>
<path d="M72.101 21.0624C72.0177 20.974 71.9151 20.9059 71.8012 20.8635C71.6873 20.8211 71.5652 20.8055 71.4443 20.8179C71.3178 20.8252 71.1942 20.8587 71.0813 20.9163C70.9684 20.9738 70.8687 21.0542 70.7884 21.1523C70.7082 21.2503 70.6491 21.364 70.6151 21.4861C70.581 21.6081 70.5727 21.7359 70.5906 21.8614L70.6927 24.1599L70.1418 24.1855L69.9776 20.4312L70.5249 20.4057L70.5468 20.8617C70.6607 20.6944 70.8135 20.5572 70.992 20.4618C71.1706 20.3665 71.3696 20.3159 71.572 20.3144C71.738 20.297 71.9058 20.3157 72.0639 20.3692C72.2219 20.4227 72.3665 20.5099 72.4878 20.6246L72.101 21.0624Z" fill="#221E1F"/>
<path d="M74.6038 24.0323C74.3257 24.0647 74.044 24.0397 73.776 23.9588C73.508 23.8778 73.2595 23.7426 73.0459 23.5616L73.3925 23.1968C73.554 23.3365 73.7429 23.4411 73.947 23.5039C74.1511 23.5667 74.3661 23.5864 74.5783 23.5616C75.1948 23.5361 75.5633 23.2989 75.5451 22.8575C75.5451 22.5291 75.3298 22.354 74.8957 22.3357L74.2754 22.3102C73.5457 22.281 73.1408 21.9709 73.1152 21.3543C73.0824 20.6684 73.6442 20.2342 74.4433 20.1977C74.9238 20.154 75.405 20.2749 75.8078 20.5407L75.4648 20.9055C75.1655 20.7109 74.8101 20.6211 74.4542 20.6501C73.9069 20.6757 73.6297 20.9238 73.6479 21.3069C73.6479 21.6243 73.8522 21.8067 74.3265 21.825L74.9285 21.8505C75.5852 21.8833 76.0449 22.1132 76.0778 22.8137C76.1106 23.5142 75.5232 23.9921 74.6038 24.0323Z" fill="#221E1F"/>
<path d="M32.7415 39.4511C32.6247 40.5383 32.4289 42.9086 32.1541 46.562C32.0519 48.2865 32.0446 50.5972 32.1322 53.4941C28.5105 54.5886 25.5443 55.1894 23.2336 55.2964C18.7022 55.5032 15.2215 54.3612 12.7916 51.8705C10.3618 49.3798 9.06047 46.2555 8.88778 42.4976C8.66157 37.5721 10.1599 33.3825 13.3827 29.9286C16.6055 26.4747 20.7113 24.6383 25.6999 24.4194C27.7467 24.2877 29.8018 24.4102 31.8184 24.7843L30.7895 30.2387C28.8154 29.7426 26.7823 29.5216 24.7477 29.582C21.5857 29.7231 19.14 30.955 17.4106 33.2779C15.6812 35.6008 14.8919 38.3979 15.0427 41.6694C15.1644 44.2987 15.9926 46.4878 17.5274 48.2366C19.0621 49.9855 21.1819 50.7978 23.8866 50.6738C24.8689 50.6151 25.8449 50.4785 26.8054 50.2652C26.7762 49.9915 26.747 49.4771 26.7106 48.7182C26.6741 47.9593 26.6741 46.6532 26.7106 44.6721C26.747 42.6909 26.7106 41.0455 26.6558 39.7393L32.7415 39.4511Z" fill="#221E1F"/>
<path d="M56.792 40.6333C56.9647 44.3401 55.9273 47.552 53.6799 50.2689C51.4324 52.9858 48.4565 54.4293 44.7521 54.5996C43.5051 54.668 42.2575 54.4763 41.0886 54.0366C39.9197 53.597 38.855 52.9189 37.9623 52.0457C36.0164 50.2409 34.9742 47.7794 34.8355 44.6612C34.6653 40.9665 35.7075 37.7874 37.9623 35.1241C40.217 32.4607 43.2063 31.0439 46.9302 30.8736C48.166 30.7975 49.4042 30.9751 50.5688 31.3955C51.7333 31.8159 52.7995 32.4702 53.7018 33.3181C55.6208 35.0791 56.6509 37.5175 56.792 40.6333ZM51.0457 41.3994C50.9581 39.5144 50.4801 37.9857 49.6118 36.8133C49.239 36.2641 48.7291 35.8219 48.1326 35.5307C47.5361 35.2395 46.8738 35.1093 46.2114 35.1533C44.4164 35.236 43.002 36.2089 41.9683 38.072C40.9394 39.9157 40.4537 42.013 40.5673 44.1212C40.6548 46.0087 41.1413 47.5374 42.0266 48.7073C42.4062 49.2583 42.9227 49.7008 43.5254 49.9913C44.1281 50.2818 44.7961 50.4101 45.4635 50.3637C47.3023 50.281 48.7204 49.3215 49.7176 47.4851C50.7162 45.619 51.176 43.5119 51.0457 41.3994V41.3994Z" fill="#221E1F"/>
<path d="M79.9015 39.5716C80.0742 43.2784 79.0368 46.4903 76.7894 49.2072C74.5419 51.9241 71.566 53.3676 67.8616 53.5379C66.6152 53.606 65.3682 53.4142 64.2 52.9745C63.0317 52.5348 61.9676 51.857 61.0754 50.984C59.1296 49.1792 58.0873 46.7177 57.9487 43.5995C57.7784 39.9072 58.8207 36.7294 61.0754 34.066C63.3302 31.4026 66.3219 29.9907 70.0507 29.8301C71.2864 29.7541 72.5247 29.9317 73.6893 30.3521C74.8538 30.7725 75.92 31.4267 76.8222 32.2746C78.7267 34.0234 79.7532 36.4558 79.9015 39.5716ZM74.1552 40.3377C74.0676 38.4527 73.5897 36.924 72.7213 35.7516C72.3486 35.2024 71.8386 34.7602 71.2421 34.469C70.6456 34.1778 69.9833 34.0476 69.321 34.0916C67.5259 34.1743 66.1115 35.1472 65.0778 37.0103C64.0464 38.8506 63.5581 40.9456 63.6695 43.0522C63.757 44.9397 64.2435 46.4684 65.1289 47.6383C65.5081 48.1887 66.024 48.6309 66.626 48.9214C67.228 49.2118 67.8953 49.3405 68.5621 49.2947C70.4058 49.2096 71.825 48.25 72.8198 46.4161C73.8171 44.5521 74.2769 42.4478 74.1479 40.3377H74.1552Z" fill="#221E1F"/>
<path d="M103.5 18.6948C103.517 19.0913 103.335 20.7453 102.953 23.6567C102.571 26.5682 102.272 30.0063 102.055 33.971C101.842 37.6887 101.815 41.4148 101.975 45.1353C102.07 47.1906 102.221 49.1571 102.427 51.0349L97.1735 51.5493C96.9051 50.0852 96.7417 48.6038 96.6846 47.1164L96.389 47.1529C94.7107 50.4146 92.1386 52.1245 88.6725 52.2826C86.4226 52.3848 84.6568 51.6624 83.375 50.1154C82.0931 48.5685 81.3938 46.4572 81.2771 43.7817C81.0947 39.8462 81.9934 36.441 83.9733 33.566C84.8608 32.2002 86.0687 31.072 87.4918 30.2797C88.9149 29.4874 90.5101 29.0549 92.1386 29.02C94.1939 28.93 95.8053 29.3593 96.9728 30.3079H97.2939C97.4349 27.0997 97.5079 23.3941 97.5128 19.191L103.5 18.6948ZM97.1662 34.0002C96.0499 33.3654 94.7742 33.0665 93.4922 33.1391C91.1815 33.2461 89.4971 34.2045 88.439 36.0141C87.3521 37.9316 86.8558 40.1274 87.0125 42.326C87.1876 46.1423 88.5071 47.9945 90.9711 47.8826C92.445 47.8145 93.7682 46.7747 94.9406 44.7631C96.1006 42.7911 96.7747 40.5712 96.9071 38.2871L97.1662 34.0002Z" fill="#221E1F"/>
<path d="M134.428 27.2393C134.593 30.8732 133.389 33.6813 130.816 35.6636C128.242 37.646 124.735 38.7405 120.294 38.9472C119.732 38.9728 119.305 38.9764 119.017 38.9472C118.842 41.8174 118.778 45.5984 118.827 50.2903L112.511 50.5786C112.728 48.606 113.129 43.4008 113.715 34.9631C114.039 29.4612 114.148 24.7255 114.044 20.756L118.013 20.5736C118.542 20.5517 119.575 20.4787 121.111 20.3619C122.647 20.2452 123.964 20.1613 125.073 20.1138C127.356 19.9425 129.631 20.5369 131.538 21.8031C133.355 23.0582 134.318 24.8702 134.428 27.2393ZM128.725 28.4834C128.599 25.6717 126.642 24.3522 122.855 24.5248C121.78 24.583 120.713 24.7467 119.67 25.0137C119.653 26.3126 119.52 29.5792 119.272 34.8135C119.637 34.8135 120.042 34.8135 120.531 34.8135C126.176 34.5435 128.908 32.4335 128.725 28.4834Z" fill="#221E1F"/>
<path d="M155.549 25.8784C154.71 34.175 154.363 39.891 154.509 43.0262C154.606 44.8269 154.818 46.6196 155.144 48.3931L149.565 49.287C149.414 48.0319 149.301 46.5725 149.226 44.9088H148.883C147.339 48.0708 144.906 49.7297 141.586 49.8853C139.672 49.9729 138.194 49.3198 137.153 47.9261C136.112 46.5324 135.536 44.5866 135.424 42.0886C135.261 38.5009 136.366 35.21 138.74 32.2158C141.114 29.2216 144.944 27.5324 150.229 27.1481L151.2 26.3965L155.549 25.8784ZM149.926 30.8002C146.75 30.9753 144.459 32.0091 143.053 33.9014C141.647 35.7937 141.016 38.2917 141.159 41.3954C141.288 44.2047 142.234 45.5704 143.998 45.4926C145.367 45.4269 146.583 44.3725 147.646 42.3294C148.628 40.5226 149.277 38.5539 149.562 36.5174C149.783 34.6193 149.904 32.711 149.926 30.8002V30.8002Z" fill="#221E1F"/>
<path d="M174.353 25.8167L173.361 30.5014C171.925 30.1186 170.437 29.9707 168.953 30.0636C168.041 30.0705 167.145 30.3055 166.346 30.7471C165.548 31.1886 164.873 31.8228 164.382 32.5919C163.328 34.1971 162.822 36.1006 162.941 38.0172C163.138 42.2567 164.84 44.3035 168.049 44.1576C169.892 44.07 171.884 43.3075 174.025 41.87L173.503 46.4196C171.708 47.8571 169.489 48.6367 166.845 48.7583C163.714 48.9042 161.355 48.0262 159.767 46.1241C158.178 44.222 157.317 41.8214 157.183 38.922C157.077 37.259 157.305 35.5915 157.852 34.0176C158.4 32.4437 159.257 30.9951 160.372 29.7571C162.668 27.1642 165.762 25.7778 169.654 25.5978C171.224 25.5029 172.799 25.5762 174.353 25.8167V25.8167Z" fill="#221E1F"/>
<path d="M196.124 25.0687C196.15 25.6135 195.299 27.0036 193.57 29.2389C191.84 31.4742 190.363 33.1075 189.137 34.1388V34.438C190.978 36.4413 192.497 38.7183 193.639 41.1876C194.962 43.924 195.646 45.7859 195.689 46.7734L189.487 47.2879C189.455 46.5874 189.018 45.2593 188.174 43.3037C187.45 41.5473 186.486 39.8995 185.31 38.4075C184.595 39.2474 183.955 40.1483 183.398 41.1001C182.128 43.2891 181.471 45.3992 181.428 47.4302L175.692 47.9191C175.889 45.9148 176.309 40.1575 176.951 30.6472C177.28 25.6009 177.345 20.5409 177.148 15.4878L183.332 14.8384C183.361 15.4927 183.224 17.3911 182.92 20.5336C182.616 23.6762 182.18 29.5198 181.614 38.0645L181.953 38.0281C182.415 36.8508 183.906 34.489 186.426 30.9427C188.644 27.8269 189.739 25.8811 189.71 25.1052L196.124 25.0687Z" fill="#221E1F"/>
<path d="M216.27 28.8485C216.479 33.3799 211.716 35.9606 201.979 36.5906C202.072 38.5972 202.512 40.0809 203.3 41.0417C204.088 42.0025 205.411 42.4403 207.269 42.3552C209.702 42.2457 212.273 41.3433 214.982 39.648L214.482 44.194C212.293 45.8796 209.457 46.8026 205.974 46.9632C202.873 47.1067 200.538 46.2809 198.969 44.4859C197.4 42.6908 196.549 40.2585 196.415 37.1889C196.233 33.2194 197.327 29.9808 199.699 27.473C200.805 26.2606 202.141 25.2811 203.63 24.5919C205.12 23.9028 206.731 23.5179 208.371 23.4597C210.728 23.3527 212.597 23.7553 213.979 24.6674C214.683 25.1144 215.262 25.7322 215.662 26.4632C216.063 27.1943 216.272 28.0149 216.27 28.8485V28.8485ZM211.206 29.5527C211.138 28.0787 209.972 27.3928 207.707 27.4949C206.354 27.5836 205.076 28.1485 204.099 29.0893C202.99 30.0939 202.3 31.4937 202.03 33.2887C208.245 32.8703 211.303 31.625 211.206 29.5527Z" fill="#221E1F"/>
<path d="M233.032 23.0944L231.477 28.538C230.427 28.2796 229.344 28.1752 228.263 28.2278C225.512 28.3543 224.053 29.9353 223.885 32.9709C223.608 37.5923 223.426 41.7673 223.341 45.4961L217.628 45.9849C218.328 38.0629 218.615 32.7179 218.489 29.9499C218.378 27.9946 218.168 26.0462 217.858 24.1124L223.484 23.2805C223.622 24.2802 223.715 25.2823 223.761 26.2869L224.104 26.2686C225.563 24.0114 227.397 22.8305 229.606 22.726C230.759 22.6983 231.911 22.8222 233.032 23.0944V23.0944Z" fill="#221E1F"/>
</svg>
