<svg width="264" height="33" viewBox="0 0 264 33" fill="none" xmlns="http://www.w3.org/2000/svg">
<path d="M13.72 32.56C17.6 32.56 20.72 31.12 23.16 28.2L20.04 24.52C18.44 26.24 16.48 27.44 13.92 27.44C9.24 27.44 6.2 23.56 6.2 17.12C6.2 10.76 9.56 6.92 14.04 6.92C16.28 6.92 18 7.96 19.48 9.4L22.6 5.64C20.68 3.6 17.76 1.84 13.92 1.84C6.44 1.84 0.16 7.56 0.16 17.32C0.16 27.2 6.2 32.56 13.72 32.56ZM36.8091 32.56C42.4091 32.56 47.5691 28.2 47.5691 20.84C47.5691 13.36 42.4091 9.04 36.8091 9.04C31.2091 9.04 26.0491 13.36 26.0491 20.84C26.0491 28.2 31.2091 32.56 36.8091 32.56ZM36.8091 27.76C33.7691 27.76 32.0491 25.04 32.0491 20.84C32.0491 16.52 33.7691 13.84 36.8091 13.84C39.8491 13.84 41.5691 16.52 41.5691 20.84C41.5691 25.04 39.8491 27.76 36.8091 27.76ZM58.3281 32V0.0799985H52.4881V32H58.3281ZM70.9453 32V0.0799985H65.1053V32H70.9453ZM83.2425 32.4C85.8025 32.4 88.0825 31.36 90.0025 29.72H90.1225L90.5625 32H95.3625V18.92C95.3625 12.32 92.4825 9.04 86.7625 9.04C83.2425 9.04 79.8825 10.2 77.4425 11.68L79.2025 15.88C81.2425 14.56 83.6025 13.76 85.6825 13.76C87.4025 13.76 88.4825 14.12 88.9625 14.8C89.4025 15.72 89.6025 16.68 89.4825 17.64C80.2025 17.92 76.3225 20.44 76.6025 25.92C76.6025 29.8 79.2425 32.4 83.2425 32.4ZM85.0425 27.92C83.3225 27.92 82.0425 26.8 82.0025 24.92C81.9625 23.32 82.8825 22.04 85.4425 21.68C86.7225 21.48 88.0825 21.36 89.4825 21.24V25.76C88.0825 27.16 86.7625 27.88 85.0425 27.92ZM112.595 32.56C117.515 32.56 122.115 28.08 122.115 20.4C122.115 13.56 118.835 9.04 113.275 9.04C111.035 9.04 108.835 10.12 107.075 11.72L107.195 8.12V0.0799985H101.355V32H105.955L106.475 29.64H106.595C108.475 31.52 110.555 32.56 112.595 32.56ZM111.275 27.72C110.035 27.72 108.595 27.28 107.195 26.04V16.2C108.755 14.64 110.075 13.88 111.635 13.88C114.715 13.88 116.075 16.2 116.075 20.52C116.075 25.48 113.995 27.72 111.275 27.72ZM136.458 32.56C142.058 32.56 147.218 28.2 147.218 20.84C147.218 13.36 142.058 9.04 136.458 9.04C130.858 9.04 125.698 13.36 125.698 20.84C125.698 28.2 130.858 32.56 136.458 32.56ZM136.458 27.76C133.418 27.76 131.698 25.04 131.698 20.84C131.698 16.52 133.418 13.84 136.458 13.84C139.498 13.84 141.218 16.52 141.218 20.84C141.218 25.04 139.498 27.76 136.458 27.76ZM152.137 32H157.977V18.64C159.257 15.4 161.377 14.24 163.137 14.24C164.057 14.24 164.697 14.32 165.457 14.6L166.497 9.52C165.817 9.24 165.097 9.04 163.857 9.04C161.457 9.04 159.137 10.64 157.497 13.56H157.337L156.937 9.6H152.137V32ZM173.828 32.4C176.388 32.4 178.668 31.36 180.588 29.72H180.708L181.148 32H185.948V18.92C185.948 12.32 183.068 9.04 177.348 9.04C173.828 9.04 170.468 10.2 168.028 11.68L169.788 15.88C171.828 14.56 174.188 13.76 176.268 13.76C177.988 13.76 179.068 14.12 179.548 14.8C179.988 15.72 180.188 16.68 180.068 17.64C170.788 17.92 166.908 20.44 167.188 25.92C167.188 29.8 169.828 32.4 173.828 32.4ZM175.628 27.92C173.908 27.92 172.628 26.8 172.588 24.92C172.548 23.32 173.468 22.04 176.028 21.68C177.308 21.48 178.668 21.36 180.068 21.24V25.76C178.668 27.16 177.348 27.88 175.628 27.92ZM199.399 32.56C201.359 32.56 202.879 32.16 204.119 31.72L203.159 27.44C202.559 27.72 201.719 27.92 200.959 27.92C198.919 27.92 197.919 26.68 197.919 24.16V14.24H203.439V9.6H197.919V3.6H192.999L192.319 9.6L188.879 9.88V14.24H192.039V24.16C192.039 29.2 194.079 32.56 199.399 32.56ZM213.316 0.319998H207.476V6H213.316V0.319998ZM213.276 32V9.6H207.436V32H213.276ZM228.411 32.56C234.011 32.56 239.171 28.2 239.171 20.84C239.171 13.36 234.011 9.04 228.411 9.04C222.811 9.04 217.651 13.36 217.651 20.84C217.651 28.2 222.811 32.56 228.411 32.56ZM228.411 27.76C225.371 27.76 223.651 25.04 223.651 20.84C223.651 16.52 225.371 13.84 228.411 13.84C231.451 13.84 233.171 16.52 233.171 20.84C233.171 25.04 231.451 27.76 228.411 27.76ZM244.09 32H249.93V16.6C251.65 14.96 252.73 14.08 254.61 14.08C256.85 14.08 257.77 15.28 257.77 18.76V32H263.65V18.04C263.65 12.4 261.57 9.04 256.73 9.04C253.69 9.04 251.41 10.64 249.45 12.56H249.29L248.89 9.6H244.09V32Z" fill="white"/>
</svg>
