<svg width="298" height="60" viewBox="0 0 298 60" fill="none" xmlns="http://www.w3.org/2000/svg">
<path d="M12.2972 10.3192H0V1.91797H34.0845V10.3192H21.7873V45.0131H12.2972V10.3192Z" fill="white"/>
<path d="M45.3428 0V19.4498H45.4627C45.6899 18.8277 46.0284 18.2523 46.4617 17.7515C46.973 17.1582 47.5687 16.6432 48.2298 16.2231C48.9851 15.7504 49.802 15.384 50.6573 15.1343C51.6295 14.8437 52.6395 14.6989 53.6542 14.7047C55.5793 14.6295 57.4961 14.9951 59.2584 15.7736C60.6157 16.4295 61.7639 17.4498 62.5749 18.7205C63.4032 20.0797 63.9501 21.5914 64.1832 23.1659C64.4766 24.9959 64.6202 26.8468 64.6128 28.7001V45.0132H55.5722V30.5282C55.5722 29.6791 55.5722 28.79 55.4823 27.881C55.4325 27.0159 55.2506 26.1636 54.9429 25.3536C54.6544 24.518 54.0917 23.8045 53.3462 23.3293C52.6008 22.8541 51.7164 22.6451 50.8371 22.7363C49.8354 22.6929 48.8399 22.9134 47.9501 23.3757C47.2454 23.7781 46.6675 24.3699 46.2819 25.0839C45.8835 25.8304 45.623 26.6425 45.5127 27.4814C45.3905 28.4121 45.3305 29.3498 45.3329 30.2885V45.0132H36.2123V0H45.3428Z" fill="white"/>
<path d="M97.6284 39.8984C96.1614 41.7714 94.2578 43.2565 92.0842 44.2239C89.9092 45.2223 87.5446 45.7402 85.1514 45.7423C82.963 45.759 80.7887 45.3905 78.7281 44.6535C76.7918 43.9667 75.0122 42.9003 73.4935 41.5167C72.0021 40.1405 70.8117 38.4705 69.9972 36.6118C69.1193 34.6 68.6832 32.4232 68.7185 30.2285C68.683 28.0305 69.119 25.8504 69.9972 23.8351C70.8201 21.9957 72.0098 20.3437 73.4935 18.9802C75.0128 17.5998 76.7924 16.5367 78.7281 15.8534C80.7869 15.1085 82.962 14.7364 85.1514 14.7546C87.1208 14.7093 89.0787 15.0662 90.9054 15.8035C92.5868 16.5153 94.0833 17.6019 95.2809 18.9802C96.5177 20.4183 97.4612 22.0845 98.058 23.8851C98.7362 25.9477 99.0736 28.1072 99.0569 30.2784V33.1354H77.849C78.135 34.7552 78.9713 36.2266 80.2165 37.3011C81.4766 38.3551 83.0798 38.9096 84.7218 38.8595C86.0607 38.904 87.3835 38.5568 88.5279 37.8605C89.5841 37.1749 90.5024 36.2973 91.2351 35.2732L97.6284 39.8984ZM89.9065 26.8819C89.9432 26.1471 89.8272 25.4127 89.5658 24.725C89.3045 24.0372 88.9035 23.4111 88.388 22.8861C87.8597 22.3449 87.2244 21.9197 86.5227 21.6376C85.821 21.3556 85.0682 21.2228 84.3123 21.2478C83.3927 21.2282 82.4786 21.3947 81.6251 21.7373C80.8897 22.0306 80.213 22.4535 79.6271 22.986C79.0895 23.4823 78.655 24.0797 78.3485 24.7442C78.0495 25.4091 77.8768 26.1239 77.839 26.852L89.9065 26.8819Z" fill="white"/>
<path d="M136.997 12.4572C136.183 11.447 135.094 10.6942 133.861 10.2894C132.66 9.84813 131.394 9.61174 130.115 9.59015C129.398 9.59159 128.684 9.67539 127.987 9.83989C127.265 9.9935 126.569 10.2491 125.919 10.5991C125.291 10.9307 124.75 11.4066 124.341 11.9877C123.922 12.594 123.708 13.3188 123.731 14.0555C123.699 14.6379 123.816 15.2188 124.072 15.7432C124.327 16.2677 124.712 16.7183 125.19 17.0524C126.323 17.8071 127.562 18.3895 128.866 18.7806C130.344 19.2701 131.943 19.7795 133.641 20.2391C135.321 20.7162 136.93 21.4149 138.426 22.3169C139.912 23.2129 141.17 24.4403 142.102 25.9032C143.16 27.7175 143.67 29.7992 143.571 31.8969C143.621 34.0651 143.159 36.2144 142.222 38.1704C141.371 39.9082 140.134 41.4287 138.606 42.6158C137.024 43.8184 135.227 44.7068 133.311 45.2331C131.239 45.8041 129.098 46.0897 126.948 46.0822C124.297 46.1048 121.661 45.6723 119.156 44.8035C116.667 43.8943 114.39 42.487 112.463 40.6678L119.216 33.2355C120.186 34.5164 121.45 35.5444 122.902 36.2324C124.334 36.9286 125.905 37.2907 127.497 37.2913C128.287 37.2888 129.075 37.1983 129.845 37.0216C130.591 36.8552 131.308 36.5792 131.973 36.2025C132.577 35.8561 133.096 35.3781 133.491 34.8039C133.884 34.213 134.087 33.5156 134.071 32.806C134.092 32.2107 133.967 31.6192 133.708 31.083C133.449 30.5467 133.062 30.082 132.582 29.7292C131.444 28.9213 130.191 28.2882 128.866 27.8511C127.368 27.3217 125.739 26.7923 124.001 26.2728C122.294 25.7638 120.657 25.0458 119.126 24.135C117.633 23.2495 116.354 22.0454 115.38 20.6087C114.31 18.8752 113.788 16.8595 113.882 14.8247C113.837 12.7158 114.307 10.6277 115.25 8.74103C116.129 7.03518 117.366 5.53927 118.876 4.35559C120.45 3.15133 122.236 2.25335 124.141 1.70835C126.135 1.1197 128.205 0.823589 130.284 0.829261C132.675 0.81178 135.055 1.14842 137.347 1.82822C139.626 2.52082 141.724 3.70785 143.491 5.30461L136.997 12.4572Z" fill="white"/>
<path d="M166.517 41.307H166.397C165.455 42.8335 164.057 44.0251 162.401 44.7135C160.709 45.3928 158.9 45.7322 157.077 45.7124C155.723 45.7193 154.376 45.524 153.081 45.133C151.855 44.7795 150.708 44.1927 149.704 43.4048C148.727 42.6342 147.935 41.6546 147.387 40.5378C146.789 39.2925 146.498 37.9225 146.538 36.542C146.49 35.048 146.812 33.5655 147.477 32.2265C148.094 31.0683 148.969 30.067 150.034 29.2995C151.157 28.5069 152.402 27.9029 153.72 27.5114C155.121 27.0802 156.554 26.7629 158.006 26.5624C159.48 26.3636 160.964 26.2435 162.451 26.2027C163.929 26.2027 165.308 26.1328 166.557 26.1328C166.578 25.4116 166.433 24.6952 166.133 24.0388C165.833 23.3824 165.387 22.8035 164.829 22.3467C163.677 21.3905 162.22 20.88 160.723 20.9082C159.295 20.8933 157.884 21.2186 156.607 21.8572C155.348 22.5031 154.223 23.3809 153.291 24.4446L148.426 19.4498C150.151 17.8553 152.193 16.6434 154.419 15.8935C156.69 15.1025 159.078 14.7006 161.482 14.7047C163.725 14.6342 165.963 14.9727 168.085 15.7037C169.706 16.3174 171.133 17.3518 172.221 18.7005C173.307 20.0998 174.046 21.736 174.379 23.4756C174.785 25.6152 174.966 27.7915 174.918 29.9688V45.0132H166.517V41.307ZM164.269 32.0467C163.58 32.0467 162.721 32.0466 161.682 32.1465C160.667 32.2009 159.661 32.3718 158.685 32.656C157.797 32.9197 156.974 33.3654 156.267 33.9647C155.934 34.2616 155.672 34.6291 155.499 35.0405C155.326 35.4518 155.248 35.8965 155.268 36.3422C155.246 36.8394 155.365 37.3328 155.613 37.7645C155.861 38.1963 156.226 38.5484 156.667 38.7796C157.559 39.2892 158.567 39.5609 159.594 39.5688C160.47 39.5723 161.341 39.4478 162.181 39.1992C162.968 38.9842 163.717 38.6471 164.399 38.2002C165.042 37.7575 165.575 37.1731 165.957 36.492C166.351 35.741 166.547 34.9022 166.527 34.0546V32.0566L164.269 32.0467Z" fill="white"/>
<path d="M179.124 15.4339H188.254V20.1789H188.374C189.168 18.5537 190.344 17.145 191.8 16.0732C193.308 15.1153 195.071 14.638 196.855 14.7046C197.375 14.7046 197.904 14.7046 198.434 14.7646C198.926 14.7981 199.415 14.8784 199.892 15.0043V23.3456C199.263 23.1523 198.622 22.9989 197.974 22.8861C197.313 22.7832 196.645 22.7331 195.976 22.7363C194.561 22.6789 193.15 22.9277 191.84 23.4655C190.885 23.893 190.074 24.5867 189.503 25.4634C188.924 26.4195 188.559 27.4896 188.434 28.6002C188.268 29.9256 188.188 31.2603 188.194 32.596V45.0131H179.064L179.124 15.4339Z" fill="white"/>
<path d="M220.93 41.3072H220.77C219.829 42.8336 218.431 44.0253 216.775 44.7136C215.082 45.392 213.273 45.7314 211.45 45.7126C210.097 45.7194 208.75 45.5241 207.454 45.1332C206.228 44.7797 205.082 44.1929 204.078 43.405C203.115 42.6397 202.334 41.6709 201.79 40.5679C201.193 39.3226 200.902 37.9527 200.941 36.5721C200.893 35.0782 201.216 33.5956 201.88 32.2566C202.498 31.0984 203.373 30.0971 204.437 29.3296C205.561 28.5371 206.806 27.9331 208.124 27.5415C209.524 27.1104 210.957 26.793 212.409 26.5925C213.883 26.3937 215.367 26.2737 216.854 26.2329C218.333 26.2329 219.702 26.1629 220.96 26.1629C220.992 25.4301 220.852 24.6999 220.552 24.0305C220.252 23.3611 219.8 22.7709 219.232 22.3069C218.078 21.3485 216.616 20.8378 215.116 20.8684C213.692 20.8527 212.284 21.1781 211.011 21.8175C209.752 22.4633 208.627 23.3411 207.694 24.4048L202.829 19.41C204.554 17.8155 206.597 16.6036 208.823 15.8537C211.093 15.0627 213.481 14.6608 215.885 14.6649C218.129 14.5944 220.366 14.9329 222.489 15.6639C224.109 16.2776 225.537 17.312 226.624 18.6607C227.703 20.0619 228.435 21.698 228.762 23.4358C229.195 25.5893 229.4 27.7825 229.371 29.979V45.0133H220.97L220.93 41.3072ZM218.683 32.0468C217.993 32.0468 217.134 32.0468 216.095 32.1467C215.08 32.2018 214.075 32.3728 213.098 32.6562C212.211 32.9207 211.388 33.3663 210.681 33.9648C210.348 34.2618 210.085 34.6293 209.913 35.0406C209.74 35.452 209.661 35.8967 209.682 36.3423C209.659 36.8396 209.779 37.333 210.026 37.7647C210.274 38.1964 210.64 38.5486 211.08 38.7798C211.972 39.2893 212.98 39.5611 214.007 39.569C214.883 39.5725 215.755 39.4479 216.595 39.1994C217.382 38.9844 218.13 38.6473 218.812 38.2004C219.456 37.7577 219.989 37.1733 220.371 36.4922C220.764 35.7412 220.96 34.9024 220.94 34.0547V32.0568L218.683 32.0468Z" fill="white"/>
<path d="M233.537 15.4339H242.298V19.4298H242.418C242.74 18.808 243.151 18.2361 243.637 17.7315C244.194 17.139 244.829 16.6248 245.525 16.2031C246.308 15.7359 247.147 15.37 248.022 15.1143C248.994 14.8226 250.004 14.6779 251.019 14.6847C252.944 14.6074 254.861 14.9731 256.623 15.7536C257.982 16.4068 259.131 17.4277 259.94 18.7005C260.768 20.0597 261.315 21.5714 261.548 23.1459C261.846 24.9753 261.99 26.8266 261.977 28.6801V45.0132H252.847V30.5282C252.847 29.6791 252.847 28.79 252.757 27.881C252.709 27.0147 252.523 26.1617 252.208 25.3536C251.919 24.518 251.356 23.8045 250.611 23.3293C249.866 22.8541 248.981 22.6451 248.102 22.7363C247.107 22.6973 246.119 22.9177 245.235 23.3757C244.532 23.7811 243.955 24.3721 243.567 25.0839C243.167 25.8291 242.91 26.6421 242.807 27.4814C242.685 28.4121 242.625 29.3498 242.628 30.2885V45.0132H233.497L233.537 15.4339Z" fill="white"/>
<path d="M297.99 42.5159C297.99 48.1167 296.578 52.369 293.754 55.2726C290.931 58.1763 286.642 59.6281 280.888 59.6281C278.265 59.6281 275.651 59.3298 273.096 58.739C270.514 58.1369 268.1 56.9625 266.033 55.3026L271.088 47.7504C272.441 48.8909 273.948 49.8358 275.563 50.5575C277.186 51.2467 278.935 51.587 280.698 51.5565C283.508 51.5565 285.57 50.8905 286.882 49.5586C287.545 48.8683 288.064 48.0522 288.407 47.1583C288.75 46.2644 288.911 45.3109 288.88 44.354V41.4869H288.7C287.713 42.8491 286.348 43.8912 284.774 44.4838C283.367 45.0432 281.872 45.3444 280.358 45.3729C278.305 45.4029 276.266 45.019 274.365 44.2441C272.626 43.526 271.059 42.4466 269.769 41.0774C268.452 39.6866 267.432 38.0414 266.772 36.2424C265.432 32.4051 265.4 28.2319 266.683 24.3747C267.273 22.583 268.18 20.9116 269.36 19.4399C270.554 17.996 272.038 16.8186 273.715 15.9835C275.464 15.0907 277.406 14.6414 279.369 14.6748C280.572 14.6613 281.771 14.8057 282.936 15.1044C283.935 15.3598 284.903 15.7249 285.823 16.1933C286.615 16.5984 287.354 17.1018 288.02 17.6917C288.568 18.1684 289.058 18.7082 289.479 19.3H289.599V15.4041H298L297.99 42.5159ZM275.014 30.0389C275.01 30.9831 275.193 31.9187 275.553 32.7916C275.913 33.6644 276.443 34.4571 277.112 35.1236C277.783 35.7953 278.568 36.3431 279.429 36.7419C280.336 37.1497 281.322 37.3543 282.316 37.3413C283.3 37.3471 284.275 37.1428 285.173 36.7419C286.047 36.3487 286.843 35.8004 287.521 35.1236C288.188 34.4566 288.717 33.6647 289.079 32.7931C289.44 31.9215 289.626 30.9873 289.626 30.0439C289.626 29.1004 289.44 28.1662 289.079 27.2946C288.717 26.423 288.188 25.6311 287.521 24.9641C286.843 24.2873 286.047 23.739 285.173 23.3458C284.275 22.9418 283.301 22.734 282.316 22.7365C281.321 22.7266 280.336 22.9346 279.429 23.3458C278.556 23.7445 277.761 24.2959 277.082 24.9741C276.414 25.6394 275.885 26.4305 275.525 27.3015C275.165 28.1726 274.981 29.1063 274.984 30.0488L275.014 30.0389Z" fill="white"/>
</svg>
