<svg width="183" height="35" viewBox="0 0 183 35" fill="none" xmlns="http://www.w3.org/2000/svg">
<path d="M76.8168 15.0001C72.2092 15.0001 69.5492 16.25 66.148 19.8127C62.446 24.0578 57.2503 26.7538 51.6128 27.355C48.0644 27.8043 44.5722 28.6131 41.1911 29.7685C40.9586 29.869 40.915 30.0558 41.1911 29.984C43.7033 29.472 46.2576 29.1883 48.8221 29.1364C48.8221 29.1364 51.7291 29.0214 55.2902 29.0358C74.6801 29.0358 80 14.957 80 15.0001H76.8168Z" fill="black"/>
<path d="M51.5452 26.5694C47.4867 25.9606 43.3806 25.8396 39.2986 26.2083C32.7163 26.5293 26.5083 29.6844 22 35H26.1437C30.7273 35 32.9127 34.3406 35.5806 32.4567C39.9632 29.3746 44.9525 27.506 50.1261 27.009C52.7372 26.695 51.9993 26.695 51.5452 26.5694Z" fill="black"/>
<path d="M34.6427 11L30.9216 11.4818L30.6013 13.0146H29.4118L29 14.9562H30.1895L29.2745 19.4672C29.1535 19.9464 29.0769 20.4349 29.0458 20.927C29.0458 22.2409 30.0523 23 31.7298 23C32.6415 22.9746 33.545 22.8272 34.4139 22.562L34.8562 20.4453C34.534 20.6792 34.1466 20.8164 33.7429 20.8394C33.1787 20.8394 32.9194 20.4745 32.9194 19.8905C32.9166 19.5769 32.9473 19.2639 33.0109 18.9562L33.8344 14.9562H35.5882L36 13.0146H34.2462L34.6427 11Z" fill="black"/>
<path d="M21.5144 13.0594L18.4509 19.3893L18.1618 13.0594H15.2717L12.237 19.3744L12.0058 13.0594H9L9.36127 23H11.659C12.0059 23.0001 12.3448 22.8923 12.6311 22.6908C12.9173 22.4892 13.1376 22.2034 13.263 21.8707L15.5896 16.997L15.8353 22.9406H18.0607C18.4081 22.9428 18.7479 22.8358 19.0345 22.634C19.3212 22.4322 19.5411 22.1451 19.6647 21.8113L24 13L21.5144 13.0594Z" fill="black"/>
<path d="M23 22.994H25.1067C25.426 23.0276 25.7444 22.9198 25.9936 22.6936C26.2428 22.4674 26.4031 22.1409 26.44 21.7839L28 13H24.7067L23 22.994Z" fill="black"/>
<path d="M25 11.982H27.1083C27.2879 12.0125 27.4714 12.0041 27.6479 11.9573C27.8243 11.9105 27.9902 11.8263 28.1357 11.7095C28.2812 11.5928 28.4032 11.446 28.4947 11.2778C28.5861 11.1096 28.645 10.9235 28.6679 10.7305L29 9H25.5487L25 11.982Z" fill="black"/>
<path d="M44.9616 12.9395C43.2696 12.9395 41.4773 14.9534 40.5596 16.585L42.1082 9H38.71L36 22.9941H38.2798C38.6225 23.0234 38.9629 22.9159 39.2301 22.694C39.4972 22.4722 39.6705 22.1531 39.7137 21.8034L40.0721 19.9218C40.4163 19.2162 42.5097 16.0411 43.1262 16.0411C43.284 16.0411 43.3126 16.2322 43.3126 16.3351C43.2935 16.4984 43.2647 16.6604 43.2266 16.8202L42.0365 22.9941H44.302C44.6454 23.0272 44.9878 22.9211 45.2558 22.6985C45.5238 22.4759 45.6961 22.1546 45.7358 21.8034L46.7825 16.4086C46.9072 15.9283 46.9793 15.4353 46.9976 14.9387C47.0111 14.6648 46.967 14.3912 46.8683 14.1364C46.7695 13.8816 46.6184 13.6516 46.4253 13.462C46.2322 13.2723 46.0015 13.1275 45.7489 13.0374C45.4963 12.9472 45.2278 12.9138 44.9616 12.9395V12.9395Z" fill="black"/>
<path d="M57.8532 14.4715L58.8881 9H55.6434L54.5944 14.4715H49.5734L49 17.4052H53.979L52.9161 22.9941H55.1259C55.4608 23.0271 55.7948 22.9212 56.0562 22.6991C56.3176 22.477 56.4857 22.1564 56.5245 21.8059L57.3636 17.4052H62.4266L63 14.4715H57.8532Z" fill="black"/>
<path d="M2.94667 0.852941H1.98667C1.9821 1.22211 2.09537 1.58129 2.30667 1.86765C2.5516 2.17246 2.85126 2.41783 3.18667 2.58824L2.81333 3.05882C2.55017 2.91788 2.30751 2.73449 2.09333 2.51471C1.89771 2.32739 1.74664 2.09009 1.65333 1.82353C1.59976 1.95878 1.53268 2.08703 1.45333 2.20588C1.37185 2.32111 1.27781 2.42484 1.17333 2.51471C1.06395 2.63035 0.948172 2.7384 0.826667 2.83823C0.705307 2.93086 0.575758 3.00969 0.44 3.07353L0 2.72059C0.360614 2.52883 0.679089 2.25284 0.933333 1.91176C1.17073 1.61841 1.31164 1.24542 1.33333 0.852941H0.32V0.235294H2.98667L2.94667 0.852941ZM4.17333 4.64706C4.15865 4.83724 4.09887 5.01982 4 5.17647C3.92991 5.3394 3.83004 5.48459 3.70667 5.60294C3.57037 5.72642 3.41741 5.82566 3.25333 5.89706C3.08133 5.96106 2.90149 5.99577 2.72 6C2.5297 5.99692 2.34091 5.96222 2.16 5.89706C2.00157 5.82223 1.85345 5.72322 1.72 5.60294C1.59663 5.48459 1.49676 5.3394 1.42667 5.17647C1.35577 5.01143 1.32368 4.82937 1.33333 4.64706C1.33359 4.46711 1.37485 4.29012 1.45333 4.13235C1.52343 3.96942 1.62329 3.82423 1.74667 3.70588C1.88012 3.5856 2.02823 3.48659 2.18667 3.41176C2.36598 3.33964 2.55584 3.30473 2.74667 3.30882C2.92872 3.30599 3.10964 3.34091 3.28 3.41176C3.44408 3.48316 3.59703 3.5824 3.73333 3.70588C3.8471 3.82702 3.93776 3.97202 4 4.13235C4.09725 4.28445 4.15699 4.46182 4.17333 4.64706V4.64706ZM3.50667 4.64706C3.5265 4.55521 3.5265 4.4595 3.50667 4.36765C3.46915 4.27328 3.41473 4.18824 3.34667 4.11765C3.25902 4.05005 3.15881 4.00483 3.05333 3.98529C2.96097 3.96429 2.8657 3.96429 2.77333 3.98529C2.67659 3.96309 2.57674 3.96309 2.48 3.98529C2.39114 4.02129 2.30958 4.07626 2.24 4.14706C2.17194 4.21765 2.11752 4.30269 2.08 4.39706C2.06016 4.48891 2.06016 4.58462 2.08 4.67647C2.06 4.77327 2.06 4.87379 2.08 4.97059C2.12101 5.06273 2.17502 5.14711 2.24 5.22059C2.31299 5.28625 2.39373 5.34067 2.48 5.38235C2.57729 5.39764 2.67605 5.39764 2.77333 5.38235C2.86624 5.39627 2.96043 5.39627 3.05333 5.38235C3.13961 5.34067 3.22034 5.28625 3.29333 5.22059C3.35832 5.14711 3.41232 5.06273 3.45333 4.97059C3.49551 4.86941 3.51385 4.75813 3.50667 4.64706V4.64706ZM5 1.83824H4.30667V3.30882H3.66667V0H4.30667V1.22059H5V1.83824Z" fill="black"/>
<path d="M8.84913 2.19C8.84714 2.41035 8.80858 2.62864 8.73518 2.835C8.67006 3.03843 8.56852 3.22683 8.43605 3.39C8.31563 3.55033 8.16537 3.68304 7.99448 3.78C7.81522 3.87382 7.61777 3.92264 7.41759 3.92264C7.21742 3.92264 7.01996 3.87382 6.8407 3.78C6.67051 3.68177 6.51658 3.55513 6.38489 3.405C6.26499 3.23545 6.16903 3.04851 6.10001 2.85C6.03177 2.63747 5.99806 2.41434 6.0003 2.19C5.99643 1.96064 6.03017 1.73229 6.10001 1.515C6.16596 1.31505 6.26216 1.12763 6.38489 0.96C6.5127 0.805507 6.66743 0.678215 6.8407 0.585C7.0186 0.486464 7.21659 0.434976 7.41759 0.434976C7.6186 0.434976 7.81658 0.486464 7.99448 0.585C8.1633 0.685131 8.31303 0.817367 8.43605 0.975C8.56562 1.1403 8.66684 1.32811 8.73518 1.53C8.80853 1.74157 8.84707 1.96478 8.84913 2.19ZM8.1939 2.19C8.21574 2.04591 8.21574 1.89909 8.1939 1.755C8.15433 1.62668 8.09671 1.50533 8.02297 1.395C7.95312 1.30365 7.87163 1.22289 7.78082 1.155C7.67397 1.08654 7.54943 1.05506 7.42471 1.065C7.31447 1.06475 7.20621 1.09585 7.11134 1.155C7.02053 1.22289 6.93904 1.30365 6.86919 1.395C6.79447 1.50266 6.74118 1.62511 6.71251 1.755C6.69067 1.89909 6.69067 2.04591 6.71251 2.19C6.69067 2.33409 6.69067 2.48091 6.71251 2.625C6.73835 2.75134 6.79202 2.86951 6.86919 2.97C6.93525 3.06496 7.01734 3.14631 7.11134 3.21C7.20621 3.26915 7.31447 3.30025 7.42471 3.3C7.53022 3.2983 7.63341 3.26725 7.72384 3.21C7.81785 3.14631 7.89993 3.06496 7.96599 2.97C8.03924 2.84666 8.08772 2.70883 8.10843 2.565C8.14375 2.44336 8.16292 2.31717 8.16541 2.19H8.1939ZM10.3448 2.565H9.80349V5.715H9.1625V0.105H9.80349V1.875H10.3448V0H11V6H10.3448V2.565Z" fill="black"/>
<path d="M14.1402 1.70103C14.1364 1.90795 14.0951 2.11239 14.0183 2.30412C13.9332 2.4855 13.8141 2.64833 13.6677 2.78351C13.5242 2.92281 13.3595 3.03769 13.1799 3.12371C12.9851 3.19822 12.7783 3.23494 12.5701 3.23196C12.3617 3.23856 12.1542 3.20172 11.9604 3.12371C11.7741 3.04157 11.6037 2.92636 11.4573 2.78351C11.3163 2.64693 11.2025 2.4842 11.122 2.30412C11.0451 2.11239 11.0038 1.90795 11 1.70103C11.0008 1.49643 11.0417 1.29404 11.1202 1.10557C11.1987 0.917102 11.3133 0.746312 11.4573 0.603093C11.6004 0.459893 11.7719 0.349197 11.9604 0.278351C12.1511 0.188675 12.3601 0.146273 12.5701 0.154639C12.7799 0.14907 12.9883 0.191347 13.1799 0.278351C13.3616 0.353727 13.5272 0.463994 13.6677 0.603093C13.8158 0.742817 13.9349 0.911031 14.0183 1.09794C14.0984 1.28865 14.1399 1.49374 14.1402 1.70103V1.70103ZM13.4238 1.70103C13.4174 1.47361 13.3245 1.25751 13.1646 1.09794C13.0883 1.01556 12.9962 0.949788 12.894 0.904599C12.7918 0.85941 12.6816 0.835749 12.5701 0.835051C12.4561 0.833628 12.343 0.856262 12.238 0.901516C12.1331 0.946771 12.0385 1.01366 11.9604 1.09794C11.8028 1.27031 11.7157 1.49691 11.7165 1.73196C11.7165 1.96226 11.8038 2.18374 11.9604 2.35052C12.0366 2.43719 12.1308 2.5057 12.2363 2.55115C12.3417 2.59659 12.4557 2.61785 12.5701 2.6134C12.6822 2.61663 12.7936 2.59474 12.8963 2.5493C12.9991 2.50386 13.0907 2.43599 13.1646 2.35052C13.2516 2.26776 13.3199 2.16682 13.3646 2.05468C13.4094 1.94254 13.4295 1.82187 13.4238 1.70103ZM15.939 6H12.2043V3.9433H12.9512V5.35052H16L15.939 6ZM15.8323 4.28351H15.1006V0H15.8323V4.28351Z" fill="black"/>
<path d="M21.3094 0.670927H20.7293V2.26837H21.4475V2.92332H20.6188V4.32907H22V5H17V4.40895H18.3812V3.00319H17.5387V2.41214H18.2431V0.814697H17.6906V0H21.3094V0.670927ZM20.0663 0.670927H18.8785V2.26837H20.0111L20.0663 0.670927ZM19.942 3.00319H19.0304V4.40895H19.942V3.00319Z" fill="black"/>
<path d="M28 3.59358H25.9589V4.68449H25.274V3.59358H23V2.93583H28V3.59358ZM27.3288 0.641711H25.9589C26.0675 0.999787 26.2811 1.3011 26.5616 1.49198C26.8966 1.72986 27.262 1.9032 27.6438 2.00535L27.2192 2.51872L26.6712 2.31016C26.5059 2.22691 26.3457 2.13043 26.1918 2.02139C26.0466 1.91141 25.9092 1.78802 25.7808 1.65241C25.6702 1.52618 25.5777 1.37992 25.5068 1.21925C25.3515 1.54954 25.1248 1.82617 24.8493 2.02139C24.526 2.24833 24.1749 2.41605 23.8082 2.51872L23.4521 1.97326C23.8524 1.89307 24.2374 1.7301 24.589 1.49198C24.8696 1.3011 25.0832 0.999787 25.1918 0.641711H23.8219V0H27.3288V0.641711ZM27.5068 6H23.8356V4.12299H24.4932V5.3262H27.4384L27.5068 6Z" fill="black"/>
<path d="M31.8068 4.125L31.2742 4.59L30.8668 4.26C30.7329 4.13259 30.6073 3.99733 30.4909 3.855C30.3757 3.7121 30.271 3.56174 30.1775 3.405C30.1043 3.26248 30.0516 3.1111 30.0209 2.955C29.8876 3.26785 29.7082 3.56082 29.4883 3.825C29.2491 4.13394 28.9579 4.40262 28.6266 4.62L28 4.125C28.2742 3.94221 28.5264 3.73092 28.752 3.495C28.9437 3.28564 29.1069 3.05378 29.2376 2.805C29.3584 2.57311 29.4428 2.32545 29.4883 2.07C29.5383 1.80262 29.5645 1.53164 29.5666 1.26V0.375H30.3655V1.305C30.3659 1.81986 30.4724 2.32959 30.6789 2.805C30.9256 3.33317 31.315 3.78881 31.8068 4.125V4.125ZM33.9843 2.865H33.154V6H32.4021V0H33.154V2.175H34L33.9843 2.865Z" fill="black"/>
<path d="M38.9842 3.16667H38.2429V1.89394H37.2019C37.1568 2.05897 37.0878 2.21709 36.9968 2.36364C36.8979 2.50344 36.7753 2.62635 36.6341 2.72727C36.4919 2.83344 36.3319 2.91543 36.1609 2.9697C35.9834 2.9991 35.8021 2.9991 35.6246 2.9697C35.4091 2.97412 35.1948 2.93809 34.9937 2.86364C34.8075 2.80741 34.6356 2.71453 34.489 2.59091C34.3344 2.46712 34.2105 2.31185 34.1262 2.13636C34.0454 1.95421 34.0025 1.7586 34 1.56061C34.0159 1.39199 34.064 1.22763 34.142 1.07576C34.2263 0.900272 34.3502 0.745006 34.5047 0.621212C34.654 0.47896 34.8313 0.366809 35.0264 0.291351C35.2214 0.215893 35.4302 0.178653 35.6404 0.181818C35.8233 0.182025 36.0047 0.212786 36.1767 0.272727C36.3424 0.320742 36.4975 0.397795 36.6341 0.5C36.7703 0.600488 36.8922 0.717641 36.9968 0.848485C37.0907 0.988168 37.16 1.14174 37.2019 1.30303H38.2587V0H39L38.9842 3.16667ZM36.4921 1.65152C36.5146 1.54656 36.5146 1.43829 36.4921 1.33333C36.4195 1.23773 36.3347 1.15121 36.2397 1.07576C36.1574 1.00281 36.061 0.946177 35.9558 0.909091C35.8465 0.88827 35.734 0.88827 35.6246 0.909091C35.5102 0.886218 35.392 0.886218 35.2776 0.909091C35.1793 0.950156 35.0887 1.00646 35.0095 1.07576C34.9305 1.1555 34.8664 1.24777 34.8202 1.34848C34.7977 1.45344 34.7977 1.56171 34.8202 1.66667C34.7947 1.77131 34.7947 1.88021 34.8202 1.98485C34.8587 2.08947 34.9237 2.18321 35.0095 2.25758C35.0883 2.33142 35.1788 2.39279 35.2776 2.43939C35.392 2.46227 35.5102 2.46227 35.6246 2.43939C35.7339 2.46103 35.8466 2.46103 35.9558 2.43939C36.0621 2.3975 36.1587 2.33574 36.2399 2.25771C36.3211 2.17969 36.3854 2.08694 36.429 1.98485C36.4895 1.86223 36.5115 1.72532 36.4921 1.59091V1.65152ZM38.9685 6H35.2461V3.51515H36.0189V4.10606H38.1956V3.51515H38.9685V6ZM38.1956 5.37879V4.72727H36.0189V5.31818L38.1956 5.37879Z" fill="black"/>
<path d="M42.9467 0.852985H41.9867C41.9772 1.22561 42.0963 1.58831 42.32 1.86774C42.5562 2.17667 42.8524 2.42297 43.1867 2.58837L42.8133 3.05898C42.5502 2.91803 42.3075 2.73463 42.0933 2.51483C41.8977 2.32751 41.7466 2.09019 41.6533 1.82362C41.5998 1.95888 41.5327 2.08713 41.4533 2.20599C41.3745 2.33676 41.2804 2.45544 41.1733 2.55895C41.0639 2.6746 40.9482 2.78266 40.8267 2.8825C40.7082 2.97189 40.5833 3.05058 40.4533 3.11781L40 2.70602C40.3606 2.51425 40.6791 2.23825 40.9333 1.89716C41.1563 1.59786 41.2829 1.22545 41.2933 0.838278H40.32V0.235306H42.9867L42.9467 0.852985ZM44.1733 4.6473C44.1747 4.83215 44.1335 5.01436 44.0533 5.17673C43.9832 5.33967 43.8834 5.48487 43.76 5.60323C43.6237 5.72672 43.4707 5.82596 43.3067 5.89736C42.9574 6.03421 42.576 6.03421 42.2267 5.89736C42.0485 5.83024 41.8818 5.73083 41.7333 5.60323C41.61 5.48487 41.5101 5.33967 41.44 5.17673C41.3639 5.01323 41.3272 4.83094 41.3333 4.6473C41.3289 4.46854 41.3656 4.29145 41.44 4.13256C41.5101 3.96963 41.61 3.82443 41.7333 3.70607C41.8696 3.58258 42.0226 3.48334 42.1867 3.41194C42.361 3.33851 42.5468 3.30354 42.7333 3.30899C42.9155 3.3047 43.0967 3.33967 43.2667 3.41194C43.4307 3.48334 43.5837 3.58258 43.72 3.70607C43.8434 3.82443 43.9432 3.96963 44.0133 4.13256C44.1059 4.28614 44.161 4.46341 44.1733 4.6473V4.6473ZM43.5067 4.6473C43.5265 4.55544 43.5265 4.45973 43.5067 4.36787C43.4691 4.27349 43.4147 4.18845 43.3467 4.11786C43.263 4.05221 43.1675 4.00708 43.0667 3.9855C42.9743 3.96449 42.879 3.96449 42.7867 3.9855C42.6899 3.9633 42.5901 3.9633 42.4933 3.9855C42.4045 4.02149 42.3229 4.07647 42.2533 4.14727C42.1853 4.21787 42.1308 4.30291 42.0933 4.39728C42.0735 4.48914 42.0735 4.58485 42.0933 4.67671C42.0733 4.77351 42.0733 4.87404 42.0933 4.97084C42.1343 5.06299 42.1883 5.14737 42.2533 5.22085C42.3978 5.36451 42.5855 5.44401 42.78 5.44401C42.9745 5.44401 43.1622 5.36451 43.3067 5.22085C43.3716 5.14737 43.4257 5.06299 43.4667 4.97084C43.5043 4.86837 43.518 4.75714 43.5067 4.6473V4.6473ZM45 1.83833H44.3067V3.30899H43.6667V0H44.3067V1.22065H45V1.83833Z" fill="black"/>
<path d="M109 24C105.684 24 103 24.675 103 25.5C103 26.325 105.684 27 109 27C112.316 27 115 26.3325 115 25.5C115 24.6675 112.309 24 109 24Z" fill="black"/>
<path d="M107.773 13.5018C107.943 13.0528 108.019 12.5675 107.996 12.0816C107.973 11.5958 107.852 11.1217 107.642 10.6944C107.432 10.267 107.137 9.8972 106.781 9.61215C106.424 9.32709 106.014 9.13404 105.581 9.04718C102.749 8.56014 101.503 11.9576 102.513 13.9889C103.523 16.0202 106.097 16.6023 106.113 19.8215C106.118 20.2166 106.051 20.6088 105.916 20.9745C105.78 21.3401 105.579 21.6717 105.324 21.9492C105.07 22.2266 104.767 22.4443 104.434 22.589C104.102 22.7337 103.746 22.8025 103.389 22.7913C102.755 22.7616 102.314 22.4468 102.282 21.835C102.174 20.4867 103.657 20.2195 103.657 20.2195C102.454 20.1898 100.326 20.5046 100.03 22.5418C99.6864 24.9176 102.341 25.8145 104.453 24.1396C106.564 22.4646 106.962 19.9819 106.113 17.6061C105.619 16.4962 104.994 15.4637 104.254 14.5353C103.98 14.2201 103.793 13.8258 103.714 13.3979C103.636 12.9701 103.668 12.5263 103.808 12.1179C103.965 11.7611 104.211 11.4609 104.516 11.2523C104.822 11.0437 105.175 10.9353 105.534 10.9397C105.893 10.944 106.244 11.061 106.545 11.2769C106.846 11.4929 107.086 11.7989 107.236 12.1595C107.373 12.5365 107.435 12.9416 107.419 13.3474C107.409 13.4461 107.409 13.5457 107.419 13.6444C107.428 13.6744 107.446 13.7005 107.47 13.7189C107.493 13.7372 107.522 13.7471 107.55 13.7471C107.579 13.7471 107.607 13.7372 107.631 13.7189C107.655 13.7005 107.672 13.6744 107.682 13.6444C107.715 13.5989 107.746 13.5513 107.773 13.5018Z" fill="black"/>
<path d="M111.69 9.03608C110.907 9.20136 109.962 10.0809 110.001 11.7692C110.001 11.9699 110.052 12.0289 110.103 11.9876C110.122 11.9616 110.139 11.9339 110.153 11.9049C110.363 11.4915 110.682 11.1495 111.071 10.9191C111.915 10.4115 112.315 10.7716 112.816 10.2521C113.317 9.73263 112.748 8.80586 111.69 9.03608Z" fill="black"/>
<path d="M113.511 12.8126C113.547 12.778 113.577 12.7341 113.599 12.6836C113.621 12.6332 113.635 12.5773 113.64 12.5195C113.644 12.4616 113.64 12.4032 113.626 12.3478C113.613 12.2924 113.59 12.2413 113.561 12.1977C113.193 11.6768 112.33 12.27 112.008 12.9934C111.997 13.0309 111.997 13.0717 112.008 13.1092C112.008 13.1092 112.008 13.1526 112.086 13.1598C112.314 13.2316 112.529 13.3593 112.72 13.536C112.998 13.7458 113.477 14.2594 113.833 13.8398C113.908 13.7618 113.962 13.6543 113.986 13.5336C114.01 13.4128 114.003 13.2851 113.967 13.1696C113.931 13.0541 113.867 12.957 113.784 12.8926C113.702 12.8283 113.606 12.8002 113.511 12.8126V12.8126Z" fill="black"/>
<path d="M97.7168 14.9956C97.7168 14.932 97.7168 14.8974 97.6548 14.8685C97.6161 14.8392 97.5739 14.8215 97.5306 14.8166C97.4462 14.8223 97.3644 14.8623 97.294 14.932C97.3211 14.8281 97.3483 14.7184 97.3716 14.6144C97.3956 14.5314 97.4228 14.4504 97.453 14.3719C97.4957 14.2218 97.5461 14.0832 97.5966 13.9388C97.647 13.7944 97.6858 13.7078 97.7207 13.5866C97.7556 13.4653 97.8138 13.4018 97.8526 13.2921C97.8914 13.1823 97.9069 13.217 97.9147 13.1823C97.9224 13.1477 98 13.0322 98 13.0033C98 12.9745 97.8681 13.1419 97.8448 13.1766C97.8448 13.1766 97.7905 13.2343 97.7789 13.2574C97.7672 13.2805 97.7129 13.3902 97.678 13.4595C97.6431 13.5288 97.6121 13.5923 97.5694 13.6674C97.5198 13.7502 97.4769 13.8413 97.4414 13.9388C97.4047 14.0504 97.3632 14.1584 97.3173 14.2622C97.2796 14.3502 97.2472 14.443 97.2203 14.5394C97.1833 14.6424 97.1534 14.7508 97.1311 14.8628C97.104 14.9768 97.073 15.0886 97.038 15.1977C97.0226 15.2765 97.0148 15.3581 97.0147 15.4402C96.9951 15.5597 96.9951 15.6845 97.0147 15.804C97.0298 15.8703 97.0605 15.9261 97.1012 15.9611C97.1419 15.9962 97.1897 16.0081 97.2358 15.9946C97.3329 15.9424 97.4205 15.8574 97.4918 15.7463C97.5707 15.6621 97.6331 15.5482 97.6726 15.4163C97.7122 15.2844 97.7274 15.1392 97.7168 14.9956V14.9956ZM97.3638 15.573C97.3638 15.6192 97.3134 15.7058 97.2707 15.7174C97.228 15.7289 97.2009 15.6539 97.197 15.6077C97.1886 15.4791 97.2033 15.3496 97.2397 15.2323V15.1919C97.2397 15.1919 97.2397 15.1919 97.2397 15.1573V15.1919C97.2397 15.2496 97.2397 15.2785 97.2979 15.2785C97.3561 15.2785 97.3754 15.2265 97.4026 15.2381C97.4298 15.2496 97.391 15.5037 97.3638 15.5615V15.573Z" fill="black"/>
<path d="M102.328 17.5973C102.394 17.54 102.542 17.4445 102.583 17.5973C102.624 17.7502 102.583 17.7406 102.583 17.7788C102.583 17.817 102.517 17.8934 102.517 17.9317C102.517 17.9699 102.591 18.0081 102.632 17.9985C102.673 17.989 102.73 17.9317 102.78 17.8839C102.865 17.7678 102.927 17.6306 102.96 17.4827C102.986 17.4322 103 17.3744 103 17.3156C103 17.2567 102.986 17.1989 102.96 17.1484C102.876 17.0896 102.779 17.0628 102.681 17.072C102.59 17.0881 102.507 17.1384 102.443 17.2153C102.386 17.2153 102.402 17.2153 102.443 17.1197C102.484 17.0242 102.443 17.0433 102.402 17.0242C102.375 17.0083 102.346 17 102.316 17C102.286 17 102.256 17.0083 102.23 17.0242C102.225 17.0782 102.225 17.1326 102.23 17.1866C102.21 17.3004 102.183 17.4122 102.148 17.5209C102.107 17.6494 102.057 17.7739 102 17.8934C102.074 18.1513 102.246 17.712 102.328 17.5973Z" fill="black"/>
<path d="M96.7814 15.1468C96.65 15.0885 96.4992 15.061 96.3477 15.0676H96.3064C96.3347 15.0355 96.367 15.0054 96.4028 14.978C96.4792 14.8943 96.5373 14.8016 96.5749 14.7036C96.6078 14.6431 96.6287 14.579 96.6368 14.5137C96.6536 14.3866 96.6096 14.2591 96.5129 14.155C96.4705 14.1129 96.4177 14.0778 96.3574 14.0515C96.2971 14.0252 96.2306 14.0084 96.1618 14.002C96.1206 13.9993 96.0791 13.9993 96.0379 14.002H95.9208C95.8096 14.0133 95.7027 14.042 95.6067 14.0865C95.5107 14.131 95.4278 14.1902 95.3632 14.2605C95.332 14.3055 95.3205 14.3569 95.3305 14.4073C95.3404 14.4576 95.3711 14.5042 95.4182 14.5401C95.4908 14.5831 95.5758 14.612 95.6661 14.6245C95.7349 14.6245 95.8038 14.577 95.7831 14.5243C95.7625 14.4715 95.7349 14.4715 95.7212 14.4504C95.6976 14.4277 95.6832 14.4002 95.6799 14.3713C95.6799 14.3133 95.8382 14.2552 95.9139 14.2394C95.9782 14.2317 96.0438 14.2364 96.1051 14.2529C96.1664 14.2695 96.2214 14.2975 96.2651 14.3344C96.2912 14.3663 96.3076 14.4024 96.3133 14.4399C96.3171 14.5152 96.3015 14.5903 96.2672 14.6609C96.233 14.7316 96.1807 14.7963 96.1136 14.8514C96.0339 14.9236 95.9489 14.9923 95.8589 15.0571C95.8393 15.0756 95.8161 15.0916 95.79 15.1046L95.5284 15.1837L95.3838 15.247C95.315 15.2892 95.2324 15.2945 95.2117 15.3631C95.2055 15.3847 95.2107 15.4074 95.2262 15.4262C95.2416 15.4449 95.2661 15.4583 95.2943 15.4633C95.3362 15.4765 95.3832 15.4765 95.4251 15.4633C95.4251 15.4633 95.4733 15.4633 95.5009 15.4633C95.5582 15.4418 95.6135 15.4172 95.6661 15.3894L95.8795 15.3261C96.0494 15.2728 96.234 15.2529 96.4165 15.2681C96.6299 15.2998 96.6024 15.5424 96.568 15.6532C96.5584 15.695 96.5422 15.7357 96.5198 15.7746C96.5198 15.8115 96.4509 15.8379 96.4303 15.8695C96.4096 15.9012 96.3752 15.9592 96.3477 16.0014L96.1136 16.2652C96.0474 16.3299 95.9736 16.39 95.8933 16.4445C95.8313 16.492 95.7762 16.5553 95.7143 16.6028C95.6523 16.6503 95.5009 16.7505 95.4045 16.8244C95.3081 16.8982 95.253 16.951 95.1635 17.0037C95.074 17.0565 94.9088 17.1937 94.7642 17.2781C94.6196 17.3625 94.6472 17.3255 94.5921 17.3572C94.4891 17.436 94.3761 17.5067 94.2547 17.5682C94.1239 17.6315 94 17.7106 94 17.8267C94 17.9428 94.1859 17.9639 94.3236 17.9955C94.3883 18.0036 94.4545 18.0007 94.5175 17.987C94.5806 17.9734 94.6389 17.9492 94.6885 17.9164C94.7849 17.8636 94.8744 17.8003 94.9707 17.7529L95.0671 17.7054C95.1084 17.7054 95.136 17.6421 95.1704 17.6157C95.2048 17.5893 95.2599 17.5629 95.3012 17.5366C95.3649 17.5017 95.4227 17.461 95.4733 17.4152C95.5215 17.373 95.5766 17.3414 95.6248 17.2992C95.673 17.257 95.8107 17.1673 95.8933 17.0934C95.9759 17.0196 96.1274 16.8771 96.2375 16.7611C96.3477 16.645 96.4441 16.5184 96.5542 16.4023C96.6399 16.3049 96.7158 16.2026 96.7814 16.0964C96.7814 16.0489 96.8571 16.0014 96.8847 15.9539C96.948 15.8438 96.9853 15.7259 96.9948 15.6057C97.0017 15.5602 97.0017 15.5141 96.9948 15.4686C96.981 15.3441 96.9045 15.2287 96.7814 15.1468V15.1468Z" fill="black"/>
<path d="M98.1663 17.332C98.0663 17.332 97.9597 17.4743 97.8464 17.4585C97.8025 17.4499 97.7599 17.434 97.7198 17.4111C97.6331 17.4111 97.6265 17.2767 97.6398 17.1977C97.6581 17.1025 97.6896 17.0117 97.7331 16.9289C97.7672 16.8632 97.8075 16.8022 97.8531 16.7471C97.9426 16.6377 98.0433 16.5421 98.153 16.4625C98.3171 16.3296 98.5079 16.2505 98.7061 16.2333C98.7394 16.2345 98.7719 16.2452 98.8009 16.2645C98.8299 16.2837 98.8545 16.311 98.8727 16.344C98.8727 16.344 98.9194 16.4705 98.9527 16.4705H98.9927C98.9965 16.439 98.9965 16.4071 98.9927 16.3756V16.3282C98.9927 16.3282 98.9927 16.3282 98.9927 16.2728C99.0024 16.2423 99.0024 16.2086 98.9927 16.178C98.9927 16.178 98.9927 16.1306 98.9461 16.1069C98.8925 16.0705 98.8368 16.0388 98.7794 16.012C98.7157 15.996 98.6499 15.996 98.5862 16.012C98.4642 16.023 98.3435 16.0495 98.2263 16.091C97.958 16.1991 97.7128 16.3753 97.5079 16.6074C97.303 16.8395 97.1433 17.1219 97.04 17.4348C97.0137 17.4946 97 17.561 97 17.6284C97 17.6959 97.0137 17.7623 97.04 17.8221C97.131 17.9273 97.2528 17.9868 97.3799 17.9881C97.4883 18.004 97.598 18.004 97.7065 17.9881L97.8931 17.909C97.9433 17.8805 97.9922 17.8488 98.0397 17.8142C98.0925 17.7917 98.1406 17.7561 98.1808 17.7098C98.2211 17.6634 98.2525 17.6074 98.2729 17.5454C98.2729 17.498 98.3129 17.4269 98.2729 17.3874C98.233 17.3478 98.213 17.332 98.1663 17.332Z" fill="black"/>
<path d="M101.923 17.8833C101.923 17.8833 101.982 17.6545 101.982 17.6069C101.982 17.5592 102.049 17.1494 101.923 17.0827C101.923 16.8921 101.52 17.0827 101.436 17.1399C101.235 17.2606 101.08 17.4606 101 17.7022C101 17.9404 101.134 18.0357 101.319 17.9881C101.504 17.9404 101.604 17.7975 101.764 17.7212C101.923 17.645 101.839 17.9595 101.923 17.8833ZM101.571 17.5878C101.529 17.5878 101.378 17.7594 101.344 17.5878C101.311 17.4163 101.462 17.3877 101.512 17.3591C101.562 17.3305 101.688 17.3591 101.739 17.2447C101.739 17.2924 101.739 17.3782 101.68 17.4163C101.659 17.484 101.621 17.5435 101.571 17.5878V17.5878Z" fill="black"/>
<path d="M100.933 17.1475C100.89 17.1191 100.841 17.106 100.792 17.1098V17.0816C100.792 17.0816 100.85 16.9873 100.792 17.0014C100.734 17.0156 100.75 17.0014 100.705 17.0014C100.659 17.0014 100.634 17.0486 100.605 17.0816C100.576 17.1146 100.435 17.0816 100.443 17.1287C100.451 17.1758 100.489 17.1664 100.497 17.1711H100.534L100.435 17.3314C100.435 17.3691 100.41 17.3879 100.385 17.4303L100.348 17.4963C100.348 17.4963 100.327 17.4963 100.319 17.4963C100.317 17.5073 100.317 17.5184 100.319 17.5293C100.298 17.5811 100.273 17.6283 100.252 17.6754L100.128 18.0289L100.086 18.1938C100.042 18.3789 100.015 18.5683 100.003 18.7594C99.999 18.8048 99.999 18.8506 100.003 18.8961C100.003 18.8961 100.003 18.9951 100.028 18.9998C100.053 19.0045 100.061 18.9338 100.061 18.9149C100.061 18.8961 100.094 18.585 100.103 18.5473C100.111 18.5096 100.128 18.4248 100.14 18.3777C100.153 18.3305 100.182 18.2363 100.202 18.1609C100.223 18.0854 100.26 18.0147 100.294 17.9252C100.327 17.8357 100.377 17.7461 100.393 17.7084C100.405 17.6789 100.419 17.6505 100.435 17.6236H100.464C100.511 17.6307 100.558 17.6307 100.605 17.6236C100.654 17.6218 100.702 17.6073 100.746 17.5811C100.796 17.5573 100.843 17.5238 100.883 17.4822C100.934 17.4262 100.971 17.3564 100.991 17.2795C100.997 17.2689 101 17.2567 101 17.2442C101 17.2316 100.997 17.2194 100.991 17.2088C100.977 17.183 100.957 17.1618 100.933 17.1475V17.1475ZM100.792 17.3926C100.74 17.4581 100.669 17.5014 100.592 17.5152H100.493C100.541 17.4291 100.596 17.3471 100.655 17.2701L100.713 17.1947C100.735 17.1876 100.758 17.1876 100.779 17.1947C100.808 17.1947 100.821 17.223 100.825 17.2654C100.83 17.288 100.83 17.3119 100.824 17.3343C100.818 17.3568 100.807 17.3769 100.792 17.3926Z" fill="black"/>
<path d="M103.964 17C103.964 17 103.929 17.0395 103.905 17.0734C103.785 17.2905 103.643 17.4966 103.483 17.6888C103.483 17.655 103.429 17.6098 103.412 17.5872C103.382 17.5431 103.363 17.4927 103.358 17.4404C103.352 17.3897 103.352 17.3386 103.358 17.288C103.36 17.2653 103.356 17.2425 103.348 17.2211C103.34 17.1997 103.327 17.1802 103.311 17.1637V17.1637C103.306 17.1589 103.301 17.1551 103.295 17.1524C103.288 17.1498 103.282 17.1484 103.275 17.1484C103.268 17.1484 103.262 17.1498 103.255 17.1524C103.249 17.1551 103.244 17.1589 103.239 17.1637C103.204 17.192 103.239 17.2597 103.204 17.2993C103.183 17.3424 103.169 17.388 103.162 17.4348C103.156 17.4722 103.156 17.5102 103.162 17.5477C103.167 17.5803 103.184 17.6103 103.21 17.6324C103.235 17.6579 103.265 17.6789 103.299 17.6945C103.338 17.7036 103.379 17.7036 103.418 17.6945L103.305 17.8187C102.934 18.1677 102.536 18.4904 102.116 18.7842C101.955 18.9028 101.967 18.9423 102.116 18.9818C102.265 19.0213 102.33 19.0326 102.823 18.6205C103.282 18.2499 103.655 17.7921 103.917 17.2767C104.018 17.1468 104.018 17.0282 103.964 17Z" fill="black"/>
<path d="M99.2004 14.5331C99.1441 14.4997 99.0826 14.4833 99.0207 14.4852C98.9641 14.492 98.9088 14.5105 98.8568 14.54C98.7699 14.6091 98.69 14.6918 98.6188 14.7864C98.5666 14.8492 98.5029 14.894 98.4338 14.9164C98.444 14.7823 98.4745 14.652 98.5237 14.5331C98.5545 14.428 98.5898 14.3252 98.6294 14.2251C98.6558 14.1772 98.6664 14.1362 98.6876 14.0951C98.8303 13.9856 98.9678 13.8898 99.1211 13.7871C99.1937 13.7331 99.2698 13.6873 99.3485 13.6502C99.4225 13.616 99.5018 13.5612 99.5811 13.527L99.7662 13.4244C99.9301 13.3559 100.031 13.3354 100.157 13.2875C100.284 13.2396 100.379 13.219 100.501 13.1848C100.623 13.1506 100.633 13.1437 100.702 13.1369C100.771 13.13 101.025 13.1369 100.998 13.0821C100.972 13.0274 100.776 13 100.734 13C100.591 13 100.427 13 100.311 13C100.11 13.0318 99.9118 13.0868 99.7186 13.1643C99.494 13.2412 99.2747 13.3419 99.063 13.4654L98.9572 13.5202C98.9942 13.4107 98.9572 13.3764 98.8568 13.3422C98.788 13.3422 98.714 13.397 98.677 13.4723L98.5924 13.6571C98.5759 13.6835 98.5633 13.7137 98.5554 13.746L98.402 13.8487C98.3042 13.9125 98.2135 13.9931 98.1324 14.0883C98.0848 14.1567 97.9949 14.2799 98.0002 14.3826C98.0055 14.4852 98.0002 14.4989 98.0901 14.5126C98.18 14.5263 98.18 14.4578 98.2223 14.4168C98.2646 14.3757 98.3175 14.3278 98.3703 14.2936L98.3386 14.3894C98.3178 14.4541 98.3002 14.5204 98.2857 14.5879C98.2487 14.7248 98.2117 14.7727 98.2223 14.9164C98.2223 15.2107 98.4972 15.2655 98.6981 15.0533C98.7404 15.0122 98.7404 14.9643 98.788 14.9233C98.8356 14.8822 98.9096 14.8617 98.9413 14.9233C98.9731 14.9849 98.9043 15.2381 98.8726 15.3339C98.8092 15.5039 98.7293 15.6626 98.6347 15.8062C98.5818 15.8883 98.6347 16.0184 98.788 15.9978C98.9413 15.9773 98.9731 15.813 99.0101 15.7377C99.0896 15.591 99.1553 15.4324 99.2057 15.2655C99.2402 15.1337 99.2667 14.9987 99.285 14.8617C99.3009 14.7864 99.3062 14.5742 99.2004 14.5331Z" fill="black"/>
<path d="M114.635 18.6604C113.983 18.1335 113.281 18.7018 112.858 19.0216C112.641 19.1873 112.526 19.14 112.453 19.0571C112.381 18.9742 112.29 18.8143 112.091 18.7966C111.589 18.7492 111.486 19.1814 111.136 19.6728C110.895 20.0097 110.535 20.2482 110.127 20.3432C109.718 20.4381 109.288 20.3829 108.918 20.1879C108.517 19.9518 108.205 19.5944 108.029 19.1696C110.447 18.9683 112.26 18.1867 112.562 16.1678C112.864 14.1488 110.513 13.5331 108.863 14.3501C108.213 14.7059 107.7 15.2619 107.405 15.932C107.11 16.6021 107.049 17.3489 107.231 18.0565C107.346 18.021 107.552 17.9795 107.703 17.9321C107.703 16.5053 108.247 15.9724 108.954 15.7178C110.09 15.3093 110.894 16.0671 110.356 16.8664C109.51 18.1098 107.147 18.4295 105.533 18.7018C104.324 18.9091 102.215 19.1044 101 20.4011C101.429 20.1346 101.895 19.9156 103.968 19.6195C106.041 19.3235 106.301 19.4182 107.558 19.2406C107.987 20.3774 109.178 22.4852 112.278 21.899C114.279 21.5201 114.931 20.484 114.992 19.6728C115.013 19.4887 114.992 19.3022 114.931 19.1271C114.869 18.9519 114.768 18.7925 114.635 18.6604V18.6604Z" fill="black"/>
<path d="M127.61 17C127.378 16.5214 127.214 16.0134 127.12 15.49C127.003 14.8973 126.946 14.2942 126.95 13.69V12.54H125.35V13.79C125.351 14.3501 125.301 14.9091 125.2 15.46C125.124 15.957 124.972 16.4393 124.75 16.89C124.486 17.4116 124.149 17.8931 123.75 18.32C123.302 18.8177 122.802 19.2669 122.26 19.66L123.26 20.66C123.518 20.4526 123.765 20.2323 124 20C124.311 19.7289 124.608 19.4418 124.89 19.14C125.14 18.8919 125.374 18.628 125.59 18.35C125.77 18.116 125.937 17.8723 126.09 17.62C126.099 17.6135 126.109 17.61 126.12 17.61C126.131 17.61 126.141 17.6135 126.15 17.62C126.159 17.6148 126.169 17.612 126.18 17.612C126.191 17.612 126.201 17.6148 126.21 17.62C126.365 17.8976 126.542 18.1618 126.74 18.41C126.97 18.6921 127.213 18.9624 127.47 19.22C127.73 19.47 128 19.71 128.28 19.93C128.507 20.1171 128.748 20.2875 129 20.44L129.88 19.44C129.393 19.1179 128.94 18.7459 128.53 18.33C128.162 17.9322 127.853 17.4844 127.61 17V17Z" fill="black"/>
<path d="M132.38 15.88C132.38 15.88 132.31 15.88 132.31 15.82V12H130.8V23.6H132.31V17.25C132.31 17.2314 132.317 17.2136 132.33 17.2005C132.344 17.1874 132.361 17.18 132.38 17.18H134.13V15.88H132.38Z" fill="black"/>
<path d="M144.14 12V23.52H145.65V12H144.14Z" fill="black"/>
<path d="M140.27 20.19H140.22V20.14V19.2C140.216 19.1907 140.213 19.1804 140.213 19.17C140.213 19.1597 140.216 19.1494 140.22 19.14C140.792 18.9479 141.286 18.5761 141.63 18.08C141.982 17.5762 142.167 16.9747 142.16 16.36C142.161 15.9963 142.089 15.636 141.95 15.3C141.811 14.9771 141.615 14.6822 141.37 14.43V14.43C141.379 14.4235 141.389 14.42 141.4 14.42C141.411 14.42 141.421 14.4235 141.43 14.43H142.67V13H140.2C140.182 12.9979 140.166 12.9899 140.153 12.9772C140.14 12.9645 140.132 12.9479 140.13 12.93V11.54H138.55V13C138.548 13.0179 138.54 13.0345 138.527 13.0472C138.514 13.0599 138.498 13.0679 138.48 13.07H135.85V14.3H137.16C137.169 14.2935 137.179 14.29 137.19 14.29C137.201 14.29 137.211 14.2935 137.22 14.3C136.984 14.5554 136.795 14.8498 136.66 15.17C136.521 15.506 136.449 15.8663 136.45 16.23C136.443 16.8848 136.65 17.524 137.04 18.05C137.421 18.5481 137.961 18.9009 138.57 19.05C138.586 19.05 138.601 19.0564 138.612 19.0676C138.624 19.0789 138.63 19.0941 138.63 19.11V20.11C138.628 20.1268 138.619 20.1422 138.606 20.1532C138.593 20.1642 138.577 20.1702 138.56 20.17H137.95H135.37V21.44H137.88C138.82 21.44 139.88 21.38 141.02 21.31C142.16 21.24 143.02 21.15 143.52 21.07V19.92L142.14 20.05L140.27 20.19ZM138.27 17.45C137.968 17.1438 137.799 16.7304 137.8 16.3C137.797 15.8634 137.966 15.443 138.27 15.13C138.395 14.9773 138.552 14.8543 138.73 14.7698C138.908 14.6853 139.103 14.6415 139.3 14.6415C139.497 14.6415 139.692 14.6853 139.87 14.7698C140.048 14.8543 140.205 14.9773 140.33 15.13C140.625 15.4474 140.787 15.8666 140.78 16.3C140.785 16.7272 140.623 17.1394 140.33 17.45C140.205 17.6027 140.048 17.7258 139.87 17.8103C139.692 17.8948 139.497 17.9386 139.3 17.9386C139.103 17.9386 138.908 17.8948 138.73 17.8103C138.552 17.7258 138.395 17.6027 138.27 17.45V17.45Z" fill="black"/>
<path d="M150.76 22H156.3C156.319 22 156.336 22.0074 156.35 22.0205C156.363 22.0337 156.37 22.0515 156.37 22.07V24.9H157.91V20.67H150.76V22Z" fill="black"/>
<path d="M151.28 17C151.289 16.9956 151.3 16.9933 151.31 16.9933C151.32 16.9933 151.331 16.9956 151.34 17C151.351 16.9954 151.363 16.993 151.375 16.993C151.387 16.993 151.399 16.9954 151.41 17C151.533 17.2018 151.677 17.3896 151.84 17.56C152.043 17.7873 152.264 17.998 152.5 18.19C152.757 18.4158 153.035 18.6167 153.33 18.79C153.637 18.97 153.917 19.12 154.17 19.24L154.93 18.18C154.559 17.9738 154.201 17.7433 153.86 17.49C153.516 17.2421 153.204 16.9533 152.93 16.63C152.684 16.3286 152.485 15.9914 152.34 15.63C152.182 15.2184 152.1 14.7811 152.1 14.34V13.92C152.1 13.9031 152.106 13.8866 152.117 13.8738C152.128 13.8609 152.143 13.8525 152.16 13.85H154.39V12.54H148.17V13.84H150.4C150.409 13.84 150.418 13.8418 150.427 13.8454C150.435 13.8489 150.443 13.854 150.449 13.8605C150.456 13.867 150.461 13.8748 150.465 13.8833C150.468 13.8917 150.47 13.9008 150.47 13.91V14.36C150.465 14.7932 150.387 15.2225 150.24 15.63C150.097 16.0224 149.906 16.3953 149.67 16.74C149.384 17.1382 149.048 17.4979 148.67 17.81C148.329 18.0959 147.961 18.3471 147.57 18.56L148.57 19.56C148.83 19.4 149.11 19.22 149.4 19C149.722 18.7591 150.026 18.4951 150.31 18.21C150.59 17.92 150.8 17.67 150.95 17.48C151.077 17.3327 151.188 17.1717 151.28 17V17Z" fill="black"/>
<path d="M156.45 11.9401V14.9401C156.45 14.9586 156.443 14.9764 156.43 14.9896C156.416 15.0027 156.399 15.0101 156.38 15.0101H154V16.3101H156.37C156.389 16.3101 156.406 16.3174 156.419 16.3306C156.433 16.3437 156.44 16.3615 156.44 16.3801V19.8401H158V11.9401H156.45Z" fill="black"/>
<path d="M168.51 12V23.57H170.05V12H168.51Z" fill="black"/>
<path d="M160.89 14.05H164.69H164.75C164.686 14.6528 164.513 15.239 164.24 15.78C163.943 16.3424 163.57 16.8608 163.13 17.32C162.68 17.7985 162.181 18.2276 161.64 18.6C161.141 18.9538 160.608 19.2585 160.05 19.51L161.05 20.51C161.834 20.1479 162.572 19.6948 163.25 19.16C164.566 18.1397 165.542 16.7453 166.05 15.16C166.317 14.3383 166.469 13.4834 166.5 12.62H160.89V14.05Z" fill="black"/>
<path d="M177.4 17.89C177.998 17.2555 178.331 16.4167 178.331 15.545C178.331 14.6733 177.998 13.8345 177.4 13.2C177.115 12.8811 176.765 12.6269 176.373 12.4544C175.982 12.2819 175.558 12.1952 175.13 12.2C174.702 12.1952 174.278 12.2819 173.887 12.4544C173.495 12.6269 173.145 12.8811 172.86 13.2C172.557 13.5086 172.319 13.8745 172.159 14.2763C171.999 14.6781 171.922 15.1077 171.93 15.54C171.922 15.9737 172.001 16.4046 172.16 16.8079C172.32 17.2112 172.558 17.579 172.86 17.89C173.149 18.2045 173.5 18.4557 173.89 18.6278C174.281 18.7999 174.703 18.8892 175.13 18.89C175.557 18.8917 175.98 18.8035 176.371 18.6312C176.762 18.4589 177.113 18.2064 177.4 17.89V17.89ZM173.96 16.89C173.635 16.5046 173.461 16.0142 173.47 15.51C173.456 15.008 173.63 14.519 173.96 14.14C174.099 13.9632 174.277 13.8202 174.48 13.722C174.682 13.6237 174.905 13.5726 175.13 13.5726C175.355 13.5726 175.578 13.6237 175.78 13.722C175.983 13.8202 176.161 13.9632 176.3 14.14C176.63 14.519 176.804 15.008 176.79 15.51C176.807 16.0154 176.632 16.5085 176.3 16.89C176.159 17.0652 175.981 17.2066 175.779 17.3038C175.576 17.4009 175.355 17.4514 175.13 17.4514C174.905 17.4514 174.684 17.4009 174.481 17.3038C174.279 17.2066 174.101 17.0652 173.96 16.89V16.89Z" fill="black"/>
<path d="M180.41 20.9401C180.41 20.9586 180.403 20.9764 180.389 20.9896C180.376 21.0027 180.359 21.0101 180.34 21.0101H176.62C176.603 21.0076 176.588 20.9992 176.577 20.9863C176.566 20.9735 176.56 20.957 176.56 20.9401V19.8101H175V24.5801H182V19.8101H180.46L180.41 20.9401ZM180.41 23.2301C180.41 23.2486 180.403 23.2664 180.389 23.2796C180.376 23.2927 180.359 23.3001 180.34 23.3001H176.62C176.603 23.2976 176.588 23.2892 176.577 23.2763C176.566 23.2635 176.56 23.247 176.56 23.2301V22.3301C176.56 22.3131 176.566 22.2967 176.577 22.2838C176.588 22.2709 176.603 22.2625 176.62 22.2601H180.34C180.359 22.2601 180.376 22.2674 180.389 22.2806C180.403 22.2937 180.41 22.3115 180.41 22.3301V23.2301Z" fill="black"/>
<path d="M180.55 11.9401V14.7901C180.548 14.8068 180.539 14.8222 180.526 14.8332C180.513 14.8443 180.497 14.8502 180.48 14.8501H178.89V16.1801H180.48C180.499 16.1801 180.516 16.1874 180.53 16.2006C180.543 16.2137 180.55 16.2315 180.55 16.2501V19.2501H182.08V11.9401H180.55Z" fill="black"/>
</svg>
