<svg xmlns="http://www.w3.org/2000/svg" viewBox="0 0 170.08 29.54"><defs><style>.cls-1{fill:#231815;}</style></defs><g id="Layer_2" data-name="Layer 2"><g id="레이어_1" data-name="레이어 1"><path class="cls-1" d="M53.36,13c-3.17,0-5,.87-7.34,3.35a15.38,15.38,0,0,1-10,5.25,35.91,35.91,0,0,0-7.17,1.68c-.16.07-.19.19,0,.15a28.93,28.93,0,0,1,5.25-.59s2-.08,4.45-.07c13.34,0,17-9.8,17-9.77Z"/><path class="cls-1" d="M36,20.92a40,40,0,0,0-8.63-.23,17.82,17.82,0,0,0-12.19,5.59h2.92c3.23,0,4.77-.41,6.65-1.61A22.78,22.78,0,0,1,35,21.2C36.84,21,36.32,21,36,20.92Z"/><path class="cls-1" d="M24,10.2l-2.44.33-.21,1.05h-.78l-.27,1.33h.78L20.48,16a5.73,5.73,0,0,0-.15,1c0,.9.66,1.42,1.76,1.42a6.41,6.41,0,0,0,1.76-.3l.29-1.46a1.36,1.36,0,0,1-.73.28c-.37,0-.54-.25-.54-.65a3.16,3.16,0,0,1,.06-.64l.54-2.74h1.15l.27-1.33H23.74Z"/><path class="cls-1" d="M14.82,11.58,12.7,15.84l-.2-4.26h-2L8.4,15.82l-.16-4.24H6.16l.25,6.69H8a1.19,1.19,0,0,0,1.11-.76l1.61-3.28h0l.17,4h1.54a1.18,1.18,0,0,0,1.11-.76l3-5.93Z"/><path class="cls-1" d="M16,18.27h1.58a.92.92,0,0,0,1-.81l1.17-5.88H17.28Z"/><path class="cls-1" d="M17.46,10.68h1.47A1,1,0,0,0,20,9.87l.21-1.12H17.84Z"/><path class="cls-1" d="M31.25,11.43c-1.18,0-2.43,1.37-3.07,2.48l1.08-5.16H26.89L25,18.27h1.59a.92.92,0,0,0,1-.81l.25-1.28c.24-.48,1.69-2.64,2.13-2.64.11,0,.13.13.13.2a2.79,2.79,0,0,1-.06.33l-.83,4.2h1.58a.92.92,0,0,0,1-.81l.74-3.67a5.3,5.3,0,0,0,.14-1A1.3,1.3,0,0,0,31.25,11.43Z"/><path class="cls-1" d="M40.58,12.48l.74-3.73H39l-.75,3.73H34.66l-.41,2h3.56l-.76,3.81h1.58a.92.92,0,0,0,1-.81l.6-3h3.62l.41-2Z"/><path class="cls-1" d="M2.21,2.87H1.49a1,1,0,0,0,.25.69,1.83,1.83,0,0,0,.65.49l-.28.32A2.21,2.21,0,0,1,1.57,4a1.19,1.19,0,0,1-.33-.47,1.35,1.35,0,0,1-.15.26A1.21,1.21,0,0,1,.88,4a2.75,2.75,0,0,1-.26.22,1.64,1.64,0,0,1-.29.16L0,4.14a2.07,2.07,0,0,0,.7-.55A1.19,1.19,0,0,0,1,2.87H.24V2.45h2Zm.92,2.58A.74.74,0,0,1,3,5.81a.89.89,0,0,1-.22.29,1.27,1.27,0,0,1-.34.2,1.34,1.34,0,0,1-.4.07,1.42,1.42,0,0,1-.42-.07,1.38,1.38,0,0,1-.33-.2.89.89,0,0,1-.22-.29A.74.74,0,0,1,1,5.45a.73.73,0,0,1,.09-.35.89.89,0,0,1,.22-.29,1.38,1.38,0,0,1,.33-.2,1.16,1.16,0,0,1,.42-.07,1.09,1.09,0,0,1,.4.07,1.27,1.27,0,0,1,.34.2A.89.89,0,0,1,3,5.1.73.73,0,0,1,3.13,5.45Zm-.5,0a.41.41,0,0,0,0-.19.52.52,0,0,0-.12-.17A.54.54,0,0,0,2.29,5a.52.52,0,0,0-.21,0,.54.54,0,0,0-.22,0,.54.54,0,0,0-.18.11.52.52,0,0,0-.12.17.41.41,0,0,0,0,.19.45.45,0,0,0,0,.2.66.66,0,0,0,.12.17.78.78,0,0,0,.18.11.78.78,0,0,0,.22,0,.78.78,0,0,0,.21,0,.78.78,0,0,0,.18-.11.66.66,0,0,0,.12-.17A.45.45,0,0,0,2.63,5.45ZM3.75,3.54H3.23v1H2.75V2.29h.48v.83h.52Z"/><path class="cls-1" d="M6,3.75a1.26,1.26,0,0,1-.08.43,1.52,1.52,0,0,1-.2.38,1.26,1.26,0,0,1-.32.25.91.91,0,0,1-.81,0,1.26,1.26,0,0,1-.32-.25,1.46,1.46,0,0,1-.2-.37A1.33,1.33,0,0,1,4,3.75a1.33,1.33,0,0,1,.07-.45,1.31,1.31,0,0,1,.2-.37,1.07,1.07,0,0,1,.32-.25A.83.83,0,0,1,5,2.58a1,1,0,0,1,.4.1,1.31,1.31,0,0,1,.32.26,1.46,1.46,0,0,1,.2.37A1.32,1.32,0,0,1,6,3.75Zm-.46,0a.92.92,0,0,0,0-.29.9.9,0,0,0-.12-.24.85.85,0,0,0-.17-.16A.42.42,0,0,0,5,3a.43.43,0,0,0-.22.06.85.85,0,0,0-.17.16.88.88,0,0,0-.11.24.92.92,0,0,0,0,.29.92.92,0,0,0,0,.29.7.7,0,0,0,.11.23.64.64,0,0,0,.17.16A.43.43,0,0,0,5,4.49a.42.42,0,0,0,.21-.06.64.64,0,0,0,.17-.16A.71.71,0,0,0,5.48,4,.92.92,0,0,0,5.52,3.75ZM7.05,4H6.67v2.1H6.22V2.36h.45V3.54h.38V2.29h.46v4H7.05Z"/><path class="cls-1" d="M10.14,3.39a1,1,0,0,1-.08.38.94.94,0,0,1-.23.32,1.21,1.21,0,0,1-.32.22,1.09,1.09,0,0,1-.4.07,1.05,1.05,0,0,1-.4-.07,1.12,1.12,0,0,1-.33-.22.91.91,0,0,1-.22-.32,1,1,0,0,1-.08-.38,1,1,0,0,1,.3-.71.93.93,0,0,1,.33-.21.9.9,0,0,1,.4-.08.92.92,0,0,1,.4.08,1,1,0,0,1,.32.21,1,1,0,0,1,.23.32A1,1,0,0,1,10.14,3.39Zm-.47,0A.57.57,0,0,0,9.5,3a.5.5,0,0,0-.39-.17.52.52,0,0,0-.4.17.6.6,0,0,0-.16.41.58.58,0,0,0,.16.4.52.52,0,0,0,.4.17.5.5,0,0,0,.39-.17A.54.54,0,0,0,9.67,3.39Zm1.65,2.78H8.87V4.84h.49v.92h2Zm-.07-1.11h-.48V2.29h.48Z"/><path class="cls-1" d="M15,2.91h-.42l0,1h.52v.41h-.6v.88h1v.42H11.88V5.25h1V4.37h-.61V4h.51l0-1h-.4V2.49H15Zm-.9,0h-.86l0,1h.82Zm-.09,1.46h-.66v.88h.66Z"/><path class="cls-1" d="M19.49,4.67H18v.68h-.5V4.67H15.84V4.26h3.65ZM19,2.83H18a1,1,0,0,0,.44.53,2.67,2.67,0,0,0,.79.32L18.92,4l-.4-.13-.35-.18a1.82,1.82,0,0,1-.3-.23,1.05,1.05,0,0,1-.2-.27,1.25,1.25,0,0,1-.48.49,2.45,2.45,0,0,1-.76.32l-.26-.34A2.5,2.5,0,0,0,17,3.36a1,1,0,0,0,.44-.53h-1v-.4H19Zm.13,3.33H16.45V5h.48v.75h2.15Z"/><path class="cls-1" d="M22.14,5l-.34.3-.26-.21c-.08-.09-.17-.18-.24-.27s-.14-.2-.2-.3A1.17,1.17,0,0,1,21,4.22a2.36,2.36,0,0,1-.34.58,2.31,2.31,0,0,1-.55.53L19.71,5a2.89,2.89,0,0,0,.48-.42,2.19,2.19,0,0,0,.31-.46,1.76,1.76,0,0,0,.16-.49,3.19,3.19,0,0,0,.05-.54V2.5h.51v.62a2.61,2.61,0,0,0,.2,1A2.17,2.17,0,0,0,22.14,5Zm1.39-.84H23V6.25h-.48v-4H23V3.7h.54Z"/><path class="cls-1" d="M27.07,4.38H26.6V3.54h-.66a1.2,1.2,0,0,1-.13.31,1,1,0,0,1-.23.24,1,1,0,0,1-.29.16,1.21,1.21,0,0,1-.75,0A.89.89,0,0,1,24.22,4a.86.86,0,0,1-.23-.3,1,1,0,0,1-.08-.38A.91.91,0,0,1,24,3a1,1,0,0,1,.23-.31,1,1,0,0,1,.72-.28,1,1,0,0,1,.34.06.73.73,0,0,1,.29.15,1.25,1.25,0,0,1,.23.23,1,1,0,0,1,.13.3h.67V2.29h.47Zm-1.58-1a.52.52,0,0,0,0-.21A.94.94,0,0,0,25.33,3a.54.54,0,0,0-.18-.11.54.54,0,0,0-.21,0,.54.54,0,0,0-.22,0,.62.62,0,0,0-.17.11.94.94,0,0,0-.12.18.52.52,0,0,0,0,.21.46.46,0,0,0,0,.21.57.57,0,0,0,.12.18.66.66,0,0,0,.17.12.54.54,0,0,0,.22,0,.52.52,0,0,0,.21,0,.55.55,0,0,0,.3-.3A.46.46,0,0,0,25.49,3.34Zm1.57,2.87H24.7V4.61h.49V5h1.38V4.61h.49Zm-.49-.41V5.41H25.19V5.8Z"/><path class="cls-1" d="M29.91,2.87h-.72a1,1,0,0,0,.25.69,1.83,1.83,0,0,0,.65.49l-.28.32A2.21,2.21,0,0,1,29.27,4a1.19,1.19,0,0,1-.33-.47,1.35,1.35,0,0,1-.15.26,1.59,1.59,0,0,1-.2.24l-.27.22a2,2,0,0,1-.28.16l-.34-.28a2.07,2.07,0,0,0,.7-.55,1.19,1.19,0,0,0,.27-.72h-.73V2.45h2Zm.92,2.58a.74.74,0,0,1-.09.36.89.89,0,0,1-.22.29,1.27,1.27,0,0,1-.34.2,1.21,1.21,0,0,1-.81,0A1.27,1.27,0,0,1,29,6.1a.89.89,0,0,1-.22-.29.73.73,0,0,1-.08-.36.72.72,0,0,1,.08-.35A.89.89,0,0,1,29,4.81a1.27,1.27,0,0,1,.34-.2,1.07,1.07,0,0,1,.41-.07,1.05,1.05,0,0,1,.4.07,1.27,1.27,0,0,1,.34.2.89.89,0,0,1,.22.29A.73.73,0,0,1,30.83,5.45Zm-.5,0a.41.41,0,0,0,0-.19.52.52,0,0,0-.12-.17A.54.54,0,0,0,30,5a.52.52,0,0,0-.21,0,.54.54,0,0,0-.22,0,.54.54,0,0,0-.18.11.52.52,0,0,0-.12.17.41.41,0,0,0,0,.19.45.45,0,0,0,0,.2.66.66,0,0,0,.12.17.59.59,0,0,0,.79,0,.66.66,0,0,0,.12-.17A.45.45,0,0,0,30.33,5.45Zm1.12-1.91h-.52v1h-.48V2.29h.48v.83h.52Z"/><path class="cls-1" d="M90.81,25.54c-5.41,0-9.79.9-9.79,2s4.38,2,9.79,2,9.79-.89,9.79-2S96.21,25.54,90.81,25.54Z"/><path class="cls-1" d="M89.79,7.6A5.48,5.48,0,0,0,85.71.1C80.44-.72,78.12,5,80,8.42s6.67,4.4,6.7,9.82a4.93,4.93,0,0,1-5.07,5c-1.18-.05-2-.58-2.06-1.61-.2-2.27,2.56-2.72,2.56-2.72-2.23-.05-6.2.48-6.75,3.9-.64,4.05,4.3,5.52,8.23,2.7s4.67-7,3.09-11a23.58,23.58,0,0,0-3.46-5.17,3.89,3.89,0,0,1-.83-4.07,3.53,3.53,0,0,1,6.38.07,4.79,4.79,0,0,1,.34,2,1.84,1.84,0,0,0,0,.5.26.26,0,0,0,.49.05C89.73,7.76,89.74,7.74,89.79,7.6Z"/><path class="cls-1" d="M96,.06c-1.39.28-3.07,1.76-3,4.63,0,.34.09.44.18.37a1,1,0,0,0,.09-.14A4.17,4.17,0,0,1,94.9,3.25C96.4,2.39,97.11,3,98,2.12S97.88-.33,96,.06Z"/><path class="cls-1" d="M98.36,6.45a.58.58,0,0,0,.09-.85c-.66-.72-2.21.1-2.79,1.1a.24.24,0,0,0,0,.16s0,.06.14.07a3.31,3.31,0,0,1,1.14.52c.5.29,1.36,1,2,.42A.8.8,0,0,0,98.36,6.45Z"/><polygon class="cls-1" points="79.12 13.75 79.13 13.76 79.14 13.75 79.12 13.75"/><path class="cls-1" d="M71.46,10.94c-.07,0-.19.06-.27.07S71,11,71,10.86l0,.08a1.21,1.21,0,0,0-.11.64c0,.09,0,.21.19.19s.19-.17.24-.24S71.65,11,71.46,10.94Z"/><path class="cls-1" d="M74.49,13.77a.69.69,0,0,1-.19.19c-.09,0-.18.08-.21.17a.12.12,0,0,0,.09.17c.2,0,.32-.14.35-.31v-.05a.34.34,0,0,0,0-.1A.25.25,0,0,0,74.49,13.77Z"/><path class="cls-1" d="M77.57,13.76a.29.29,0,0,0-.16,0l-.14.16a4.4,4.4,0,0,0-.39.52l.24,0a.82.82,0,0,0,.48-.26.27.27,0,0,0,.08-.19C77.67,13.82,77.64,13.8,77.57,13.76Z"/><path class="cls-1" d="M79.13,13.76h0c-.06.1-.18.07-.27.12s-.22.15-.2.24.22,0,.27,0a.4.4,0,0,0,.13-.13S79.15,13.81,79.13,13.76Z"/><polygon class="cls-1" points="79.83 13.51 79.86 13.49 79.86 13.48 79.83 13.51"/><path class="cls-1" d="M71,10.86l0-.06S71.05,10.84,71,10.86Z"/><path class="cls-1" d="M72.44,10.83c0-.11,0-.17-.16-.22a.7.7,0,0,0-.32-.09,1.2,1.2,0,0,0-.61.2c.07-.18.14-.37.2-.55a4.11,4.11,0,0,1,.21-.42c.11-.26.24-.5.37-.75s.23-.4.32-.61.24-.32.34-.51.14-.13.17-.19.21-.26.21-.31-.34.24-.4.3v0a2.09,2.09,0,0,0-.17.14c-.09.11-.17.23-.26.35s-.17.23-.28.36a2.49,2.49,0,0,0-.33.47,5.09,5.09,0,0,1-.32.56,3.13,3.13,0,0,0-.25.48,3,3,0,0,0-.23.56c0,.2-.17.38-.24.58a1.52,1.52,0,0,0-.06.42,1.33,1.33,0,0,0,0,.63.5.5,0,0,0,.57.33,1.72,1.72,0,0,0,.66-.43A1.41,1.41,0,0,0,72.44,10.83Zm-.91,1c0,.08-.13.23-.24.25s-.18-.11-.19-.19a1.21,1.21,0,0,1,.11-.64l0-.08s0,0,0-.06l0,.06c0,.1,0,.15.15.15s.2-.09.27-.07S71.6,11.71,71.53,11.81Z"/><path class="cls-1" d="M80.1,14.08c.08-.06.26-.16.31,0a.41.41,0,0,1,0,.19c0,.05-.08.12-.08.16s.09.08.14.07.12-.07.18-.12a1.42,1.42,0,0,0,.23-.42.36.36,0,0,0,0-.35.57.57,0,0,0-.34-.08.54.54,0,0,0-.29.15c-.07,0-.05,0,0-.1s0-.08-.05-.1a.2.2,0,0,0-.21,0,.86.86,0,0,0,0,.17,2.3,2.3,0,0,1-.1.35,2.76,2.76,0,0,1-.18.39C79.79,14.66,80,14.2,80.1,14.08Z"/><path class="cls-1" d="M70,10.2a1.13,1.13,0,0,0-.63-.15H69.3l.15-.17a1.78,1.78,0,0,0,.25-.52A1.78,1.78,0,0,0,69.79,9a1,1,0,0,0-.18-.68.78.78,0,0,0-.51-.29,1.07,1.07,0,0,0-.18,0h-.17a1.18,1.18,0,0,0-.81.49.45.45,0,0,0,.08.53.83.83,0,0,0,.36.16c.1,0,.2-.09.17-.19s-.07-.1-.09-.14a.28.28,0,0,1-.06-.15c0-.11.23-.22.34-.25a.57.57,0,0,1,.51.18.48.48,0,0,1,.07.2,1.08,1.08,0,0,1-.29.78c-.13.13-.24.27-.37.39a.43.43,0,0,1-.1.09l-.38.15a1.43,1.43,0,0,0-.21.12c-.1.08-.22.09-.25.22a.16.16,0,0,0,.12.19.31.31,0,0,0,.19,0,.2.2,0,0,0,.11,0,1.88,1.88,0,0,0,.24-.14l.31-.12a1.61,1.61,0,0,1,.78-.11c.31.06.27.52.22.73a1,1,0,0,1-.07.23c0,.07-.1.12-.13.18s-.08.17-.12.25-.23.33-.34.5a2.58,2.58,0,0,1-.32.34c-.09.09-.17.21-.25.3s-.32.28-.46.42-.22.24-.35.34-.37.36-.58.52-.17.09-.25.15a3.17,3.17,0,0,1-.49.4c-.19.12-.37.27-.37.49s.27.26.47.32a.65.65,0,0,0,.53-.15c.14-.1.27-.22.41-.31l.14-.09c.06,0,.1-.12.15-.17s.13-.1.19-.15a1.37,1.37,0,0,0,.25-.23c.07-.08.15-.14.22-.22s.27-.25.39-.39.34-.41.5-.63.3-.46.46-.68A6.19,6.19,0,0,0,70,12c0-.09.11-.18.15-.27a1.93,1.93,0,0,0,.16-.66,1.13,1.13,0,0,0,0-.26A.91.91,0,0,0,70,10.2Z"/><path class="cls-1" d="M73.2,14c-.15,0-.31.18-.48.16a.7.7,0,0,1-.19-.06.21.21,0,0,1-.12-.27,1.11,1.11,0,0,1,.14-.34,1.3,1.3,0,0,1,.18-.23,2.3,2.3,0,0,1,.45-.36,1.69,1.69,0,0,1,.83-.29.31.31,0,0,1,.25.14s.07.16.12.16l.06,0a.42.42,0,0,0,0-.12l0-.06s0,0,0-.07a.17.17,0,0,0,0-.12s0-.06-.07-.09a1.92,1.92,0,0,0-.25-.12.7.7,0,0,0-.29,0,2.45,2.45,0,0,0-.54.1,2.92,2.92,0,0,0-1.78,1.7.53.53,0,0,0,0,.49.74.74,0,0,0,.51.21,2,2,0,0,0,.49,0l.28-.1a1.19,1.19,0,0,0,.22-.12.59.59,0,0,0,.35-.34c0-.06.06-.15,0-.2S73.27,14,73.2,14Z"/><path class="cls-1" d="M75.89,14.13c.11-.13.11.08.08.16s-.23.26-.09.29.2-.1.24-.14a1.94,1.94,0,0,0,.29-.61.34.34,0,0,0,0-.26.2.2,0,0,0-.25,0,.41.41,0,0,0-.11.07l0,0,0,0c0-.06-.06-.07-.11-.1s-.31,0-.41.14-.06-.36-.26-.21-.05.15,0,.22a1,1,0,0,1-.09.49.53.53,0,0,0,0,.25c0,.17.2-.1.24-.15l.15-.2c0-.05,0-.07.09-.08s.09.13.06.21-.11.34.06.24S75.79,14.23,75.89,14.13Z"/><path class="cls-1" d="M79.35,14.38a.69.69,0,0,0,.07-.29c0-.13.08-.48-.07-.55l0,0c0-.2-.48,0-.58.06a1.11,1.11,0,0,0-.52.59c0,.25.16.35.38.3s.34-.2.53-.28S79.25,14.46,79.35,14.38Zm-.42-.31c-.05,0-.23.18-.27,0s.14-.21.2-.24.21,0,.27-.12h0c0,.05,0,.14-.07.18A.4.4,0,0,1,78.93,14.07Z"/><path class="cls-1" d="M77.94,13.57a.67.67,0,0,0-.35-.07l0-.06s.14-.2,0-.17-.1,0-.21,0h0c-.12,0-.18.1-.25.17s-.41,0-.39.1.1.08.13.09l.09,0-.24.34c0,.08-.06.12-.12.21l-.09.14-.07,0,0,0,0,.07c-.05.11-.11.21-.16.31l-.3.75-.1.35A6.29,6.29,0,0,0,75.7,17a2.83,2.83,0,0,0,0,.29s0,.21.06.22.08-.14.08-.18.08-.7.1-.78.06-.26.09-.36.1-.3.15-.46.14-.31.22-.5.2-.38.24-.46a1.26,1.26,0,0,1,.1-.18l.07,0a1.27,1.27,0,0,0,.34,0,.78.78,0,0,0,.34-.09,1.15,1.15,0,0,0,.33-.21,1,1,0,0,0,.26-.43.14.14,0,0,0,0-.15A.53.53,0,0,0,77.94,13.57Zm-.34.53a.82.82,0,0,1-.48.26l-.24,0a4.4,4.4,0,0,1,.39-.52l.14-.16a.29.29,0,0,1,.16,0c.07,0,.1.06.11.15A.27.27,0,0,1,77.6,14.1Z"/><path class="cls-1" d="M82.36,13.23s-.07.07-.11.13a7,7,0,0,1-.71,1.09c0-.06-.09-.14-.12-.18a.58.58,0,0,1-.09-.26,2.45,2.45,0,0,1,0-.27.29.29,0,0,0-.08-.22v0a.08.08,0,0,0-.12,0c-.06.05,0,.17-.06.24A.9.9,0,0,0,81,14a.71.71,0,0,0,0,.2.25.25,0,0,0,.08.15.53.53,0,0,0,.15.11.42.42,0,0,0,.2,0l-.19.22a18,18,0,0,1-2,1.71c-.27.21-.25.28,0,.35s.36.09,1.2-.64a7.33,7.33,0,0,0,1.83-2.38C82.44,13.49,82.44,13.28,82.36,13.23Z"/><path class="cls-1" d="M74.62,13.52c-.09-.22-.49.08-.58.15s-.52.53-.31.85c0,0,0,.09.09.11a.35.35,0,0,0,.28,0,.7.7,0,0,0,.32-.06.59.59,0,0,0,.31-.33,1.13,1.13,0,0,1,.08-.24l0-.1a1.23,1.23,0,0,0,0-.19C74.81,13.67,74.74,13.43,74.62,13.52Zm-.08.42V14c0,.17-.15.35-.35.31a.12.12,0,0,1-.09-.17c0-.09.12-.13.21-.17a.69.69,0,0,0,.19-.19.25.25,0,0,1,0,.07A.34.34,0,0,1,74.54,13.94Z"/><path class="cls-1" d="M74.93,9a.77.77,0,0,0-.34-.07,1,1,0,0,0-.31.08,2.33,2.33,0,0,0-.45.36.78.78,0,0,1-.36.19A1.74,1.74,0,0,1,73.65,9a4.43,4.43,0,0,1,.2-.45L74,8.34c.27-.16.53-.3.82-.45a2.76,2.76,0,0,1,.43-.2c.14-.05.29-.13.44-.18L76,7.38c.31-.1.5-.13.74-.2A4.72,4.72,0,0,1,77.41,7L77.79,7c.08,0,.61,0,.56-.08s-.42-.12-.5-.12c-.27,0-.58,0-.8,0A6.42,6.42,0,0,0,75.91,7a8,8,0,0,0-1.24.44l-.2.08c.07-.16,0-.21-.19-.26h0c-.13,0-.27.08-.34.19s-.11.17-.16.27a.54.54,0,0,0-.07.13L73.42,8a2.3,2.3,0,0,0-.51.35c-.09.1-.26.27-.25.43s0,.17.17.19.17-.08.25-.14.18-.13.28-.18h0a.81.81,0,0,1-.06.13c0,.12-.06.18-.1.3s-.14.27-.12.48c0,.43.52.51.9.2.08-.06.08-.13.17-.19s.23-.09.29,0-.07.46-.13.6a3.67,3.67,0,0,1-.45.69c-.1.12,0,.31.29.28s.35-.27.42-.38a3.29,3.29,0,0,0,.37-.69,3.92,3.92,0,0,0,.15-.59C75.12,9.36,75.13,9.06,74.93,9Z"/><path class="cls-1" d="M72.68,11.52c-.06.11,0,.32.2.27s.43-.45,0-.47l0,.09C72.88,11.29,72.7,11.49,72.68,11.52Z"/><polygon class="cls-1" points="72.67 8.58 72.66 8.53 72.65 8.5 72.67 8.58"/><path class="cls-1" d="M100.48,15.93c-1.08-.89-2.24.06-2.94.61-.36.28-.55.2-.67.06s-.27-.41-.6-.44c-.83-.08-1,.65-1.58,1.48a2.84,2.84,0,0,1-3.67.87,3.57,3.57,0,0,1-1.47-1.72c4-.34,7-1.66,7.5-5.07s-3.39-4.46-6.12-3.07a5.6,5.6,0,0,0-2.7,6.26c.19-.06.53-.13.78-.21,0-2.41.9-3.31,2.07-3.74,1.88-.69,3.21.59,2.32,1.94C92,15,88.09,15.54,85.42,16c-2,.35-5.49.68-7.5,2.87.71-.45,1.48-.82,4.91-1.32s3.86-.34,5.94-.64c.71,1.92,2.68,5.48,7.81,4.49,3.31-.64,4.39-2.39,4.49-3.76A2.1,2.1,0,0,0,100.48,15.93Z"/><path class="cls-1" d="M115.61,14a5.62,5.62,0,0,1-.49-1.5,8.93,8.93,0,0,1-.18-1.8V9.53h-1.59v1.26a9.18,9.18,0,0,1-.15,1.67,4.9,4.9,0,0,1-.45,1.43,6.18,6.18,0,0,1-1,1.43,9.55,9.55,0,0,1-1.49,1.34l1,1A9.85,9.85,0,0,0,112,17a12,12,0,0,0,.89-.86,8.44,8.44,0,0,0,.7-.79,8.08,8.08,0,0,0,.5-.73.05.05,0,0,1,.06,0,.06.06,0,0,1,.06,0,5.74,5.74,0,0,0,.53.79,10.89,10.89,0,0,0,.73.81c.26.25.53.48.81.71a6.14,6.14,0,0,0,.72.51l.88-1a8,8,0,0,1-1.35-1.12A5.09,5.09,0,0,1,115.61,14Z"/><path class="cls-1" d="M120.38,12.89a.08.08,0,0,1-.07-.07V9H118.8v11.6h1.51V14.25a.07.07,0,0,1,.07-.07h1.75V12.89Z"/><path class="cls-1" d="M132.14,9V20.52h1.51V9Z"/><path class="cls-1" d="M128.27,17.19l-.05,0,0-.05v-.94a.07.07,0,0,1,0-.06,2.74,2.74,0,0,0,1.4-1.06,2.88,2.88,0,0,0,.54-1.72,2.75,2.75,0,0,0-.21-1.06,2.88,2.88,0,0,0-.58-.87l0-.05v0a.05.05,0,0,1,.06,0h1.24V10h-2.47a.08.08,0,0,1-.07-.07V8.54h-1.58V10a.08.08,0,0,1-.07.07h-2.63V11.3h1.31a.05.05,0,0,1,.06,0v0l0,.05a3,3,0,0,0-.56.87,2.75,2.75,0,0,0-.21,1.06,3,3,0,0,0,.59,1.82,2.74,2.74,0,0,0,1.54,1,.06.06,0,0,1,0,.06v1a.07.07,0,0,1-.07.06l-.61,0h-2.58v1.27l2.51,0c.94,0,2-.05,3.14-.13s2-.16,2.51-.24V16.92l-1.39.13Zm-2-2.74a1.63,1.63,0,0,1-.47-1.15,1.66,1.66,0,0,1,.47-1.17,1.33,1.33,0,0,1,2.06,0,1.68,1.68,0,0,1,.45,1.17,1.65,1.65,0,0,1-.45,1.15,1.33,1.33,0,0,1-2.06,0Z"/><path class="cls-1" d="M138.76,19h5.54a.07.07,0,0,1,.07.07v2.83h1.54V17.67h-7.15Z"/><path class="cls-1" d="M139.28,14a.08.08,0,0,1,.07,0,.09.09,0,0,1,.06,0,3.24,3.24,0,0,0,.43.56,5.71,5.71,0,0,0,.66.63,5.41,5.41,0,0,0,.83.6,9,9,0,0,0,.84.45l.76-1.06a9.68,9.68,0,0,1-1.07-.69,5.23,5.23,0,0,1-.93-.86,3.83,3.83,0,0,1-.59-1,3.6,3.6,0,0,1-.24-1.29v-.42a.07.07,0,0,1,.06-.07h2.23V9.55h-6.22v1.29h2.23a.07.07,0,0,1,.07.07v.45a3.88,3.88,0,0,1-.23,1.27,5,5,0,0,1-.57,1.11,5.7,5.7,0,0,1-1,1.07,6.71,6.71,0,0,1-1.1.75l1,1c.26-.16.54-.34.83-.56a8.3,8.3,0,0,0,.91-.79c.28-.29.49-.54.64-.73A2.65,2.65,0,0,0,139.28,14Z"/><path class="cls-1" d="M144.45,8.94v3a.07.07,0,0,1-.07.07H142v1.3h2.37a.07.07,0,0,1,.07.07v3.46H146V8.94Z"/><path class="cls-1" d="M156.51,9V20.57h1.54V9Z"/><path class="cls-1" d="M148.89,11.05h3.8l.06,0v0h0a4.87,4.87,0,0,1-.51,1.72,6.67,6.67,0,0,1-1.11,1.55,9.22,9.22,0,0,1-1.49,1.28,9.51,9.51,0,0,1-1.59.91l1,1a11,11,0,0,0,2.2-1.35A8.43,8.43,0,0,0,153,14.45a8.53,8.53,0,0,0,1.08-2.18,9.31,9.31,0,0,0,.45-2.54h-5.61Z"/><path class="cls-1" d="M165.4,14.89a3.42,3.42,0,0,0,0-4.69,3,3,0,0,0-2.27-1,3,3,0,0,0-2.27,1,3.25,3.25,0,0,0-.93,2.34,3.29,3.29,0,0,0,.93,2.35,3.08,3.08,0,0,0,2.27,1A3,3,0,0,0,165.4,14.89Zm-3.44-1a2.08,2.08,0,0,1-.49-1.38,2,2,0,0,1,.49-1.37,1.49,1.49,0,0,1,2.34,0,2,2,0,0,1,.49,1.37,2,2,0,0,1-.49,1.38,1.5,1.5,0,0,1-2.34,0Z"/><path class="cls-1" d="M168.41,17.94a.07.07,0,0,1-.07.07h-3.72a.08.08,0,0,1-.07-.07V16.81H163v4.77H170V16.81h-1.54Zm0,2.29a.07.07,0,0,1-.07.07h-3.72a.08.08,0,0,1-.07-.07v-.9a.08.08,0,0,1,.07-.07h3.72a.07.07,0,0,1,.07.07Z"/><path class="cls-1" d="M168.55,8.94v2.84a.07.07,0,0,1-.07.07h-1.59v1.33h1.59a.07.07,0,0,1,.07.07v3h1.53V8.94Z"/></g></g></svg>